<svg width="147" height="378" viewBox="0 0 147 378" fill="none" xmlns="http://www.w3.org/2000/svg">
<path d="M46.5534 264.357H27.932L0 411H77.4782L46.5534 264.357Z" fill="url(#paint0_linear_333_9526)"/>
<path d="M115.718 264.357H97.0971L69.165 411H146.643L115.718 264.357Z" fill="url(#paint1_linear_333_9526)"/>
<path d="M67.8982 1.63463C68.4446 1.25903 69.5372 0.712696 70.2884 0.405384C71.0396 0.0980723 72.0299 -0.0726565 72.5079 0.0297808C72.986 0.132218 74.1128 0.541967 75.0689 0.985862C76.0591 1.42976 77.7664 2.7273 79.2005 4.09313C80.5322 5.42481 82.6151 8.01989 83.8785 9.89791C85.1077 11.7759 87.1223 15.3271 88.3516 17.7514C89.5467 20.2099 91.0832 23.7269 91.732 25.605C92.3808 27.483 93.3368 30.7951 94.8393 36.8731L95.0441 98.5061L95.0451 98.8483C95.2149 159.32 95.2152 159.435 95.3856 75.287L96.5465 72.4871C97.1612 70.9164 98.766 67.1262 100.064 64.0189C101.361 60.9117 102.624 57.7703 102.864 57.0191C103.103 56.2678 103.683 54.902 104.195 53.9459C104.912 52.6143 105.322 52.2045 106.039 52.1704C106.585 52.1021 107.302 52.2386 107.678 52.4094C108.054 52.6143 108.737 53.5703 109.18 54.5606C109.624 55.5166 110.273 57.3264 110.58 58.5556C110.922 59.7849 111.468 61.3897 111.81 62.1409C112.151 62.8921 113.517 66.0677 114.849 69.2432C116.146 72.3846 117.205 75.1505 117.205 75.3895C117.171 75.5943 117.171 77.1309 117.239 81.7747H119.629V83.9942C119.629 85.5649 119.492 86.282 119.151 86.4527C118.741 86.6917 118.639 94.2721 118.468 191.553L124.375 197.529C127.619 200.807 130.692 204.051 131.239 204.699C131.785 205.348 132.741 207.056 133.39 208.456C134.073 209.855 134.995 212.382 135.473 214.09C135.951 215.797 136.326 217.709 136.292 218.358C136.292 219.007 136.395 220.611 136.531 221.943C136.736 223.753 136.702 224.606 136.326 225.494C136.053 226.143 135.473 226.928 134.995 227.27C134.38 227.68 132.946 227.953 130.044 228.226C127.79 228.397 124.341 228.67 122.361 228.772C120.38 228.875 118.366 229.045 117.819 229.148C117.205 229.25 116.966 229.455 117.068 229.797C117.171 230.07 117.102 230.514 116.897 230.753C116.727 230.958 116.59 232.153 116.59 233.382C116.59 234.611 116.556 235.977 116.556 236.455C116.522 236.933 116.522 237.992 116.556 238.845V238.846C116.556 239.7 116.556 241.167 116.522 242.089C116.522 243.045 116.488 244.172 116.522 244.65C116.522 245.128 117.136 246.289 117.853 247.211C118.571 248.167 119.492 249.908 119.902 251.138C120.346 252.367 120.79 254.313 120.927 255.508C121.131 257.25 121.063 257.728 120.653 257.967C120.38 258.138 119.014 258.308 117.649 258.308C116.317 258.308 115.19 258.411 115.19 258.581C115.19 258.718 115.634 259.981 116.214 261.381C116.761 262.781 117.205 264.284 117.239 265.479H106.141C97.5709 265.479 95.01 265.376 94.8734 265.069C94.771 264.83 95.1466 263.328 95.727 261.723L95.7755 261.581C96.3013 260.036 96.7514 258.714 96.7514 258.581C96.7514 258.411 95.3514 258.308 90.6052 258.308V257.045C90.6052 256.328 90.8442 254.86 91.1174 253.801C91.3905 252.708 92.0393 251.104 92.5173 250.216C92.9954 249.294 93.849 247.826 94.3954 246.869C95.3173 245.299 95.3856 244.957 95.249 242.601C95.1466 241.201 95.0783 239.767 95.0441 239.46V236.796V234.338C95.0441 234.099 95.1124 233.348 95.2149 232.699C95.3514 231.914 95.2831 231.333 94.9758 231.06C94.7368 230.821 94.1563 230.65 92.9271 230.821L92.9954 243.626H89.5808C86.2004 243.626 86.1662 243.626 86.3711 244.411C86.4735 244.821 86.7126 246.221 86.9516 247.484C87.3613 249.806 87.3613 249.84 86.5077 250.455C86.0296 250.796 84.7321 251.24 83.6053 251.411C82.4785 251.582 80.02 251.684 78.142 251.616L78.0139 251.611C76.1778 251.544 74.3417 251.478 73.9079 251.411C73.1225 251.308 73.0543 251.445 72.6786 253.699C72.4738 255.03 72.1665 256.294 72.064 256.533C71.9274 256.738 71.6201 256.943 71.3811 256.943C71.1762 256.977 70.7323 256.703 70.3909 256.362C70.0836 256.021 69.708 254.996 69.5714 254.04C69.4348 253.118 69.3324 252.06 69.3665 251.752C69.4007 251.411 69.3324 251.138 69.1616 251.138C69.0251 251.138 68.4446 251.343 67.8982 251.65C67.147 252.025 65.9519 252.162 63.4593 252.128C61.5813 252.094 59.0545 251.855 57.8252 251.616C56.596 251.343 55.3667 250.899 55.0936 250.626C54.6497 250.182 54.6497 249.772 54.9911 247.962C55.196 246.801 55.4692 245.435 55.7765 243.967L49.1181 243.796V237.309C49.1181 231.709 49.0498 230.821 48.6059 230.923C48.3327 230.992 47.9571 231.231 47.8205 231.436C47.6839 231.675 47.6498 232.392 47.7522 233.04C47.8547 233.689 47.923 234.406 47.923 234.577C47.8888 234.748 47.8205 235.772 47.7181 236.796C47.6157 237.821 47.6839 238.845 47.8547 239.016C48.0254 239.187 48.0596 239.665 47.8888 240.04C47.7522 240.416 47.6157 241.782 47.5815 243.113C47.5474 245.299 47.6498 245.606 48.5717 246.699C49.1522 247.348 50.0059 248.679 50.4839 249.601C50.9278 250.557 51.5766 252.469 51.8497 253.869C52.157 255.269 52.3619 256.806 52.2936 257.284C52.1912 258.103 52.0546 258.138 49.3912 258.308C47.8547 258.411 46.523 258.581 46.4206 258.752C46.3181 258.889 46.7962 260.289 47.4791 261.894C48.5376 264.284 48.7083 264.898 48.3327 265.24C48.0254 265.547 45.0206 265.684 37.1671 265.752C27.1965 265.82 26.377 265.786 26.1721 265.24C26.0355 264.864 26.3087 263.601 26.8209 262.235L26.8215 262.233C27.2993 260.902 27.777 259.572 27.9136 259.264C28.0843 258.718 27.8111 258.65 21.8015 258.479L21.8698 256.533C21.938 255.44 22.2795 253.596 22.6893 252.435C23.0649 251.24 24.0551 249.362 26.2404 246.187L26.3428 241.918C26.4111 239.562 26.4453 237.343 26.4453 236.967C26.4453 236.592 26.377 234.987 26.2746 233.382C26.138 231.777 26.0355 230.172 26.0355 229.797C26.0014 229.148 25.5233 229.08 8.48461 227.884L7.52853 226.894C7.01635 226.314 6.6066 225.563 6.6066 225.187C6.6066 224.811 6.57245 224.163 6.50416 223.753C6.43587 223.309 6.5383 222.421 6.67489 221.772C6.81147 221.124 6.9822 219.519 7.08464 218.187C7.18707 216.855 7.66511 214.499 8.14316 212.894C8.6212 211.29 9.54313 208.831 10.226 207.431C11.3529 205.178 12.2406 204.085 24.7038 191.553V138.901C24.7038 92.2916 24.6356 86.2137 24.1917 86.2137C23.7819 86.2137 23.6795 85.7356 23.6795 83.8235C23.6795 82.1503 23.8161 81.4333 24.0892 81.3991C24.3282 81.365 24.8404 81.3308 25.216 81.2967C25.8307 81.2625 25.899 80.9552 26.0697 78.0187C26.2063 75.4919 26.4794 74.2627 27.1965 72.5554C27.7087 71.3261 28.2892 70.0286 28.4599 69.653C28.6306 69.2774 29.0745 68.2872 29.416 67.4335C29.7916 66.5799 30.7135 64.3945 31.4989 62.5848C32.2501 60.7409 32.8988 59.1361 32.8988 58.9995C32.8988 58.8288 33.2403 57.8727 33.6842 56.8483C34.0939 55.824 34.7768 54.3898 35.2207 53.7069C35.8354 52.6484 36.1768 52.4094 36.9963 52.4094C37.5768 52.4094 38.2939 52.6825 38.6012 53.024C38.9085 53.3313 39.5231 54.3898 39.9329 55.3118C40.3768 56.2678 40.9572 57.8727 41.2304 58.8971C41.5036 59.9214 42.6304 62.9263 43.7572 65.5555C44.8498 68.1847 46.2157 71.3944 47.7522 75.1163L47.923 56.6776C48.0937 40.5949 48.1961 37.8974 48.7425 35.5072C49.0839 34.0048 49.801 31.239 50.3132 29.361C50.8595 27.483 51.5424 25.3318 51.8497 24.5806C52.1912 23.8294 52.9424 22.1221 53.557 20.8245C54.1716 19.527 55.5716 16.8978 56.6301 15.0198C57.7228 13.1418 59.635 10.2394 60.8984 8.53207C62.1618 6.82479 64.0056 4.7419 65.03 3.88825C66.0544 3.03461 67.3519 2.01023 67.8982 1.63463Z" fill="#464646"/>
<path fill-rule="evenodd" clip-rule="evenodd" d="M71.757 1.53223C72.1667 1.53223 72.8155 1.87368 73.1911 2.31758C73.5667 2.72733 74.4203 4.1273 75.035 5.45899C75.6837 6.79067 76.6057 9.31746 77.0837 11.093C77.5617 12.8686 78.1764 15.771 78.4495 17.5124C78.7568 19.2197 78.9959 20.8587 78.9959 21.0636C78.9959 21.4051 77.391 21.5075 72.0643 21.5075C68.2741 21.5075 63.562 21.6441 61.5815 21.7807C59.6011 21.9514 57.2109 22.1904 56.2889 22.3611C55.3328 22.566 54.5475 22.6685 54.4792 22.6002C54.4451 22.566 54.889 21.4392 55.5377 20.1417C56.1523 18.8441 57.5182 16.2832 58.5767 14.5076C59.6694 12.732 61.5132 10.0345 62.7083 8.53211C63.9034 7.02969 65.5766 5.25411 66.3961 4.5712C67.2156 3.88828 68.5814 2.89806 69.435 2.42002C70.2887 1.94198 71.3131 1.53223 71.7228 1.53223L71.757 1.53223ZM74.9325 2.5566C75.1032 2.5566 75.991 3.13708 76.8788 3.85414C77.8008 4.5712 79.1666 5.93703 79.9178 6.85897C80.7031 7.7809 82.0348 9.59063 82.9226 10.9223C83.8104 12.254 85.586 15.4296 86.9177 18.0246C88.2152 20.5856 89.2396 22.7709 89.1713 22.8392C89.1371 22.9416 88.4884 22.8733 87.7372 22.7026C86.986 22.5319 85.586 22.327 84.6641 22.1904C83.708 22.088 82.2738 21.9172 79.8837 21.6441L79.4056 18.6734C79.1666 17.0344 78.6544 14.4735 78.3129 12.9711C77.9715 11.4686 77.3569 9.24917 76.9471 8.01992C76.5715 6.79067 75.8544 5.11753 75.4106 4.26389C74.9325 3.41024 74.5911 2.69318 74.5911 2.62489C74.5911 2.59075 74.7276 2.5566 74.9325 2.5566ZM73.8057 22.6343C77.63 22.6685 79.0641 22.805 79.1666 23.1123C79.269 23.3514 79.4398 24.4782 79.5422 25.605C79.6446 26.7318 79.8154 34.9609 79.9178 43.873C80.0202 52.785 80.0202 60.5361 79.7129 62.141L70.7667 62.2092C65.8156 62.2434 59.8742 62.4141 57.5182 62.6531C55.1621 62.858 52.6353 63.1653 51.8841 63.3361C51.1329 63.5068 50.2451 63.7117 49.9037 63.8141C49.3573 64.019 49.3232 63.3361 49.3232 52.8533C49.3232 46.6729 49.4939 40.356 49.6646 38.7511C49.8695 37.1463 50.3476 34.6195 50.7232 33.1171C51.1329 31.6146 51.7817 29.2244 52.2597 27.8245C52.7036 26.4245 53.3182 25.0245 53.6597 24.7172C54.0012 24.4099 54.8207 24.0001 55.4694 23.7953C56.1182 23.5904 57.3474 23.3172 58.2011 23.1806C59.0547 23.0441 61.7523 22.8392 64.1766 22.7367C66.6009 22.6343 70.9716 22.566 73.8057 22.6002V22.6343ZM80.0202 23.0782H81.7275C82.6836 23.0782 84.6641 23.2489 86.0982 23.488C87.9079 23.7611 89.0006 24.1367 89.4786 24.6148C89.8884 24.9904 90.503 26.2879 90.9127 27.5172C91.3225 28.7464 91.9371 30.9659 92.3127 32.4683C92.6883 33.9707 93.2005 36.4975 93.4395 38.1023C93.7468 40.1511 93.8493 44.3169 93.6785 63.8824L92.0737 63.5068C91.1859 63.2678 88.2835 62.8922 80.8056 62.1751L80.6349 45.1022C80.5324 35.7121 80.3617 26.9025 80.2592 25.5367L80.0202 23.0782ZM106.586 53.4679C106.825 53.4679 107.234 53.8435 107.508 54.2533C107.747 54.663 108.293 56.0289 108.703 57.224C109.078 58.4532 109.386 59.4776 109.317 59.5117C109.283 59.5117 107.986 59.6142 106.415 59.6825C104.708 59.7508 103.615 59.6825 103.615 59.4434C103.615 59.2727 103.922 58.2825 104.332 57.224C104.708 56.1996 105.288 54.9362 105.595 54.424C105.869 53.9118 106.312 53.4679 106.586 53.4679ZM37.2014 53.8435C37.3722 53.8435 37.7819 54.185 38.0892 54.5947C38.3965 55.0386 38.9087 56.1996 39.2502 57.224C39.5916 58.2825 39.899 59.3069 39.9673 59.5459C40.0697 59.8532 39.3526 59.9556 37.2014 59.9556C35.4942 59.9556 34.2991 59.819 34.2991 59.6142C34.2991 59.4434 34.6405 58.4191 35.0161 57.3264C35.4259 56.2337 36.0063 55.0386 36.3137 54.5947C36.621 54.185 36.9966 53.8435 37.2014 53.8435ZM106.859 60.3654C107.815 60.3312 108.839 60.502 109.249 60.7751C109.625 61.0483 110.205 61.8336 110.512 62.5849C110.82 63.3019 112.015 66.0677 113.107 68.6628C114.2 71.292 115.259 73.853 115.395 74.2969C115.566 74.8432 115.566 75.0822 115.361 74.9456C115.19 74.809 113.961 74.6042 112.664 74.4676C111.332 74.331 108.566 74.2286 106.517 74.2286C104.434 74.2286 101.566 74.331 100.098 74.4334C98.4248 74.57 97.4687 74.5359 97.4687 74.2969C97.4687 74.1261 98.1516 72.3164 99.0053 70.3018C99.8589 68.2872 101.054 65.4872 101.634 64.0531C102.215 62.6531 102.864 61.3215 103.034 61.1166C103.205 60.8776 103.752 60.6385 104.23 60.5703C104.742 60.4678 105.903 60.3995 106.859 60.3654ZM37.1332 60.6727C38.4648 60.6727 39.7282 60.7751 39.9331 60.9117C40.1038 61.0483 40.4453 61.5605 40.6843 62.0044C40.8892 62.4824 41.4014 63.5751 41.7428 64.3946C42.1184 65.2482 43.2111 67.8433 44.1672 70.1311C45.1233 72.4188 45.9086 74.3993 45.9086 74.4676C45.9086 74.57 44.9525 74.5359 43.7574 74.3993C42.5965 74.2627 39.4892 74.1261 36.86 74.1261C34.2308 74.1261 31.1918 74.2627 30.0991 74.3993C29.0406 74.5359 28.1528 74.57 28.1528 74.4676C28.1528 74.3993 28.904 72.5213 29.7918 70.3018C30.7138 68.0823 31.8406 65.3848 32.2845 64.2921C32.7284 63.1995 33.4454 61.9361 33.8893 61.4922C34.5722 60.741 34.9478 60.6727 37.1332 60.6727ZM71.5179 62.7897C74.2496 62.7556 77.2203 62.858 79.8837 63.1995V73.0335C79.8837 78.4285 79.8154 82.8674 79.7129 82.8674C79.6105 82.8674 79.269 82.4235 78.9617 81.9114C78.6544 81.3992 77.8008 80.3065 77.0837 79.4529C76.3666 78.6334 75.1715 77.5065 74.4203 76.9602C73.4642 76.2773 72.6447 76.0041 71.6887 76.0041C70.7667 76.0041 69.9472 76.2773 69.1277 76.8919C68.479 77.37 67.4546 78.326 66.8741 79.0431C66.2936 79.726 65.1668 81.2967 64.3473 82.4918C63.562 83.7211 62.0937 86.4186 61.1035 88.4673C60.0791 90.5502 58.9523 93.3843 58.5767 94.7843C58.2011 96.2184 57.484 99.5306 57.006 102.126C56.528 104.755 55.9816 109.228 55.8109 112.028C55.6402 114.862 55.3328 118.003 55.128 119.028C54.9572 120.086 54.4109 123.296 53.9329 126.198C53.489 129.135 52.7719 133.506 52.3963 135.93C51.9866 138.388 51.611 140.779 51.5427 141.223C51.4744 141.701 50.9963 144.637 50.5183 147.71C50.0403 150.818 49.5622 153.515 49.4939 153.686C49.4256 153.891 49.3573 134.018 49.3232 65.1116L50.4159 64.5994C51.0305 64.3604 52.7719 63.9507 54.2743 63.7458C55.7767 63.5068 59.1572 63.1995 61.7864 63.0629C64.4156 62.9605 68.7863 62.8239 71.5179 62.7897ZM80.3275 63.0287L81.4885 63.0629C82.1031 63.0629 84.2885 63.1995 86.3713 63.4044C88.4201 63.5751 90.9127 63.9848 91.903 64.258C92.8932 64.5312 93.7127 64.9068 93.7127 65.0775C93.7127 65.2824 93.7127 67.5018 93.7127 70.0286C93.7127 72.5896 93.7127 92.1209 93.7127 113.496C93.7127 134.871 93.6444 152.252 93.5761 152.149C93.5078 152.081 92.7907 148.222 92.0395 143.613C91.2542 139.037 90.5713 134.94 90.503 134.564C90.4347 134.189 90.2981 133.369 90.1615 132.686C90.0591 132.037 89.8884 130.979 89.7859 130.296C89.6835 129.647 89.5128 128.725 89.4445 128.247C89.342 127.803 89.2054 126.881 89.103 126.198C88.9664 125.55 88.5908 123.33 88.2152 121.247C87.8396 119.199 87.3957 114.657 87.225 111.174C87.0543 107.726 86.6786 103.423 86.4055 101.613C86.0982 99.8379 85.7909 97.994 85.6884 97.516C85.6201 97.0721 85.1421 95.5014 84.6641 94.0331C84.186 92.5648 83.0933 89.9015 80.669 84.7113L80.3275 63.0287ZM35.2893 75.0481C36.8941 75.0139 39.899 75.1163 41.9477 75.3554C44.0306 75.5602 45.9769 75.8676 46.3184 76.0383C46.8647 76.3456 46.8988 77.0968 46.8988 93.077L44.0989 92.838C42.5282 92.7014 39.0453 92.5648 36.3137 92.5648C33.582 92.5648 30.4406 92.6673 27.265 92.9063V84.7796C27.265 80.3065 27.3675 76.448 27.5041 76.2432C27.6406 76.0383 28.8016 75.6968 30.065 75.492C31.3284 75.3212 33.6844 75.1163 35.2893 75.0481ZM107.337 75.1846C109.112 75.2188 111.571 75.3554 112.8 75.492C114.029 75.6285 115.225 75.9358 115.464 76.1407C115.805 76.448 115.907 78.4626 115.873 93.2477L114.507 93.0087C113.756 92.8721 111.195 92.6673 108.805 92.5648C106.381 92.4283 102.898 92.4965 101.02 92.7014C99.1419 92.8721 97.3321 93.1112 97.0248 93.2477C96.4443 93.4185 96.4102 92.8721 96.376 76.5163L97.3321 76.1066C97.8785 75.8676 99.5858 75.5602 101.191 75.4237C102.795 75.2529 105.561 75.1505 107.337 75.1846ZM71.5521 77.0285C71.6887 77.0285 72.235 77.2675 72.7813 77.5066C73.2935 77.7797 73.9423 78.2578 74.2155 78.5651C74.6935 79.0773 74.4886 79.1114 71.6887 79.1114C69.9814 79.1114 68.7521 78.9748 68.957 78.8041C69.1277 78.6675 69.7082 78.1895 70.2545 77.7797C70.8009 77.37 71.3814 77.0285 71.5521 77.0285ZM70.9033 80.8187C72.8155 80.8187 74.9325 80.887 75.5813 80.9894C76.6398 81.1601 76.9813 81.5016 78.4154 83.8235C79.3032 85.2576 80.6349 87.8869 81.3861 89.6624C82.1714 91.4722 82.7177 92.9404 82.6836 92.9746C82.6153 93.0087 81.9665 92.9063 81.2153 92.7356C80.4641 92.599 77.391 92.36 74.3862 92.2234C71.2789 92.0868 67.1473 92.1551 64.8254 92.36C62.5717 92.5648 60.6937 92.7014 60.6937 92.6673C60.6596 92.599 61.3084 91.1307 62.162 89.321C63.0156 87.5454 63.7668 86.0089 63.8351 85.9064C63.9034 85.8381 64.0742 85.8381 64.1766 85.9064C64.279 86.0089 63.9376 87.1015 63.4595 88.2966C62.9815 89.5259 62.6742 90.6185 62.7766 90.6868C62.8791 90.7893 63.4595 90.6527 64.0742 90.3454C64.9278 89.9698 66.6009 89.8332 71.6545 89.8332C76.7081 89.8332 78.3812 89.9698 79.269 90.3454C79.8837 90.6527 80.4641 90.7893 80.5324 90.6868C80.6349 90.6185 80.3275 89.4576 79.8154 88.1259C79.3032 86.8283 78.7227 85.5308 78.5178 85.2918C78.2788 84.9503 77.5959 84.8479 76.4008 84.9503C75.4447 85.0186 74.3862 85.2918 74.0447 85.5649C73.6691 85.9064 72.713 86.1113 71.5179 86.1113C70.3911 86.1113 69.4692 85.9064 69.2643 85.6674C69.0936 85.4284 67.9668 85.1211 66.7717 84.9845C65.6107 84.8479 64.6546 84.6772 64.6546 84.643C64.6546 84.6089 65.0302 83.9942 65.44 83.2772C65.8839 82.5601 66.5327 81.7406 66.84 81.3992C67.318 80.9211 68.0692 80.8187 70.9033 80.8187ZM25.2163 82.1504C26.0016 82.1504 26.0699 82.287 26.0699 83.8577C26.0699 85.4625 26.0016 85.5649 25.2163 85.5649C24.4309 85.5649 24.3626 85.4625 24.3626 83.8577C24.3626 82.287 24.4309 82.1504 25.2163 82.1504ZM118.093 82.1504C118.878 82.1504 118.946 82.287 118.946 83.8577C118.946 84.9503 118.776 85.6332 118.537 85.7015C118.298 85.7698 117.888 85.7698 117.683 85.7015C117.41 85.6332 117.239 84.9503 117.239 83.8577C117.239 82.287 117.307 82.1504 118.093 82.1504ZM67.0107 85.7015C67.8643 85.804 68.6155 86.0771 68.6497 86.2479C68.6838 86.4527 69.8448 86.6235 71.3814 86.6235C73.1569 86.6235 74.1813 86.4869 74.4545 86.1796C74.6593 85.9406 75.5471 85.7015 76.4008 85.6674C77.9373 85.5991 77.9715 85.5991 78.6544 87.0332C79.03 87.8186 79.3373 88.7405 79.3373 89.082C79.3373 89.4917 79.1666 89.6283 78.7568 89.4576C78.4154 89.321 75.752 89.1844 72.8496 89.082C69.9472 89.0137 66.7375 89.0478 65.7473 89.2185C64.0742 89.4917 63.9717 89.4576 64.1083 88.8088C64.2107 88.4332 64.5522 87.5454 64.8595 86.8283C65.4058 85.5308 65.44 85.5308 67.0107 85.7015ZM25.7285 86.2479C25.9333 86.2479 26.0699 87.682 26.0699 89.8332C26.0699 92.0185 25.9333 93.4185 25.7285 93.4185C25.5236 93.4185 25.387 92.0185 25.387 89.8332C25.387 87.682 25.5236 86.2479 25.7285 86.2479ZM117.581 86.5893C117.785 86.5893 117.922 87.9552 117.922 90.0039C117.922 92.0527 117.785 93.4185 117.581 93.4185C117.376 93.4185 117.239 92.0527 117.239 90.0039C117.239 87.9552 117.376 86.5893 117.581 86.5893ZM70.6301 92.8038C72.8838 92.7697 76.4349 92.9063 78.4837 93.1112C80.5666 93.316 82.5129 93.6234 82.8543 93.7941C83.2299 93.999 83.6397 95.0916 84.0836 97.1062C84.4592 98.7452 84.9372 101.17 85.1421 102.467C85.347 103.799 85.6201 107.008 85.9957 114.316L84.6299 114.077C83.8787 113.974 81.4885 113.735 79.3373 113.599C77.1861 113.428 72.6447 113.394 69.2643 113.462C65.8839 113.564 62.1279 113.769 60.8986 113.94C59.6694 114.111 58.3035 114.35 57.8255 114.452C56.9718 114.623 56.9718 114.589 57.0743 112.472C57.1084 111.311 57.3133 109.091 57.5182 107.589C57.6889 106.087 58.1669 103.252 58.5425 101.272C58.9523 99.3257 59.4645 96.8672 59.7377 95.8087C60.0108 94.7843 60.3523 93.8282 60.4889 93.6916C60.6254 93.5551 62.0254 93.2819 63.6303 93.1453C65.2351 92.9746 68.3765 92.838 70.6301 92.8038ZM37.8502 93.5892C41.6063 93.6575 45.1916 93.8624 46.8988 94.4428V129.784L45.0891 129.579C44.133 129.476 40.616 129.374 37.338 129.374C34.06 129.374 30.4747 129.476 29.4162 129.579C27.6748 129.784 27.4699 129.75 27.3333 129.101C27.265 128.725 27.2309 120.803 27.2309 111.482C27.265 102.16 27.4016 94.3746 27.5382 94.238C27.7089 94.0672 28.5626 93.8282 29.4162 93.7258C30.304 93.5892 34.0942 93.5209 37.8502 93.5892ZM107.678 93.6234C110.786 93.6916 113.859 93.8624 115.703 94.3063L115.873 129.442H96.4102V112.199C96.3761 98.5403 96.4785 94.8867 96.8199 94.5453C97.059 94.3063 98.3565 93.9648 99.654 93.7941C100.986 93.6234 104.571 93.5551 107.678 93.6234ZM25.7285 94.4428C25.9675 94.4428 26.0699 95.5355 26.0016 97.3794C25.9333 99.0184 25.7968 100.384 25.6602 100.453C25.4895 100.555 25.387 99.2233 25.387 97.516C25.387 95.638 25.5236 94.4428 25.7285 94.4428ZM25.626 101.75C25.7968 101.887 25.8992 103.15 25.8992 104.516C25.8992 105.916 25.7968 107.179 25.626 107.316C25.4895 107.487 25.387 106.223 25.387 104.516C25.387 102.843 25.4895 101.579 25.626 101.75ZM25.626 108.579C25.7968 108.716 25.8651 110.116 25.7968 111.652C25.7285 113.189 25.626 114.521 25.5236 114.589C25.4553 114.691 25.387 113.325 25.387 111.516C25.387 109.74 25.4895 108.408 25.626 108.579ZM74.2155 114.794C78.0739 114.862 82.1373 115.067 83.2641 115.272C84.3909 115.477 85.5518 115.852 85.825 116.16C86.2689 116.603 86.3713 118.413 86.5762 137.296L85.7909 137.057C85.347 136.92 83.6055 136.545 81.8982 136.237C79.7129 135.828 76.8105 135.691 71.6545 135.691C66.5327 135.691 63.6303 135.828 61.4108 136.237C59.7376 136.545 57.9962 136.886 56.8011 137.125V116.638L57.5865 116.16C57.9962 115.921 58.884 115.579 59.5328 115.442C60.1815 115.306 62.1961 115.101 63.9717 114.964C65.7473 114.794 70.357 114.76 74.2155 114.794ZM25.6602 115.613C25.7968 115.613 25.8651 116.603 25.7968 117.764C25.7626 118.925 25.6602 120.359 25.5919 120.906C25.5577 121.486 25.4895 120.53 25.4553 118.789C25.4212 117.047 25.4895 115.613 25.6602 115.613ZM25.626 124.32C25.6943 125.276 25.6943 126.642 25.626 127.394C25.5577 128.145 25.5236 127.394 25.5236 125.686C25.5236 124.013 25.5577 123.398 25.626 124.32ZM55.5036 126.881C55.6402 126.881 55.7767 132.652 55.7767 152.491H54.4109C53.6256 152.491 52.9768 152.696 52.8744 152.935C52.8061 153.174 52.4987 154.983 52.2256 156.93C51.8158 159.695 51.1329 162.12 46.7964 174.173L15.553 205.587L13.436 209.856C11.8311 213.168 11.4555 214.192 11.797 214.397C12.036 214.568 21.2554 214.636 32.3186 214.568C45.533 214.499 52.3622 214.602 52.3622 214.807C52.3622 215.012 52.089 216.104 51.7475 217.197C51.1671 219.109 51.0646 219.28 50.1085 219.314C49.5622 219.314 48.1281 219.211 46.8988 219.075C45.6696 218.938 40.9233 218.699 36.3137 218.597C31.704 218.494 23.5773 218.255 18.2164 218.051C12.8555 217.88 8.45072 217.675 8.45072 217.641C8.41657 217.607 8.65559 216.48 8.99705 215.148C9.33851 213.851 10.0214 211.699 10.5336 210.368C11.0799 209.07 12.0019 207.226 12.5824 206.27C13.197 205.348 16.2018 202.139 19.2749 199.134C22.348 196.129 27.4699 191.144 30.6455 188.036C33.7869 184.929 37.2014 181.446 38.1575 180.319C39.1478 179.227 40.4794 177.519 41.1282 176.563C41.777 175.641 43.0062 173.729 43.894 172.295C44.7477 170.895 45.9769 168.676 46.5574 167.344C47.172 166.047 48.1964 163.656 48.8451 162.051C49.6646 160.037 50.2451 157.647 50.8597 154.027C51.3036 151.227 52.2939 145.081 53.0451 140.369C53.7963 135.691 54.6158 130.74 54.8207 129.374C55.0255 128.008 55.3328 126.881 55.5036 126.881ZM87.9079 128.247C88.0445 128.725 89.2737 135.657 90.6054 143.613C92.0737 152.388 93.3712 159.012 93.8493 160.344C94.2932 161.573 94.9761 163.349 95.3858 164.271C95.7956 165.227 96.376 166.525 96.6834 167.173C96.9907 167.856 98.0833 169.837 99.1077 171.612C100.132 173.422 101.737 175.949 102.727 177.246C103.683 178.578 110.137 185.339 117.034 192.27C123.932 199.236 129.941 205.382 130.351 205.929C130.795 206.509 131.546 207.738 131.99 208.66C132.468 209.617 133.288 211.665 133.766 213.202C134.244 214.738 134.653 216.412 134.653 216.855C134.653 217.675 134.551 217.743 132.195 217.88C130.829 217.982 127.312 218.119 124.41 218.221C121.507 218.324 116.59 218.494 113.483 218.631C110.376 218.733 106.073 218.904 103.922 219.041C101.737 219.177 98.0492 219.246 91.5274 219.246L91.0835 217.368C90.8444 216.343 90.6396 215.319 90.6396 215.08C90.6054 214.738 94.9761 214.636 111.264 214.636C122.634 214.636 131.922 214.534 131.922 214.397C131.922 214.26 131.478 213.202 130.966 212.075C130.419 210.982 129.532 209.104 129.019 207.978C128.166 206.202 126.117 204.051 96.5809 174.856L94.1224 167.856C92.2444 162.495 91.5956 160.105 91.2883 157.613C91.0835 155.837 90.8444 153.959 90.7761 153.447C90.6054 152.593 90.4688 152.491 87.5323 152.491L87.5664 139.959C87.5664 132.14 87.703 127.735 87.9079 128.247ZM25.626 130.979C25.6943 131.832 25.6943 133.301 25.626 134.223C25.5577 135.179 25.5236 134.496 25.5236 132.686C25.5236 130.911 25.5577 130.159 25.626 130.979ZM38.5331 130.467C42.2892 130.535 45.7037 130.706 46.8988 130.979V147.54L38.2941 147.574C33.5479 147.574 29.0748 147.676 27.0943 148.052L27.1967 139.72C27.2309 135.145 27.4016 131.252 27.5723 131.115C27.7089 130.945 28.7333 130.706 29.7918 130.603C30.8503 130.467 34.7771 130.398 38.5331 130.467ZM106.825 130.432C111.332 130.467 115.225 130.603 115.464 130.74C115.771 130.945 115.873 133.062 115.873 148.052L114.098 147.847C113.107 147.71 109.215 147.608 105.459 147.642C101.703 147.642 98.1175 147.744 96.4102 148.052L96.5809 130.842L97.6053 130.603C98.1858 130.467 102.317 130.398 106.825 130.432ZM25.626 138.149C25.6943 139.003 25.6943 140.471 25.626 141.393C25.5577 142.349 25.5236 141.666 25.5236 139.857C25.5236 138.081 25.5577 137.33 25.626 138.149ZM70.9716 136.852C72.474 136.852 75.6154 136.954 77.9715 137.159C80.3275 137.33 82.8543 137.671 83.6055 137.876C84.3567 138.081 85.3128 138.491 86.4738 139.345L86.5079 179.124L85.7567 178.988C85.3128 178.885 83.1275 178.544 80.8739 178.237C77.6642 177.827 75.1032 177.759 68.9229 177.895C64.6205 177.998 60.3864 178.237 59.5328 178.441C58.6791 178.646 57.723 178.885 57.4157 178.988C56.8353 179.124 56.8011 178.032 56.8011 159.422C56.8011 141.086 56.8353 139.652 57.3816 139.003C57.723 138.627 58.8499 138.115 59.8742 137.842C60.8986 137.603 63.2205 137.262 64.9961 137.159C66.7717 137.023 69.4692 136.886 70.9716 136.852ZM25.626 145.491C25.6943 146.447 25.6943 147.813 25.626 148.564C25.5577 149.315 25.5236 148.564 25.5236 146.857C25.5236 145.183 25.5577 144.569 25.626 145.491ZM38.8746 148.598C42.6306 148.632 45.9769 148.803 46.3184 148.905C46.8306 149.076 46.8988 149.725 46.8988 156.076C46.8988 162.564 46.8306 163.247 46.1476 164.886C45.7379 165.876 44.7135 167.89 43.894 169.393C43.0745 170.895 41.538 173.422 40.4794 175.027C39.4209 176.598 36.9966 179.466 31.704 184.895L27.0943 185.1V167.276C27.0943 153.378 27.1967 149.383 27.5382 149.179C27.7431 149.042 28.8699 148.837 29.9967 148.7C31.1235 148.564 35.1186 148.53 38.8746 148.598ZM108.361 148.632C111.639 148.735 114.678 148.939 115.873 149.418V184.929L113.756 184.724C111.742 184.519 111.468 184.383 109.556 182.641C108.43 181.617 106.688 179.841 105.698 178.68C104.708 177.519 103.273 175.641 102.488 174.515C101.703 173.422 100.03 170.451 96.4102 163.417V156.417C96.4102 151.193 96.5126 149.383 96.8541 149.179C97.059 149.042 98.4248 148.837 99.8248 148.7C101.225 148.564 105.083 148.53 108.361 148.632ZM25.626 152.149C25.6943 153.003 25.6943 154.471 25.626 155.393C25.5577 156.349 25.5236 155.666 25.5236 153.856C25.5236 152.081 25.5577 151.33 25.626 152.149ZM55.7767 153.174L55.8109 208.319L54.5816 210.368C53.8987 211.495 53.2841 212.792 53.0451 213.953H32.7284C21.5627 213.953 12.4116 213.851 12.4116 213.714C12.4116 213.577 13.2311 211.836 15.9286 206.27L47.172 174.856L48.5378 171.1C49.3232 169.051 50.45 165.91 51.0988 164.1C51.7475 162.325 52.4646 159.866 52.6353 158.637C52.8402 157.442 53.1134 155.7 53.2158 154.813C53.4207 153.242 53.4548 153.174 55.7767 153.174ZM87.5323 153.174H88.7274C89.4786 153.174 89.9908 153.378 90.0932 153.686C90.1957 153.993 90.264 154.71 90.264 155.325C90.264 155.939 90.503 157.578 90.7761 158.978C91.0152 160.412 92.2444 164.544 95.7273 174.856L127.654 206.714L129.293 210.163C130.18 212.075 130.829 213.714 130.761 213.851C130.693 213.987 122.429 214.055 112.39 214.055C102.386 214.055 93.3029 214.021 90.264 213.953L89.5469 212.348C89.1713 211.46 88.5567 210.334 88.1811 209.856C87.5323 209.036 87.4982 208.285 87.5323 181.105V153.174ZM25.626 159.32C25.6943 160.173 25.6943 161.608 25.626 162.564C25.5577 163.486 25.4895 162.803 25.4895 161.027C25.4895 159.252 25.5577 158.466 25.626 159.32ZM25.626 166.49C25.6943 167.344 25.6943 168.778 25.626 169.734C25.5577 170.656 25.4895 169.973 25.4895 168.198C25.4895 166.422 25.5577 165.637 25.626 166.49ZM25.626 173.832C25.6943 174.754 25.6943 176.154 25.626 176.905C25.5577 177.656 25.4895 176.905 25.4895 175.198C25.4895 173.49 25.5577 172.876 25.626 173.832ZM25.626 180.49C25.6943 181.344 25.6943 182.778 25.626 183.734C25.5577 184.656 25.4895 183.973 25.4895 182.197C25.4895 180.422 25.5577 179.637 25.626 180.49ZM72.6789 179.295C77.869 179.398 82.0007 179.602 83.2641 179.876C84.425 180.115 85.6201 180.558 85.9274 180.832C86.5079 181.31 86.5421 182.334 86.4738 206.612L85.2104 206.339C84.4933 206.202 82.6153 205.929 81.0446 205.758C79.4398 205.587 74.6593 205.417 70.4594 205.417C66.2253 205.451 61.684 205.587 60.3864 205.758C59.0547 205.929 57.723 206.134 57.3816 206.236C56.8353 206.441 56.8011 205.69 56.8011 194.148C56.8011 186.636 56.9377 181.583 57.1426 181.173C57.3133 180.797 57.8938 180.319 58.406 180.115C58.9181 179.91 60.4206 179.602 61.7522 179.466C63.0498 179.295 67.9668 179.227 72.6789 179.295ZM112.629 185.578L114.166 185.817C114.985 185.954 115.737 186.056 115.771 186.09C115.805 186.124 115.873 186.773 115.942 187.558C115.976 188.378 115.942 188.992 115.873 188.992C115.771 188.958 114.985 188.207 114.166 187.251L112.629 185.578ZM30.6113 185.988L27.265 189.436L27.1626 187.968C27.0943 187.046 27.2309 186.397 27.5041 186.227C27.7431 186.09 28.5284 185.988 30.6113 185.988ZM25.626 187.183C25.6943 187.729 25.6943 188.822 25.626 189.573C25.5577 190.324 25.4895 189.846 25.4895 188.549C25.4895 187.217 25.5577 186.602 25.626 187.183ZM70.0155 206.851C74.8984 206.817 79.7471 206.987 81.7958 207.226C83.708 207.465 85.4836 207.841 85.7909 208.114C86.2348 208.456 85.8933 208.49 83.947 208.285C82.6153 208.114 76.8447 208.012 71.1423 208.012C65.4058 208.012 59.9084 208.114 58.9181 208.251C57.8255 208.421 57.1426 208.387 57.1767 208.182C57.2109 208.012 57.7913 207.704 58.4743 207.534C59.1572 207.329 60.1474 207.124 60.7279 207.056C61.2742 206.987 65.4741 206.885 70.0155 206.851ZM69.9472 208.899C74.8301 208.865 80.3617 209.002 82.2397 209.207C85.2445 209.514 85.7567 209.685 86.5762 210.504C87.1226 210.982 87.5323 211.529 87.5323 211.665C87.5323 211.802 85.9957 211.938 80.7031 211.938L76.8105 219.621L77.5617 227.133C77.9715 231.265 78.2447 234.645 78.2105 234.679C78.1764 234.714 77.3227 234.816 76.2983 234.85C75.3081 234.919 74.4203 234.85 74.352 234.714C74.2837 234.577 74.1472 231.675 74.0789 228.226C74.0106 224.709 73.7033 220.646 73.396 218.836C73.0886 217.094 72.6447 215.285 72.4057 214.807C72.1326 214.26 71.7228 213.953 71.2106 213.953C70.8009 213.987 70.2204 214.329 69.9472 214.738C69.7082 215.182 69.2302 216.753 68.9229 218.255C68.5473 220.031 68.3082 223.309 68.0351 234.645L65.8497 234.714C64.6205 234.782 63.6303 234.714 63.6303 234.645C63.6303 234.543 63.7668 233.348 63.9717 231.982C64.1766 230.616 64.4156 229.045 64.4839 228.499C64.5522 227.919 64.8937 225.597 65.8497 219.177L64.8254 216.992C64.2449 215.797 63.4595 214.192 62.2644 211.938H58.8499C56.8011 211.938 55.4353 211.802 55.4353 211.597C55.4353 211.392 55.7767 210.88 56.1865 210.436C56.6987 209.89 57.5523 209.548 58.6791 209.377C59.6011 209.241 60.523 209.104 60.7279 209.036C60.8986 208.968 65.0644 208.899 69.9472 208.899ZM54.7524 212.963H61.7522L64.6888 219.28L64.3132 222.524C64.0742 224.299 63.6986 226.997 63.4595 228.499C63.2205 230.002 62.9132 231.948 62.8108 232.836C62.64 234.099 62.4352 234.543 61.8205 234.748C61.4108 234.919 60.4206 236.045 59.6352 237.24C58.884 238.436 57.8596 240.109 56.5621 242.499L50.1427 242.704L50.3817 236.967C50.5183 233.792 50.8939 229.387 51.2012 227.133C51.4744 224.88 52.1573 221.329 52.7036 219.28C53.2158 217.197 53.8987 214.943 54.206 214.226L54.7524 212.963ZM81.3861 212.963H88.2152L88.7274 214.158C89.0006 214.807 89.4786 216.48 89.7518 217.846C90.0591 219.211 90.5371 221.909 90.8103 223.889C91.0835 225.87 91.4249 230.821 91.8005 242.294L85.4836 242.499L85.0397 241.475C84.8348 240.928 83.9128 239.357 82.9909 237.992C81.8641 236.25 81.0788 235.397 80.3617 235.158C79.7812 234.987 79.3373 234.714 79.3373 234.577C79.3373 234.44 78.9959 231.094 77.869 219.963L81.3861 212.963ZM71.1423 215.012C71.3131 215.012 71.6204 215.592 71.8252 216.309C71.996 216.992 72.3374 218.665 72.5423 219.963C72.7472 221.294 72.8838 225.733 72.8838 229.865C72.8838 233.997 72.7813 239.153 72.6789 241.304C72.5423 243.455 72.3033 247.006 72.1326 249.157C71.9277 251.308 71.6887 253.152 71.5862 253.255C71.5179 253.357 71.4838 248.167 71.5521 241.748C71.5862 235.294 71.5179 230.036 71.3814 230.036C71.2448 230.036 71.1423 231.128 71.1423 232.426C71.1423 233.758 71.0399 234.987 70.9716 235.158C70.8692 235.362 70.7667 239.767 70.7326 244.992C70.7326 250.728 70.596 253.835 70.4253 252.913C70.2887 252.06 70.0497 249.396 69.9131 246.938C69.7765 244.513 69.5716 240.723 69.4692 238.572C69.3326 236.421 69.2643 231.88 69.2985 228.499C69.3326 225.119 69.5375 221.192 69.7424 219.792C69.9472 218.392 70.2887 216.753 70.4936 216.138C70.6643 215.524 70.9716 215.012 71.1423 215.012ZM8.89461 219.28C9.23607 219.348 14.2213 219.519 30.5089 219.963V228.499L26.6504 228.26C24.5334 228.089 19.753 227.748 15.9969 227.441C12.2409 227.133 8.89461 226.758 8.55315 226.587C8.24584 226.416 7.7678 225.699 7.56293 225.016C7.25561 223.958 7.28976 223.275 7.73366 221.431C8.2117 219.621 8.41657 219.177 8.89461 219.28ZM133.595 219.211C135.336 219.109 135.336 219.109 135.712 220.407C135.951 221.089 136.088 222.455 136.088 223.377C136.053 224.333 135.78 225.426 135.507 225.87C135.234 226.28 134.688 226.792 134.312 226.963C133.936 227.167 129.054 227.611 123.454 227.987C117.888 228.363 113.176 228.67 113.039 228.67C112.903 228.67 112.8 226.758 112.8 220.133L113.722 220.099C114.234 220.099 115.122 220.031 115.703 219.997C116.249 219.929 120.107 219.792 124.239 219.621C128.371 219.485 131.751 219.382 131.785 219.348C131.819 219.314 132.639 219.246 133.595 219.211ZM42.4257 220.372C46.8647 220.611 50.5183 220.85 50.5524 220.885C50.6207 220.953 50.3476 223.002 49.3915 229.865L47.7183 229.831C46.7964 229.831 45.1916 229.728 44.1672 229.592C43.1087 229.489 40.2746 229.216 37.8502 229.011C35.3917 228.772 33.3771 228.602 33.3088 228.567C33.2747 228.533 33.2405 226.894 33.2064 224.914C33.1722 222.933 33.1381 221.089 33.104 220.748C33.0698 220.441 33.343 220.133 33.7186 220.065C34.06 220.031 37.9868 220.168 42.4257 220.372ZM31.8747 220.133C32.0796 220.133 32.2162 221.909 32.2162 224.743C32.2162 227.611 32.0796 229.353 31.8747 229.353C31.6357 229.353 31.5333 227.611 31.5333 224.743C31.5333 221.909 31.6357 220.133 31.8747 220.133ZM110.171 220.304L110.205 224.367C110.205 226.587 110.137 228.533 110.068 228.67C109.966 228.806 106.825 229.114 103.069 229.353C99.3126 229.558 95.4541 229.797 92.8249 229.933L92.2786 225.46C92.0054 223.002 91.7664 220.953 91.7664 220.919C91.7664 220.885 95.3175 220.748 99.654 220.646C103.956 220.509 107.576 220.338 107.644 220.236C107.747 220.168 108.327 220.168 110.171 220.304ZM27.7772 230.719H36.9966C42.0501 230.719 46.2501 230.855 46.3184 230.992C46.3867 231.128 46.3867 231.88 46.2159 234.133H27.7772V230.719ZM96.7517 230.719H115.19V233.792H96.7517V230.719ZM36.86 235.397C41.538 235.465 45.533 235.499 45.772 235.499C46.0452 235.499 46.2159 236.079 46.2159 238.914H27.9479V237.309C27.9479 236.421 28.0504 235.601 28.1528 235.499C28.2894 235.397 32.2162 235.362 36.86 235.397ZM96.7517 235.158H115.02L114.917 238.743L96.7517 238.914V235.158ZM68.2741 235.875C68.3082 235.977 68.4107 238.026 68.6838 244.889L67.4204 245.128C66.7375 245.231 65.918 245.435 65.5766 245.538C65.0985 245.709 64.9961 245.572 64.9961 244.821C64.9961 244.309 65.1668 243.25 65.3717 242.499C65.5766 241.748 65.9522 240.587 66.2253 239.938C66.5327 239.289 67.079 238.094 67.4546 237.24C67.8643 236.421 68.2058 235.806 68.2741 235.875ZM80.0202 235.84L81.2153 237.309C81.8641 238.094 83.0251 239.904 83.7421 241.304C84.4592 242.704 85.3128 244.855 85.586 246.084C85.8933 247.313 86.1323 248.474 86.1665 248.645C86.1665 248.85 84.7323 248.952 82.308 248.884C79.3032 248.816 77.9373 248.918 75.9227 249.465C74.4886 249.84 73.2594 250.079 73.1911 250.011C73.0886 249.909 73.1228 249.635 73.2594 249.328C73.396 249.055 73.874 248.816 74.2837 248.782C74.7276 248.782 75.5813 248.577 76.2642 248.338C76.913 248.099 77.63 247.552 77.8349 247.074C78.1422 246.46 78.1081 245.777 77.7666 244.138C77.4934 242.943 76.7422 240.655 76.0935 239.016C75.4106 237.377 74.8642 235.977 74.8984 235.943C74.8984 235.875 76.0252 235.84 80.0202 235.84ZM66.8741 236.216L65.5766 239.801C64.5863 242.533 64.3132 243.865 64.3132 247.791L65.7473 248.304C66.5668 248.577 67.5912 248.85 68.0692 248.884C68.6497 248.952 68.9229 249.226 68.9911 249.772C69.0936 250.489 69.0253 250.523 67.796 250.182C67.1131 249.977 65.3717 249.601 63.9717 249.294C62.1961 248.952 60.6596 248.85 59.0206 249.021C57.6889 249.123 56.3914 249.328 56.1523 249.465C55.7426 249.635 55.7084 249.396 55.9133 248.133C56.0499 247.279 56.5621 245.606 57.006 244.377C57.484 243.148 58.4743 241.099 59.2255 239.767C60.0108 238.47 60.8645 237.104 61.1718 236.797C61.5474 236.318 62.1961 236.182 66.8741 236.216ZM73.9423 236.011L74.5911 237.206C74.9325 237.855 75.6837 239.836 76.23 241.577C76.8105 243.318 77.2886 245.026 77.2886 245.401C77.2886 245.948 77.152 246.016 76.6739 245.811C76.3666 245.64 75.513 245.401 73.5325 245.06V242.943C73.5325 241.748 73.635 239.733 73.7374 238.401L73.9423 236.011ZM114.985 240.109V242.943C114.985 245.504 114.951 245.743 114.303 245.777C113.927 245.811 109.864 245.811 105.254 245.811C100.678 245.777 96.8882 245.743 96.8541 245.674C96.8199 245.64 96.7516 244.411 96.7175 243.011C96.7175 241.611 96.6834 240.348 96.6834 240.211C96.6834 240.075 100.815 240.006 114.985 240.109ZM27.9138 240.279H46.1818V246.084H27.9138V240.279ZM67.9668 245.777C68.6155 245.743 68.718 245.913 68.718 246.938C68.718 247.962 68.6155 248.133 67.9668 248.133C67.5229 248.133 66.7034 247.996 66.0888 247.791C65.4741 247.621 64.9278 247.245 64.8937 246.938C64.8595 246.631 65.2693 246.323 66.0205 246.118C66.6692 245.948 67.5229 245.811 67.9668 245.777ZM74.1472 245.743C74.4545 245.743 75.2057 245.879 75.8203 246.084C76.4349 246.289 76.913 246.665 76.913 246.938C76.913 247.211 76.4349 247.621 75.8203 247.791C75.2057 247.996 74.352 248.133 73.9423 248.133C73.396 248.133 73.1569 247.928 73.1569 247.45C73.1569 247.074 73.2594 246.528 73.3618 246.255C73.4642 245.982 73.8399 245.743 74.1472 245.743ZM105.595 247.109V248.474C105.595 249.226 105.459 249.84 105.254 249.84C105.083 249.84 104.912 250.079 104.912 250.352C104.912 250.626 105.083 250.865 105.254 250.865C105.459 250.865 105.595 251.479 105.595 252.23C105.595 252.982 105.459 253.596 105.254 253.596C105.083 253.596 104.912 253.835 104.912 254.108C104.912 254.382 105.083 254.621 105.254 254.621C105.459 254.621 105.595 255.167 105.595 257.011H91.9371L92.142 255.747C92.2786 255.03 92.5176 253.904 92.6883 253.255C92.8932 252.606 93.4395 251.377 93.9176 250.523C94.3956 249.669 95.1468 248.577 95.659 248.065C96.5126 247.109 96.5468 247.109 105.595 247.109ZM105.937 247.109H116.01L116.795 248.235C117.205 248.85 117.922 250.25 118.4 251.377C118.844 252.504 119.356 254.245 119.766 257.045L105.937 257.011V253.767C105.937 251.718 106.073 250.591 106.278 250.694C106.483 250.796 106.62 250.626 106.62 250.352C106.62 250.079 106.483 249.909 106.278 250.011C106.073 250.113 105.937 249.567 105.937 248.645V247.109ZM27.0943 247.45H36.5185L36.4502 257.352H23.1334L23.4066 255.406C23.5773 254.313 24.0895 252.572 24.5334 251.548C25.0114 250.523 25.7968 249.191 26.2407 248.577L27.0943 247.45ZM47.2403 247.45L48.2647 248.713C48.811 249.43 49.4939 250.694 49.8012 251.548C50.0744 252.367 50.4159 253.972 50.8256 257.011L49.4598 257.045C48.7086 257.079 45.6696 257.147 42.6989 257.216C39.7282 257.284 37.3039 257.216 37.3039 257.079C37.3039 256.943 37.2356 256.26 37.1332 255.543C36.9966 254.518 37.0649 254.313 37.5088 254.45C37.7819 254.552 38.0209 254.416 38.0209 254.108C38.0209 253.801 37.8502 253.562 37.6453 253.494C37.4405 253.46 37.2014 252.913 37.1332 252.299C37.0307 251.548 37.1332 251.138 37.5088 251.035C37.7819 250.933 38.0209 250.626 38.0209 250.352C37.9982 250.011 37.7933 249.909 37.4063 250.045C36.9283 250.216 36.86 250.113 37.0649 249.43C37.2014 248.987 37.3039 248.372 37.3039 248.031C37.338 247.484 37.7819 247.45 47.2403 247.45ZM81.2153 249.191C81.3861 249.157 82.547 249.328 83.7763 249.533C85.0397 249.738 85.825 250.011 85.6543 250.182C85.4494 250.318 84.5275 250.591 83.6055 250.762C82.6495 250.933 80.5666 251.104 78.9959 251.172C77.391 251.206 75.6837 251.104 75.2398 250.933C74.3862 250.626 74.4203 250.591 75.752 250.182C76.5032 249.909 77.9373 249.601 78.9959 249.465C80.0202 249.362 81.0105 249.226 81.2153 249.191ZM61.4108 249.669C62.9132 249.772 64.8937 250.079 65.8497 250.387C67.3522 250.865 67.4546 250.967 66.8741 251.274C66.4302 251.513 64.6205 251.582 62.2644 251.445C60.0108 251.343 57.723 251.069 56.9718 250.762C55.6743 250.284 55.6402 250.25 56.4597 250.045C56.9035 249.943 57.6206 249.772 57.9962 249.704C58.3718 249.601 59.9084 249.601 61.4108 249.669ZM98.5272 258.377L113.312 258.342L114.405 260.903C115.02 262.338 115.532 263.635 115.532 263.84C115.532 264.045 112.527 264.181 107.234 264.181C102.693 264.181 98.3907 264.284 97.6736 264.42C96.7175 264.625 96.376 264.557 96.376 264.25C96.376 264.011 96.6151 263.328 96.8882 262.713C97.1273 262.099 97.6053 260.869 97.9468 259.982L98.5272 258.377ZM29.5187 258.718H44.6794L45.6696 261.382C46.2501 262.816 46.7623 264.147 46.7964 264.284C46.8306 264.42 42.494 264.523 27.4358 264.523L28.1187 262.577C28.5284 261.484 29.0065 260.186 29.1772 259.674L29.5187 258.718Z" fill="#FEFEFE"/>
<path d="M28.0508 81.365C28.0167 79.7602 28.1191 79.3504 28.6654 79.0773C29.0069 78.8724 29.5191 78.7017 29.7581 78.7017C29.963 78.7017 30.4752 78.8382 30.8508 79.0431C31.4313 79.3163 31.5337 79.726 31.5337 83.3113H28.1191L28.0508 81.365Z" fill="#464646"/>
<path d="M111.025 81.365C110.991 79.9309 111.093 79.3846 111.469 79.2821C111.708 79.1797 112.288 79.0773 112.732 79.0773C113.142 79.0431 113.723 79.2821 113.996 79.5553C114.303 79.8626 114.508 80.7163 114.508 83.3113H111.093L111.025 81.365Z" fill="#464646"/>
<path d="M67.1477 103.218C67.216 101.511 67.2502 101.477 68.5818 101.033C69.3331 100.828 70.1184 100.623 70.3574 100.589C70.6647 100.555 70.733 101.101 70.5964 102.535C70.494 103.594 70.3574 104.584 70.255 104.755C70.1867 104.891 69.4355 104.994 67.0453 104.994L67.1477 103.218Z" fill="#464646"/>
<path d="M72.611 103.628C72.5768 103.354 72.4744 102.535 72.372 101.852C72.2013 100.76 72.2696 100.555 72.7476 100.555C73.0891 100.555 74.011 100.828 74.8305 101.17C76.2646 101.75 76.2988 101.784 76.2646 104.994H74.7281C73.8744 104.994 73.0891 104.823 72.9525 104.584C72.8159 104.345 72.6793 103.901 72.611 103.628L72.611 103.628Z" fill="#464646"/>
<path d="M61.4112 104.482C61.8893 104.004 63.0844 103.252 64.0746 102.774C65.0307 102.296 65.9526 101.921 66.1234 101.921C66.2599 101.921 66.4648 102.16 66.5672 102.433C66.7038 102.706 66.7038 103.457 66.6014 104.072C66.4648 104.857 66.0892 105.301 65.3721 105.677C64.6209 106.052 64.2795 106.496 64.1429 107.316C63.9722 108.374 63.938 108.408 60.5576 108.408V106.872C60.5576 105.677 60.7625 105.13 61.4112 104.482Z" fill="#464646"/>
<path d="M77.8012 105.848C76.6744 105.233 76.572 105.062 76.6402 103.662L76.7085 102.194L77.9378 102.433C78.6207 102.57 79.6451 102.911 80.1914 103.184C80.7377 103.491 81.4889 103.97 81.7963 104.277C82.1377 104.584 82.3084 104.926 82.2402 105.096C82.1377 105.233 82.206 105.404 82.4109 105.506C82.6158 105.609 82.7523 106.36 82.7523 108.75H81.3865C80.6353 108.75 79.7817 108.682 79.5085 108.579C79.2012 108.477 78.9963 107.999 78.9963 107.487C78.9963 106.735 78.7231 106.36 77.8012 105.848Z" fill="#464646"/>
<path d="M66.977 109.296C66.9428 108.682 67.0453 108.067 67.216 107.93C67.3526 107.794 68.1721 107.691 70.4599 107.691V110.423H68.7526C67.0453 110.423 67.0453 110.423 66.977 109.296Z" fill="#464646"/>
<path d="M72.8501 110.423V109.057V107.691H76.2646V110.423H72.8501Z" fill="#464646"/>
<path d="M28.7328 81.1601C28.6987 80.443 28.8353 79.726 28.9719 79.5894C29.1426 79.4528 29.5865 79.3845 29.9962 79.4528C30.5426 79.5211 30.6792 79.8284 30.7816 81.0235C30.8499 82.4235 30.8157 82.4576 29.8255 82.4576C28.8694 82.4576 28.8011 82.3552 28.7328 81.1601Z" fill="#FEFEFE"/>
<path d="M112.288 82.6284C111.878 82.765 111.775 82.4918 111.775 81.2625C111.775 79.7943 111.809 79.726 112.8 79.726C113.756 79.726 113.824 79.7943 113.824 81.0918C113.824 82.082 113.688 82.4576 113.312 82.4576C113.039 82.4576 112.561 82.5259 112.288 82.6284Z" fill="#FEFEFE"/>
<path d="M67.3176 103.287C67.2834 102.399 67.4541 102.16 68.4444 101.75C69.0931 101.477 69.7078 101.272 69.8785 101.238C70.0151 101.238 70.1175 101.579 70.1175 102.023C70.1175 102.433 70.0492 103.116 69.9468 103.56C69.8102 104.174 69.537 104.311 68.581 104.311C67.4883 104.311 67.3858 104.208 67.3176 103.287Z" fill="#FEFEFE"/>
<path d="M73.3955 104.072C73.3272 103.901 73.1906 103.218 73.054 102.535C72.9175 101.818 72.8833 101.238 72.9858 101.238C73.1223 101.238 73.737 101.477 74.3857 101.75C75.376 102.16 75.5808 102.433 75.5808 103.287C75.5808 104.208 75.4784 104.311 74.5565 104.311C74.0101 104.311 73.4638 104.208 73.3955 104.072Z" fill="#FEFEFE"/>
<path d="M61.7518 104.789L63.4591 103.867C64.4152 103.389 65.3371 102.979 65.5761 102.945C65.8151 102.945 65.9517 103.355 65.9176 103.867C65.8834 104.516 65.5761 104.891 64.9956 105.13C64.4493 105.335 63.6981 105.335 61.7518 104.789Z" fill="#FEFEFE"/>
<path d="M78.1418 105.267C77.5271 104.96 77.2881 104.55 77.2881 103.901C77.2881 103.355 77.4247 102.945 77.6296 102.945C77.8345 102.945 78.654 103.252 79.5076 103.628C80.3612 104.004 81.1124 104.448 81.2149 104.652C81.3173 104.857 80.8393 105.13 80.1905 105.335C79.3369 105.574 78.7564 105.574 78.1418 105.267Z" fill="#FEFEFE"/>
<path d="M62.264 108.067C61.4103 108.067 61.2396 107.93 61.2396 107.213C61.2396 106.633 61.4445 106.36 61.8542 106.36C62.1615 106.36 62.742 106.53 63.0835 106.769C63.4249 107.008 63.6298 107.418 63.5274 107.657C63.3908 107.862 62.8103 108.067 62.264 108.067Z" fill="#FEFEFE"/>
<path d="M79.7808 107.486C79.7125 107.247 80.0198 106.906 80.4637 106.735C80.8734 106.53 81.4198 106.394 81.6588 106.394C81.8637 106.36 82.0685 106.735 82.0685 107.213C82.0685 107.965 81.9319 108.067 80.9759 107.999C80.3954 107.93 79.8491 107.691 79.7808 107.486Z" fill="#FEFEFE"/>
<path d="M68.9224 110.116C67.8639 110.116 67.7273 110.013 67.7273 109.262C67.7273 108.511 67.8639 108.408 68.9224 108.408C69.9809 108.408 70.1175 108.511 70.1175 109.262C70.1175 110.013 69.9809 110.116 68.9224 110.116Z" fill="#FEFEFE"/>
<path d="M74.6589 110.047C73.6687 110.116 73.5321 110.013 73.5321 109.262C73.5321 108.511 73.6687 108.408 74.7272 108.408C75.7516 108.408 75.9223 108.511 75.854 109.194C75.7857 109.774 75.5125 109.979 74.6589 110.047Z" fill="#FEFEFE"/>
<defs>
<linearGradient id="paint0_linear_333_9526" x1="38.7391" y1="264.357" x2="38.7391" y2="411" gradientUnits="userSpaceOnUse">
<stop stop-color="#AB2FFE"/>
<stop offset="1"/>
</linearGradient>
<linearGradient id="paint1_linear_333_9526" x1="107.904" y1="264.357" x2="107.904" y2="411" gradientUnits="userSpaceOnUse">
<stop stop-color="#AB2FFE"/>
<stop offset="1"/>
</linearGradient>
</defs>
</svg>
