<svg width="639" height="139" viewBox="0 0 639 139" fill="none" xmlns="http://www.w3.org/2000/svg">
<path d="M462.758 8.04132C466.542 6.14925 473.164 3.4688 477.579 2.36509C481.836 1.10371 490.823 0 497.288 0C503.91 0 513.371 1.10372 518.574 2.52277C523.777 3.94183 530.872 7.09527 534.341 9.30268C537.81 11.6678 543.171 16.398 546.167 19.7091C549.32 23.1779 553.577 29.3272 555.627 33.4266C558.938 39.8912 560.042 40.9949 562.722 40.0489C564.457 39.4182 568.398 38.4722 571.394 37.8415C574.39 37.2108 578.963 37.2108 581.643 37.8415C584.166 38.4722 588.738 41.3102 591.419 43.833C594.257 46.5135 597.253 51.4013 598.199 54.7125C598.987 57.8659 599.775 62.1231 599.775 64.1728C599.775 66.0649 601.037 68.1146 602.456 68.5877C604.033 69.0607 606.398 70.1644 607.659 70.9528C608.92 71.7411 611.916 73.1602 614.281 73.9485C616.804 74.8946 618.696 76.629 618.696 77.8903C618.696 79.1517 619.958 80.7285 621.377 81.3592C622.953 81.9899 625.476 83.5666 627.053 84.9856C628.472 86.247 629.733 88.4544 629.733 89.7158C629.733 91.2925 628.472 90.8195 625.476 87.8238C622.953 85.6163 618.223 82.3052 614.754 80.5708C611.285 78.6787 605.294 76.7866 601.352 76.3136C597.095 75.5253 590.63 75.9983 585.585 77.102C580.855 78.2057 574.232 80.8861 570.921 82.9359C567.768 84.828 563.038 88.9275 560.357 91.7656C557.834 94.446 555.312 98.0725 554.839 99.6492C554.208 101.857 553.42 102.014 549.635 100.753C547.27 99.8069 543.644 99.3338 541.436 99.8068C539.229 100.28 536.076 102.172 531.188 107.06L528.35 100.438C526.773 96.6534 523.146 90.8195 520.308 87.3507C517.47 83.8819 512.109 79.3094 508.168 77.2597C502.491 74.1062 499.022 73.3178 489.404 73.4755C479.156 73.4755 476.318 74.1062 468.907 78.2057C464.177 80.8861 457.239 86.247 453.613 89.8735C449.986 93.6576 445.887 98.2301 444.625 99.9645C443.364 101.699 440.841 107.375 439.107 112.578C437.215 117.939 435.796 125.035 436.426 136.229L444.31 132.445C451.09 129.292 453.928 128.819 462.6 129.607C468.592 130.08 475.214 131.814 478.683 133.706C481.994 135.599 484.674 137.333 484.674 137.806C484.674 138.279 480.575 138.121 475.529 137.648C470.484 137.018 463.231 137.333 458.658 138.437C454.086 139.54 447.464 142.694 435.007 152.47L429.489 146.32C426.493 143.009 421.447 139.54 418.452 138.752C415.456 137.806 410.253 137.018 401.108 137.018L403.315 131.972C404.892 128.188 405.207 124.877 404.104 119.674C403.315 115.416 401.108 110.844 398.427 108.164C394.643 104.379 394.012 102.172 393.539 93.1846C393.224 86.72 391.647 79.7824 389.598 75.0523C386.759 68.903 384.71 66.8532 379.349 64.3305C373.988 61.9654 371.623 61.65 367.208 62.9114C364.055 63.8575 360.113 66.6956 357.905 69.6914C355.856 72.3718 353.648 76.4713 353.017 78.6787C352.387 80.8861 351.283 82.9359 350.81 83.4089C350.179 83.8819 349.076 86.5624 348.13 89.4005C346.868 93.973 345.607 95.0767 338.669 97.2841C334.097 98.7032 328.578 101.699 326.213 103.906C323.848 106.114 320.695 110.686 316.437 120.462L314.545 115.732C313.599 113.209 313.126 108.479 313.284 105.483C313.599 102.487 314.861 98.2301 315.964 96.0227C317.226 93.8153 319.591 90.9772 321.325 89.4005C323.217 87.9814 324.321 86.4047 323.848 85.9317C323.375 85.4586 320.537 84.6703 317.541 84.0396C313.284 83.4089 310.761 84.0396 306.504 86.8777C303.508 88.9275 299.566 93.4999 297.99 96.8111C296.413 100.28 294.994 106.114 294.836 109.74C294.679 113.524 294.363 116.52 293.89 116.52C293.417 116.52 292.313 115.732 291.525 114.786C290.579 113.84 284.903 113.367 276.546 113.682C265.982 114.155 261.725 115.101 256.206 118.097C252.265 120.304 248.953 122.985 248.638 124.088C248.323 125.035 249.742 126.296 251.634 126.769C253.684 127.084 259.36 129.607 264.248 132.287C269.293 134.81 273.393 137.648 273.393 138.594C273.393 139.54 269.136 140.171 263.932 140.171C258.256 140.171 251.161 141.432 246.115 143.325C241.701 145.059 237.759 146.478 237.443 146.478C237.286 146.478 236.813 144.901 236.497 143.009C236.024 140.644 233.502 138.279 228.929 136.229C225.145 134.495 219.311 133.076 215.842 133.233C211.112 133.233 208.589 132.13 205.593 129.134C203.386 126.927 199.76 124.246 197.237 123.142C194.872 122.039 191.088 121.25 188.565 121.25C186.2 121.25 181.943 122.669 179.104 124.404C176.109 126.296 172.798 130.395 170.905 134.653C169.013 138.91 168.225 143.167 168.698 145.374C169.644 148.212 169.486 148.528 167.594 146.951C166.333 145.847 160.341 143.798 154.35 142.536C148.201 141.275 141.105 140.171 138.583 140.171C135.902 140.171 132.749 140.959 131.487 141.748C129.438 143.009 129.595 143.325 131.803 143.325C133.379 143.325 136.217 144.271 138.11 145.374C140.002 146.32 143.155 149.001 145.047 151.208C146.939 153.416 148.516 155.308 148.358 155.465C148.201 155.623 144.101 154.677 139.371 153.416C134.641 152.154 125.023 151.208 118.085 151.366C107.048 151.524 104.052 150.893 94.4342 146.478C86.2352 142.694 80.4013 141.117 71.5716 140.644C64.634 140.171 55.8044 140.644 50.2858 141.748C44.1366 143.167 38.4604 145.69 34.0455 149.158C30.419 151.997 26.9502 154.046 26.1619 153.573C25.5312 153.1 25.8465 149.789 28.8423 139.383L16.7015 140.329C7.87184 140.959 2.1956 142.379 -12.7833 149.947L-21.4553 147.266C-27.9199 145.217 -32.9654 144.744 -41.1644 145.374C-47.3136 145.847 -55.828 147.739 -60.0851 149.474C-65.6037 151.681 -72.3836 152.627 -82.9477 152.943C-91.1467 153.1 -103.918 152.312 -111.329 151.366C-118.739 150.42 -130.092 148.685 -136.556 147.739C-143.021 146.793 -149.328 145.532 -150.274 145.059C-151.693 144.428 -151.22 142.536 -148.382 138.279C-146.174 134.968 -143.179 132.13 -141.76 132.13C-140.183 131.972 -128.357 131.814 -115.271 131.657C-91.8531 131.5 -91.4643 131.342 -76.7836 125.408L-76.6408 125.35C-68.4418 122.039 -58.5084 118.412 -54.5666 117.151C-50.6248 116.047 -42.8988 114.943 -37.2226 114.943C-29.812 114.943 -24.7664 116.047 -19.0902 118.57C-14.8331 120.62 -10.1029 123.615 -8.84149 125.35C-7.58011 127.242 -5.37268 128.976 -4.1113 129.449C-2.69225 129.765 -0.0118103 128.03 2.1956 125.35C4.40303 122.827 8.50252 119.831 11.183 118.57C14.0211 117.466 19.6973 116.52 23.7968 116.52C28.054 116.52 34.3609 117.939 44.7673 122.827L51.3895 116.836C55.1737 113.524 61.6382 109.11 66.0531 107.06C72.2023 104.064 76.4595 103.118 84.9738 103.118C93.4881 103.118 97.5876 103.906 103.106 106.744C107.048 108.794 112.409 112.736 115.247 115.416C117.927 118.255 120.45 119.831 120.766 118.885C120.923 117.939 124.077 115.416 127.545 113.051C131.014 110.686 137.637 107.217 142.051 105.483C146.624 103.749 154.508 101.857 159.395 101.384C165.387 100.911 171.221 101.384 176.424 102.96C180.681 104.222 185.411 104.852 186.673 104.222C188.565 103.433 188.723 103.749 187.461 105.483C186.357 107.217 186.357 107.533 187.934 106.744C188.88 105.956 189.826 103.591 189.826 101.226C189.826 98.7032 190.615 95.5497 191.718 94.1307C192.822 92.5539 196.606 90.3465 200.075 89.0851C203.544 87.8237 207.013 87.1931 207.801 87.8238C208.589 88.4544 208.589 86.5623 207.801 83.4089C207.013 80.4131 206.54 75.3676 206.54 72.3718C206.54 69.376 207.013 64.1728 207.643 61.0194C208.274 57.5506 211.112 52.3474 214.265 48.7209C217.261 45.2521 220.099 42.887 220.572 43.6754C221.045 44.3061 221.676 43.5177 222.149 42.0987C222.622 40.5219 223.568 39.5759 224.514 40.0489C225.303 40.5219 226.091 40.2065 226.091 39.2605C226.091 38.3145 227.195 37.9991 228.456 38.4721C229.717 38.9452 230.821 38.7875 230.821 38.1568C230.821 37.3685 232.082 36.7378 233.502 36.5801C235.078 36.4224 240.124 36.1071 244.696 35.7917C249.427 35.4764 253.526 35.7917 253.841 36.5801C254.157 37.2108 255.733 37.6838 257.152 37.6838C258.729 37.6838 264.248 39.5759 269.451 41.7833C274.654 43.9907 279.857 46.1981 281.119 46.8288C282.222 47.4595 283.011 47.3018 282.853 46.3558C282.538 45.4097 283.168 42.5716 284.272 40.0489C285.376 37.5261 288.056 33.4266 290.421 30.9039C292.787 28.5388 297.201 25.8583 300.197 24.9123C303.193 23.9662 307.765 23.6509 310.446 24.1239C312.969 24.7546 317.856 27.1197 321.01 29.4848C324.321 31.8499 326.371 34.3727 325.74 35.0034C325.109 35.7917 325.898 35.9494 327.317 35.4764C328.894 35.0034 330.47 33.269 330.943 31.8499C331.259 30.2732 333.781 27.1197 336.462 24.7546C338.985 22.2319 343.872 18.7631 347.026 16.871C351.598 14.3482 355.856 13.5599 364.843 13.4022C374.619 13.2445 378.245 14.0329 385.34 17.5017C390.544 19.8668 396.062 24.2816 399.058 28.0657C401.896 31.6922 404.261 35.0034 404.261 35.7917C404.261 36.4224 405.207 38.3145 406.469 40.0489C408.676 43.2023 408.834 43.2024 412.46 39.7336C414.51 37.8415 418.609 35.7917 421.605 35.4764C425.074 34.8457 428.385 35.4764 430.277 36.8954C432.012 38.1568 434.061 39.2605 435.007 39.2605C435.796 39.2605 438.318 35.7917 440.526 31.2192C442.733 26.8044 446.99 20.6551 450.144 17.5017C453.297 14.1906 458.974 10.0911 462.758 8.04132Z" fill="white"/>
<path d="M379.835 64.4882C376.366 62.9115 372.74 61.4924 371.951 61.4924C371.005 61.4924 368.01 62.5961 365.329 63.6998C362.649 64.8036 359.022 67.7994 357.288 70.3221C355.553 72.8449 353.661 76.629 353.031 78.8364C352.242 80.8862 351.296 83.0936 350.666 83.5666C350.035 83.882 348.931 86.7201 348.143 89.5582C346.881 93.973 345.462 95.2344 338.525 97.4418C334.11 98.8609 328.591 101.857 326.069 104.064C323.703 106.114 320.55 110.844 319.131 114.313L316.293 120.62C313.612 113.209 312.982 108.637 313.297 105.641C313.612 102.487 314.716 98.2302 315.978 96.1804C317.081 93.973 319.604 90.9772 321.338 89.5582C323.073 88.1391 324.177 86.5624 323.861 86.0894C323.388 85.6164 320.235 84.6703 316.924 84.1973C311.878 83.4089 309.828 84.0397 305.887 87.0354C303.206 89.0852 299.58 93.5 298.003 96.9688C296.268 100.438 294.849 106.272 294.849 109.898C294.692 113.682 294.219 116.678 293.903 116.678C293.43 116.678 292.327 115.89 291.538 114.943C290.435 113.84 284.916 113.524 276.559 113.84C265.995 114.313 261.58 115.259 256.062 118.255C252.278 120.462 248.967 122.985 248.651 124.089C248.336 125.192 249.755 126.454 251.647 126.769C253.539 127.242 259.215 129.765 264.261 132.287C269.306 134.968 273.406 137.806 273.406 138.752C273.406 139.54 269.149 140.329 263.946 140.329C258.269 140.329 251.016 141.59 246.129 143.482C241.556 145.217 237.614 146.636 237.457 146.636C237.299 146.636 236.826 145.059 236.353 143.009C235.88 140.644 233.357 138.437 228.942 136.387C225.158 134.653 219.324 133.234 215.855 133.234C211.125 133.234 208.445 132.288 205.607 129.292C203.399 127.084 199.615 124.404 197.25 123.3C194.885 122.196 190.943 121.408 188.578 121.408C186.213 121.408 181.956 122.827 179.118 124.562C176.122 126.454 172.811 130.553 170.919 134.81C168.869 139.067 168.08 143.325 168.711 145.374C169.5 148.37 169.342 148.685 167.607 146.951C166.346 146.005 160.355 143.955 154.363 142.694C148.214 141.433 141.118 140.329 138.596 140.329C135.915 140.329 132.762 140.96 131.5 141.906C129.451 143.167 129.451 143.325 131.816 143.482C133.392 143.482 136.073 144.271 137.965 145.374C139.857 146.478 143.011 149.158 145.06 151.366C146.952 153.416 148.371 155.465 148.214 155.623C148.056 155.781 144.114 154.835 139.384 153.573C134.496 152.312 125.036 151.366 118.098 151.524C106.903 151.524 104.065 151.051 94.4473 146.478C86.2483 142.852 80.2567 141.275 71.5847 140.644C64.6471 140.171 55.8175 140.802 50.2989 141.906C44.1497 143.325 38.4735 145.847 34.0586 149.159C30.4322 152.154 26.8057 154.046 26.175 153.731C25.5443 153.258 25.8596 149.789 26.9633 146.163L28.8554 139.54C7.88495 141.117 2.20872 142.536 -4.09818 145.69L-12.7702 150.105C-27.9068 145.217 -32.9523 144.744 -41.1513 145.532C-47.3005 146.005 -55.8149 147.897 -60.072 149.474C-65.4329 151.681 -72.5282 152.785 -82.1462 152.943C-90.0299 153.258 -103.432 152.47 -112.104 151.366C-120.776 150.262 -133.232 148.528 -139.697 147.266C-146.319 146.163 -151.838 145.532 -151.995 145.847C-152.153 146.005 -148.369 147.582 -143.323 149.001C-138.278 150.42 -126.768 153.258 -117.623 155.308C-108.635 157.357 -93.0256 160.196 -82.9346 161.615C-70.0054 163.507 -58.4953 164.137 -42.728 163.507C-21.5999 162.876 -20.3385 163.034 -12.7702 166.818C-8.51302 168.868 -1.41774 171.706 2.9971 172.809C7.25426 173.913 14.5072 175.017 19.0797 175.017C23.6522 175.017 30.7475 173.913 34.847 172.494C41.9423 170.129 42.4153 170.129 43.8344 172.809C44.6227 174.386 47.9338 178.486 50.9296 181.797C54.0831 185.108 58.9709 188.577 62.1244 189.523C65.1201 190.469 70.7964 191.099 74.7382 191.099C79.4684 190.994 85.2497 189.155 92.0822 185.581L102.331 180.22C129.766 195.83 131.343 196.303 141.749 196.303C150.263 196.145 154.521 195.357 160.512 192.361C164.769 190.153 170.761 185.896 173.599 182.9C176.595 179.747 180.379 174.701 182.113 171.39C185.109 165.556 185.109 165.556 190.155 167.764C192.993 168.868 198.196 170.444 201.665 170.917C205.134 171.548 211.914 171.233 216.959 170.287C222.005 169.498 229.1 167.291 232.726 165.556C236.353 163.822 239.664 162.403 239.822 162.403C239.979 162.403 240.61 164.61 241.241 167.449C241.714 170.287 243.763 175.49 245.655 178.959C247.705 182.427 252.12 187.158 255.431 189.365C258.742 191.73 265.365 194.726 270.252 196.145C274.983 197.564 284.128 198.668 290.75 198.668C297.214 198.51 306.833 197.406 312.036 196.145C317.239 194.726 325.28 191.415 330.168 188.892C334.898 186.212 340.417 182.743 342.309 181.008C345.778 178.17 345.935 178.17 353.346 182.112C359.968 185.739 362.333 186.212 372.74 185.581C379.204 185.266 385.669 184.477 387.246 183.847C389.453 183.058 390.714 184.32 392.922 189.523C394.499 193.307 398.283 198.983 401.121 202.452C404.117 205.763 410.266 210.966 414.838 213.804C419.411 216.8 428.398 220.9 435.021 223.107C443.535 225.945 450.157 227.049 458.987 227.049C465.767 227.049 475.069 225.945 479.957 224.526C484.687 223.107 492.886 219.638 498.09 216.8C503.293 213.962 511.176 207.813 515.591 203.083C520.164 198.352 524.579 191.888 525.84 188.104C527.732 182.112 528.363 181.639 531.201 183.216C532.935 184.004 539.242 184.635 545.391 184.32C554.063 183.846 558.005 182.743 562.735 179.589C566.677 177.067 570.304 172.809 572.511 168.237C574.403 164.137 576.138 158.619 576.138 156.096C576.138 153.416 576.295 151.366 576.453 151.366C576.611 151.208 579.291 152.47 582.445 153.889C586.386 155.781 590.486 156.254 597.423 155.781C602.627 155.308 610.353 153.416 614.767 151.524C619.025 149.632 624.543 146.163 626.908 143.798C629.431 141.433 632.9 135.599 634.634 130.868C636.842 125.192 637.945 118.097 638.103 110.371C638.103 101.384 637.315 96.8111 634.95 91.4503C633.057 87.5084 629.273 81.9899 626.278 79.3094C623.439 76.629 618.236 72.8449 614.767 71.1105C611.299 69.3761 606.253 67.3263 603.73 66.6956C600.104 65.9072 599.316 66.0649 600.104 67.484C600.735 68.43 602.469 69.3761 604.046 69.2184C605.622 69.2184 607.83 70.3221 609.249 71.5835C610.51 73.0025 613.191 74.4216 615.083 74.8946C616.975 75.3676 618.709 76.629 618.709 78.0481C618.709 79.3095 619.813 80.8862 621.39 81.5169C622.966 82.1476 625.489 83.7243 626.908 84.9857C628.485 86.4047 629.746 88.4545 629.746 89.8735C629.746 91.4503 628.485 90.9772 625.332 87.9814C622.966 85.6163 618.236 82.3052 614.767 80.5708C611.299 78.8364 605.149 76.9444 601.365 76.3137C597.108 75.683 590.643 76.156 585.598 77.2597C580.71 78.3634 574.246 80.8862 570.934 82.9359C567.623 84.9857 562.893 88.9275 560.37 91.7656C557.69 94.6037 555.325 98.2302 554.852 99.6493C554.063 102.014 553.275 102.172 549.649 100.753C547.284 99.9646 543.499 99.4916 541.45 99.9646C539.242 100.438 536.089 102.33 534.354 104.064L531.201 107.218C526.628 96.8111 523.16 90.9772 520.321 87.5084C517.483 84.0396 511.965 79.4671 508.181 77.2597C502.504 74.2639 499.036 73.4756 489.418 73.4756C479.169 73.6332 476.331 74.2639 468.92 78.3634C464.032 81.0439 457.252 86.2471 453.468 90.0312C449.842 93.8154 445.9 98.3879 444.639 100.122C443.377 101.857 440.854 107.533 438.962 112.736C437.07 118.097 435.809 125.192 435.967 129.292L436.282 136.387C451.103 129.449 453.941 128.976 462.613 129.607C468.605 130.238 475.227 131.814 478.696 133.864C482.007 135.599 484.687 137.491 484.687 137.964C484.687 138.279 480.588 138.279 475.542 137.648C470.339 137.175 463.086 137.491 458.671 138.594C453.941 139.698 447.477 142.852 442.904 146.478L435.021 152.47C426.349 143.167 421.461 139.698 418.465 138.752C415.311 137.964 410.266 137.175 406.955 137.175H401.121C404.905 128.188 405.063 125.035 404.117 119.831C403.328 115.417 400.963 111.002 398.44 108.321C394.656 104.379 393.868 102.33 393.395 93.3424C393.08 86.7201 391.66 79.7825 389.453 75.0523C386.93 69.3761 384.565 66.8533 379.835 64.4882Z" fill="#FFC3C2"/>
<path d="M379.835 64.4882C376.366 62.9115 372.74 61.4924 371.951 61.4924C371.005 61.4924 368.01 62.5961 365.329 63.6998C362.649 64.8036 359.022 67.7994 357.288 70.3221C355.553 72.8449 353.661 76.629 353.031 78.8364C352.242 80.8862 351.296 83.0936 350.666 83.5666C350.035 83.882 348.931 86.7201 348.143 89.5582C346.881 93.973 345.462 95.2344 338.525 97.4418C334.11 98.8609 328.591 101.857 326.069 104.064C323.703 106.114 320.55 110.844 319.131 114.313L316.293 120.62C313.612 113.209 312.982 108.637 313.297 105.641C313.612 102.487 314.716 98.2302 315.978 96.1804C317.081 93.973 319.604 90.9772 321.338 89.5582C323.073 88.1391 324.177 86.5624 323.861 86.0894C323.388 85.6164 320.235 84.6703 316.924 84.1973C311.878 83.4089 309.828 84.0397 305.887 87.0354C303.206 89.0852 299.58 93.5 298.003 96.9688C296.268 100.438 294.849 106.272 294.849 109.898C294.692 113.682 294.219 116.678 293.903 116.678C293.43 116.678 292.327 115.89 291.538 114.943C290.435 113.84 284.916 113.524 276.559 113.84C265.995 114.313 261.58 115.259 256.062 118.255C252.278 120.462 248.967 122.985 248.651 124.089C248.336 125.192 249.755 126.454 251.647 126.769C253.539 127.242 259.215 129.765 264.261 132.287C269.306 134.968 273.406 137.806 273.406 138.752C273.406 139.54 269.149 140.329 263.946 140.329C258.269 140.329 251.016 141.59 246.129 143.482C241.556 145.217 237.614 146.636 237.457 146.636C237.299 146.636 236.826 145.059 236.353 143.009C235.88 140.644 233.357 138.437 228.942 136.387C225.158 134.653 219.324 133.234 215.855 133.234C211.125 133.234 208.445 132.288 205.607 129.292C203.399 127.084 199.615 124.404 197.25 123.3C194.885 122.196 190.943 121.408 188.578 121.408C186.213 121.408 181.956 122.827 179.118 124.562C176.122 126.454 172.811 130.553 170.919 134.81C168.869 139.067 168.08 143.325 168.711 145.374C169.5 148.37 169.342 148.685 167.607 146.951C166.346 146.005 160.355 143.955 154.363 142.694C148.214 141.433 141.118 140.329 138.596 140.329C135.915 140.329 132.762 140.96 131.5 141.906C129.451 143.167 129.451 143.325 131.816 143.482C133.392 143.482 136.073 144.271 137.965 145.374C139.857 146.478 143.011 149.158 145.06 151.366C146.952 153.416 148.371 155.465 148.214 155.623C148.056 155.781 144.114 154.835 139.384 153.573C134.496 152.312 125.036 151.366 118.098 151.524C106.903 151.524 104.065 151.051 94.4473 146.478C86.2483 142.852 80.2567 141.275 71.5847 140.644C64.6471 140.171 55.8175 140.802 50.2989 141.906C44.1497 143.325 38.4735 145.847 34.0586 149.159C30.4322 152.154 26.8057 154.046 26.175 153.731C25.5443 153.258 25.8596 149.789 26.9633 146.163L28.8554 139.54C7.88495 141.117 2.20872 142.536 -4.09818 145.69L-12.7702 150.105C-27.9068 145.217 -32.9523 144.744 -41.1513 145.532C-47.3005 146.005 -55.8149 147.897 -60.072 149.474C-65.4329 151.681 -72.5282 152.785 -82.1462 152.943C-90.0299 153.258 -103.432 152.47 -112.104 151.366C-120.776 150.262 -133.232 148.528 -139.697 147.266C-146.319 146.163 -151.838 145.532 -151.995 145.847C-152.153 146.005 -148.369 147.582 -143.323 149.001C-138.278 150.42 -126.768 153.258 -117.623 155.308C-108.635 157.357 -93.0256 160.196 -82.9346 161.615C-70.0054 163.507 -58.4953 164.137 -42.728 163.507C-21.5999 162.876 -20.3385 163.034 -12.7702 166.818C-8.51302 168.868 -1.41774 171.706 2.9971 172.809C7.25426 173.913 14.5072 175.017 19.0797 175.017C23.6522 175.017 30.7475 173.913 34.847 172.494C41.9423 170.129 42.4153 170.129 43.8344 172.809C44.6227 174.386 47.9338 178.486 50.9296 181.797C54.0831 185.108 58.9709 188.577 62.1244 189.523C65.1201 190.469 70.7964 191.099 74.7382 191.099C79.4684 190.994 85.2497 189.155 92.0822 185.581L102.331 180.22C129.766 195.83 131.343 196.303 141.749 196.303C150.263 196.145 154.521 195.357 160.512 192.361C164.769 190.153 170.761 185.896 173.599 182.9C176.595 179.747 180.379 174.701 182.113 171.39C185.109 165.556 185.109 165.556 190.155 167.764C192.993 168.868 198.196 170.444 201.665 170.917C205.134 171.548 211.914 171.233 216.959 170.287C222.005 169.498 229.1 167.291 232.726 165.556C236.353 163.822 239.664 162.403 239.822 162.403C239.979 162.403 240.61 164.61 241.241 167.449C241.714 170.287 243.763 175.49 245.655 178.959C247.705 182.427 252.12 187.158 255.431 189.365C258.742 191.73 265.365 194.726 270.252 196.145C274.983 197.564 284.128 198.668 290.75 198.668C297.214 198.51 306.833 197.406 312.036 196.145C317.239 194.726 325.28 191.415 330.168 188.892C334.898 186.212 340.417 182.743 342.309 181.008C345.778 178.17 345.935 178.17 353.346 182.112C359.968 185.739 362.333 186.212 372.74 185.581C379.204 185.266 385.669 184.477 387.246 183.847C389.453 183.058 390.714 184.32 392.922 189.523C394.499 193.307 398.283 198.983 401.121 202.452C404.117 205.763 410.266 210.966 414.838 213.804C419.411 216.8 428.398 220.9 435.021 223.107C443.535 225.945 450.157 227.049 458.987 227.049C465.767 227.049 475.069 225.945 479.957 224.526C484.687 223.107 492.886 219.638 498.09 216.8C503.293 213.962 511.176 207.813 515.591 203.083C520.164 198.352 524.579 191.888 525.84 188.104C527.732 182.112 528.363 181.639 531.201 183.216C532.935 184.004 539.242 184.635 545.391 184.32C554.063 183.846 558.005 182.743 562.735 179.589C566.677 177.067 570.304 172.809 572.511 168.237C574.403 164.137 576.138 158.619 576.138 156.096C576.138 153.416 576.295 151.366 576.453 151.366C576.611 151.208 579.291 152.47 582.445 153.889C586.386 155.781 590.486 156.254 597.423 155.781C602.627 155.308 610.353 153.416 614.767 151.524C619.025 149.632 624.543 146.163 626.908 143.798C629.431 141.433 632.9 135.599 634.634 130.868C636.842 125.192 637.945 118.097 638.103 110.371C638.103 101.384 637.315 96.8111 634.95 91.4503C633.057 87.5084 629.273 81.9899 626.278 79.3094C623.439 76.629 618.236 72.8449 614.767 71.1105C611.299 69.3761 606.253 67.3263 603.73 66.6956C600.104 65.9072 599.316 66.0649 600.104 67.484C600.735 68.43 602.469 69.3761 604.046 69.2184C605.622 69.2184 607.83 70.3221 609.249 71.5835C610.51 73.0025 613.191 74.4216 615.083 74.8946C616.975 75.3676 618.709 76.629 618.709 78.0481C618.709 79.3095 619.813 80.8862 621.39 81.5169C622.966 82.1476 625.489 83.7243 626.908 84.9857C628.485 86.4047 629.746 88.4545 629.746 89.8735C629.746 91.4503 628.485 90.9772 625.332 87.9814C622.966 85.6163 618.236 82.3052 614.767 80.5708C611.299 78.8364 605.149 76.9444 601.365 76.3137C597.108 75.683 590.643 76.156 585.598 77.2597C580.71 78.3634 574.246 80.8862 570.934 82.9359C567.623 84.9857 562.893 88.9275 560.37 91.7656C557.69 94.6037 555.325 98.2302 554.852 99.6493C554.063 102.014 553.275 102.172 549.649 100.753C547.284 99.9646 543.499 99.4916 541.45 99.9646C539.242 100.438 536.089 102.33 534.354 104.064L531.201 107.218C526.628 96.8111 523.16 90.9772 520.321 87.5084C517.483 84.0396 511.965 79.4671 508.181 77.2597C502.504 74.2639 499.036 73.4756 489.418 73.4756C479.169 73.6332 476.331 74.2639 468.92 78.3634C464.032 81.0439 457.252 86.2471 453.468 90.0312C449.842 93.8154 445.9 98.3879 444.639 100.122C443.377 101.857 440.854 107.533 438.962 112.736C437.07 118.097 435.809 125.192 435.967 129.292L436.282 136.387C451.103 129.449 453.941 128.976 462.613 129.607C468.605 130.238 475.227 131.814 478.696 133.864C482.007 135.599 484.687 137.491 484.687 137.964C484.687 138.279 480.588 138.279 475.542 137.648C470.339 137.175 463.086 137.491 458.671 138.594C453.941 139.698 447.477 142.852 442.904 146.478L435.021 152.47C426.349 143.167 421.461 139.698 418.465 138.752C415.311 137.964 410.266 137.175 406.955 137.175H401.121C404.905 128.188 405.063 125.035 404.117 119.831C403.328 115.417 400.963 111.002 398.44 108.321C394.656 104.379 393.868 102.33 393.395 93.3424C393.08 86.7201 391.66 79.7825 389.453 75.0523C386.93 69.3761 384.565 66.8533 379.835 64.4882Z" fill="url(#paint0_linear_333_9535)" fill-opacity="0.66"/>
<path d="M-105.797 131.972C-101.54 131.657 -104.693 131.341 -112.892 131.341C-121.249 131.341 -124.718 131.657 -120.776 131.972C-116.992 132.288 -110.212 132.288 -105.797 131.972Z" fill="#FFC3C2"/>
<path d="M-105.797 131.972C-101.54 131.657 -104.693 131.341 -112.892 131.341C-121.249 131.341 -124.718 131.657 -120.776 131.972C-116.992 132.288 -110.212 132.288 -105.797 131.972Z" fill="url(#paint1_linear_333_9535)" fill-opacity="0.66"/>
<defs>
<linearGradient id="paint0_linear_333_9535" x1="650.603" y1="93" x2="589.134" y2="260.96" gradientUnits="userSpaceOnUse">
<stop stop-color="#FF1CEE"/>
<stop offset="1" stop-color="#516AFF"/>
</linearGradient>
<linearGradient id="paint1_linear_333_9535" x1="650.603" y1="93" x2="589.134" y2="260.96" gradientUnits="userSpaceOnUse">
<stop stop-color="#FF1CEE"/>
<stop offset="1" stop-color="#516AFF"/>
</linearGradient>
</defs>
</svg>
