<svg width="652" height="142" viewBox="0 0 652 142" fill="none" xmlns="http://www.w3.org/2000/svg">
<path d="M175.375 8.04132C171.591 6.14925 164.969 3.4688 160.554 2.36509C156.297 1.10371 147.309 0 140.845 0C134.222 0 124.762 1.10372 119.559 2.52277C114.356 3.94183 107.26 7.09527 103.792 9.30268C100.323 11.6678 94.962 16.398 91.9662 19.7091C88.8127 23.1779 84.5555 29.3272 82.5058 33.4266C79.1947 39.8912 78.091 40.9949 75.4105 40.0489C73.6761 39.4182 69.7343 38.4722 66.7385 37.8415C63.7427 37.2108 59.1702 37.2108 56.4898 37.8415C53.967 38.4722 49.3945 41.3102 46.7141 43.833C43.876 46.5135 40.8802 51.4013 39.9341 54.7125C39.1458 57.8659 38.3574 62.1231 38.3574 64.1728C38.3574 66.0649 37.0961 68.1146 35.677 68.5877C34.1003 69.0607 31.7352 70.1644 30.4738 70.9528C29.2124 71.7411 26.2166 73.1602 23.8516 73.9485C21.3288 74.8946 19.4367 76.629 19.4367 77.8903C19.4367 79.1517 18.1753 80.7285 16.7563 81.3592C15.1795 81.9899 12.6567 83.5666 11.08 84.9856C9.66095 86.247 8.3996 88.4544 8.3996 89.7158C8.3996 91.2925 9.66095 90.8195 12.6567 87.8238C15.1795 85.6163 19.9097 82.3052 23.3785 80.5708C26.8474 78.6787 32.8389 76.7866 36.7807 76.3136C41.0379 75.5253 47.5024 75.9983 52.548 77.102C57.2782 78.2057 63.9004 80.8861 67.2115 82.9359C70.365 84.828 75.0952 88.9275 77.7756 91.7656C80.2984 94.446 82.8212 98.0725 83.2942 99.6492C83.9249 101.857 84.7132 102.014 88.4974 100.753C90.8624 99.8069 94.489 99.3338 96.6964 99.8068C98.9038 100.28 102.057 102.172 106.945 107.06L109.783 100.438C111.36 96.6534 114.986 90.8195 117.825 87.3507C120.663 83.8819 126.023 79.3094 129.965 77.2597C135.641 74.1062 139.11 73.3178 148.728 73.4755C158.977 73.4755 161.815 74.1062 169.226 78.2057C173.956 80.8861 180.894 86.247 184.52 89.8735C188.147 93.6576 192.246 98.2301 193.507 99.9645C194.769 101.699 197.292 107.375 199.026 112.578C200.918 117.939 202.337 125.035 201.706 136.229L193.823 132.445C187.043 129.292 184.205 128.819 175.533 129.607C169.541 130.08 162.919 131.814 159.45 133.706C156.139 135.599 153.459 137.333 153.459 137.806C153.459 138.279 157.558 138.121 162.604 137.648C167.649 137.018 174.902 137.333 179.475 138.437C184.047 139.54 190.669 142.694 203.125 152.47L208.644 146.32C211.64 143.009 216.685 139.54 219.681 138.752C222.677 137.806 227.88 137.018 237.025 137.018L234.818 131.972C233.241 128.188 232.926 124.877 234.029 119.674C234.818 115.416 237.025 110.844 239.706 108.164C243.49 104.379 244.12 102.172 244.593 93.1846C244.909 86.72 246.485 79.7824 248.535 75.0523C251.373 68.903 253.423 66.8532 258.784 64.3305C264.145 61.9654 266.51 61.65 270.925 62.9114C274.078 63.8575 278.02 66.6956 280.227 69.6914C282.277 72.3718 284.485 76.4713 285.115 78.6787C285.746 80.8861 286.85 82.9359 287.323 83.4089C287.953 83.8819 289.057 86.5624 290.003 89.4005C291.265 93.973 292.526 95.0767 299.464 97.2841C304.036 98.7032 309.555 101.699 311.92 103.906C314.285 106.114 317.438 110.686 321.695 120.462L323.587 115.732C324.534 113.209 325.007 108.479 324.849 105.483C324.533 102.487 323.272 98.2301 322.168 96.0227C320.907 93.8153 318.542 90.9772 316.807 89.4005C314.915 87.9814 313.812 86.4047 314.285 85.9317C314.758 85.4586 317.596 84.6703 320.592 84.0396C324.849 83.4089 327.372 84.0396 331.629 86.8777C334.625 88.9275 338.566 93.4999 340.143 96.8111C341.72 100.28 343.139 106.114 343.297 109.74C343.454 113.524 343.77 116.52 344.243 116.52C344.716 116.52 345.819 115.732 346.608 114.786C347.554 113.84 353.23 113.367 361.587 113.682C372.151 114.155 376.408 115.101 381.926 118.097C385.868 120.304 389.179 122.985 389.495 124.088C389.81 125.035 388.391 126.296 386.499 126.769C384.449 127.084 378.773 129.607 373.885 132.287C368.84 134.81 364.74 137.648 364.74 138.594C364.74 139.54 368.997 140.171 374.2 140.171C379.877 140.171 386.972 141.432 392.017 143.325C396.432 145.059 400.374 146.478 400.689 146.478C400.847 146.478 401.32 144.901 401.635 143.009C402.108 140.644 404.631 138.279 409.204 136.229C412.988 134.495 418.822 133.076 422.291 133.233C427.021 133.233 429.544 132.13 432.539 129.134C434.747 126.927 438.373 124.246 440.896 123.142C443.261 122.039 447.045 121.25 449.568 121.25C451.933 121.25 456.19 122.669 459.028 124.404C462.024 126.296 465.335 130.395 467.227 134.653C469.119 138.91 469.908 143.167 469.435 145.374C468.489 148.212 468.646 148.528 470.538 146.951C471.8 145.847 477.791 143.798 483.783 142.536C489.932 141.275 497.027 140.171 499.55 140.171C502.231 140.171 505.384 140.959 506.646 141.748C508.695 143.009 508.538 143.325 506.33 143.325C504.753 143.325 501.915 144.271 500.023 145.374C498.131 146.32 494.978 149.001 493.086 151.208C491.194 153.416 489.617 155.308 489.775 155.465C489.932 155.623 494.032 154.677 498.762 153.416C503.492 152.154 513.11 151.208 520.048 151.366C531.085 151.524 534.081 150.893 543.699 146.478C551.898 142.694 557.732 141.117 566.561 140.644C573.499 140.171 582.328 140.644 587.847 141.748C593.996 143.167 599.672 145.69 604.087 149.158C607.714 151.997 611.183 154.046 611.971 153.573C612.602 153.1 612.286 149.789 609.291 139.383L621.431 140.329C630.261 140.959 635.937 142.379 650.916 149.947L659.588 147.266C666.053 145.217 671.098 144.744 679.297 145.374C685.446 145.847 693.961 147.739 698.218 149.474C703.736 151.681 710.516 152.627 721.08 152.943C729.279 153.1 742.051 152.312 749.462 151.366C756.872 150.42 768.225 148.685 774.689 147.739C781.154 146.793 787.461 145.532 788.407 145.059C789.826 144.428 789.353 142.536 786.515 138.279C784.307 134.968 781.311 132.13 779.892 132.13C778.316 131.972 766.49 131.814 753.403 131.657C729.986 131.5 729.597 131.342 714.916 125.408L714.774 125.35C706.575 122.039 696.641 118.412 692.699 117.151C688.758 116.047 681.032 114.943 675.355 114.943C667.945 114.943 662.899 116.047 657.223 118.57C652.966 120.62 648.236 123.615 646.974 125.35C645.713 127.242 643.505 128.976 642.244 129.449C640.825 129.765 638.145 128.03 635.937 125.35C633.73 122.827 629.63 119.831 626.95 118.57C624.112 117.466 618.436 116.52 614.336 116.52C610.079 116.52 603.772 117.939 593.366 122.827L586.743 116.836C582.959 113.524 576.495 109.11 572.08 107.06C565.93 104.064 561.673 103.118 553.159 103.118C544.645 103.118 540.545 103.906 535.027 106.744C531.085 108.794 525.724 112.736 522.886 115.416C520.205 118.255 517.683 119.831 517.367 118.885C517.21 117.939 514.056 115.416 510.587 113.051C507.119 110.686 500.496 107.217 496.081 105.483C491.509 103.749 483.625 101.857 478.737 101.384C472.746 100.911 466.912 101.384 461.709 102.96C457.452 104.222 452.721 104.852 451.46 104.222C449.568 103.433 449.41 103.749 450.672 105.483C451.775 107.217 451.775 107.533 450.199 106.744C449.253 105.956 448.307 103.591 448.307 101.226C448.307 98.7032 447.518 95.5497 446.415 94.1307C445.311 92.5539 441.527 90.3465 438.058 89.0851C434.589 87.8237 431.12 87.1931 430.332 87.8238C429.544 88.4544 429.544 86.5623 430.332 83.4089C431.12 80.4131 431.593 75.3676 431.593 72.3718C431.593 69.376 431.12 64.1728 430.49 61.0194C429.859 57.5506 427.021 52.3474 423.867 48.7209C420.872 45.2521 418.033 42.887 417.56 43.6754C417.087 44.3061 416.457 43.5177 415.984 42.0987C415.511 40.5219 414.565 39.5759 413.619 40.0489C412.83 40.5219 412.042 40.2065 412.042 39.2605C412.042 38.3145 410.938 37.9991 409.677 38.4721C408.415 38.9452 407.312 38.7875 407.312 38.1568C407.312 37.3685 406.05 36.7378 404.631 36.5801C403.055 36.4224 398.009 36.1071 393.436 35.7917C388.706 35.4764 384.607 35.7917 384.291 36.5801C383.976 37.2108 382.399 37.6838 380.98 37.6838C379.404 37.6838 373.885 39.5759 368.682 41.7833C363.479 43.9907 358.275 46.1981 357.014 46.8288C355.91 47.4595 355.122 47.3018 355.28 46.3558C355.595 45.4097 354.964 42.5716 353.861 40.0489C352.757 37.5261 350.076 33.4266 347.711 30.9039C345.346 28.5388 340.931 25.8583 337.936 24.9123C334.94 23.9662 330.367 23.6509 327.687 24.1239C325.164 24.7546 320.276 27.1197 317.123 29.4848C313.812 31.8499 311.762 34.3727 312.393 35.0034C313.023 35.7917 312.235 35.9494 310.816 35.4764C309.239 35.0034 307.663 33.269 307.19 31.8499C306.874 30.2732 304.351 27.1197 301.671 24.7546C299.148 22.2319 294.26 18.7631 291.107 16.871C286.534 14.3482 282.277 13.5599 273.29 13.4022C263.514 13.2445 259.888 14.0329 252.792 17.5017C247.589 19.8668 242.071 24.2816 239.075 28.0657C236.237 31.6922 233.872 35.0034 233.872 35.7917C233.872 36.4224 232.926 38.3145 231.664 40.0489C229.457 43.2023 229.299 43.2024 225.673 39.7336C223.623 37.8415 219.523 35.7917 216.528 35.4764C213.059 34.8457 209.748 35.4764 207.856 36.8954C206.121 38.1568 204.072 39.2605 203.125 39.2605C202.337 39.2605 199.814 35.7917 197.607 31.2192C195.4 26.8044 191.142 20.6551 187.989 17.5017C184.835 14.1906 179.159 10.0911 175.375 8.04132Z" fill="white"/>
<path d="M258.268 63.9958C261.737 62.419 265.364 61 266.152 61C267.098 61 270.094 62.1037 272.774 63.2074C275.455 64.3111 279.081 67.3069 280.816 69.8297C282.55 72.3524 284.442 76.1366 285.073 78.344C285.861 80.3938 286.807 82.6012 287.438 83.0742C288.069 83.3895 289.172 86.2276 289.961 89.0657C291.222 93.4806 292.641 94.742 299.579 96.9494C303.994 98.3684 309.512 101.364 312.035 103.572C314.4 105.621 317.553 110.352 318.973 113.82L321.811 120.127C324.491 112.717 325.122 108.144 324.806 105.148C324.491 101.995 323.387 97.7378 322.126 95.688C321.022 93.4806 318.5 90.4848 316.765 89.0657C315.031 87.6467 313.927 86.07 314.242 85.597C314.715 85.1239 317.869 84.1779 321.18 83.7049C326.225 82.9165 328.275 83.5472 332.217 86.543C334.897 88.5928 338.524 93.0076 340.101 96.4764C341.835 99.9452 343.254 105.779 343.254 109.406C343.412 113.19 343.885 116.185 344.2 116.185C344.673 116.185 345.777 115.397 346.565 114.451C347.669 113.347 353.188 113.032 361.544 113.347C372.108 113.82 376.523 114.766 382.042 117.762C385.826 119.97 389.137 122.492 389.452 123.596C389.768 124.7 388.349 125.961 386.456 126.277C384.564 126.75 378.888 129.272 373.843 131.795C368.797 134.476 364.698 137.314 364.698 138.26C364.698 139.048 368.955 139.836 374.158 139.836C379.834 139.836 387.087 141.098 391.975 142.99C396.548 144.724 400.489 146.143 400.647 146.143C400.805 146.143 401.278 144.567 401.751 142.517C402.224 140.152 404.746 137.944 409.161 135.895C412.945 134.16 418.779 132.741 422.248 132.741C426.978 132.741 429.659 131.795 432.497 128.799C434.704 126.592 438.488 123.911 440.854 122.808C443.219 121.704 447.16 120.916 449.526 120.916C451.891 120.916 456.148 122.335 458.986 124.069C461.982 125.961 465.293 130.061 467.185 134.318C469.235 138.575 470.023 142.832 469.392 144.882C468.604 147.878 468.762 148.193 470.496 146.459C471.757 145.513 477.749 143.463 483.741 142.201C489.89 140.94 496.985 139.836 499.508 139.836C502.188 139.836 505.342 140.467 506.603 141.413C508.653 142.674 508.653 142.832 506.288 142.99C504.711 142.99 502.031 143.778 500.139 144.882C498.246 145.986 495.093 148.666 493.043 150.873C491.151 152.923 489.732 154.973 489.89 155.131C490.047 155.288 493.989 154.342 498.719 153.081C503.607 151.82 513.068 150.873 520.005 151.031C531.2 151.031 534.038 150.558 543.656 145.986C551.855 142.359 557.847 140.782 566.519 140.152C573.456 139.679 582.286 140.309 587.805 141.413C593.954 142.832 599.63 145.355 604.045 148.666C607.671 151.662 611.298 153.554 611.929 153.239C612.559 152.766 612.244 149.297 611.14 145.67L609.248 139.048C630.219 140.625 635.895 142.044 642.202 145.197L650.874 149.612C666.01 144.724 671.056 144.251 679.255 145.04C685.404 145.513 693.918 147.405 698.176 148.981C703.536 151.189 710.632 152.293 720.25 152.45C728.133 152.766 741.536 151.977 750.208 150.873C758.88 149.77 771.336 148.035 777.8 146.774C784.423 145.67 789.941 145.04 790.099 145.355C790.256 145.513 786.472 147.089 781.427 148.508C776.381 149.927 764.871 152.766 755.726 154.815C746.739 156.865 731.129 159.703 721.038 161.122C708.109 163.014 696.599 163.645 680.832 163.014C659.703 162.384 658.442 162.541 650.874 166.325C646.617 168.375 639.521 171.213 635.106 172.317C630.849 173.421 623.596 174.524 619.024 174.524C614.451 174.524 607.356 173.421 603.257 172.002C596.161 169.637 595.688 169.637 594.269 172.317C593.481 173.894 590.17 177.993 587.174 181.304C584.02 184.615 579.133 188.084 575.979 189.03C572.983 189.976 567.307 190.607 563.365 190.607C558.635 190.502 552.854 188.662 546.021 185.088L535.773 179.728C508.338 195.337 506.761 195.81 496.354 195.81C487.84 195.653 483.583 194.864 477.591 191.868C473.334 189.661 467.343 185.404 464.504 182.408C461.509 179.255 457.725 174.209 455.99 170.898C452.994 165.064 452.994 165.064 447.949 167.271C445.111 168.375 439.908 169.952 436.439 170.425C432.97 171.056 426.19 170.74 421.144 169.794C416.099 169.006 409.004 166.798 405.377 165.064C401.751 163.33 398.44 161.911 398.282 161.911C398.124 161.911 397.494 164.118 396.863 166.956C396.39 169.794 394.34 174.997 392.448 178.466C390.398 181.935 385.983 186.665 382.672 188.873C379.361 191.238 372.739 194.233 367.851 195.653C363.121 197.072 353.976 198.175 347.354 198.175C340.889 198.018 331.271 196.914 326.068 195.653C320.865 194.233 312.823 190.922 307.935 188.4C303.205 185.719 297.687 182.25 295.795 180.516C292.326 177.678 292.168 177.678 284.758 181.62C278.135 185.246 275.77 185.719 265.364 185.088C258.899 184.773 252.435 183.985 250.858 183.354C248.65 182.566 247.389 183.827 245.182 189.03C243.605 192.814 239.821 198.491 236.983 201.959C233.987 205.271 227.838 210.474 223.265 213.312C218.693 216.308 209.705 220.407 203.083 222.615C194.569 225.453 187.946 226.556 179.117 226.556C172.337 226.556 163.034 225.453 158.146 224.034C153.416 222.615 145.217 219.146 140.014 216.308C134.811 213.47 126.927 207.32 122.512 202.59C117.94 197.86 113.525 191.395 112.263 187.611C110.371 181.62 109.741 181.147 106.903 182.723C105.168 183.512 98.8613 184.142 92.7121 183.827C84.0401 183.354 80.0983 182.25 75.3681 179.097C71.4263 176.574 67.7997 172.317 65.5923 167.744C63.7003 163.645 61.9659 158.126 61.9659 155.604C61.9659 152.923 61.8082 150.873 61.6505 150.873C61.4929 150.716 58.8124 151.977 55.659 153.396C51.7172 155.288 47.6177 155.761 40.6801 155.288C35.4769 154.815 27.7509 152.923 23.3361 151.031C19.0789 149.139 13.5604 145.67 11.1953 143.305C8.67249 140.94 5.20367 135.106 3.4693 130.376C1.26184 124.7 0.158142 117.605 0.000488281 109.879C0.000488281 100.891 0.788818 96.3187 3.15393 90.9578C5.04602 87.016 8.83014 81.4974 11.8259 78.817C14.6641 76.1366 19.8672 72.3524 23.3361 70.618C26.8049 68.8836 31.8504 66.8339 34.3732 66.2032C37.9996 65.4148 38.788 65.5725 37.9996 66.9915C37.3689 67.9376 35.6345 68.8836 34.0578 68.726C32.4811 68.726 30.2737 69.8297 28.8546 71.091C27.5933 72.5101 24.9128 73.9292 23.0207 74.4022C21.1286 74.8752 19.3942 76.1366 19.3942 77.5556C19.3942 78.817 18.2905 80.3938 16.7138 81.0245C15.1371 81.6552 12.6143 83.2319 11.1953 84.4932C9.61853 85.9123 8.35718 87.962 8.35718 89.3811C8.35718 90.9578 9.61853 90.4848 12.772 87.489C15.1371 85.1239 19.8672 81.8128 23.3361 80.0784C26.8049 78.344 32.9541 76.4519 36.7383 75.8212C40.9954 75.1905 47.46 75.6636 52.5056 76.7673C57.3934 77.871 63.858 80.3938 67.1691 82.4435C70.4802 84.4933 75.2104 88.4351 77.7332 91.2732C80.4136 94.1113 82.7787 97.7378 83.2517 99.1568C84.0401 101.522 84.8284 101.68 88.4549 100.261C90.82 99.4721 94.6042 98.9991 96.6539 99.4721C98.8613 99.9452 102.015 101.837 103.749 103.572L106.903 106.725C111.475 96.3187 114.944 90.4848 117.782 87.016C120.62 83.5472 126.139 78.9747 129.923 76.7673C135.599 73.7715 139.068 72.9831 148.686 72.9831C158.935 73.1408 161.773 73.7715 169.183 77.871C174.071 80.5514 180.851 85.7546 184.635 89.5388C188.262 93.3229 192.204 97.8954 193.465 99.6298C194.726 101.364 197.249 107.04 199.141 112.244C201.033 117.605 202.295 124.7 202.137 128.799L201.822 135.895C187 128.957 184.162 128.484 175.49 129.115C169.499 129.745 162.876 131.322 159.408 133.372C156.096 135.106 153.416 136.998 153.416 137.471C153.416 137.787 157.516 137.787 162.561 137.156C167.764 136.683 175.017 136.998 179.432 138.102C184.162 139.206 190.627 142.359 195.199 145.986L203.083 151.977C211.755 142.675 216.643 139.206 219.639 138.26C222.792 137.471 227.838 136.683 231.149 136.683H236.983C233.199 127.696 233.041 124.542 233.987 119.339C234.775 114.924 237.14 110.509 239.663 107.829C243.447 103.887 244.236 101.837 244.709 92.8499C245.024 86.2277 246.443 79.2901 248.65 74.5599C251.173 68.8836 253.538 66.3609 258.268 63.9958Z" fill="#FFC3C2"/>
<path d="M258.268 63.9958C261.737 62.419 265.364 61 266.152 61C267.098 61 270.094 62.1037 272.774 63.2074C275.455 64.3111 279.081 67.3069 280.816 69.8297C282.55 72.3524 284.442 76.1366 285.073 78.344C285.861 80.3938 286.807 82.6012 287.438 83.0742C288.069 83.3895 289.172 86.2276 289.961 89.0657C291.222 93.4806 292.641 94.742 299.579 96.9494C303.994 98.3684 309.512 101.364 312.035 103.572C314.4 105.621 317.553 110.352 318.973 113.82L321.811 120.127C324.491 112.717 325.122 108.144 324.806 105.148C324.491 101.995 323.387 97.7378 322.126 95.688C321.022 93.4806 318.5 90.4848 316.765 89.0657C315.031 87.6467 313.927 86.07 314.242 85.597C314.715 85.1239 317.869 84.1779 321.18 83.7049C326.225 82.9165 328.275 83.5472 332.217 86.543C334.897 88.5928 338.524 93.0076 340.101 96.4764C341.835 99.9452 343.254 105.779 343.254 109.406C343.412 113.19 343.885 116.185 344.2 116.185C344.673 116.185 345.777 115.397 346.565 114.451C347.669 113.347 353.188 113.032 361.544 113.347C372.108 113.82 376.523 114.766 382.042 117.762C385.826 119.97 389.137 122.492 389.452 123.596C389.768 124.7 388.349 125.961 386.456 126.277C384.564 126.75 378.888 129.272 373.843 131.795C368.797 134.476 364.698 137.314 364.698 138.26C364.698 139.048 368.955 139.836 374.158 139.836C379.834 139.836 387.087 141.098 391.975 142.99C396.548 144.724 400.489 146.143 400.647 146.143C400.805 146.143 401.278 144.567 401.751 142.517C402.224 140.152 404.746 137.944 409.161 135.895C412.945 134.16 418.779 132.741 422.248 132.741C426.978 132.741 429.659 131.795 432.497 128.799C434.704 126.592 438.488 123.911 440.854 122.808C443.219 121.704 447.16 120.916 449.526 120.916C451.891 120.916 456.148 122.335 458.986 124.069C461.982 125.961 465.293 130.061 467.185 134.318C469.235 138.575 470.023 142.832 469.392 144.882C468.604 147.878 468.762 148.193 470.496 146.459C471.757 145.513 477.749 143.463 483.741 142.201C489.89 140.94 496.985 139.836 499.508 139.836C502.188 139.836 505.342 140.467 506.603 141.413C508.653 142.674 508.653 142.832 506.288 142.99C504.711 142.99 502.031 143.778 500.139 144.882C498.246 145.986 495.093 148.666 493.043 150.873C491.151 152.923 489.732 154.973 489.89 155.131C490.047 155.288 493.989 154.342 498.719 153.081C503.607 151.82 513.068 150.873 520.005 151.031C531.2 151.031 534.038 150.558 543.656 145.986C551.855 142.359 557.847 140.782 566.519 140.152C573.456 139.679 582.286 140.309 587.805 141.413C593.954 142.832 599.63 145.355 604.045 148.666C607.671 151.662 611.298 153.554 611.929 153.239C612.559 152.766 612.244 149.297 611.14 145.67L609.248 139.048C630.219 140.625 635.895 142.044 642.202 145.197L650.874 149.612C666.01 144.724 671.056 144.251 679.255 145.04C685.404 145.513 693.918 147.405 698.176 148.981C703.536 151.189 710.632 152.293 720.25 152.45C728.133 152.766 741.536 151.977 750.208 150.873C758.88 149.77 771.336 148.035 777.8 146.774C784.423 145.67 789.941 145.04 790.099 145.355C790.256 145.513 786.472 147.089 781.427 148.508C776.381 149.927 764.871 152.766 755.726 154.815C746.739 156.865 731.129 159.703 721.038 161.122C708.109 163.014 696.599 163.645 680.832 163.014C659.703 162.384 658.442 162.541 650.874 166.325C646.617 168.375 639.521 171.213 635.106 172.317C630.849 173.421 623.596 174.524 619.024 174.524C614.451 174.524 607.356 173.421 603.257 172.002C596.161 169.637 595.688 169.637 594.269 172.317C593.481 173.894 590.17 177.993 587.174 181.304C584.02 184.615 579.133 188.084 575.979 189.03C572.983 189.976 567.307 190.607 563.365 190.607C558.635 190.502 552.854 188.662 546.021 185.088L535.773 179.728C508.338 195.337 506.761 195.81 496.354 195.81C487.84 195.653 483.583 194.864 477.591 191.868C473.334 189.661 467.343 185.404 464.504 182.408C461.509 179.255 457.725 174.209 455.99 170.898C452.994 165.064 452.994 165.064 447.949 167.271C445.111 168.375 439.908 169.952 436.439 170.425C432.97 171.056 426.19 170.74 421.144 169.794C416.099 169.006 409.004 166.798 405.377 165.064C401.751 163.33 398.44 161.911 398.282 161.911C398.124 161.911 397.494 164.118 396.863 166.956C396.39 169.794 394.34 174.997 392.448 178.466C390.398 181.935 385.983 186.665 382.672 188.873C379.361 191.238 372.739 194.233 367.851 195.653C363.121 197.072 353.976 198.175 347.354 198.175C340.889 198.018 331.271 196.914 326.068 195.653C320.865 194.233 312.823 190.922 307.935 188.4C303.205 185.719 297.687 182.25 295.795 180.516C292.326 177.678 292.168 177.678 284.758 181.62C278.135 185.246 275.77 185.719 265.364 185.088C258.899 184.773 252.435 183.985 250.858 183.354C248.65 182.566 247.389 183.827 245.182 189.03C243.605 192.814 239.821 198.491 236.983 201.959C233.987 205.271 227.838 210.474 223.265 213.312C218.693 216.308 209.705 220.407 203.083 222.615C194.569 225.453 187.946 226.556 179.117 226.556C172.337 226.556 163.034 225.453 158.146 224.034C153.416 222.615 145.217 219.146 140.014 216.308C134.811 213.47 126.927 207.32 122.512 202.59C117.94 197.86 113.525 191.395 112.263 187.611C110.371 181.62 109.741 181.147 106.903 182.723C105.168 183.512 98.8613 184.142 92.7121 183.827C84.0401 183.354 80.0983 182.25 75.3681 179.097C71.4263 176.574 67.7997 172.317 65.5923 167.744C63.7003 163.645 61.9659 158.126 61.9659 155.604C61.9659 152.923 61.8082 150.873 61.6505 150.873C61.4929 150.716 58.8124 151.977 55.659 153.396C51.7172 155.288 47.6177 155.761 40.6801 155.288C35.4769 154.815 27.7509 152.923 23.3361 151.031C19.0789 149.139 13.5604 145.67 11.1953 143.305C8.67249 140.94 5.20367 135.106 3.4693 130.376C1.26184 124.7 0.158142 117.605 0.000488281 109.879C0.000488281 100.891 0.788818 96.3187 3.15393 90.9578C5.04602 87.016 8.83014 81.4974 11.8259 78.817C14.6641 76.1366 19.8672 72.3524 23.3361 70.618C26.8049 68.8836 31.8504 66.8339 34.3732 66.2032C37.9996 65.4148 38.788 65.5725 37.9996 66.9915C37.3689 67.9376 35.6345 68.8836 34.0578 68.726C32.4811 68.726 30.2737 69.8297 28.8546 71.091C27.5933 72.5101 24.9128 73.9292 23.0207 74.4022C21.1286 74.8752 19.3942 76.1366 19.3942 77.5556C19.3942 78.817 18.2905 80.3938 16.7138 81.0245C15.1371 81.6552 12.6143 83.2319 11.1953 84.4932C9.61853 85.9123 8.35718 87.962 8.35718 89.3811C8.35718 90.9578 9.61853 90.4848 12.772 87.489C15.1371 85.1239 19.8672 81.8128 23.3361 80.0784C26.8049 78.344 32.9541 76.4519 36.7383 75.8212C40.9954 75.1905 47.46 75.6636 52.5056 76.7673C57.3934 77.871 63.858 80.3938 67.1691 82.4435C70.4802 84.4933 75.2104 88.4351 77.7332 91.2732C80.4136 94.1113 82.7787 97.7378 83.2517 99.1568C84.0401 101.522 84.8284 101.68 88.4549 100.261C90.82 99.4721 94.6042 98.9991 96.6539 99.4721C98.8613 99.9452 102.015 101.837 103.749 103.572L106.903 106.725C111.475 96.3187 114.944 90.4848 117.782 87.016C120.62 83.5472 126.139 78.9747 129.923 76.7673C135.599 73.7715 139.068 72.9831 148.686 72.9831C158.935 73.1408 161.773 73.7715 169.183 77.871C174.071 80.5514 180.851 85.7546 184.635 89.5388C188.262 93.3229 192.204 97.8954 193.465 99.6298C194.726 101.364 197.249 107.04 199.141 112.244C201.033 117.605 202.295 124.7 202.137 128.799L201.822 135.895C187 128.957 184.162 128.484 175.49 129.115C169.499 129.745 162.876 131.322 159.408 133.372C156.096 135.106 153.416 136.998 153.416 137.471C153.416 137.787 157.516 137.787 162.561 137.156C167.764 136.683 175.017 136.998 179.432 138.102C184.162 139.206 190.627 142.359 195.199 145.986L203.083 151.977C211.755 142.675 216.643 139.206 219.639 138.26C222.792 137.471 227.838 136.683 231.149 136.683H236.983C233.199 127.696 233.041 124.542 233.987 119.339C234.775 114.924 237.14 110.509 239.663 107.829C243.447 103.887 244.236 101.837 244.709 92.8499C245.024 86.2277 246.443 79.2901 248.65 74.5599C251.173 68.8836 253.538 66.3609 258.268 63.9958Z" fill="url(#paint0_linear_333_9538)" fill-opacity="0.66"/>
<path d="M743.901 131.48C739.643 131.164 742.797 130.849 750.996 130.849C759.353 130.849 762.821 131.164 758.88 131.48C755.095 131.795 748.315 131.795 743.901 131.48Z" fill="#FFC3C2"/>
<path d="M743.901 131.48C739.643 131.164 742.797 130.849 750.996 130.849C759.353 130.849 762.821 131.164 758.88 131.48C755.095 131.795 748.315 131.795 743.901 131.48Z" fill="url(#paint1_linear_333_9538)" fill-opacity="0.66"/>
<defs>
<linearGradient id="paint0_linear_333_9538" x1="-12.5" y1="92.5076" x2="48.9699" y2="260.467" gradientUnits="userSpaceOnUse">
<stop stop-color="#FF1CEE"/>
<stop offset="1" stop-color="#516AFF"/>
</linearGradient>
<linearGradient id="paint1_linear_333_9538" x1="-12.5" y1="92.5076" x2="48.9699" y2="260.467" gradientUnits="userSpaceOnUse">
<stop stop-color="#FF1CEE"/>
<stop offset="1" stop-color="#516AFF"/>
</linearGradient>
</defs>
</svg>
