<svg width="24" height="24" viewBox="0 0 24 24" fill="none" xmlns="http://www.w3.org/2000/svg">
<g id="ion:wallet">
<path id="Vector" d="M5.1654 4.94661H19.3404C19.506 4.94657 19.6714 4.95707 19.8356 4.97806C19.78 4.58726 19.6457 4.21178 19.441 3.87427C19.2363 3.53675 18.9654 3.24418 18.6445 3.01421C18.3237 2.78423 17.9596 2.62161 17.5742 2.53614C17.1889 2.45068 16.7902 2.44414 16.4022 2.51693L4.74458 4.50719H4.73129C3.99954 4.64712 3.34881 5.06113 2.91202 5.66466C3.57009 5.19659 4.35784 4.94557 5.1654 4.94661ZM19.3404 6.00974H5.1654C4.41376 6.01056 3.69315 6.30951 3.16166 6.84099C2.63017 7.37248 2.33122 8.0931 2.3304 8.84474V17.3497C2.33122 18.1014 2.63017 18.822 3.16166 19.3535C3.69315 19.885 4.41376 20.1839 5.1654 20.1847H19.3404C20.092 20.1839 20.8127 19.885 21.3441 19.3535C21.8756 18.822 22.1746 18.1014 22.1754 17.3497V8.84474C22.1746 8.0931 21.8756 7.37248 21.3441 6.84099C20.8127 6.30951 20.092 6.01056 19.3404 6.00974ZM17.2363 14.5147C16.9559 14.5147 16.6819 14.4316 16.4488 14.2758C16.2157 14.1201 16.034 13.8987 15.9267 13.6397C15.8194 13.3807 15.7913 13.0957 15.846 12.8207C15.9007 12.5457 16.0357 12.2932 16.234 12.0949C16.4322 11.8967 16.6848 11.7617 16.9598 11.707C17.2347 11.6523 17.5197 11.6803 17.7788 11.7876C18.0378 11.8949 18.2591 12.0766 18.4149 12.3097C18.5707 12.5428 18.6538 12.8169 18.6538 13.0972C18.6538 13.4732 18.5045 13.8337 18.2386 14.0996C17.9728 14.3654 17.6122 14.5147 17.2363 14.5147Z" fill="#D8D8D8"/>
<path id="Vector_2" d="M2.35254 11.8349V7.42734C2.35254 6.46743 2.8841 4.85812 4.72907 4.50951C6.29496 4.21582 7.84535 4.21582 7.84535 4.21582C7.84535 4.21582 8.86418 4.92457 8.02254 4.92457C7.1809 4.92457 7.20305 6.00984 8.02254 6.00984C8.84203 6.00984 8.02254 7.05082 8.02254 7.05082L4.72242 10.7939L2.35254 11.8349Z" fill="#D8D8D8"/>
</g>
</svg>
