<svg xmlns="http://www.w3.org/2000/svg" viewBox="0 0 64 64" id="levels"><path fill="#4d4d4d" d="M62.508 61.321H1.492c-.272 0-.492.22-.492.492s.22.492.492.492H62.508c.272 0 .492-.22.492-.492s-.22-.492-.492-.492zM54.32 57.431h4.279c1.365 0 2.476-1.11 2.476-2.475V17.323c0-1.365-1.111-2.476-2.476-2.476h-4.279c-1.365 0-2.475 1.111-2.475 2.476V54.956c0 1.365 1.11 2.475 2.475 2.475zm-1.491-40.108c0-.823.669-1.492 1.491-1.492h4.279c.823 0 1.492.669 1.492 1.492V54.956c0 .822-.669 1.491-1.492 1.491h-4.279c-.822 0-1.491-.669-1.491-1.491V17.323zM53.869 7.341l-.443 2.581c-.032.185.044.372.196.481.152.111.353.126.518.037l2.319-1.22 2.319 1.22c.072.038.15.057.229.057.102 0 .204-.032.289-.094.152-.11.228-.296.196-.481l-.443-2.581 1.876-1.829c.135-.131.183-.327.125-.505-.058-.179-.211-.309-.397-.335l-2.593-.377-1.16-2.35c-.165-.334-.717-.334-.882 0l-1.159 2.35-2.593.377c-.185.027-.339.157-.397.335-.058.178-.01.373.125.505l1.875 1.829zm1.388-2.109c.16-.024.299-.124.37-.269l.832-1.688.833 1.688c.071.145.21.245.37.269l1.863.27-1.347 1.314c-.116.113-.169.276-.142.436l.318 1.854-1.666-.876c-.071-.037-.15-.057-.229-.057s-.158.019-.229.057l-1.666.876.318-1.854c.027-.16-.026-.323-.142-.436l-1.346-1.314 1.863-.27zM38.615 57.431h4.279c1.365 0 2.475-1.11 2.475-2.475V23.273c0-1.365-1.11-2.476-2.475-2.476h-4.279c-1.365 0-2.476 1.111-2.476 2.476v31.683c0 1.365 1.111 2.475 2.476 2.475zm-1.492-34.158c0-.823.669-1.492 1.492-1.492h4.279c.822 0 1.491.669 1.491 1.492v31.683c0 .822-.669 1.491-1.491 1.491h-4.279c-.823 0-1.492-.669-1.492-1.491V23.273zM38.164 13.291l-.444 2.581c-.032.185.044.372.196.481.086.062.187.094.289.094.079 0 .157-.018.229-.057l2.32-1.22 2.319 1.22c.165.088.366.074.518-.037.152-.11.228-.297.196-.481l-.444-2.581 1.876-1.829c.135-.131.183-.327.125-.505-.058-.179-.211-.309-.397-.335l-2.593-.377-1.159-2.35c-.083-.167-.254-.274-.441-.274s-.358.107-.441.274l-1.16 2.35-2.593.377c-.185.027-.339.157-.397.335-.058.178-.01.374.125.505l1.876 1.829zm1.387-2.109c.16-.024.299-.124.37-.269l.833-1.688.832 1.688c.071.145.21.245.37.269l1.863.27-1.347 1.314c-.116.113-.169.277-.142.436l.319 1.854-1.666-.876c-.142-.075-.315-.075-.457 0l-1.666.876.319-1.854c.027-.16-.026-.323-.142-.436l-1.347-1.314 1.863-.27zM22.909 57.431h4.279c1.365 0 2.476-1.11 2.476-2.475v-22.758c0-1.365-1.111-2.476-2.476-2.476h-4.279c-1.365 0-2.476 1.111-2.476 2.476v22.758c0 1.365 1.111 2.475 2.476 2.475zm-1.492-25.233c0-.823.669-1.492 1.492-1.492h4.279c.823 0 1.492.669 1.492 1.492v22.758c0 .822-.669 1.491-1.492 1.491h-4.279c-.823 0-1.492-.669-1.492-1.491v-22.758zM22.459 22.215l-.443 2.581c-.032.185.044.372.196.481.151.111.353.125.518.037l2.319-1.22 2.319 1.22c.072.038.15.057.229.057.102 0 .204-.032.289-.094.152-.11.228-.296.196-.481l-.443-2.581 1.876-1.829c.135-.131.183-.327.125-.505-.058-.179-.212-.309-.397-.335l-2.593-.376-1.16-2.35c-.165-.334-.717-.334-.882 0l-1.16 2.35-2.593.376c-.185.027-.339.157-.397.335-.058.178-.01.374.125.505l1.876 1.829zm1.387-2.108c.16-.023.298-.124.37-.269l.833-1.688.833 1.688c.072.145.21.246.37.269l1.863.27-1.347 1.313c-.116.113-.169.276-.142.436l.318 1.854-1.666-.876c-.071-.037-.15-.057-.229-.057s-.158.019-.229.057l-1.666.876.318-1.854c.027-.16-.026-.323-.142-.436l-1.347-1.313 1.863-.27zM7.204 57.431h4.279c1.365 0 2.476-1.11 2.476-2.475v-13.834c0-1.365-1.111-2.475-2.476-2.475H7.204c-1.365 0-2.475 1.11-2.475 2.475v13.834c0 1.365 1.11 2.475 2.475 2.475zm-1.491-16.308c0-.822.669-1.491 1.491-1.491h4.279c.823 0 1.492.669 1.492 1.491v13.834c0 .822-.669 1.491-1.492 1.491H7.204c-.822 0-1.491-.669-1.491-1.491v-13.834zM6.753 31.141l-.443 2.581c-.032.185.044.372.196.481.151.111.353.126.518.037l2.319-1.22 2.319 1.22c.072.038.15.057.229.057.102 0 .204-.032.289-.094.152-.11.228-.296.196-.481l-.443-2.581 1.876-1.829c.135-.131.183-.327.125-.505-.058-.179-.211-.309-.397-.335l-2.593-.377-1.16-2.35c-.165-.334-.717-.334-.882 0l-1.159 2.35-2.593.377c-.185.027-.339.157-.397.335-.058.178-.01.373.125.505l1.875 1.829zm1.388-2.109c.16-.024.299-.124.37-.269l.832-1.688.833 1.688c.071.145.21.245.37.269l1.863.27-1.347 1.314c-.116.113-.169.276-.142.436l.318 1.854-1.666-.876c-.071-.037-.15-.057-.229-.057s-.158.019-.229.057l-1.666.876.318-1.854c.027-.16-.026-.323-.142-.436l-1.346-1.314 1.863-.27z"></path></svg>