<svg width="198" height="39" viewBox="0 0 198 39" fill="none" xmlns="http://www.w3.org/2000/svg">
<path d="M0.464 29.368C2.10667 29.928 3.89867 30.376 5.84 30.712C7.81867 31.0107 9.77867 31.16 11.72 31.16C14.3707 31.16 16.3307 31.048 17.6 30.824C18.9067 30.5627 19.7653 30.1707 20.176 29.648C20.5867 29.1253 20.792 28.4533 20.792 27.632C20.792 26.9227 20.6427 26.3627 20.344 25.952C20.0453 25.5413 19.4667 25.224 18.608 25C17.7493 24.7387 16.48 24.5333 14.8 24.384L11.104 24.048C8.34133 23.7867 6.15733 23.208 4.552 22.312C2.984 21.416 1.864 20.2213 1.192 18.728C0.557334 17.1973 0.24 15.368 0.24 13.24C0.24 10.7013 0.744 8.648 1.752 7.08C2.79733 5.512 4.47733 4.37333 6.792 3.664C9.10667 2.91733 12.1867 2.544 16.032 2.544C21.0347 2.544 25.16 3.19733 28.408 4.504L28.24 12.12L28.072 12.344C24.376 11.0373 20.512 10.384 16.48 10.384C14.5387 10.384 13.0453 10.496 12 10.72C10.9547 10.9067 10.2267 11.224 9.816 11.672C9.40533 12.12 9.2 12.7547 9.2 13.576C9.2 14.3973 9.33067 15.0133 9.592 15.424C9.89067 15.8347 10.4693 16.152 11.328 16.376C12.1867 16.5627 13.4373 16.7493 15.08 16.936L18.608 17.328C21.5947 17.664 23.8907 18.2613 25.496 19.12C27.1013 19.9787 28.2027 21.136 28.8 22.592C29.4347 24.0107 29.752 25.7467 29.752 27.8C29.752 30.3013 29.2107 32.392 28.128 34.072C27.0827 35.7147 25.3653 36.9467 22.976 37.768C20.5867 38.5893 17.3947 39 13.4 39C10.7867 39 8.43467 38.8693 6.344 38.608C4.25333 38.3093 2.21867 37.9173 0.24 37.432V29.536L0.464 29.368ZM44.3356 39C40.901 39 38.4556 38.0853 36.9996 36.256C35.5436 34.4267 34.8156 31.8133 34.8156 28.416V11.224H43.7756L43.8316 26.232C43.8316 27.912 44.1303 29.1067 44.7276 29.816C45.325 30.488 46.5383 30.824 48.3676 30.824C50.1223 30.824 51.2983 30.5253 51.8956 29.928C52.5303 29.2933 52.8663 28.2293 52.9036 26.736V11.224H61.8636V38.496H53.3516L52.9036 35.416H52.7356C52.2503 36.4987 51.261 37.376 49.7676 38.048C48.2743 38.6827 46.4636 39 44.3356 39ZM102.451 10.944C105.214 10.944 107.398 11.8587 109.003 13.688C110.646 15.5173 111.467 18.6907 111.467 23.208V38.496H102.507L102.451 24.328C102.451 22.4987 102.171 21.1733 101.611 20.352C101.088 19.5307 100.043 19.12 98.4749 19.12C96.9069 19.12 95.8429 19.5307 95.2829 20.352C94.7603 21.1733 94.4989 22.4987 94.4989 24.328V38.496H85.5389L85.4829 24.328C85.4829 22.4987 85.2029 21.1733 84.6429 20.352C84.1203 19.5307 83.0749 19.12 81.5069 19.12C79.9389 19.12 78.8749 19.5307 78.3149 20.352C77.7923 21.1733 77.5309 22.4987 77.5309 24.328V38.496H68.5709V11.224H77.0829L77.5309 16.208H77.6989C78.1843 14.5653 79.0243 13.2773 80.2189 12.344C81.4509 11.4107 83.1869 10.944 85.4269 10.944C87.6669 10.944 89.4216 11.4107 90.6909 12.344C91.9976 13.2773 92.8376 14.5653 93.2109 16.208H93.3789C93.8643 14.528 94.7976 13.24 96.1789 12.344C97.5976 11.4107 99.6883 10.944 102.451 10.944ZM151.506 10.944C154.268 10.944 156.452 11.8587 158.058 13.688C159.7 15.5173 160.522 18.6907 160.522 23.208V38.496H151.562L151.506 24.328C151.506 22.4987 151.226 21.1733 150.666 20.352C150.143 19.5307 149.098 19.12 147.53 19.12C145.962 19.12 144.898 19.5307 144.338 20.352C143.815 21.1733 143.554 22.4987 143.554 24.328V38.496H134.594L134.538 24.328C134.538 22.4987 134.258 21.1733 133.698 20.352C133.175 19.5307 132.13 19.12 130.562 19.12C128.994 19.12 127.93 19.5307 127.37 20.352C126.847 21.1733 126.586 22.4987 126.586 24.328V38.496H117.626V11.224H126.138L126.586 16.208H126.754C127.239 14.5653 128.079 13.2773 129.274 12.344C130.506 11.4107 132.242 10.944 134.482 10.944C136.722 10.944 138.476 11.4107 139.746 12.344C141.052 13.2773 141.892 14.5653 142.266 16.208H142.434C142.919 14.528 143.852 13.24 145.234 12.344C146.652 11.4107 148.743 10.944 151.506 10.944ZM175.136 1.088C175.248 2.432 175.304 3.552 175.304 4.448C175.304 4.97066 175.286 5.512 175.248 6.072C175.248 6.59467 175.211 7.192 175.136 7.864C174.352 8.01333 173.587 8.12533 172.84 8.2C172.094 8.27467 171.347 8.312 170.6 8.312C169.891 8.312 169.163 8.27467 168.416 8.2C167.707 8.12533 166.979 8.01333 166.232 7.864C166.158 7.22933 166.102 6.65067 166.064 6.128C166.027 5.568 166.008 5.02666 166.008 4.504C166.008 4.01867 166.027 3.496 166.064 2.936C166.102 2.376 166.158 1.76 166.232 1.088C166.979 0.901331 167.726 0.789331 168.472 0.751998C169.256 0.67733 170.022 0.639997 170.768 0.639997C171.478 0.639997 172.187 0.67733 172.896 0.751998C173.643 0.789331 174.39 0.901331 175.136 1.088ZM175.136 38.496H166.176V11.224H175.136V38.496ZM181.897 30.32V18.56H178.537V11.28H182.737L184.417 4.616H190.857V11.28H196.961V18.56H190.857V28.36C190.857 29.4053 190.987 30.1333 191.249 30.544C191.51 30.9173 192.107 31.104 193.041 31.104C193.638 31.104 194.273 31.0853 194.945 31.048C195.617 30.9733 196.289 30.8987 196.961 30.824L197.129 30.936V38.216C195.337 38.7387 192.966 39 190.017 39C187.067 39 184.977 38.328 183.745 36.984C182.513 35.64 181.897 33.4187 181.897 30.32Z" fill="white"/>
<path d="M0.464 29.368C2.10667 29.928 3.89867 30.376 5.84 30.712C7.81867 31.0107 9.77867 31.16 11.72 31.16C14.3707 31.16 16.3307 31.048 17.6 30.824C18.9067 30.5627 19.7653 30.1707 20.176 29.648C20.5867 29.1253 20.792 28.4533 20.792 27.632C20.792 26.9227 20.6427 26.3627 20.344 25.952C20.0453 25.5413 19.4667 25.224 18.608 25C17.7493 24.7387 16.48 24.5333 14.8 24.384L11.104 24.048C8.34133 23.7867 6.15733 23.208 4.552 22.312C2.984 21.416 1.864 20.2213 1.192 18.728C0.557334 17.1973 0.24 15.368 0.24 13.24C0.24 10.7013 0.744 8.648 1.752 7.08C2.79733 5.512 4.47733 4.37333 6.792 3.664C9.10667 2.91733 12.1867 2.544 16.032 2.544C21.0347 2.544 25.16 3.19733 28.408 4.504L28.24 12.12L28.072 12.344C24.376 11.0373 20.512 10.384 16.48 10.384C14.5387 10.384 13.0453 10.496 12 10.72C10.9547 10.9067 10.2267 11.224 9.816 11.672C9.40533 12.12 9.2 12.7547 9.2 13.576C9.2 14.3973 9.33067 15.0133 9.592 15.424C9.89067 15.8347 10.4693 16.152 11.328 16.376C12.1867 16.5627 13.4373 16.7493 15.08 16.936L18.608 17.328C21.5947 17.664 23.8907 18.2613 25.496 19.12C27.1013 19.9787 28.2027 21.136 28.8 22.592C29.4347 24.0107 29.752 25.7467 29.752 27.8C29.752 30.3013 29.2107 32.392 28.128 34.072C27.0827 35.7147 25.3653 36.9467 22.976 37.768C20.5867 38.5893 17.3947 39 13.4 39C10.7867 39 8.43467 38.8693 6.344 38.608C4.25333 38.3093 2.21867 37.9173 0.24 37.432V29.536L0.464 29.368ZM44.3356 39C40.901 39 38.4556 38.0853 36.9996 36.256C35.5436 34.4267 34.8156 31.8133 34.8156 28.416V11.224H43.7756L43.8316 26.232C43.8316 27.912 44.1303 29.1067 44.7276 29.816C45.325 30.488 46.5383 30.824 48.3676 30.824C50.1223 30.824 51.2983 30.5253 51.8956 29.928C52.5303 29.2933 52.8663 28.2293 52.9036 26.736V11.224H61.8636V38.496H53.3516L52.9036 35.416H52.7356C52.2503 36.4987 51.261 37.376 49.7676 38.048C48.2743 38.6827 46.4636 39 44.3356 39ZM102.451 10.944C105.214 10.944 107.398 11.8587 109.003 13.688C110.646 15.5173 111.467 18.6907 111.467 23.208V38.496H102.507L102.451 24.328C102.451 22.4987 102.171 21.1733 101.611 20.352C101.088 19.5307 100.043 19.12 98.4749 19.12C96.9069 19.12 95.8429 19.5307 95.2829 20.352C94.7603 21.1733 94.4989 22.4987 94.4989 24.328V38.496H85.5389L85.4829 24.328C85.4829 22.4987 85.2029 21.1733 84.6429 20.352C84.1203 19.5307 83.0749 19.12 81.5069 19.12C79.9389 19.12 78.8749 19.5307 78.3149 20.352C77.7923 21.1733 77.5309 22.4987 77.5309 24.328V38.496H68.5709V11.224H77.0829L77.5309 16.208H77.6989C78.1843 14.5653 79.0243 13.2773 80.2189 12.344C81.4509 11.4107 83.1869 10.944 85.4269 10.944C87.6669 10.944 89.4216 11.4107 90.6909 12.344C91.9976 13.2773 92.8376 14.5653 93.2109 16.208H93.3789C93.8643 14.528 94.7976 13.24 96.1789 12.344C97.5976 11.4107 99.6883 10.944 102.451 10.944ZM151.506 10.944C154.268 10.944 156.452 11.8587 158.058 13.688C159.7 15.5173 160.522 18.6907 160.522 23.208V38.496H151.562L151.506 24.328C151.506 22.4987 151.226 21.1733 150.666 20.352C150.143 19.5307 149.098 19.12 147.53 19.12C145.962 19.12 144.898 19.5307 144.338 20.352C143.815 21.1733 143.554 22.4987 143.554 24.328V38.496H134.594L134.538 24.328C134.538 22.4987 134.258 21.1733 133.698 20.352C133.175 19.5307 132.13 19.12 130.562 19.12C128.994 19.12 127.93 19.5307 127.37 20.352C126.847 21.1733 126.586 22.4987 126.586 24.328V38.496H117.626V11.224H126.138L126.586 16.208H126.754C127.239 14.5653 128.079 13.2773 129.274 12.344C130.506 11.4107 132.242 10.944 134.482 10.944C136.722 10.944 138.476 11.4107 139.746 12.344C141.052 13.2773 141.892 14.5653 142.266 16.208H142.434C142.919 14.528 143.852 13.24 145.234 12.344C146.652 11.4107 148.743 10.944 151.506 10.944ZM175.136 1.088C175.248 2.432 175.304 3.552 175.304 4.448C175.304 4.97066 175.286 5.512 175.248 6.072C175.248 6.59467 175.211 7.192 175.136 7.864C174.352 8.01333 173.587 8.12533 172.84 8.2C172.094 8.27467 171.347 8.312 170.6 8.312C169.891 8.312 169.163 8.27467 168.416 8.2C167.707 8.12533 166.979 8.01333 166.232 7.864C166.158 7.22933 166.102 6.65067 166.064 6.128C166.027 5.568 166.008 5.02666 166.008 4.504C166.008 4.01867 166.027 3.496 166.064 2.936C166.102 2.376 166.158 1.76 166.232 1.088C166.979 0.901331 167.726 0.789331 168.472 0.751998C169.256 0.67733 170.022 0.639997 170.768 0.639997C171.478 0.639997 172.187 0.67733 172.896 0.751998C173.643 0.789331 174.39 0.901331 175.136 1.088ZM175.136 38.496H166.176V11.224H175.136V38.496ZM181.897 30.32V18.56H178.537V11.28H182.737L184.417 4.616H190.857V11.28H196.961V18.56H190.857V28.36C190.857 29.4053 190.987 30.1333 191.249 30.544C191.51 30.9173 192.107 31.104 193.041 31.104C193.638 31.104 194.273 31.0853 194.945 31.048C195.617 30.9733 196.289 30.8987 196.961 30.824L197.129 30.936V38.216C195.337 38.7387 192.966 39 190.017 39C187.067 39 184.977 38.328 183.745 36.984C182.513 35.64 181.897 33.4187 181.897 30.32Z" fill="url(#paint0_linear_133_5295)"/>
<defs>
<linearGradient id="paint0_linear_133_5295" x1="-2" y1="-20" x2="50.6141" y2="115.583" gradientUnits="userSpaceOnUse">
<stop stop-color="white"/>
<stop offset="1" stop-color="#71717A"/>
</linearGradient>
</defs>
</svg>
