<svg width="108" height="109" viewBox="0 0 108 109" fill="none" xmlns="http://www.w3.org/2000/svg">
<rect y="0.0595703" width="108" height="108" rx="54" fill="#222222"/>
<path d="M31.6208 64.2723L39.1988 59.382C39.2233 59.3655 39.251 59.354 39.28 59.3483C39.3091 59.3426 39.339 59.3428 39.368 59.3488C39.3969 59.3549 39.4244 59.3666 39.4488 59.3834C39.4732 59.4002 39.494 59.4217 39.51 59.4466L43.1433 65.1089C43.1745 65.1585 43.1852 65.2181 43.1731 65.2749C43.161 65.3316 43.127 65.3809 43.0787 65.412C38.6976 68.233 34.6749 70.8209 31.0106 73.1758C30.0648 73.7821 28.6705 73.8831 27.5793 73.7174C25.4588 73.386 24.0308 72.0954 23.2952 69.8456C23.1012 69.2555 23.0702 68.6587 23.2023 68.0552C24.9563 60.1068 26.8033 51.5831 28.7432 42.4842C28.983 41.3634 29.3145 40.454 29.7375 39.7562C31.1318 37.4525 34.2196 36.337 36.5637 38.0708C37.1241 38.4858 37.7896 39.2995 38.5602 40.5119C42.2703 46.3506 46.0034 52.1651 49.7594 57.9553C49.851 58.0927 49.9143 58.0806 49.9493 57.9189C51.4231 51.086 52.8458 44.4875 54.2172 38.1234C54.6537 36.0864 55.6317 34.7568 57.3817 33.706C59.4389 32.4692 62.3367 33.0512 63.634 35.068C70.4966 45.7323 77.4306 56.4842 84.4359 67.3236C85.3129 68.6816 84.7512 71.446 83.9105 72.7191C82.5404 74.7965 80.2893 75.4431 77.9209 74.849C72.7855 73.5692 67.9774 72.3877 63.4966 71.3046C61.7183 70.8762 60.809 69.502 60.5584 67.7359C60.1327 64.7128 59.6733 61.687 59.1802 58.6585C59.1344 58.3702 59.2557 58.2072 59.544 58.1695L65.9781 57.2925C66.164 57.2656 66.2705 57.345 66.2974 57.5309L67.3401 64.5754C67.3531 64.6659 67.3932 64.7505 67.4551 64.8182C67.5171 64.8859 67.5981 64.9337 67.6877 64.9553L75.3263 66.7982C75.5149 66.844 75.5566 66.7848 75.4515 66.6204L60.5584 43.5229C60.4722 43.3882 60.4129 43.399 60.3806 43.5552C59.0873 49.6391 57.8088 55.5479 56.5451 61.2815C56.4158 61.8635 56.3107 62.4455 56.2299 63.0275C55.7853 66.1961 53.5059 69.0696 49.9372 68.2653C48.0942 67.8531 46.8616 66.7376 45.8108 65.1008C42.3808 59.7363 38.7892 54.1455 35.036 48.3283C34.9416 48.1801 34.8756 48.1923 34.8379 48.3647L31.4228 64.1349C31.3797 64.3396 31.4457 64.3854 31.6208 64.2723Z" fill="url(#paint0_linear_2_263)"/>
<defs>
<linearGradient id="paint0_linear_2_263" x1="49.5251" y1="35.2367" x2="85.7593" y2="37.594" gradientUnits="userSpaceOnUse">
<stop stop-color="#FF3232"/>
<stop offset="1" stop-color="#FFA723"/>
</linearGradient>
</defs>
</svg>
