<svg width="111" height="52" viewBox="0 0 111 52" fill="none" xmlns="http://www.w3.org/2000/svg">
<path d="M72.2455 17.6533C72.2455 22.3052 70.3976 26.7665 67.1082 30.0559C63.8188 33.3453 59.3574 35.1932 54.7055 35.1932C50.0536 35.1932 45.5923 33.3453 42.3029 30.0559C39.0135 26.7665 37.1655 22.3052 37.1655 17.6533C37.1655 13.0014 39.0135 8.54 42.3029 5.25061C45.5923 1.96122 50.0536 0.113281 54.7055 0.113281C59.3574 0.113281 63.8188 1.96122 67.1082 5.25061C70.3976 8.54 72.2455 13.0014 72.2455 17.6533ZM53.3455 12.1533C53.4755 9.37332 53.2755 5.97329 49.5155 6.24329C45.5855 6.53329 47.5455 11.7432 47.8755 13.8132C47.9045 13.9915 47.8767 14.1744 47.7959 14.3359C47.7151 14.4975 47.5855 14.6295 47.4255 14.7133C41.1055 18.0433 42.2455 25.9833 48.7955 28.2433C53.4622 29.8633 57.9489 29.54 62.2555 27.2733C64.2689 26.2133 65.5055 24.7966 65.9655 23.0233C66.9989 19.05 65.5489 16.0833 61.6155 14.1233C61.3422 13.99 61.2055 13.7733 61.2055 13.4733C61.1955 10.9633 62.8055 8.15323 60.3755 6.31323C59.3822 5.5599 58.3522 5.51668 57.2855 6.18335C55.2655 7.44335 55.2755 9.62329 55.6255 11.7433C55.6466 11.8637 55.6427 11.9873 55.6139 12.1063C55.5851 12.2254 55.5322 12.3374 55.4583 12.4357C55.3843 12.5339 55.291 12.6164 55.1839 12.6779C55.0768 12.7393 54.9583 12.7786 54.8355 12.7933L54.1155 12.8733C53.5755 12.9266 53.3189 12.6867 53.3455 12.1533Z" fill="#28C9D7"/>
<path d="M53.3454 12.1534C53.3188 12.6867 53.5754 12.9267 54.1154 12.8733L54.8354 12.7934C54.9582 12.7787 55.0768 12.7394 55.1838 12.6779C55.2909 12.6164 55.3842 12.534 55.4582 12.4357C55.5321 12.3375 55.5851 12.2254 55.6138 12.1064C55.6426 11.9873 55.6465 11.8638 55.6254 11.7433C55.2754 9.62334 55.2654 7.4434 57.2854 6.1834C58.3521 5.51674 59.3821 5.55995 60.3754 6.31329C62.8054 8.15329 61.1954 10.9633 61.2054 13.4733C61.2054 13.7733 61.3421 13.99 61.6154 14.1233C65.5488 16.0833 66.9988 19.05 65.9654 23.0234C65.5054 24.7967 64.2688 26.2134 62.2554 27.2734C57.9488 29.54 53.4621 29.8633 48.7954 28.2433C42.2454 25.9833 41.1054 18.0433 47.4254 14.7133C47.5854 14.6295 47.715 14.4975 47.7958 14.336C47.8766 14.1744 47.9044 13.9916 47.8754 13.8133C47.5454 11.7433 45.5854 6.53334 49.5154 6.24334C53.2754 5.97334 53.4754 9.37337 53.3454 12.1534ZM44.2954 22.3034C46.3821 27.5501 51.1221 29.3801 58.5154 27.7934C61.3854 27.1834 66.0954 24.5334 65.2454 20.9334C65.5721 19.0067 64.8588 17.4201 63.1054 16.1734C62.2321 15.5467 61.3521 15.0034 60.4654 14.5434C60.1788 14.3901 60.0521 14.1533 60.0854 13.8333L60.6354 9.11334C60.7421 8.17334 60.3688 7.49664 59.5154 7.08331C58.9421 6.80997 58.2921 6.83337 57.5654 7.15337C57.273 7.28311 57.0263 7.49626 56.8569 7.76544C56.6876 8.03461 56.6034 8.34746 56.6154 8.66338L56.7454 13.1834C56.7481 13.2735 56.7328 13.3633 56.7005 13.4474C56.6681 13.5316 56.6193 13.6085 56.557 13.6736C56.4946 13.7388 56.4199 13.7908 56.3373 13.8268C56.2546 13.8628 56.1656 13.8821 56.0754 13.8834L53.1054 13.9334C52.5388 13.9401 52.2454 13.66 52.2254 13.0933L52.1054 9.5534C52.0928 9.10896 51.9188 8.68271 51.6154 8.35333C50.0821 6.65999 48.9054 6.92002 48.0854 9.13336C47.9552 9.47869 47.9342 9.85567 48.0254 10.2133L49.0254 14.1634C49.0896 14.4143 49.0623 14.6794 48.9485 14.9107C48.8347 15.142 48.642 15.324 48.4054 15.4234C45.4388 16.6834 44.0688 18.9767 44.2954 22.3034Z" fill="#753D18"/>
<path d="M65.2454 20.9335C64.3654 22.8068 63.2454 24.0935 61.8854 24.7935C58.0054 26.8068 53.8387 27.1467 49.3854 25.8134C47.812 25.3467 46.1154 24.1768 44.2954 22.3035C44.0687 18.9768 45.4387 16.6835 48.4054 15.4235C48.6419 15.3241 48.8347 15.1421 48.9485 14.9108C49.0623 14.6795 49.0896 14.4143 49.0254 14.1635L48.0254 10.2134C47.9342 9.85574 47.9551 9.47876 48.0854 9.13343C48.9054 6.92009 50.082 6.66006 51.6154 8.3534C51.9187 8.68278 52.0927 9.10903 52.1054 9.55347L52.2254 13.0934C52.2454 13.6601 52.5387 13.9401 53.1054 13.9335L56.0754 13.8834C56.1655 13.8821 56.2545 13.8629 56.3372 13.8269C56.4199 13.7909 56.4946 13.7389 56.5569 13.6737C56.6193 13.6086 56.668 13.5317 56.7004 13.4475C56.7327 13.3633 56.748 13.2736 56.7454 13.1835L56.6154 8.66346C56.6034 8.34753 56.6875 8.03468 56.8568 7.76551C57.0262 7.49633 57.273 7.28318 57.5654 7.15345C58.292 6.83345 58.942 6.81004 59.5154 7.08338C60.3687 7.49671 60.742 8.17341 60.6354 9.11341L60.0854 13.8334C60.052 14.1534 60.1787 14.3901 60.4654 14.5435C61.352 15.0035 62.232 15.5468 63.1054 16.1735C64.8587 17.4201 65.572 19.0068 65.2454 20.9335ZM58.7941 21.3733C58.9569 21.3716 59.1177 21.3236 59.2671 21.2321C59.4166 21.1405 59.552 21.0073 59.6654 20.8398C59.7788 20.6724 59.868 20.4742 59.9281 20.2564C59.9881 20.0385 60.0177 19.8055 60.0153 19.5704C60.0103 19.0957 59.8749 18.6418 59.6389 18.3086C59.4028 17.9754 59.0855 17.79 58.7567 17.7935C58.5938 17.7952 58.4331 17.8432 58.2836 17.9347C58.1341 18.0262 57.9988 18.1595 57.8854 18.3269C57.772 18.4943 57.6827 18.6926 57.6227 18.9104C57.5626 19.1282 57.533 19.3614 57.5355 19.5964C57.5404 20.0711 57.6758 20.5249 57.9119 20.8582C58.1479 21.1914 58.4652 21.3767 58.7941 21.3733ZM50.622 21.7019C50.9506 21.7151 51.2734 21.5351 51.5195 21.2015C51.7657 20.868 51.9149 20.4082 51.9344 19.9232C51.944 19.6831 51.9215 19.444 51.8682 19.2196C51.8148 18.9953 51.7316 18.79 51.6234 18.6156C51.5152 18.4412 51.384 18.3011 51.2373 18.2031C51.0907 18.1052 50.9315 18.0515 50.7688 18.0449C50.4402 18.0317 50.1173 18.2117 49.8712 18.5453C49.6251 18.8789 49.4759 19.3387 49.4564 19.8236C49.4467 20.0637 49.4692 20.3029 49.5226 20.5272C49.5759 20.7516 49.6591 20.9568 49.7673 21.1312C49.8756 21.3056 50.0068 21.4458 50.1534 21.5437C50.3 21.6416 50.4593 21.6954 50.622 21.7019Z" fill="#F5841E"/>
<path d="M57.5355 19.5961C57.5458 20.5847 58.1093 21.3802 58.7941 21.3731C59.4789 21.3659 60.0257 20.5587 60.0153 19.5702C60.005 18.5816 59.4414 17.7861 58.7567 17.7933C58.0719 17.8004 57.5251 18.6076 57.5355 19.5961Z" fill="#753D18"/>
<path d="M49.4566 19.8227C49.4161 20.8326 49.9379 21.6736 50.6222 21.701C51.3065 21.7285 51.8941 20.9321 51.9346 19.9223C51.9752 18.9124 51.4533 18.0715 50.7691 18.044C50.0848 18.0165 49.4972 18.8129 49.4566 19.8227Z" fill="#753D18"/>
<path d="M65.2454 20.9336C66.0954 24.5336 61.3854 27.1836 58.5154 27.7936C51.1221 29.3802 46.3821 27.5503 44.2954 22.3036C46.1154 24.1769 47.8121 25.3468 49.3854 25.8135C53.8387 27.1468 58.0054 26.8069 61.8854 24.7936C63.2454 24.0936 64.3654 22.8069 65.2454 20.9336Z" fill="#FFBE40"/>
<path d="M73.5055 40.2233C72.2255 40.9033 72.2588 41.5034 73.6055 42.0234C75.8555 42.8934 79.1455 44.0434 77.8755 47.1834C76.6755 50.1734 72.0555 49.5434 69.6955 48.6634C69.6148 48.6338 69.541 48.5881 69.4781 48.5292C69.4153 48.4704 69.3647 48.3994 69.3294 48.3204C69.294 48.2413 69.2746 48.1558 69.2722 48.0688C69.2698 47.9818 69.2845 47.8949 69.3155 47.8133L69.6755 46.8733C69.9088 46.2733 70.3088 46.1267 70.8755 46.4334C71.8755 46.9801 72.7122 47.17 73.3855 47.0034C75.4988 46.47 75.5255 45.74 73.4655 44.8133C72.5988 44.4266 71.7288 44.0566 70.8555 43.7033C70.5148 43.5641 70.2119 43.3455 69.972 43.0656C69.732 42.7857 69.5619 42.4524 69.4755 42.0933C68.3355 37.2733 74.2655 36.8833 77.1555 38.3533C77.3197 38.4383 77.4499 38.5769 77.5245 38.746C77.5991 38.9152 77.6136 39.1049 77.5655 39.2834C77.5122 39.49 77.4255 39.6767 77.3055 39.8433C76.8922 40.45 76.3522 40.5967 75.6855 40.2834C74.8788 39.9034 74.1522 39.8833 73.5055 40.2233Z" fill="white"/>
<path d="M53.2554 47.1736L53.3954 49.3435C53.4221 49.6968 53.2588 49.8735 52.9054 49.8735L50.6554 49.9035C50.3154 49.9102 50.1388 49.7402 50.1254 49.3935L49.7454 39.6035C49.7321 39.1502 49.9521 38.8935 50.4054 38.8335L52.3654 38.5935C52.7588 38.5468 52.9621 38.7168 52.9754 39.1035L53.2055 44.1335C53.2388 44.8268 53.4421 44.8836 53.8154 44.3036L54.9454 42.5835C55.2854 42.0635 55.7688 41.8068 56.3954 41.8134L58.0854 41.8335C58.7388 41.8401 58.8588 42.0968 58.4454 42.6035L56.2954 45.2435C56.0488 45.5502 56.0554 45.8502 56.3154 46.1435L58.8354 49.0035C59.1688 49.3835 59.0821 49.5902 58.5754 49.6235L56.5754 49.7635C56.0288 49.8035 55.5888 49.6035 55.2554 49.1635L53.6354 47.0335C53.3554 46.6602 53.2288 46.7069 53.2554 47.1736Z" fill="white"/>
<path d="M105.106 48.3932L105.226 50.3231C105.259 50.8831 104.996 51.1865 104.436 51.2332L102.916 51.3832C102.792 51.3943 102.668 51.3796 102.55 51.3399C102.433 51.3001 102.325 51.2364 102.234 51.1526C102.143 51.0688 102.07 50.9668 102.02 50.8533C101.97 50.7397 101.945 50.6171 101.946 50.4932C101.946 47.7532 101.849 45.0165 101.656 42.2832C101.576 41.2165 102.072 40.5465 103.146 40.2732C105.316 39.7232 107.156 39.3032 109.186 40.5332C110.866 41.5432 110.656 43.1932 110.686 44.8632C110.736 47.5132 107.866 48.4731 105.636 47.9531C105.262 47.8598 105.086 48.0065 105.106 48.3932ZM104.826 42.6532L105.146 45.5332C105.161 45.659 105.225 45.7736 105.324 45.8523C105.423 45.931 105.55 45.9672 105.676 45.9531L106.306 45.8832C106.503 45.8609 106.693 45.7952 106.866 45.6897C107.038 45.5842 107.19 45.4409 107.311 45.2682C107.433 45.0955 107.522 44.8966 107.575 44.683C107.627 44.4694 107.641 44.2451 107.616 44.0232L107.566 43.5731C107.542 43.3505 107.479 43.1343 107.381 42.9368C107.283 42.7393 107.152 42.5644 106.995 42.4222C106.838 42.2801 106.658 42.1735 106.466 42.1084C106.274 42.0434 106.073 42.0212 105.876 42.0432L105.246 42.1132C105.182 42.1206 105.121 42.1405 105.066 42.1718C105.01 42.203 104.962 42.2449 104.922 42.2952C104.883 42.3454 104.855 42.403 104.838 42.4645C104.821 42.5259 104.817 42.5901 104.826 42.6532Z" fill="white"/>
<path d="M97.3554 47.963C94.5254 48.713 91.4454 49.1231 91.4154 44.9231C91.3854 40.1531 96.1254 39.323 99.7154 40.703C100.095 40.8497 100.289 41.1264 100.295 41.5331L100.435 47.563C100.442 47.9563 100.249 48.173 99.8554 48.213C99.3688 48.2597 98.8854 48.193 98.4054 48.013C98.0588 47.8864 97.7088 47.8697 97.3554 47.963ZM97.3554 45.6531V42.8931C97.3554 42.7604 97.3027 42.6333 97.209 42.5395C97.1152 42.4458 96.988 42.3931 96.8554 42.3931H96.0954C95.9036 42.3929 95.7137 42.4371 95.5365 42.5229C95.3593 42.6088 95.1983 42.7347 95.0628 42.8935C94.9272 43.0523 94.8197 43.2409 94.7463 43.4485C94.673 43.656 94.6353 43.8784 94.6354 44.103V44.443C94.6356 44.8963 94.7895 45.3312 95.0633 45.6518C95.3371 45.9725 95.7084 46.1528 96.0954 46.1531H96.8554C96.988 46.1531 97.1152 46.1003 97.209 46.0066C97.3027 45.9128 97.3554 45.7857 97.3554 45.6531Z" fill="white"/>
<path d="M4.2154 48.7729L4.1954 51.053C4.19196 51.1892 4.14064 51.3196 4.05074 51.4205C3.96084 51.5214 3.83831 51.5861 3.7054 51.6029L1.7154 51.8329C1.24207 51.8862 0.998735 51.6762 0.985402 51.2029L0.625401 41.303C0.612068 40.903 0.805403 40.6796 1.2054 40.6329C5.0154 40.1829 11.0854 39.4229 9.82541 45.6029C9.36541 47.8329 6.7754 48.2229 4.9054 48.1229C4.45207 48.0962 4.22207 48.3129 4.2154 48.7729ZM3.9154 43.4129L4.0154 45.3729C4.02315 45.5038 4.082 45.6264 4.17926 45.7143C4.27652 45.8022 4.40442 45.8483 4.5354 45.8429L5.29541 45.803C5.48746 45.7943 5.67611 45.7513 5.85052 45.6767C6.02494 45.6021 6.18168 45.4973 6.31176 45.3681C6.44184 45.239 6.5427 45.0881 6.60853 44.9242C6.67437 44.7602 6.70389 44.5865 6.6954 44.4129L6.6754 44.0929C6.65627 43.7449 6.48574 43.4193 6.20099 43.187C5.91625 42.9547 5.54039 42.8346 5.1554 42.8529L4.39541 42.8829C4.32884 42.8855 4.26346 42.9013 4.20309 42.9294C4.14273 42.9576 4.0886 42.9975 4.04388 43.0469C3.99917 43.0962 3.96476 43.154 3.9427 43.2169C3.92064 43.2797 3.91136 43.3465 3.9154 43.4129Z" fill="white"/>
<path d="M83.0256 43.9832C83.1389 43.5632 83.2256 43.1266 83.2856 42.6733C83.3389 42.24 83.5356 41.8966 83.8756 41.6433C84.209 41.3899 84.579 41.3366 84.9856 41.4832C85.8756 41.8032 86.0656 42.8833 86.3956 43.6533C86.7223 44.4133 86.959 44.3865 87.1056 43.5732L87.5256 41.1733C87.5533 41.0208 87.6322 40.8826 87.7489 40.7823C87.8656 40.682 88.0129 40.6258 88.1656 40.6232L90.0656 40.5832C90.3989 40.5765 90.5256 40.7365 90.4456 41.0632L88.6856 47.8732C88.5923 48.2599 88.3523 48.5099 87.9656 48.6232C87.0656 48.8899 86.3956 48.7199 85.9556 48.1132C85.5556 47.5632 85.4256 46.7933 85.1656 46.1433C84.9523 45.6099 84.7489 45.6099 84.5556 46.1433L83.7456 48.3132C83.6323 48.6199 83.4156 48.7966 83.0956 48.8432C82.629 48.9099 82.169 48.8899 81.7156 48.7833C81.5495 48.743 81.3965 48.6623 81.2707 48.5487C81.1448 48.4351 81.0502 48.2922 80.9956 48.1333L78.9156 41.8933C78.7023 41.2599 78.9323 40.9366 79.6056 40.9233L80.8356 40.8933C81.4423 40.8799 81.7756 41.1733 81.8356 41.7733C81.9156 42.5333 82.1256 43.2833 82.4656 44.0233C82.6923 44.5166 82.8789 44.5032 83.0256 43.9832Z" fill="white"/>
<path d="M63.0754 46.1727C62.9631 46.1759 62.8547 46.2146 62.7659 46.2834C62.6771 46.3522 62.6125 46.4474 62.5813 46.5554C62.5502 46.6633 62.5541 46.7784 62.5926 46.884C62.6311 46.9895 62.7021 47.0801 62.7954 47.1426C63.8354 47.8293 65.0921 47.8293 66.5654 47.1426C66.6499 47.105 66.7411 47.0847 66.8336 47.083C66.9261 47.0812 67.018 47.0981 67.1038 47.1326C67.1896 47.1672 67.2677 47.2186 67.3332 47.2839C67.3988 47.3492 67.4505 47.427 67.4854 47.5126L67.6154 47.8326C67.8421 48.3993 67.6754 48.806 67.1154 49.0527C63.2954 50.7227 58.1154 49.2426 59.5654 44.0126C60.6654 40.0426 68.4454 40.1826 68.2054 45.4626C68.1854 45.8693 67.9721 46.0759 67.5654 46.0826L63.0754 46.1727ZM64.1154 43.2526C63.4087 43.226 62.8854 43.4559 62.5454 43.9426C62.2321 44.4026 62.3554 44.6293 62.9154 44.6226L64.6254 44.6026C65.0854 44.6026 65.2454 44.3826 65.1054 43.9426C64.9654 43.5026 64.6354 43.2726 64.1154 43.2526Z" fill="white"/>
<path d="M48.8455 48.1729C48.8871 48.6608 48.7336 49.1451 48.4187 49.52C48.1038 49.8949 47.6532 50.1297 47.1655 50.1729L43.9955 50.4629C43.4623 50.5108 42.9251 50.4556 42.4147 50.3005C41.9042 50.1454 41.4306 49.8935 41.021 49.559C40.6113 49.2246 40.2737 48.8144 40.0273 48.3518C39.781 47.8891 39.6309 47.3831 39.5855 46.8629L39.5555 46.5129C39.5086 45.9934 39.5671 45.4695 39.7277 44.9712C39.8883 44.4728 40.1478 44.0098 40.4914 43.6086C40.835 43.2074 41.256 42.8759 41.7303 42.633C42.2046 42.3901 42.7228 42.2405 43.2555 42.1928L46.4255 41.9129C46.9134 41.8684 47.399 42.0192 47.7758 42.3322C48.1526 42.6453 48.3898 43.0951 48.4355 43.5829L48.8455 48.1729ZM43.9108 48.252C44.2798 48.3271 44.6764 48.1895 45.0132 47.8696C45.3501 47.5496 45.5996 47.0736 45.707 46.546C45.8143 46.0184 45.7706 45.4826 45.5856 45.0565C45.4005 44.6303 45.0892 44.3487 44.7202 44.2736C44.3511 44.1986 43.9546 44.3361 43.6177 44.6561C43.2809 44.976 43.0313 45.4523 42.924 45.9798C42.8167 46.5074 42.8603 47.0432 43.0454 47.4693C43.2304 47.8955 43.5417 48.177 43.9108 48.252Z" fill="white"/>
<path d="M34.6056 44.8531C32.1456 46.7631 34.7756 49.6031 37.5056 47.9431C37.8189 47.7498 38.0823 47.8065 38.2956 48.1131C38.5956 48.5531 38.7689 48.9998 38.8156 49.4531C38.8356 49.6931 38.7389 49.8698 38.5256 49.9831C35.7556 51.3631 30.8856 51.3132 30.5556 47.2432C30.2056 42.8932 34.4756 41.4332 37.8956 42.8032C38.3956 43.0032 38.5623 43.3598 38.3956 43.8732L38.2556 44.3431C38.1859 44.5577 38.0399 44.739 37.8459 44.8517C37.6518 44.9644 37.4237 45.0005 37.2056 44.9531L35.6056 44.6232C35.2389 44.5432 34.9056 44.6198 34.6056 44.8531Z" fill="white"/>
<path d="M24.2655 43.2731C25.9155 42.2031 29.0455 42.5232 29.3055 44.9332C29.4855 46.6198 29.5888 48.2865 29.6155 49.9332C29.6183 50.0543 29.5963 50.1746 29.5509 50.2869C29.5056 50.3993 29.4377 50.5012 29.3516 50.5864C29.2655 50.6716 29.1628 50.7383 29.05 50.7824C28.9372 50.8266 28.8166 50.8472 28.6955 50.8431L27.0455 50.7932C26.5522 50.7798 26.2955 50.5265 26.2755 50.0332L26.0955 45.7832C26.0755 45.2632 25.8088 45.0264 25.2955 45.0731L24.9955 45.0931C24.7674 45.111 24.5552 45.2171 24.404 45.3889C24.2527 45.5606 24.1744 45.7846 24.1855 46.0131L24.3955 50.1931C24.4222 50.6064 24.2288 50.8331 23.8155 50.8731L21.8955 51.0631C21.3888 51.1164 21.1255 50.8864 21.1055 50.3731L20.8455 43.6832C20.8321 43.3365 20.9955 43.1331 21.3355 43.0731C22.0555 42.9531 22.7521 43.0431 23.4255 43.3431C23.5604 43.4017 23.7077 43.4261 23.8543 43.4139C24.0009 43.4017 24.1422 43.3533 24.2655 43.2731Z" fill="white"/>
<path d="M16.6855 50.9335C15.7955 51.0735 15.0155 51.6234 14.0655 51.5734C11.8855 51.4668 10.7422 50.3302 10.6355 48.1635C10.4055 43.2235 15.1355 42.3835 18.8655 43.6035C19.2722 43.7368 19.4822 44.0135 19.4955 44.4335L19.7055 50.5335C19.7188 50.8869 19.5522 51.0969 19.2055 51.1635C18.2255 51.3635 17.4855 50.8135 16.6855 50.9335ZM14.962 49.2855C15.1446 49.3164 15.334 49.296 15.5194 49.2254C15.7049 49.1548 15.8827 49.0355 16.0428 48.8742C16.2029 48.7129 16.342 48.5128 16.4524 48.2854C16.5627 48.0579 16.642 47.8075 16.6858 47.5485C16.7296 47.2896 16.737 47.0272 16.7076 46.7761C16.6782 46.525 16.6126 46.2902 16.5144 46.0853C16.4163 45.8803 16.2876 45.7091 16.1357 45.5815C15.9838 45.4539 15.8116 45.3724 15.629 45.3415C15.4464 45.3106 15.257 45.331 15.0716 45.4016C14.8862 45.4721 14.7083 45.5915 14.5483 45.7528C14.3882 45.914 14.249 46.1142 14.1387 46.3416C14.0283 46.5691 13.949 46.8195 13.9052 47.0784C13.8614 47.3374 13.854 47.5998 13.8834 47.8509C13.9128 48.102 13.9785 48.3368 14.0766 48.5417C14.1747 48.7467 14.3034 48.9179 14.4554 49.0455C14.6073 49.1731 14.7794 49.2546 14.962 49.2855Z" fill="white"/>
</svg>
