<svg width="159" height="31" viewBox="0 0 159 31" fill="none" xmlns="http://www.w3.org/2000/svg">
<path d="M27.8556 2.01344C27.8308 1.98542 27.8119 1.95272 27.8 1.91728C27.7881 1.88184 27.7834 1.84439 27.7862 1.80711C27.789 1.76983 27.7992 1.73347 27.8163 1.70021C27.8334 1.66694 27.8569 1.63743 27.8856 1.61342L28.0256 1.50343C28.9324 0.743936 30.1024 0.374146 31.2782 0.475415C32.4541 0.576684 33.5395 1.14073 34.2956 2.04344L34.4056 2.18342C34.7802 2.63059 35.0627 3.14754 35.2368 3.70472C35.411 4.26191 35.4733 4.84842 35.4204 5.43071C35.3675 6.013 35.2003 6.57965 34.9283 7.09831C34.6564 7.61696 34.2851 8.07747 33.8356 8.45344L33.6956 8.56343C33.6395 8.61032 33.5673 8.63343 33.4945 8.62782C33.4216 8.62221 33.3538 8.58831 33.3056 8.5334L27.8556 2.01344Z" fill="#3256AA"/>
<path d="M17.3454 6.26312L16.7854 8.33313C16.7054 8.63979 16.5421 8.89308 16.2954 9.09308C15.5687 9.71308 15.0254 10.5464 14.6654 11.5931C14.6254 8.23308 13.4154 5.42643 11.0354 3.17309C10.9647 3.10823 10.9113 3.02698 10.8797 2.93634C10.8481 2.8457 10.8394 2.74841 10.8541 2.65289C10.8689 2.55737 10.9068 2.46649 10.9645 2.38812C11.0222 2.30975 11.098 2.24623 11.1854 2.20309C12.9254 1.34309 14.7454 0.796442 16.6454 0.563108C17.0987 0.509775 17.3254 0.709781 17.3254 1.16311L17.3454 6.26312Z" fill="#DA1A66"/>
<path d="M22.0856 7.90295C19.4123 8.04295 18.1256 8.86625 18.2256 10.3729C18.3389 11.9729 18.1856 13.3263 17.7656 14.4329C17.6323 14.7863 17.3789 14.9996 17.0056 15.0729C16.6056 15.1596 16.3589 15.3996 16.2656 15.7929C16.1656 16.2329 15.8923 16.4329 15.4456 16.3929C14.7856 16.3329 14.2156 16.0929 13.7356 15.6729L14.6656 11.5929C15.0256 10.5462 15.5689 9.71289 16.2956 9.09289C16.5423 8.89289 16.7056 8.63961 16.7856 8.33294L17.3456 6.26293C17.6256 6.45627 17.8756 6.5396 18.0956 6.51293C18.4489 6.47293 18.6256 6.27293 18.6256 5.91293L18.6456 1.35293C18.6456 0.772931 18.9389 0.502933 19.5256 0.542933C21.3123 0.662933 23.0489 1.14291 24.7356 1.98291C24.8199 2.02556 24.8935 2.087 24.9504 2.16232C25.0072 2.23764 25.046 2.3248 25.0634 2.41693C25.0809 2.50906 25.0766 2.60362 25.0509 2.69317C25.0253 2.78272 24.979 2.8648 24.9156 2.93292C23.7223 4.23292 22.7789 5.88962 22.0856 7.90295Z" fill="#844086"/>
<path d="M2.98551 9.02357C2.92185 9.10844 2.8271 9.16451 2.72208 9.17951C2.61706 9.19452 2.51038 9.16718 2.42551 9.10352L2.40551 9.08357C1.93521 8.71896 1.54041 8.2665 1.24366 7.75202C0.946902 7.23754 0.754012 6.6711 0.676005 6.08512C0.597999 5.49914 0.636404 4.90507 0.789027 4.33686C0.941651 3.76865 1.2055 3.23743 1.56551 2.77354L1.68551 2.61353C2.04571 2.15 2.4949 1.76293 3.00745 1.47437C3.52 1.18582 4.08587 1.00145 4.67274 0.931801C5.25961 0.862157 5.85599 0.90859 6.42783 1.06846C6.99967 1.22833 7.53577 1.49849 8.00551 1.86353L8.02551 1.87354C8.06897 1.90512 8.10563 1.94511 8.13329 1.99116C8.16095 2.03721 8.17905 2.08835 8.18652 2.14155C8.19398 2.19475 8.19066 2.24891 8.17674 2.30079C8.16282 2.35267 8.1386 2.40123 8.10551 2.44355L2.98551 9.02357Z" fill="#DA1A66"/>
<path d="M27.3855 3.75335C29.0755 5.16335 30.5854 6.94334 31.5154 8.86334C31.5456 8.92837 31.5595 8.99994 31.5557 9.07147C31.552 9.143 31.5308 9.21224 31.494 9.27288C31.4572 9.33353 31.406 9.38362 31.3452 9.41864C31.2843 9.45365 31.2156 9.47244 31.1455 9.47332L23.8655 9.55334C23.7506 9.55412 23.637 9.52846 23.5338 9.47845C23.4305 9.42844 23.3403 9.35543 23.2705 9.26519C23.2006 9.17495 23.1529 9.06996 23.1312 8.95855C23.1095 8.84714 23.1144 8.73239 23.1455 8.62335C23.6588 6.85001 24.5055 5.27334 25.6855 3.89334C25.8929 3.65023 26.1881 3.49906 26.5066 3.47283C26.8251 3.44661 27.141 3.54746 27.3855 3.75335Z" fill="#3256AA"/>
<path d="M12.3856 9.68294L4.85559 9.65297C4.7889 9.65235 4.72332 9.63455 4.66547 9.60139C4.60761 9.56824 4.55953 9.52085 4.52606 9.46407C4.4926 9.40728 4.47494 9.34307 4.47485 9.27791C4.47477 9.21275 4.49227 9.14893 4.52559 9.09291C5.69892 7.07291 7.10226 5.34628 8.73559 3.91295C8.83629 3.82548 8.9533 3.75883 9.07973 3.71693C9.20616 3.67504 9.33945 3.65874 9.47177 3.66899C9.60409 3.67924 9.73276 3.71584 9.8502 3.77663C9.96763 3.83741 10.0715 3.92115 10.1556 4.02293C11.3956 5.52293 12.3256 7.14629 12.9456 8.89296C12.9778 8.98243 12.988 9.07839 12.9751 9.17262C12.9623 9.26686 12.9269 9.35657 12.8719 9.43416C12.8169 9.51175 12.7439 9.57492 12.6592 9.61824C12.5746 9.66156 12.4807 9.68373 12.3856 9.68294Z" fill="#DA1A66"/>
<path d="M137.305 15.7728L137.285 18.4427C137.285 18.5311 137.303 18.6186 137.337 18.7C137.372 18.7814 137.422 18.8551 137.486 18.9166C137.549 18.9782 137.624 19.0264 137.707 19.0583C137.789 19.0903 137.877 19.1054 137.965 19.1027L143.485 18.9427C143.659 18.9373 143.827 19.0004 143.955 19.1183C144.082 19.2362 144.158 19.3994 144.165 19.5727L144.245 21.3027C144.249 21.3902 144.236 21.4777 144.206 21.5599C144.176 21.6422 144.13 21.7176 144.07 21.7818C144.01 21.8461 143.939 21.8978 143.859 21.934C143.779 21.9702 143.693 21.9902 143.605 21.9927L134.355 22.2527C134.268 22.2554 134.181 22.2406 134.099 22.2093C134.017 22.1779 133.943 22.1306 133.879 22.0701C133.816 22.0096 133.765 21.9372 133.73 21.8569C133.695 21.7767 133.677 21.6902 133.675 21.6027L133.465 6.22274C133.464 6.13606 133.48 6.04996 133.512 5.96938C133.544 5.8888 133.591 5.81532 133.652 5.7531C133.712 5.69088 133.784 5.64115 133.864 5.60677C133.943 5.57239 134.029 5.55403 134.115 5.55272L142.985 5.47274C143.159 5.47003 143.326 5.53563 143.452 5.65538C143.577 5.77514 143.65 5.93942 143.655 6.11272L143.695 7.95275C143.698 8.04025 143.683 8.12742 143.652 8.20916C143.621 8.2909 143.573 8.36554 143.513 8.42882C143.452 8.49211 143.38 8.54275 143.3 8.57775C143.219 8.61275 143.133 8.63145 143.045 8.63274L137.795 8.68273C137.709 8.68403 137.623 8.70243 137.544 8.73681C137.464 8.77118 137.392 8.82089 137.332 8.88311C137.271 8.94532 137.224 9.01883 137.192 9.09942C137.16 9.18 137.144 9.26604 137.145 9.35271L137.155 11.4427C137.158 11.616 137.229 11.7813 137.352 11.9029C137.476 12.0246 137.642 12.0927 137.815 12.0927H142.835C142.926 12.0924 143.017 12.111 143.1 12.1473C143.184 12.1835 143.259 12.2367 143.321 12.3034C143.383 12.3701 143.43 12.4488 143.46 12.5348C143.49 12.6207 143.502 12.7119 143.495 12.8027L143.365 14.4628C143.355 14.6291 143.283 14.7854 143.162 14.9004C143.042 15.0154 142.882 15.0805 142.715 15.0828L137.955 15.1127C137.782 15.1153 137.617 15.1861 137.495 15.3096C137.374 15.433 137.305 15.5994 137.305 15.7728Z" fill="#DA1A66"/>
<path d="M156.245 14.3526C157.572 16.0859 158.439 18.4126 158.845 21.3326C158.899 21.7193 158.729 21.9059 158.335 21.8926L155.935 21.8026C155.509 21.7892 155.235 21.5792 155.115 21.1726C154.485 18.9826 154.185 14.9826 150.895 15.3526C150.475 15.3992 150.269 15.6359 150.275 16.0626L150.395 21.1726C150.409 21.7326 150.139 22.0093 149.585 22.0026L147.645 21.9826C147.052 21.9826 146.749 21.6826 146.735 21.0826L146.495 6.14257C146.492 5.97149 146.555 5.80575 146.67 5.67931C146.786 5.55287 146.945 5.47532 147.115 5.46258C150.155 5.20258 156.695 4.34261 158.065 8.15261C158.885 10.4526 158.315 12.2859 156.355 13.6526C156.075 13.8459 156.039 14.0792 156.245 14.3526ZM150.125 8.69259L150.165 12.2126C150.168 12.3753 150.235 12.5304 150.351 12.6446C150.467 12.7587 150.623 12.8226 150.785 12.8226H151.755C152.143 12.8191 152.527 12.7597 152.884 12.6477C153.241 12.5357 153.565 12.3734 153.837 12.1699C154.109 11.9665 154.324 11.726 154.47 11.4622C154.615 11.1984 154.689 10.9165 154.685 10.6326V10.1926C154.679 9.62031 154.363 9.07455 153.806 8.67519C153.249 8.27583 152.497 8.05551 151.715 8.06258H150.745C150.663 8.06257 150.582 8.07896 150.506 8.11074C150.43 8.14252 150.361 8.18907 150.303 8.2477C150.246 8.30634 150.2 8.37585 150.17 8.45223C150.139 8.52861 150.124 8.61033 150.125 8.69259Z" fill="#DA1A66"/>
<path d="M127.155 18.803L127.145 16.383C127.145 15.883 126.895 15.6497 126.395 15.683L125.415 15.753C125.205 15.7699 124.996 15.7036 124.835 15.5686C124.673 15.4337 124.573 15.2411 124.555 15.033L124.445 13.633C124.437 13.5383 124.449 13.443 124.479 13.3529C124.509 13.2628 124.558 13.1799 124.622 13.1095C124.686 13.0391 124.763 12.9826 124.85 12.9436C124.937 12.9047 125.03 12.884 125.125 12.883L129.875 12.863C130.382 12.8563 130.639 13.1063 130.645 13.613L130.705 20.903C130.705 21.103 130.638 21.297 130.515 21.4546C130.391 21.6121 130.219 21.7242 130.025 21.773C124.185 23.303 117.095 22.763 116.175 15.353C115.185 7.313 122.475 4.56303 129.285 6.04303C129.799 6.15636 129.989 6.46301 129.855 6.96301L129.465 8.40305C129.305 8.98971 128.935 9.19966 128.355 9.03299C117.475 5.89299 117.365 21.263 126.685 19.383C127.005 19.3164 127.162 19.123 127.155 18.803Z" fill="#DA1A66"/>
<path d="M112.978 5.94947L110.298 5.97753C109.989 5.98077 109.741 6.23411 109.744 6.54337L109.907 22.0425C109.91 22.3518 110.163 22.5999 110.473 22.5966L113.152 22.5686C113.462 22.5653 113.71 22.312 113.706 22.0027L113.544 6.50358C113.541 6.19431 113.288 5.94623 112.978 5.94947Z" fill="#DA1A66"/>
<path d="M91.0454 18.4226L90.6854 6.9726C90.6721 6.41926 90.9421 6.14258 91.4954 6.14258C91.6421 6.14258 91.7754 6.14258 91.8954 6.14258C92.5154 6.14258 92.8321 6.4526 92.8454 7.0726L93.0954 22.1326C93.1021 22.4459 92.9621 22.6659 92.6754 22.7926C91.8654 23.1526 91.0054 22.8826 90.4954 22.1426C87.8288 18.2826 85.3588 14.4059 83.0854 10.5126C82.7054 9.8726 82.5221 9.92257 82.5354 10.6626L82.6854 22.3526C82.6921 22.8792 82.4321 23.1326 81.9054 23.1126L81.3854 23.1026C80.9188 23.0892 80.6788 22.8459 80.6654 22.3726L80.3354 7.33258C80.3298 7.06871 80.4267 6.81293 80.6057 6.61899C80.7847 6.42505 81.032 6.30807 81.2954 6.2926C83.0754 6.1926 83.4554 7.22261 84.2754 8.52261C86.4021 11.8826 88.5021 15.2326 90.5754 18.5726C90.9088 19.1126 91.0654 19.0626 91.0454 18.4226Z" fill="#DA1A66"/>
<path d="M103.266 10.0128L103.486 22.0528C103.487 22.1472 103.469 22.241 103.433 22.3285C103.398 22.4159 103.344 22.4952 103.277 22.5615C103.21 22.6278 103.13 22.6799 103.042 22.7144C102.954 22.749 102.86 22.7655 102.766 22.7628L100.406 22.7028C100.225 22.6976 100.054 22.623 99.927 22.4944C99.8002 22.3658 99.7281 22.1933 99.7256 22.0128L99.5956 10.0528C99.5944 9.95822 99.5741 9.86488 99.5358 9.77841C99.4976 9.69194 99.4422 9.61413 99.373 9.54965C99.3039 9.48517 99.2224 9.43535 99.1335 9.40323C99.0445 9.37111 98.95 9.35735 98.8556 9.36276L95.7456 9.54276C95.652 9.54815 95.5583 9.53471 95.47 9.5032C95.3818 9.4717 95.3007 9.42276 95.2317 9.35934C95.1627 9.29593 95.1071 9.21931 95.0683 9.134C95.0294 9.0487 95.0081 8.95646 95.0056 8.86276L94.9456 6.88278C94.9429 6.79002 94.9587 6.69765 94.9921 6.61105C95.0255 6.52446 95.0757 6.44536 95.1399 6.37836C95.2041 6.31136 95.281 6.25781 95.3661 6.22079C95.4512 6.18378 95.5428 6.16407 95.6356 6.16278L107.166 6.09277C107.26 6.09269 107.354 6.11173 107.441 6.14877C107.528 6.18581 107.606 6.24008 107.671 6.30829C107.737 6.3765 107.788 6.45726 107.821 6.54569C107.855 6.63411 107.87 6.72837 107.866 6.82278L107.796 8.67276C107.788 8.85491 107.709 9.02682 107.577 9.15195C107.444 9.27707 107.268 9.34551 107.086 9.34274L103.976 9.30277C103.882 9.30142 103.789 9.31889 103.702 9.3541C103.616 9.3893 103.537 9.44152 103.471 9.50772C103.404 9.57392 103.352 9.65272 103.317 9.73947C103.282 9.82622 103.264 9.91918 103.266 10.0128Z" fill="#DA1A66"/>
<path d="M63.9495 23.6421C62.9408 23.5928 61.953 23.3187 61.0426 22.8354C60.1321 22.3521 59.3167 21.6691 58.6431 20.8255C57.9694 19.9818 57.4506 18.994 57.1163 17.9184C56.782 16.8429 56.6387 15.7006 56.6947 14.5569C56.8076 12.247 57.7252 10.0712 59.2455 8.50829C60.7659 6.94538 62.7644 6.12332 64.8015 6.22295C65.8101 6.27229 66.7979 6.54643 67.7084 7.02971C68.6188 7.51299 69.4342 8.19595 70.1078 9.0396C70.7815 9.88325 71.3003 10.8711 71.6346 11.9466C71.9689 13.0222 72.1122 14.1645 72.0563 15.3083C71.9433 17.6182 71.0257 19.7939 69.5054 21.3568C67.9851 22.9197 65.9865 23.7418 63.9495 23.6421ZM64.5522 21.7402C65.244 21.7221 65.9245 21.5297 66.5548 21.1738C67.1851 20.818 67.7528 20.3057 68.2256 19.6663C68.6984 19.0269 69.067 18.2729 69.3103 17.4473C69.5536 16.6217 69.6669 15.7407 69.6437 14.8545C69.5968 13.0649 68.9968 11.3632 67.9757 10.1236C66.9546 8.88409 65.596 8.20827 64.1988 8.24486C63.5069 8.26298 62.8264 8.45542 62.1961 8.81127C61.5659 9.16711 60.9981 9.67938 60.5253 10.3188C60.0525 10.9582 59.684 11.7122 59.4407 12.5378C59.1973 13.3634 59.0841 14.2444 59.1073 15.1305C59.1541 16.9201 59.7541 18.6219 60.7752 19.8614C61.7964 21.101 63.155 21.7768 64.5522 21.7402Z" fill="#DA1A66"/>
<path d="M75.7526 6.39208L75.4926 6.39525C74.9514 6.40187 74.5181 6.84595 74.5247 7.38715L74.7065 22.266C74.7131 22.8072 75.1572 23.2406 75.6984 23.234L75.9583 23.2308C76.4995 23.2242 76.9329 22.7801 76.9263 22.2389L76.7445 7.36003C76.7379 6.81883 76.2938 6.38547 75.7526 6.39208Z" fill="#DA1A66"/>
<path d="M42.8456 17.7135C42.4789 16.4069 42.4156 14.9835 42.6556 13.4435C43.5056 7.87352 48.9056 5.73352 54.1756 6.94352C54.412 6.99834 54.6191 7.14067 54.7561 7.34245C54.8931 7.54423 54.95 7.79078 54.9156 8.03349L54.8556 8.39354C54.8414 8.47998 54.8096 8.56255 54.7622 8.63603C54.7148 8.70951 54.6529 8.77224 54.5804 8.82023C54.508 8.86823 54.4265 8.90044 54.3413 8.91478C54.2561 8.92911 54.169 8.92531 54.0856 8.90355C41.5556 5.77355 42.0256 25.0335 54.2556 21.3835C54.3384 21.3581 54.4256 21.3502 54.5116 21.3605C54.5976 21.3708 54.6804 21.399 54.7549 21.4433C54.8293 21.4876 54.8936 21.5469 54.9437 21.6176C54.9938 21.6883 55.0285 21.7686 55.0456 21.8535L55.1056 22.1635C55.1567 22.4181 55.1068 22.6824 54.9665 22.8994C54.8262 23.1164 54.6068 23.2687 54.3556 23.3235C48.1356 24.7302 44.2989 22.8602 42.8456 17.7135Z" fill="#DA1A66"/>
<path d="M22.0856 7.90332L21.6556 12.1933C20.1423 12.86 19.2823 14.0199 19.0756 15.6733C19.0367 15.9876 18.8756 16.2775 18.6256 16.4833L14.1556 20.1433C13.3489 19.9833 12.7456 19.6266 12.3456 19.0733C12.1389 18.7866 12.1223 18.49 12.2956 18.1833L13.7356 15.6733C14.2156 16.0933 14.7856 16.3333 15.4456 16.3933C15.8923 16.4333 16.1656 16.2333 16.2656 15.7933C16.3589 15.3999 16.6056 15.16 17.0056 15.0733C17.3789 15 17.6323 14.7866 17.7656 14.4333C18.1856 13.3266 18.3389 11.9733 18.2256 10.3733C18.1256 8.86662 19.4123 8.04332 22.0856 7.90332Z" fill="#3256AA"/>
<path d="M28.4655 15.9631C28.2255 15.8364 28.1021 15.9097 28.0955 16.183L28.0755 16.733C28.0755 16.8264 28.1121 16.9031 28.1855 16.9631C29.4855 18.0364 30.8521 18.6331 32.2855 18.7531C32.6055 18.7864 32.7721 18.9664 32.7855 19.293C32.8055 19.6397 32.7121 19.9664 32.5055 20.2731C32.3931 20.4424 32.2347 20.5752 32.0499 20.6552C31.865 20.7351 31.6618 20.7587 31.4655 20.723C26.4921 19.883 23.6355 16.8297 22.8955 11.5631C22.8288 11.1164 23.0255 10.8897 23.4855 10.8831L31.2355 10.8331C32.2488 10.8264 32.8021 11.3264 32.8955 12.3331L33.2555 16.3331C33.3488 17.3464 32.9088 17.6997 31.9355 17.3931C30.8688 17.0664 29.7121 16.5897 28.4655 15.9631Z" fill="#0B64BA"/>
<path d="M7.39539 16.5631C6.30206 16.9297 5.20539 17.3531 4.10539 17.8331C4.00545 17.8758 3.89694 17.8946 3.78846 17.8881C3.67997 17.8816 3.5745 17.8499 3.48038 17.7956C3.38626 17.7413 3.30609 17.6657 3.24621 17.575C3.18633 17.4843 3.14838 17.381 3.13539 17.2731C2.94206 15.4997 3.03539 13.7264 3.41539 11.9531C3.52872 11.4197 3.85539 11.1497 4.39539 11.1431L12.6454 11.0031C13.1454 10.9964 13.3621 11.2397 13.2954 11.733C12.5754 16.723 9.59539 20.4131 4.71539 21.1231C4.46968 21.1586 4.2197 21.0985 4.01693 20.9553C3.81415 20.812 3.67402 20.5965 3.62539 20.353L3.52539 19.9031C3.50543 19.8078 3.50526 19.7094 3.52491 19.6139C3.54455 19.5184 3.58359 19.4276 3.63968 19.3472C3.69576 19.2669 3.76772 19.1985 3.8512 19.1462C3.93468 19.0939 4.02796 19.0588 4.12539 19.043C5.87205 18.763 7.12205 18.1697 7.87539 17.2631C8.53539 16.4697 8.37539 16.2364 7.39539 16.5631Z" fill="#844086"/>
<path d="M21.6555 12.1934C22.1222 14.3934 22.9922 16.3734 24.2655 18.1334C24.3216 18.2091 24.3616 18.2956 24.383 18.3875C24.4043 18.4793 24.4067 18.5745 24.3898 18.6673C24.3729 18.7601 24.3372 18.8484 24.2849 18.9269C24.2326 19.0053 24.1647 19.0722 24.0855 19.1234C20.9922 21.1434 17.6822 21.4834 14.1555 20.1434L18.6255 16.4833C18.8755 16.2776 19.0366 15.9877 19.0755 15.6733C19.2822 14.02 20.1422 12.86 21.6555 12.1934Z" fill="#0B64BA"/>
<path d="M29.5355 25.5728C27.9222 27.7528 25.7188 29.2694 22.9255 30.1228C22.8396 30.1469 22.7496 30.1495 22.6639 30.1303C22.5782 30.111 22.4997 30.0706 22.4355 30.0128C20.4488 28.2128 19.2155 25.9661 18.7355 23.2728C18.7142 23.1503 18.718 23.0248 18.7466 22.9038C18.7752 22.7828 18.828 22.6689 18.9018 22.5689C18.9756 22.4689 19.069 22.3849 19.1762 22.322C19.2833 22.259 19.4022 22.2185 19.5255 22.2028C21.5588 21.9561 23.3322 21.2094 24.8455 19.9628C25.0108 19.8249 25.2169 19.7453 25.432 19.7362C25.6471 19.7272 25.8592 19.7892 26.0355 19.9127C27.5822 21.0061 29.2855 21.7161 31.1455 22.0427C31.5122 22.1094 31.6455 22.3227 31.5455 22.6827C31.3922 23.2227 31.0888 23.7427 30.6355 24.2427C30.2488 24.6561 29.8822 25.0994 29.5355 25.5728Z" fill="#1872E2"/>
<path d="M14.0154 21.6627L9.87543 28.4627C7.7021 27.0494 6.09877 25.316 5.06544 23.2627C4.85877 22.856 4.9721 22.5927 5.40543 22.4727C7.2121 21.9727 8.8221 21.2094 10.2354 20.1827C10.5754 19.9427 10.9254 19.9227 11.2854 20.1227L14.0154 21.6627Z" fill="#3256AA"/>
<path d="M14.0155 21.6631L17.0455 22.3731C17.4188 22.4598 17.5888 22.6931 17.5555 23.0731C17.3422 25.8398 16.2588 28.1398 14.3055 29.9731C14.0322 30.2264 13.7255 30.2731 13.3855 30.1131L9.87549 28.4631L14.0155 21.6631Z" fill="#0B64BA"/>
<path d="M15.8256 30.3835L18.0056 26.6735C18.0321 26.6316 18.0686 26.597 18.1117 26.5728C18.1549 26.5485 18.2034 26.5352 18.2529 26.5342C18.3024 26.5332 18.3514 26.5445 18.3955 26.5671C18.4396 26.5896 18.4774 26.6227 18.5056 26.6635L20.8856 30.2935C20.9162 30.338 20.9343 30.39 20.9378 30.444C20.9414 30.4979 20.9302 30.5518 20.9056 30.6C20.8811 30.6481 20.8439 30.6888 20.7981 30.7175C20.7523 30.7463 20.6996 30.7622 20.6456 30.7635L16.0856 30.8335C16.0329 30.8335 15.9812 30.8197 15.9355 30.7933C15.8899 30.767 15.852 30.7291 15.8256 30.6835C15.7993 30.6379 15.7854 30.5862 15.7854 30.5335C15.7854 30.4808 15.7993 30.4291 15.8256 30.3835Z" fill="#1872E2"/>
</svg>
