<svg width="180" height="39" viewBox="0 0 180 39" fill="none" xmlns="http://www.w3.org/2000/svg">
<path d="M16.3355 0.243334C29.9255 -1.17667 40.7255 8.85335 38.3955 22.6933C38.3422 22.9933 38.1655 23.11 37.8655 23.0434L20.5555 19.2133C20.0555 19.1067 19.7489 18.8 19.6355 18.2934L15.7855 1.00334C15.7668 0.916841 15.7665 0.82734 15.7846 0.74071C15.8028 0.654079 15.839 0.572271 15.8909 0.500567C15.9428 0.428862 16.0092 0.36889 16.0858 0.324572C16.1624 0.280253 16.2475 0.252565 16.3355 0.243334Z" fill="#F5841E"/>
<path d="M7.56539 13.5326C5.47206 18.326 6.05539 23.0226 9.31539 27.6226C9.42137 27.7744 9.4705 27.9584 9.45402 28.1416C9.43753 28.3248 9.35649 28.4953 9.22539 28.6226L6.23539 31.5727C5.94872 31.8527 5.68539 31.8393 5.44539 31.5326C2.49205 27.826 0.985391 23.946 0.925391 19.8926C0.798724 11.0193 4.99539 4.74599 13.5154 1.07265C13.5794 1.04616 13.6483 1.03382 13.7175 1.03649C13.7867 1.03917 13.8545 1.05678 13.9163 1.08813C13.978 1.11948 14.0323 1.16381 14.0753 1.2181C14.1183 1.27239 14.149 1.33535 14.1654 1.40264L15.1554 5.84264C15.2354 6.19598 15.1087 6.43932 14.7754 6.57265C11.3821 7.97265 8.97872 10.2926 7.56539 13.5326Z" fill="#FFBE40"/>
<path d="M121.295 27.1033C124.555 25.8433 124.745 21.6433 121.215 20.5333C117.715 19.4333 110.905 18.7833 111.945 13.1533C113.205 6.3933 124.555 6.4133 125.855 13.0833C125.929 13.4433 125.789 13.6733 125.435 13.7733C125.062 13.8733 124.685 13.8933 124.305 13.8333C123.959 13.78 123.715 13.59 123.575 13.2633C122.342 10.37 120.012 9.46332 116.585 10.5433C113.535 11.5033 113.225 15.8333 116.625 16.8433C118.479 17.39 120.295 17.93 122.075 18.4633C127.215 20.0033 127.495 26.2233 122.965 28.6333C118.855 30.8133 112.885 29.7733 111.405 24.8733C111.362 24.7321 111.352 24.5828 111.376 24.4371C111.4 24.2913 111.458 24.1531 111.544 24.0331C111.63 23.9131 111.742 23.8147 111.873 23.7453C112.003 23.676 112.148 23.6376 112.295 23.6333C113.202 23.6133 113.732 24.0366 113.885 24.9033C113.952 25.27 114.125 25.58 114.405 25.8333C116.432 27.68 118.729 28.1033 121.295 27.1033Z" fill="white"/>
<path d="M58.1055 28.5833C61.8855 29.0766 64.2455 27.5333 65.1855 23.9533C65.2655 23.6733 65.4455 23.5666 65.7255 23.6333L66.0255 23.6933C66.1655 23.7266 66.2255 23.8166 66.2055 23.9633C65.7722 26.6899 64.4155 28.4066 62.1355 29.1133C55.2155 31.2633 51.4655 26.9933 51.3355 20.6533C51.2155 14.6633 51.9955 7.66327 60.1055 8.52327C63.5189 8.88327 65.4822 10.8199 65.9955 14.3333C66.0089 14.4266 65.9689 14.4833 65.8755 14.5033L65.6055 14.5533C65.2989 14.6066 65.1155 14.4799 65.0555 14.1733C63.6455 7.09326 53.3555 7.93328 52.6355 15.4133C52.1755 20.2033 51.7255 27.7633 58.1055 28.5833Z" fill="white"/>
<path d="M88.9854 10.9132C89.5046 10.9132 89.9254 10.4924 89.9254 9.97321C89.9254 9.45406 89.5046 9.0332 88.9854 9.0332C88.4663 9.0332 88.0454 9.45406 88.0454 9.97321C88.0454 10.4924 88.4663 10.9132 88.9854 10.9132Z" fill="white"/>
<path d="M133.626 16.2728C133.672 19.1661 133.669 22.1461 133.616 25.2128C133.589 26.9128 134.426 27.7195 136.126 27.6328C136.746 27.5995 137.082 27.8928 137.136 28.5128L137.166 28.8528C137.182 29.0079 137.137 29.1633 137.04 29.2851C136.942 29.407 136.801 29.4852 136.646 29.5028C133.119 29.9495 131.369 28.5662 131.396 25.3528C131.429 20.3595 131.439 15.3462 131.426 10.3128C131.426 9.80615 131.679 9.56615 132.186 9.59282L133.156 9.64281C133.287 9.64798 133.412 9.70295 133.503 9.79616C133.595 9.88937 133.646 10.0136 133.646 10.1428V12.9028C133.646 13.4095 133.899 13.6561 134.406 13.6428L135.966 13.5928C136.559 13.5795 136.866 13.8661 136.886 14.4528L136.896 14.8628C136.909 15.3761 136.659 15.6261 136.146 15.6128L134.326 15.5728C133.846 15.5595 133.612 15.7928 133.626 16.2728Z" fill="white"/>
<path d="M161.085 13.5428L162.645 13.4927C163.259 13.4727 163.576 13.7694 163.596 14.3828L163.615 14.8228C163.629 15.2961 163.402 15.5228 162.936 15.5028L161.216 15.4428C160.629 15.4228 160.335 15.7061 160.335 16.2928L160.425 26.3327C160.428 26.5299 160.489 26.7219 160.601 26.884C160.714 27.0461 160.872 27.1711 161.055 27.2427C161.735 27.5161 162.462 27.6594 163.236 27.6727C163.569 27.6794 163.752 27.8461 163.785 28.1727L163.826 28.5728C163.899 29.2528 163.595 29.5961 162.915 29.6028C159.385 29.6328 158.206 28.7428 158.156 25.1228C158.089 20.1828 158.079 15.1761 158.126 10.1028C158.126 9.74277 158.305 9.56941 158.665 9.58275L159.876 9.61274C160.202 9.62608 160.365 9.79274 160.365 10.1127L160.355 12.8228C160.355 13.3161 160.599 13.5561 161.085 13.5428Z" fill="white"/>
<path d="M176.895 24.3227C176.793 23.9631 176.595 23.6378 176.322 23.3808C176.049 23.1239 175.712 22.9449 175.345 22.8627C172.175 22.1327 167.135 21.6327 167.685 17.1227C168.305 12.0327 178.015 11.6827 178.705 17.1527C178.752 17.5393 178.589 17.7793 178.215 17.8727C177.882 17.9527 177.562 17.9493 177.255 17.8627C176.955 17.7827 176.749 17.5993 176.635 17.3127C175.915 15.446 174.352 14.756 171.945 15.2427C170.992 15.436 170.335 15.936 169.975 16.7427C169.858 17.0046 169.796 17.2879 169.794 17.5749C169.791 17.8619 169.848 18.1463 169.961 18.4102C170.073 18.6741 170.239 18.9119 170.449 19.1085C170.658 19.3051 170.905 19.4563 171.175 19.5527C172.589 20.0593 174.059 20.4493 175.585 20.7227C180.365 21.5627 180.265 27.3827 176.255 28.9627C173.345 30.1127 168.355 29.7427 167.395 26.0627C167.309 25.7227 167.392 25.4293 167.645 25.1827C167.932 24.9027 168.269 24.816 168.655 24.9227C169.002 25.0227 169.275 25.2227 169.475 25.5227C170.755 27.476 172.635 28.0793 175.115 27.3327C176.425 26.9427 177.295 25.7227 176.895 24.3227Z" fill="white"/>
<path d="M150.545 27.9735C148.065 30.3935 142.315 30.2335 141.505 26.2035C140.275 20.0535 146.205 19.9635 150.365 20.3035C150.552 20.3202 150.738 20.2622 150.882 20.1423C151.027 20.0224 151.118 19.8503 151.135 19.6635C151.675 14.5535 145.435 13.4735 143.995 17.6135C143.855 18.0202 143.575 18.1702 143.155 18.0635L142.365 17.8535C142.226 17.8162 142.107 17.7258 142.033 17.601C141.958 17.4762 141.934 17.3267 141.965 17.1835C142.545 14.7902 144.199 13.5002 146.925 13.3135C151.245 13.0135 153.545 15.2835 153.435 19.4835C153.349 22.8502 153.339 25.8502 153.405 28.4835C153.412 28.7902 153.295 29.0368 153.055 29.2235C152.695 29.5102 152.312 29.5735 151.905 29.4135C151.552 29.2735 151.335 29.0168 151.255 28.6435L151.155 28.1535C151.069 27.7268 150.865 27.6668 150.545 27.9735ZM144.905 27.1435C148.415 28.5535 151.795 26.4735 151.095 22.6135C151.029 22.2602 150.819 22.0835 150.465 22.0835C149.079 22.0835 147.629 22.1168 146.115 22.1835C143.795 22.2935 142.965 24.6035 144.105 26.4635C144.294 26.7689 144.574 27.0069 144.905 27.1435Z" fill="white"/>
<path d="M83.0981 23.8348C83.0954 24.586 82.9449 25.3292 82.655 26.0222C82.3651 26.7152 81.9416 27.3443 81.4086 27.8736C80.8756 28.4029 80.2435 28.822 79.5485 29.1071C78.8535 29.3921 78.1092 29.5374 77.3581 29.5348L76.418 29.5315C74.901 29.5262 73.4482 28.9185 72.3793 27.842C71.3103 26.7656 70.7128 25.3086 70.7181 23.7916L70.7329 19.5516C70.7355 18.8004 70.886 18.0571 71.1759 17.3642C71.4658 16.6712 71.8893 16.0421 72.4223 15.5128C72.9553 14.9835 73.5874 14.5644 74.2824 14.2794C74.9774 13.9943 75.7217 13.849 76.4729 13.8516L77.4129 13.8549C78.9299 13.8602 80.3827 14.4679 81.4516 15.5443C82.5206 16.6208 83.1181 18.0778 83.1129 19.5948L83.0981 23.8348ZM82.1115 19.5366C82.127 18.2663 81.6372 17.0419 80.75 16.1327C79.8627 15.2235 78.6506 14.704 77.3804 14.6885L76.6004 14.679C75.3301 14.6635 74.1057 15.1533 73.1965 16.0405C72.2873 16.9278 71.7678 18.1398 71.7523 19.4101L71.6995 23.7298C71.6839 25.0001 72.1737 26.2245 73.0609 27.1337C73.9482 28.0429 75.1603 28.5624 76.4306 28.5779L77.2106 28.5874C78.4808 28.6029 79.7052 28.1132 80.6144 27.2259C81.5236 26.3387 82.0431 25.1266 82.0587 23.8563L82.1115 19.5366Z" fill="white"/>
<path d="M96.6154 15.4226C96.5554 16.3626 96.8387 16.4793 97.4654 15.7727C98.5321 14.5727 99.9187 13.9593 101.625 13.9327C105.555 13.8727 107.245 16.4727 107.155 20.1927C107.075 23.3593 107.069 26.3827 107.135 29.2627C107.142 29.4627 107.045 29.5727 106.845 29.5927L106.445 29.6527C106.199 29.6793 106.079 29.5693 106.085 29.3227C106.159 26.096 106.145 22.796 106.045 19.4226C105.845 12.6026 96.6954 13.6027 96.6654 20.2727C96.6587 23.4127 96.6421 26.4427 96.6154 29.3627C96.6154 29.5227 96.5354 29.606 96.3754 29.6127L95.8854 29.6227C95.7121 29.6293 95.6254 29.546 95.6254 29.3727L95.5454 14.4327C95.5454 14.1393 95.6921 13.9927 95.9854 13.9927H96.2954C96.3479 13.9925 96.3999 14.0032 96.4481 14.0242C96.4963 14.0451 96.5396 14.0758 96.5753 14.1144C96.611 14.1529 96.6383 14.1984 96.6556 14.248C96.6728 14.2977 96.6795 14.3503 96.6754 14.4027L96.6154 15.4226Z" fill="white"/>
<path d="M89.132 14.1533L88.932 14.1537C88.7387 14.154 88.5823 14.311 88.5826 14.5043L88.6082 29.1443C88.6085 29.3376 88.7655 29.494 88.9588 29.4937L89.1588 29.4933C89.3521 29.493 89.5085 29.336 89.5082 29.1427L89.4826 14.5027C89.4823 14.3094 89.3253 14.153 89.132 14.1533Z" fill="white"/>
<path d="M37.9156 25.0831C33.0356 37.8731 18.0856 42.3631 7.30556 33.3931C7.09223 33.2198 7.08223 33.0365 7.27556 32.8431L10.6356 29.4531C10.7044 29.3826 10.7976 29.3405 10.8973 29.335C10.9969 29.3294 11.096 29.3608 11.1756 29.4231C18.7856 35.5831 28.5756 32.3331 32.4256 23.8431C32.5122 23.6565 32.6589 23.5865 32.8656 23.6331L37.7156 24.7231C37.7541 24.7325 37.7903 24.7496 37.8218 24.7733C37.8533 24.7971 37.8793 24.827 37.8983 24.861C37.9172 24.8951 37.9285 24.9325 37.9315 24.9708C37.9344 25.009 37.929 25.0473 37.9156 25.0831Z" fill="#EA5238"/>
</svg>
