<svg width="203" height="55" viewBox="0 0 203 55" fill="none" xmlns="http://www.w3.org/2000/svg">
<path d="M13.8455 23.7928C13.7951 23.7915 13.7455 23.8054 13.7032 23.8328C13.6608 23.8602 13.6278 23.8997 13.6083 23.9462C13.5888 23.9927 13.5839 24.044 13.5941 24.0933C13.6043 24.1427 13.6292 24.1878 13.6655 24.2228L27.1155 38.0828C27.7555 38.7428 27.6155 39.0761 26.6955 39.0828L19.3355 39.1428C18.8363 39.146 18.3423 39.0484 17.8833 38.8559C17.4244 38.6633 17.01 38.3799 16.6655 38.0228L1.82551 22.6528C1.18572 21.9911 0.820531 21.1118 0.803822 20.1929C0.787114 19.2739 1.12014 18.3838 1.73551 17.7028L15.7055 2.2228C16.6855 1.13613 17.9055 0.576142 19.3655 0.542809L24.8955 0.422783C26.5488 0.382783 26.8222 0.979458 25.7155 2.21279L13.6455 15.6428C13.6047 15.6897 13.5784 15.7474 13.5699 15.809C13.5614 15.8705 13.5709 15.9332 13.5974 15.9894C13.624 16.0456 13.6663 16.0929 13.7192 16.1255C13.7721 16.158 13.8334 16.1745 13.8955 16.1728L19.7355 16.0928C20.2422 16.0795 20.6722 16.2561 21.0255 16.6228L27.3255 23.1528C27.5922 23.4261 27.5355 23.5661 27.1555 23.5728L13.8455 23.7928Z" fill="#1DA2B3"/>
<path d="M98.4254 12.613C100.839 12.613 102.795 10.6565 102.795 8.24304C102.795 5.82956 100.839 3.87305 98.4254 3.87305C96.0119 3.87305 94.0554 5.82956 94.0554 8.24304C94.0554 10.6565 96.0119 12.613 98.4254 12.613Z" fill="#1DA2B3"/>
<path d="M84.8956 22.4132C89.2956 23.9332 92.0856 27.8831 91.6756 32.5931C91.1489 38.6531 87.5456 41.9565 80.8656 42.5031C75.8056 42.9231 70.1289 43.0531 63.8356 42.8931C63.7525 42.8905 63.6738 42.8567 63.6159 42.7989C63.558 42.741 63.5257 42.6636 63.5256 42.5831L62.8856 4.90314C62.8843 4.84188 62.8949 4.78096 62.917 4.72397C62.939 4.66699 62.9719 4.61511 63.0138 4.57132C63.0557 4.52754 63.1058 4.49276 63.1611 4.46903C63.2163 4.4453 63.2757 4.4331 63.3356 4.43314C68.4223 4.33981 73.3523 4.26982 78.1256 4.22315C86.8656 4.14315 92.0256 13.8331 86.0356 20.6131C85.6656 21.0331 85.0456 21.3031 84.7056 21.6731C84.3856 22.0131 84.4489 22.2598 84.8956 22.4132ZM71.3056 12.1731L71.4256 18.8532C71.4269 18.9188 71.4411 18.9836 71.4675 19.0437C71.4938 19.1039 71.5317 19.1583 71.5791 19.2038C71.6265 19.2493 71.6823 19.285 71.7435 19.3089C71.8047 19.3328 71.8699 19.3445 71.9356 19.3431L76.7156 19.2632C77.8117 19.2422 78.8558 18.8525 79.6188 18.1795C80.3818 17.5065 80.8014 16.6051 80.7856 15.6731L80.7756 15.0331C80.768 14.5708 80.6533 14.1148 80.438 13.6911C80.2228 13.2675 79.9112 12.8845 79.5212 12.5641C79.1312 12.2437 78.6703 11.9922 78.1649 11.8239C77.6594 11.6555 77.1194 11.5737 76.5756 11.5831L71.7956 11.6632C71.7299 11.6645 71.6652 11.6787 71.605 11.705C71.5448 11.7313 71.4905 11.7693 71.445 11.8166C71.3995 11.864 71.3637 11.9199 71.3398 11.981C71.3159 12.0422 71.3043 12.1075 71.3056 12.1731ZM71.6156 26.7131L71.6356 34.8131C71.6356 34.8888 71.6507 34.9638 71.6799 35.0336C71.7092 35.1034 71.7521 35.1667 71.8061 35.2198C71.8601 35.2728 71.9241 35.3146 71.9944 35.3427C72.0647 35.3707 72.1399 35.3845 72.2156 35.3832L78.4356 35.3631C79.7429 35.3575 80.9945 34.8876 81.9153 34.0569C82.836 33.2261 83.3505 32.1025 83.3456 30.9331V30.5132C83.3432 29.9339 83.2132 29.3609 82.9631 28.8267C82.713 28.2926 82.3477 27.8078 81.888 27.4002C81.4284 26.9925 80.8833 26.6699 80.2841 26.4508C79.6849 26.2317 79.0431 26.1203 78.3956 26.1231L72.1756 26.1431C72.0262 26.1458 71.8837 26.207 71.779 26.3136C71.6743 26.4202 71.6156 26.5637 71.6156 26.7131Z" fill="#1DA2B3"/>
<path d="M189.245 20.073L185.075 20.093C184.937 20.093 184.805 20.0382 184.708 19.9406C184.61 19.8431 184.555 19.7109 184.555 19.573L184.515 14.063C184.515 13.9268 184.569 13.796 184.664 13.6988C184.759 13.6015 184.889 13.5456 185.025 13.543L189.115 13.463C189.252 13.4603 189.381 13.4044 189.477 13.3072C189.572 13.2099 189.625 13.0792 189.625 12.943L189.575 6.09296C189.575 5.95677 189.629 5.826 189.724 5.72877C189.819 5.63153 189.949 5.57559 190.085 5.57297L197.015 5.42295C197.084 5.42162 197.152 5.43377 197.215 5.45869C197.279 5.4836 197.337 5.52079 197.386 5.56815C197.435 5.61551 197.475 5.67212 197.502 5.73472C197.529 5.79731 197.544 5.86467 197.545 5.93296L197.665 12.833C197.667 12.9012 197.681 12.9686 197.709 13.0312C197.736 13.0938 197.776 13.1504 197.825 13.1978C197.874 13.2451 197.932 13.2823 197.996 13.3072C198.059 13.3321 198.127 13.3443 198.195 13.343L202.355 13.293C202.492 13.2929 202.622 13.3464 202.72 13.4417C202.817 13.5371 202.873 13.6668 202.875 13.803L202.935 19.323C202.935 19.4609 202.881 19.5931 202.783 19.6906C202.686 19.7882 202.553 19.843 202.415 19.843L198.315 19.873C198.246 19.8729 198.178 19.8867 198.114 19.9135C198.05 19.9402 197.993 19.9794 197.944 20.0288C197.896 20.0781 197.858 20.1367 197.832 20.2009C197.807 20.2652 197.794 20.3338 197.795 20.403L198.135 40.163C198.137 40.2313 198.125 40.2991 198.1 40.3627C198.075 40.4263 198.038 40.4844 197.99 40.5336C197.943 40.5828 197.886 40.6222 197.824 40.6496C197.761 40.6769 197.694 40.6917 197.625 40.693L190.605 40.873C190.537 40.8743 190.469 40.8621 190.406 40.8372C190.342 40.8123 190.284 40.7751 190.235 40.7278C190.186 40.6804 190.146 40.6238 190.119 40.5612C190.091 40.4986 190.077 40.4312 190.075 40.363L189.765 20.583C189.763 20.4468 189.707 20.3171 189.61 20.2217C189.512 20.1264 189.382 20.0729 189.245 20.073Z" fill="#1DA2B3"/>
<path d="M119.045 21.6933L119.345 41.5533C119.347 41.619 119.335 41.6843 119.311 41.7455C119.287 41.8066 119.252 41.8625 119.206 41.9098C119.161 41.9572 119.106 41.9951 119.046 42.0215C118.986 42.0478 118.921 42.062 118.855 42.0633L111.845 42.1333C111.78 42.1347 111.715 42.123 111.653 42.0991C111.592 42.0752 111.536 42.0395 111.489 41.994C111.442 41.9485 111.404 41.8941 111.377 41.8339C111.351 41.7738 111.337 41.709 111.335 41.6433L111.025 21.8533C111.025 21.7868 111.012 21.721 110.986 21.6596C110.961 21.5983 110.923 21.5428 110.875 21.4962C110.828 21.4496 110.772 21.413 110.71 21.3885C110.648 21.3639 110.582 21.352 110.515 21.3533L106.355 21.4033C106.225 21.4034 106.099 21.3521 106.005 21.2604C105.912 21.1688 105.858 21.0442 105.855 20.9133L105.745 15.4133C105.744 15.3477 105.756 15.2824 105.78 15.2212C105.804 15.16 105.839 15.1042 105.885 15.0568C105.93 15.0095 105.985 14.9715 106.045 14.9452C106.105 14.9189 106.17 14.9046 106.235 14.9033L110.385 14.8533C110.452 14.8534 110.518 14.8401 110.579 14.8143C110.64 14.7886 110.696 14.7509 110.743 14.7034C110.789 14.6559 110.826 14.5996 110.85 14.5378C110.875 14.4759 110.887 14.4098 110.885 14.3433L110.815 7.42332C110.814 7.35682 110.826 7.29074 110.851 7.22892C110.875 7.1671 110.912 7.1108 110.958 7.0633C111.005 7.01581 111.06 6.97806 111.122 6.95231C111.183 6.92656 111.249 6.91333 111.315 6.91334L118.295 6.82334C118.361 6.82202 118.426 6.83361 118.488 6.85752C118.549 6.88143 118.605 6.91718 118.652 6.96269C118.699 7.00819 118.737 7.06256 118.764 7.12272C118.79 7.18289 118.804 7.24767 118.805 7.31333L118.875 14.1633C118.877 14.229 118.891 14.2938 118.917 14.3539C118.944 14.4141 118.982 14.4685 119.029 14.514C119.076 14.5595 119.132 14.5952 119.193 14.6191C119.255 14.643 119.32 14.6547 119.385 14.6533L123.625 14.5933C123.756 14.5933 123.882 14.6446 123.976 14.7362C124.069 14.8278 124.123 14.9525 124.125 15.0833L124.185 20.6533C124.185 20.7859 124.133 20.9131 124.039 21.0069C123.945 21.1006 123.818 21.1533 123.685 21.1533L119.535 21.1933C119.405 21.196 119.28 21.2498 119.188 21.3433C119.097 21.4368 119.045 21.5624 119.045 21.6933Z" fill="#1DA2B3"/>
<path d="M165.685 31.3527C167.605 36.1227 174.215 35.4927 177.725 33.1627C177.85 33.0798 178 33.0416 178.15 33.0542C178.301 33.0669 178.443 33.1298 178.555 33.2327L181.365 35.8727C181.464 35.9637 181.543 36.0739 181.597 36.1965C181.651 36.3191 181.679 36.4515 181.68 36.5856C181.681 36.7196 181.655 36.8524 181.602 36.9758C181.55 37.0991 181.473 37.2104 181.375 37.3027C177.615 40.8827 173.299 42.1627 168.425 41.1427C153.435 38.0127 153.725 15.8527 168.905 13.7227C178.175 12.4327 184.225 20.0227 183.345 28.8327C183.306 29.2075 183.132 29.555 182.856 29.8093C182.579 30.0637 182.22 30.2072 181.845 30.2127L166.295 30.4327C165.642 30.4461 165.439 30.7527 165.685 31.3527ZM165.455 25.3727L176.125 25.1727C176.146 25.1728 176.166 25.1686 176.185 25.1604C176.204 25.1523 176.221 25.1403 176.235 25.1253C176.249 25.1103 176.26 25.0926 176.267 25.0732C176.274 25.0538 176.277 25.0333 176.275 25.0127V24.9427C176.25 23.7342 175.663 22.5866 174.643 21.7521C173.623 20.9177 172.253 20.4647 170.835 20.4927H170.555C169.137 20.5203 167.787 21.0266 166.801 21.9005C165.814 22.7743 165.273 23.9441 165.295 25.1527V25.2227C165.295 25.2433 165.3 25.2637 165.308 25.2825C165.316 25.3014 165.328 25.3184 165.343 25.3325C165.358 25.3466 165.376 25.3574 165.395 25.3643C165.414 25.3712 165.435 25.3741 165.455 25.3727Z" fill="#1DA2B3"/>
<path d="M146.685 16.6528L146.835 15.5628C146.922 14.9161 147.292 14.5861 147.945 14.5728L153.245 14.5128C153.932 14.5061 154.279 14.8428 154.285 15.5228C154.372 23.7561 154.519 32.1461 154.725 40.6928C155.045 54.3628 137.455 54.5828 129.125 49.5028C128.559 49.1628 128.425 48.6961 128.725 48.1028L130.535 44.5728C130.862 43.9395 131.332 43.8028 131.945 44.1628C136.645 46.8928 148.395 47.6628 147.295 38.9728C147.286 38.9035 147.257 38.8382 147.212 38.7843C147.168 38.7303 147.109 38.6897 147.043 38.6669C146.977 38.6442 146.905 38.6402 146.837 38.6553C146.769 38.6705 146.706 38.7042 146.655 38.7528C143.809 41.4861 140.425 42.4194 136.505 41.5528C123.195 38.6128 122.955 17.6628 136.225 14.4528C139.972 13.5461 143.219 14.3661 145.965 16.9128C146.372 17.2928 146.612 17.2061 146.685 16.6528ZM139.874 34.4167C140.673 34.4516 141.471 34.3192 142.223 34.0271C142.976 33.735 143.667 33.2888 144.258 32.7142C144.85 32.1396 145.329 31.4477 145.669 30.678C146.009 29.9083 146.203 29.0759 146.24 28.2284C146.314 26.5167 145.745 24.8472 144.657 23.587C143.569 22.3269 142.051 21.5793 140.437 21.5089C139.638 21.474 138.84 21.6064 138.087 21.8985C137.335 22.1906 136.644 22.6367 136.052 23.2114C135.461 23.786 134.982 24.4779 134.642 25.2476C134.302 26.0173 134.108 26.8496 134.071 27.6972C133.997 29.4088 134.566 31.0784 135.654 32.3385C136.742 33.5987 138.26 34.3462 139.874 34.4167Z" fill="#1DA2B3"/>
<path d="M101.92 14.9222L95.1807 15.028C94.8273 15.0336 94.5453 15.3246 94.5508 15.678L94.9611 41.7948C94.9667 42.1482 95.2577 42.4302 95.6111 42.4247L102.35 42.3188C102.704 42.3132 102.986 42.0222 102.98 41.6688L102.57 15.552C102.564 15.1986 102.273 14.9166 101.92 14.9222Z" fill="#1DA2B3"/>
<path d="M39.1756 38.8528L33.4956 38.9028C32.9889 38.9095 32.5556 38.7328 32.1956 38.3728L25.8756 31.9128C25.5489 31.5795 25.6189 31.4095 26.0856 31.4028L39.2056 31.2228C39.2674 31.2217 39.3272 31.2024 39.3778 31.1672C39.4285 31.132 39.4677 31.0824 39.491 31.0243C39.5142 30.9663 39.5204 30.9022 39.5088 30.8399C39.4972 30.7775 39.4683 30.7195 39.4256 30.6728L26.2156 16.9928C25.5356 16.2862 25.6856 15.9295 26.6656 15.9228L33.6756 15.8528C34.8623 15.8395 35.8689 16.2595 36.6956 17.1128L51.3556 32.3128C52.0013 32.9789 52.3687 33.8666 52.3835 34.7967C52.3984 35.7267 52.0596 36.6296 51.4356 37.3228L37.1756 53.1328C36.3889 54.0062 35.4089 54.4462 34.2356 54.4528L28.3956 54.4728C26.7156 54.4795 26.4423 53.8595 27.5756 52.6128L39.4656 39.5128C39.8656 39.0728 39.7689 38.8528 39.1756 38.8528Z" fill="#1DA2B3"/>
</svg>
