<svg width="150" height="55" viewBox="0 0 150 55" fill="none" xmlns="http://www.w3.org/2000/svg">
<path d="M28.9555 0.912769C28.1489 1.29277 27.3389 1.58278 26.5255 1.78278C26.5189 1.78278 26.5155 1.77944 26.5155 1.77277C26.5155 1.77277 26.5155 1.76944 26.5155 1.76278C26.4955 1.72278 26.5089 1.70611 26.5555 1.71277C26.7222 1.72611 26.8822 1.73278 27.0356 1.73278C27.0971 1.73246 27.1573 1.75046 27.2086 1.7845C27.2599 1.81854 27.2999 1.86708 27.3235 1.92392C27.3471 1.98077 27.3532 2.04334 27.3411 2.10369C27.329 2.16403 27.2992 2.21942 27.2556 2.26278C26.9956 2.52944 27.0089 2.80611 27.2956 3.09278C27.4259 3.236 27.5127 3.41293 27.5456 3.60277C27.6789 4.4761 27.3022 4.96945 26.4155 5.08278L15.1456 5.02277C14.7981 5.02277 14.4649 5.15974 14.2192 5.40354C13.9736 5.64734 13.8355 5.97799 13.8355 6.32277L13.8455 9.89278C13.8455 10.2128 13.6856 10.3728 13.3656 10.3728L9.84555 10.3528C9.77773 10.3528 9.71058 10.3393 9.64805 10.313C9.58551 10.2868 9.52884 10.2483 9.48134 10.1999C9.43385 10.1515 9.3965 10.094 9.37147 10.031C9.34643 9.96797 9.33422 9.90059 9.33555 9.83278L9.41555 1.05277C9.41555 0.632769 9.62555 0.426107 10.0456 0.432773L28.9555 0.912769Z" fill="#269775"/>
<path d="M28.9554 0.912609C35.7054 0.412609 41.8654 3.31262 44.7554 9.51262C47.5554 15.5026 45.2754 23.0026 40.0654 26.7826C40.033 26.8065 40.0067 26.8378 39.989 26.8739C39.9712 26.9101 39.9625 26.95 39.9635 26.9902C39.9644 27.0305 39.9751 27.0699 39.9946 27.1051C40.0141 27.1404 40.0418 27.1704 40.0754 27.1926C50.4454 33.9126 49.8254 47.6326 38.8554 53.1226C37.7621 53.6626 36.5354 53.986 35.1754 54.0926C33.4554 54.2226 31.8154 54.6226 30.0954 54.5726C23.3621 54.406 16.5721 54.3193 9.72543 54.3126C9.5526 54.3127 9.38153 54.2781 9.22235 54.2108C9.06318 54.1434 8.91915 54.0448 8.79882 53.9207C8.6785 53.7967 8.58433 53.6497 8.52191 53.4886C8.45948 53.3274 8.43008 53.1553 8.43543 52.9826L8.66543 44.5126C8.6721 44.1393 8.86543 43.9626 9.24543 43.9826L12.6454 44.1826C12.7586 44.1903 12.8644 44.2414 12.9408 44.3253C13.0172 44.4091 13.0583 44.5192 13.0554 44.6326L12.9154 48.8226C12.9101 49.0039 12.9774 49.18 13.1028 49.3129C13.2282 49.4458 13.4016 49.5247 13.5854 49.5326C19.8121 49.746 25.9354 49.9026 31.9554 50.0026C40.0254 50.1426 46.6454 41.9626 41.4954 34.4326C38.9954 30.7626 34.7054 29.6326 30.3954 29.7726C30.3037 29.7767 30.2121 29.7618 30.1261 29.729C30.0401 29.6961 29.9616 29.6459 29.8952 29.5814C29.8289 29.517 29.7761 29.4395 29.74 29.3538C29.704 29.2681 29.6854 29.1758 29.6854 29.0826L29.7154 26.1326C29.7154 25.5659 29.9988 25.2893 30.5654 25.3026C38.0154 25.4726 42.9154 19.4526 40.8354 12.1226C39.0754 5.92262 32.8154 5.11262 26.4154 5.08262C27.3021 4.96929 27.6788 4.47594 27.5454 3.60261C27.5126 3.41277 27.4258 3.23584 27.2954 3.09262C27.0088 2.80595 26.9954 2.52928 27.2554 2.26261C27.2991 2.21926 27.3289 2.16387 27.341 2.10353C27.3531 2.04318 27.3469 1.98061 27.3233 1.92376C27.2997 1.86692 27.2598 1.81838 27.2085 1.78434C27.1572 1.7503 27.097 1.7323 27.0354 1.73262C26.8821 1.73262 26.7221 1.72595 26.5554 1.71261C26.5088 1.70595 26.4954 1.72261 26.5154 1.76261C26.5154 1.76928 26.5154 1.77261 26.5154 1.77261C26.5154 1.77928 26.5188 1.78262 26.5254 1.78262C27.3388 1.58262 28.1488 1.29261 28.9554 0.912609Z" fill="#65B157"/>
<path d="M18.3756 32.3626C17.4889 35.0293 16.4423 36.3093 15.2356 36.2026L10.2556 28.0926C10.0643 27.7819 9.96559 27.4231 9.97091 27.0583C9.97622 26.6934 10.0854 26.3377 10.2856 26.0326L20.6656 10.3626C20.855 10.0781 21.113 9.84624 21.4156 9.68883C21.7182 9.53142 22.0554 9.45358 22.3956 9.46262L25.9656 9.58263C26.7189 9.6093 26.8856 9.93596 26.4656 10.5626L16.1656 25.9326C15.888 26.3437 15.7356 26.8268 15.7267 27.3236C15.7178 27.8205 15.8529 28.3098 16.1156 28.7326L18.3756 32.3626Z" fill="#269775"/>
<path d="M4.8263 10.8229L0.987003 10.7491C0.843435 10.7464 0.724816 10.8605 0.722059 11.0041L0.109661 42.8982C0.106904 43.0418 0.221054 43.1604 0.364622 43.1632L4.20391 43.2369C4.34748 43.2396 4.4661 43.1255 4.46886 42.9819L5.08126 11.0878C5.08401 10.9442 4.96986 10.8256 4.8263 10.8229Z" fill="#269775"/>
<path d="M86.6555 21.8427C88.0583 21.8427 89.1955 20.7055 89.1955 19.3027C89.1955 17.8999 88.0583 16.7627 86.6555 16.7627C85.2527 16.7627 84.1155 17.8999 84.1155 19.3027C84.1155 20.7055 85.2527 21.8427 86.6555 21.8427Z" fill="#65B157"/>
<path d="M149.936 21.7626C149.936 22.2708 149.835 22.774 149.641 23.2436C149.446 23.7131 149.161 24.1397 148.802 24.4991C148.443 24.8584 148.016 25.1435 147.547 25.338C147.077 25.5325 146.574 25.6326 146.066 25.6326C145.039 25.6326 144.055 25.2249 143.329 24.4991C142.603 23.7733 142.196 22.789 142.196 21.7626C142.196 20.7362 142.603 19.7518 143.329 19.0261C144.055 18.3003 145.039 17.8926 146.066 17.8926C146.574 17.8926 147.077 17.9927 147.547 18.1872C148.016 18.3817 148.443 18.6667 148.802 19.0261C149.161 19.3854 149.446 19.8121 149.641 20.2816C149.835 20.7511 149.936 21.2544 149.936 21.7626ZM149.046 21.7826C149.046 20.9816 148.727 20.2135 148.161 19.6471C147.595 19.0808 146.827 18.7626 146.026 18.7626C145.225 18.7626 144.456 19.0808 143.89 19.6471C143.324 20.2135 143.006 20.9816 143.006 21.7826C143.006 22.1792 143.084 22.5719 143.235 22.9383C143.387 23.3047 143.61 23.6376 143.89 23.918C144.171 24.1985 144.503 24.4209 144.87 24.5727C145.236 24.7245 145.629 24.8026 146.026 24.8026C146.422 24.8026 146.815 24.7245 147.181 24.5727C147.548 24.4209 147.881 24.1985 148.161 23.918C148.441 23.6376 148.664 23.3047 148.816 22.9383C148.967 22.5719 149.046 22.1792 149.046 21.7826Z" fill="white"/>
<path d="M58.4555 25.8633L63.3055 19.3133C63.3922 19.2 63.5055 19.14 63.6455 19.1333C65.1122 19.1 66.4822 19.1433 67.7555 19.2633C67.7736 19.2639 67.7909 19.2698 67.8056 19.2802C67.8203 19.2907 67.8318 19.3054 67.839 19.3228C67.8461 19.3401 67.8487 19.3596 67.8463 19.379C67.8439 19.3985 67.8368 19.4172 67.8255 19.4333L62.7255 25.9733C62.5122 26.2467 62.4855 26.5367 62.6455 26.8433L67.4755 36.0233C67.4896 36.0477 67.497 36.0755 67.497 36.1037C67.4969 36.1319 67.4894 36.1596 67.4752 36.1839C67.4609 36.2083 67.4405 36.2285 67.416 36.2424C67.3915 36.2564 67.3637 36.2636 67.3355 36.2633L63.3055 36.2433C63.2365 36.2436 63.169 36.225 63.1107 36.1897C63.0523 36.1543 63.0055 36.1036 62.9755 36.0433L60.1455 30.6033C59.9388 30.19 59.6588 30.1367 59.3055 30.4433C57.7922 31.7633 57.2822 33.6 57.7755 35.9533C57.7818 35.9759 57.7825 35.9996 57.7773 36.0225C57.7722 36.0454 57.7614 36.067 57.7458 36.0854C57.7303 36.1039 57.7104 36.1187 57.6878 36.1288C57.6652 36.1388 57.6404 36.1438 57.6155 36.1433L53.6755 36.0133C53.4555 36.0067 53.3489 35.8933 53.3555 35.6733L53.6755 19.3633C53.6822 19.0567 53.8388 18.9033 54.1455 18.9033L57.4455 18.9133C57.7922 18.92 57.9622 19.0933 57.9555 19.4333L57.9055 25.6833C57.8989 26.31 58.0822 26.37 58.4555 25.8633Z" fill="white"/>
<path d="M119.605 28.7826C121.119 29.7093 121.825 30.9326 121.725 32.4526C121.519 35.7593 119.552 37.3526 115.825 37.2326C113.179 37.146 110.452 37.1126 107.645 37.1326C107.265 37.1393 107.079 36.9493 107.085 36.5626L107.395 20.6526C107.402 20.226 107.615 20.0159 108.035 20.0226C110.955 20.0493 113.752 20.0926 116.425 20.1526C119.725 20.2326 121.955 22.7426 121.035 26.1726C120.809 27.0193 120.339 27.6393 119.625 28.0326C119.192 28.2726 119.185 28.5226 119.605 28.7826ZM111.685 23.6626L111.585 26.6426C111.584 26.6886 111.592 26.7344 111.608 26.7773C111.625 26.8203 111.649 26.8597 111.681 26.8931C111.712 26.9265 111.75 26.9534 111.792 26.9722C111.834 26.991 111.879 27.0013 111.925 27.0026L115.105 27.1026C115.33 27.1093 115.554 27.0716 115.764 26.9918C115.974 26.912 116.166 26.7915 116.329 26.6373C116.493 26.4832 116.624 26.2983 116.716 26.0933C116.808 25.8883 116.859 25.6672 116.865 25.4426L116.875 25.1826C116.889 24.7307 116.723 24.2919 116.414 23.9621C116.104 23.6322 115.677 23.4383 115.225 23.4226L112.045 23.3226C111.999 23.3213 111.954 23.329 111.911 23.3454C111.868 23.3618 111.828 23.3864 111.795 23.418C111.761 23.4496 111.735 23.4875 111.716 23.5294C111.697 23.5714 111.687 23.6166 111.685 23.6626ZM111.555 30.5526L111.495 33.4926C111.494 33.5473 111.504 33.6017 111.524 33.6526C111.544 33.7035 111.574 33.7499 111.612 33.789C111.65 33.8282 111.696 33.8593 111.746 33.8805C111.797 33.9017 111.851 33.9126 111.905 33.9126L115.375 33.9726C115.641 33.9772 115.905 33.9355 116.152 33.8499C116.399 33.7644 116.624 33.6367 116.814 33.4741C117.005 33.3115 117.157 33.1173 117.262 32.9026C117.366 32.6878 117.422 32.4568 117.425 32.2226V32.0226C117.432 31.5512 117.226 31.096 116.853 30.7566C116.48 30.4173 115.97 30.2217 115.435 30.2126L111.965 30.1526C111.858 30.1526 111.756 30.1944 111.679 30.2692C111.602 30.3439 111.558 30.4456 111.555 30.5526Z" fill="white"/>
<path d="M146.205 22.5926C145.879 22.5193 145.582 22.5693 145.315 22.7426C145.049 22.9093 144.882 22.8393 144.815 22.5326C144.622 21.6193 144.779 20.876 145.285 20.3026C145.539 20.0226 145.835 19.9593 146.175 20.1126L146.935 20.4726C147.342 20.666 147.462 20.9693 147.295 21.3826C147.102 21.8493 147.052 22.3293 147.145 22.8226C147.225 23.2493 147.062 23.3793 146.655 23.2126C146.509 23.1526 146.439 23.046 146.445 22.8926C146.452 22.726 146.372 22.626 146.205 22.5926Z" fill="white"/>
<path d="M130.275 32.1829L127.045 37.3029C127.015 37.3521 126.972 37.3926 126.921 37.4206C126.871 37.4486 126.813 37.4632 126.755 37.4629L122.805 37.4029C122.746 37.4014 122.687 37.3841 122.636 37.3527C122.585 37.3213 122.543 37.277 122.515 37.2242C122.486 37.1714 122.472 37.112 122.474 37.0521C122.476 36.9921 122.494 36.9338 122.525 36.8829L127.485 29.0729C127.519 29.0189 127.537 28.9565 127.537 28.8929C127.537 28.8293 127.519 28.7669 127.485 28.7129L122.815 20.7829C122.783 20.7306 122.765 20.6704 122.764 20.6087C122.763 20.547 122.778 20.4862 122.809 20.4328C122.84 20.3794 122.885 20.3353 122.939 20.3054C122.993 20.2755 123.054 20.2608 123.115 20.2629L127.055 20.3529C127.113 20.3526 127.171 20.3672 127.221 20.3952C127.272 20.4232 127.315 20.4637 127.345 20.5129L130.455 25.7329C130.485 25.7831 130.527 25.8248 130.577 25.8542C130.627 25.8835 130.684 25.8995 130.743 25.9005C130.801 25.9015 130.858 25.8875 130.91 25.8599C130.961 25.8323 131.004 25.792 131.035 25.7429L134.325 20.6729C134.356 20.627 134.398 20.5893 134.447 20.5632C134.496 20.537 134.55 20.5232 134.605 20.5229L138.515 20.5029C138.576 20.5026 138.636 20.5186 138.689 20.5493C138.741 20.58 138.784 20.6242 138.814 20.6773C138.844 20.7304 138.858 20.7905 138.857 20.8513C138.855 20.912 138.838 20.9713 138.805 21.0229L133.885 28.9129C133.852 28.9648 133.834 29.0249 133.832 29.0865C133.83 29.1482 133.845 29.2091 133.875 29.2629L138.455 37.2029C138.484 37.2555 138.497 37.3145 138.495 37.374C138.493 37.4336 138.476 37.4916 138.445 37.5422C138.413 37.5928 138.369 37.6343 138.317 37.6625C138.264 37.6907 138.205 37.7047 138.145 37.7029L134.305 37.5529C134.251 37.5499 134.198 37.5338 134.151 37.5059C134.104 37.4781 134.064 37.4393 134.035 37.3929L130.855 32.1929C130.826 32.1427 130.784 32.101 130.734 32.0716C130.683 32.0423 130.627 32.0263 130.568 32.0253C130.51 32.0243 130.453 32.0383 130.401 32.0659C130.35 32.0935 130.307 32.1338 130.275 32.1829Z" fill="#65B157"/>
<path d="M82.665 29.8349C82.6538 30.7515 82.4477 31.6567 82.0584 32.4988C81.6692 33.341 81.1045 34.1036 80.3964 34.7432C79.6884 35.3827 78.851 35.8867 77.932 36.2263C77.013 36.5658 76.0304 36.7344 75.0403 36.7223C73.0407 36.6979 71.132 35.9391 69.7341 34.6129C68.3362 33.2867 67.5636 31.5018 67.5862 29.6507C67.5974 28.7341 67.8035 27.8289 68.1927 26.9868C68.5819 26.1446 69.1467 25.382 69.8547 24.7424C70.5627 24.1029 71.4001 23.5989 72.3191 23.2593C73.2382 22.9198 74.2208 22.7512 75.2109 22.7633C77.2104 22.7877 79.1191 23.5465 80.517 24.8727C81.915 26.1989 82.6876 27.9838 82.665 29.8349ZM78.6256 29.7128C78.6256 29.2519 78.5348 28.7954 78.3584 28.3696C78.182 27.9437 77.9234 27.5568 77.5975 27.2309C77.2716 26.9049 76.8846 26.6464 76.4588 26.47C76.0329 26.2936 75.5765 26.2028 75.1156 26.2028C74.1847 26.2028 73.2919 26.5726 72.6336 27.2309C71.9754 27.8891 71.6056 28.7819 71.6056 29.7128C71.6056 30.6437 71.9754 31.5365 72.6336 32.1947C73.2919 32.853 74.1847 33.2228 75.1156 33.2228C75.5765 33.2228 76.0329 33.132 76.4588 32.9556C76.8846 32.7792 77.2716 32.5207 77.5975 32.1947C77.9234 31.8688 78.182 31.4819 78.3584 31.056C78.5348 30.6302 78.6256 30.1737 78.6256 29.7128Z" fill="white"/>
<path d="M88.2875 23.302L85.0083 23.2276C84.793 23.2227 84.6144 23.3933 84.6096 23.6086L84.3223 36.2654C84.3175 36.4807 84.4881 36.6593 84.7034 36.6641L87.9825 36.7386C88.1979 36.7434 88.3764 36.5728 88.3813 36.3575L88.6685 23.7008C88.6734 23.4854 88.5028 23.3069 88.2875 23.302Z" fill="white"/>
<path d="M95.8155 24.4134C96.3655 23.7434 96.8655 23.5634 97.6955 23.4234C106.385 22.0334 104.735 31.3834 104.515 36.6534C104.509 36.8867 104.389 37.0001 104.155 36.9934L100.695 36.9434C100.429 36.9368 100.309 36.8034 100.335 36.5434C100.595 33.9034 100.642 31.3967 100.475 29.0234C100.389 27.7367 99.7155 26.9501 98.4555 26.6634C98.0422 26.5701 97.5255 26.6101 96.9055 26.7834C96.3948 26.9215 95.9426 27.2211 95.6164 27.6374C95.2901 28.0538 95.1074 28.5646 95.0955 29.0934L94.9055 36.3834C94.8988 36.7301 94.7222 36.8967 94.3755 36.8834L91.2255 36.7534C90.9721 36.7401 90.8488 36.6101 90.8555 36.3634L91.1155 23.8534C91.1221 23.4934 91.3022 23.3201 91.6555 23.3334L94.1555 23.4034C94.5622 23.4167 94.8521 23.6101 95.0255 23.9834C95.0655 24.0634 95.0921 24.1434 95.1055 24.2234C95.2121 24.8034 95.4488 24.8667 95.8155 24.4134Z" fill="white"/>
<path d="M18.3756 32.3633L25.6556 44.2733C26.0089 44.8466 25.8489 45.1299 25.1756 45.1233L21.8556 45.1033C21.5132 45.1005 21.1766 45.01 20.8775 44.8403C20.5784 44.6707 20.3266 44.4274 20.1456 44.1333L15.2356 36.2033C16.4423 36.3099 17.4889 35.0299 18.3756 32.3633Z" fill="#65B157"/>
</svg>
