<svg width="84" height="71" viewBox="0 0 84 71" fill="none" xmlns="http://www.w3.org/2000/svg">
<path d="M34.3555 7.49268L31.8955 6.07268C31.8104 6.02353 31.7397 5.95284 31.6905 5.86771C31.6414 5.78257 31.6155 5.68599 31.6155 5.58768C31.6155 5.48937 31.6414 5.39279 31.6905 5.30766C31.7397 5.22252 31.8104 5.15183 31.8955 5.10268L40.1855 0.422684C40.2707 0.373533 40.3672 0.347656 40.4655 0.347656C40.5638 0.347656 40.6604 0.373533 40.7455 0.422684L49.1055 5.36268C49.1916 5.41373 49.2625 5.48694 49.3107 5.57468C49.3589 5.66241 49.3828 5.76147 49.3797 5.86153C49.3766 5.9616 49.3468 6.05902 49.2933 6.14364C49.2398 6.22826 49.1646 6.29699 49.0755 6.34268L46.6255 7.61268C46.5432 7.65491 46.4518 7.67611 46.3593 7.67436C46.2668 7.67262 46.1762 7.64799 46.0955 7.60268L40.6255 4.54268C40.5404 4.49353 40.4438 4.46765 40.3455 4.46765C40.2472 4.46765 40.1507 4.49353 40.0655 4.54268L34.9155 7.49268C34.8304 7.54183 34.7338 7.5677 34.6355 7.5677C34.5372 7.5677 34.4407 7.54183 34.3555 7.49268Z" fill="#FFBE40"/>
<path d="M27.9355 14.3534L26.0054 13.2934C25.5588 13.0467 25.3354 12.6701 25.3354 12.1634L25.3054 9.61341C25.2988 9.26674 25.4155 8.96674 25.6555 8.7134C27.6021 6.6134 29.5321 6.55674 31.4454 8.54341C31.5177 8.61767 31.5699 8.70927 31.597 8.80927C31.624 8.90927 31.625 9.01425 31.5998 9.11398C31.5747 9.2137 31.5242 9.30476 31.4533 9.37828C31.3824 9.45179 31.2936 9.50524 31.1954 9.53341C29.1021 10.1601 28.3221 11.5301 28.8554 13.6434C28.8864 13.7619 28.8817 13.8866 28.842 14.0022C28.8023 14.1179 28.7292 14.2195 28.6317 14.2948C28.5342 14.37 28.4165 14.4157 28.2928 14.4261C28.1692 14.4365 28.045 14.4112 27.9355 14.3534Z" fill="#FFBE40"/>
<path d="M37.6755 8.55322L40.0755 7.29322C40.156 7.25198 40.2451 7.23047 40.3355 7.23047C40.4259 7.23047 40.5151 7.25198 40.5955 7.29322L43.0655 8.52322C43.1587 8.56963 43.2374 8.64066 43.2931 8.72861C43.3487 8.81657 43.3793 8.91809 43.3813 9.02216C43.3834 9.12624 43.3569 9.22889 43.3048 9.31898C43.2526 9.40908 43.1768 9.48317 43.0855 9.53323L40.6855 10.8432C40.6034 10.8894 40.511 10.9145 40.4168 10.9162C40.3226 10.918 40.2293 10.8963 40.1455 10.8532L37.6755 9.56322C37.5833 9.51497 37.5061 9.44239 37.4522 9.35337C37.3984 9.26435 37.3699 9.16228 37.3699 9.05822C37.3699 8.95416 37.3984 8.85209 37.4522 8.76307C37.5061 8.67405 37.5833 8.60148 37.6755 8.55322Z" fill="#FFBE40"/>
<path d="M51.4156 10.6833L48.9256 9.59334C48.8901 9.57765 48.8587 9.55389 48.8339 9.52395C48.8092 9.49401 48.7918 9.45871 48.783 9.42086C48.7743 9.38301 48.7745 9.34365 48.7836 9.30589C48.7927 9.26813 48.8105 9.23302 48.8356 9.20334C50.3756 7.41001 52.0856 7.04667 53.9656 8.11334C55.219 8.82667 55.7856 9.90668 55.6656 11.3533C55.5123 13.2133 54.3756 14.3467 52.2556 14.7533C52.203 14.7638 52.1487 14.7621 52.0967 14.7482C52.0447 14.7344 51.9964 14.7088 51.9552 14.6733C51.9139 14.6379 51.8809 14.5934 51.8585 14.5433C51.8361 14.4931 51.8249 14.4384 51.8256 14.3833L51.8856 11.4133C51.8923 11.0667 51.7356 10.8233 51.4156 10.6833Z" fill="#FFBE40"/>
<path d="M46.0156 10.6328C49.0689 11.2862 50.2589 13.0362 49.5856 15.8828C49.5056 16.2362 49.3056 16.5028 48.9856 16.6828L44.5956 19.1728C44.3126 19.3339 44.0768 19.5665 43.9118 19.8472C43.7469 20.128 43.6585 20.4472 43.6556 20.7728L43.6456 25.1728C43.6389 25.5262 43.5289 25.8395 43.3156 26.1128C41.5089 28.4395 39.4623 28.5895 37.1756 26.5628C36.8023 26.2295 36.6256 25.8095 36.6456 25.3028L36.8656 20.3328C36.8749 20.1127 36.8238 19.8946 36.7179 19.7023C36.6121 19.51 36.4556 19.3511 36.2656 19.2428L32.0756 16.8428C31.7623 16.6628 31.5423 16.4028 31.4156 16.0628C30.4223 13.3762 31.3089 11.5195 34.0756 10.4928C34.2318 10.4364 34.3988 10.4152 34.5647 10.4307C34.7306 10.4463 34.8914 10.4982 35.0356 10.5828L39.9256 13.5228C40.0438 13.5923 40.1785 13.6289 40.3156 13.6289C40.4527 13.6289 40.5874 13.5923 40.7056 13.5228L45.4856 10.7228C45.6463 10.6262 45.8358 10.594 46.0156 10.6328Z" fill="#FFBE40"/>
<path d="M28.9654 24.3332L34.1854 27.4132C34.2515 27.4525 34.3064 27.508 34.3449 27.5746C34.3834 27.6411 34.4043 27.7164 34.4054 27.7932L34.4654 30.8832C34.4678 30.9638 34.4485 31.0436 34.4095 31.1141C34.3705 31.1847 34.3133 31.2435 34.2438 31.2844C34.1743 31.3253 34.0951 31.3468 34.0145 31.3465C33.9338 31.3463 33.8547 31.3245 33.7854 31.2832L25.3054 26.3332C25.2361 26.2943 25.1782 26.2378 25.1378 26.1692C25.0974 26.1007 25.0759 26.0228 25.0754 25.9432L25.1854 16.0732C25.1873 15.9936 25.2102 15.916 25.2519 15.8482C25.2936 15.7804 25.3525 15.7248 25.4227 15.6872C25.4928 15.6496 25.5717 15.6313 25.6512 15.6341C25.7307 15.6369 25.8081 15.6607 25.8754 15.7032L28.5754 17.4032C28.6397 17.4437 28.6926 17.4998 28.7293 17.5662C28.766 17.6327 28.7853 17.7073 28.7854 17.7832L28.7454 23.9432C28.7449 24.0218 28.7649 24.0991 28.8035 24.1675C28.8421 24.2359 28.8979 24.2931 28.9654 24.3332Z" fill="#FFBE40"/>
<path d="M51.6456 24.2031L51.9256 18.2031C51.9294 18.1177 51.9531 18.0344 51.9948 17.9597C52.0364 17.8851 52.0949 17.8212 52.1656 17.7731L54.5556 16.1631C54.6386 16.1064 54.7356 16.0736 54.836 16.0682C54.9364 16.0628 55.0364 16.085 55.125 16.1324C55.2137 16.1798 55.2876 16.2506 55.3389 16.3371C55.3901 16.4237 55.4166 16.5226 55.4156 16.6231L55.3156 26.1531C55.3157 26.2508 55.2899 26.3467 55.2406 26.4311C55.1914 26.5154 55.1207 26.5851 55.0356 26.6331L46.4156 31.4331C46.3288 31.4823 46.2303 31.5071 46.1306 31.5047C46.0309 31.5022 45.9337 31.4727 45.8494 31.4193C45.7652 31.3659 45.6971 31.2906 45.6523 31.2014C45.6076 31.1122 45.588 31.0125 45.5956 30.9131L45.7956 28.1331C45.8011 28.0432 45.8287 27.9562 45.8757 27.8794C45.9228 27.8027 45.988 27.7387 46.0656 27.6931L51.3756 24.6531C51.4545 24.6065 51.5205 24.541 51.5677 24.4624C51.6149 24.3838 51.6416 24.2947 51.6456 24.2031Z" fill="#FFBE40"/>
<path d="M33.9856 24.5728C31.5256 23.9062 30.5589 22.2662 31.0856 19.6528C31.1389 19.3795 31.3023 19.2762 31.5756 19.3429C34.1556 20.0029 35.1223 21.6528 34.4756 24.2928C34.4089 24.5462 34.2456 24.6395 33.9856 24.5728Z" fill="#FFBE40"/>
<path d="M46.2554 20.903L48.5654 19.423C48.6748 19.3517 48.802 19.3125 48.9326 19.3097C49.0632 19.307 49.1919 19.3408 49.3043 19.4074C49.4166 19.474 49.5081 19.5706 49.5684 19.6865C49.6287 19.8024 49.6553 19.9328 49.6454 20.063L49.4354 22.843C49.4266 22.9526 49.3922 23.0586 49.3349 23.1524C49.2776 23.2463 49.1989 23.3253 49.1054 23.383L46.8554 24.783C46.7468 24.8509 46.6217 24.8876 46.4937 24.8893C46.3656 24.891 46.2396 24.8576 46.1293 24.7926C46.0189 24.7276 45.9285 24.6337 45.8679 24.5209C45.8073 24.4081 45.7787 24.2809 45.7854 24.153L45.9354 21.453C45.9415 21.3426 45.9736 21.2352 46.0293 21.1396C46.0849 21.044 46.1624 20.9629 46.2554 20.903Z" fill="#FFBE40"/>
<path d="M40.5355 30.6527C41.2955 30.366 41.9889 29.9661 42.6155 29.4527C42.6929 29.3888 42.7853 29.3457 42.884 29.3275C42.9827 29.3093 43.0844 29.3165 43.1795 29.3485C43.2746 29.3806 43.36 29.4364 43.4275 29.5106C43.4951 29.5848 43.5426 29.675 43.5655 29.7727C44.2055 32.5127 43.0955 34.1894 40.2355 34.8027C39.8822 34.876 39.5522 34.816 39.2455 34.6227L37.3355 33.4427C37.0712 33.2785 36.8551 33.0467 36.7093 32.7709C36.5635 32.4951 36.4932 32.1852 36.5055 31.8727L36.6055 29.8527C36.6322 29.286 36.8955 29.1394 37.3955 29.4127L39.5655 30.5827C39.8789 30.7561 40.2022 30.7794 40.5355 30.6527Z" fill="#FFBE40"/>
<path d="M11.0956 49.9035C10.7356 56.3035 6.0356 55.3235 1.4856 55.3235C0.858934 55.3235 0.552269 55.0135 0.565602 54.3935L0.825604 37.2035C0.838938 36.5369 1.17893 36.2035 1.8456 36.2035C4.1956 36.1935 7.3656 35.9235 9.0856 37.3435C10.8456 38.7969 11.3523 40.8269 10.6056 43.4335C10.4156 44.0935 9.8256 44.7535 9.7056 45.3335C9.6456 45.6535 9.7256 45.9335 9.9456 46.1735C10.7989 47.1002 11.1823 48.3435 11.0956 49.9035ZM4.54561 43.0035C4.53674 43.24 4.61829 43.4711 4.77399 43.6509C4.9297 43.8307 5.1481 43.9459 5.3856 43.9735C6.47227 44.0869 7.04227 43.3068 7.0956 41.6335C7.102 41.3215 7.01102 41.0171 6.8356 40.7635C6.38893 40.1235 5.8056 39.8902 5.0856 40.0635C4.77893 40.1369 4.62227 40.3302 4.61561 40.6435L4.54561 43.0035ZM4.4056 47.6735L4.3856 51.2335C4.38558 51.3644 4.43688 51.4901 4.52849 51.5836C4.62011 51.6771 4.74473 51.7309 4.8756 51.7335L5.43561 51.7435C5.65657 51.7452 5.87563 51.716 6.08024 51.6576C6.28484 51.5992 6.47096 51.5127 6.62794 51.4031C6.78493 51.2935 6.9097 51.1629 6.99509 51.0188C7.08049 50.8748 7.12484 50.72 7.1256 50.5635L7.1456 48.3835C7.14717 48.0684 6.97223 47.7651 6.65916 47.5401C6.34609 47.3152 5.92045 47.1869 5.4756 47.1835L4.9156 47.1735C4.8491 47.1722 4.78301 47.1841 4.72119 47.2087C4.65937 47.2332 4.60306 47.2698 4.55557 47.3164C4.50808 47.363 4.47034 47.4185 4.44459 47.4798C4.41884 47.5412 4.40559 47.607 4.4056 47.6735Z" fill="#FFBE40"/>
<path d="M17.0027 36.3771L14.8629 36.351C14.4045 36.3454 14.0284 36.7124 14.0228 37.1708L13.8085 54.7095C13.8029 55.1678 14.17 55.5439 14.6283 55.5495L16.7682 55.5757C17.2265 55.5813 17.6026 55.2142 17.6082 54.7559L17.8225 37.2172C17.8281 36.7588 17.4611 36.3827 17.0027 36.3771Z" fill="#FFBE40"/>
<path d="M24.6454 47.5532L24.6354 54.3732C24.6354 55.2132 24.2187 55.6332 23.3854 55.6332H22.1154C21.9487 55.6346 21.7834 55.6023 21.6293 55.5384C21.4752 55.4744 21.3353 55.38 21.2179 55.2607C21.1005 55.1415 21.0079 54.9997 20.9457 54.8439C20.8834 54.688 20.8527 54.5212 20.8554 54.3532L21.1954 37.2532C21.1952 37.1346 21.2312 37.0181 21.2988 36.9185C21.3664 36.8188 21.4626 36.7404 21.5754 36.6932C23.6621 35.8465 25.0054 36.4765 25.6054 38.5832C26.2854 40.9965 27.0087 43.2632 27.7754 45.3832C28.0154 46.0565 28.1654 46.0365 28.2254 45.3232C28.4587 42.6832 28.4954 40.1399 28.3354 37.6932C28.3272 37.5551 28.3473 37.4168 28.3942 37.2867C28.4412 37.1566 28.5142 37.0375 28.6086 36.9364C28.7031 36.8354 28.8171 36.7547 28.9438 36.6991C29.0704 36.6435 29.2071 36.6143 29.3454 36.6132L30.8854 36.5932C31.5854 36.5798 31.9354 36.9232 31.9354 37.6232L31.8554 54.6932C31.8528 54.9656 31.7423 55.226 31.5479 55.4187C31.3534 55.6113 31.0904 55.7206 30.8154 55.7232H28.9054C28.3387 55.7232 27.9654 55.4498 27.7854 54.9032L25.3254 47.4432C24.8721 46.0699 24.6454 46.1065 24.6454 47.5532Z" fill="#FFBE40"/>
<path d="M37.9755 53.4131L37.8255 55.1331C37.7921 55.5597 37.5621 55.7831 37.1355 55.8031L34.6755 55.9031C34.5489 55.9081 34.4229 55.8837 34.3074 55.8319C34.1919 55.78 34.0899 55.7022 34.0095 55.6043C33.9291 55.5065 33.8724 55.3913 33.844 55.2679C33.8155 55.1445 33.816 55.0162 33.8455 54.8931L38.0055 37.6531C38.1188 37.1864 38.4121 36.9097 38.8855 36.8231C39.7055 36.6697 40.4821 36.7131 41.2155 36.9531C41.6355 37.0931 41.8921 37.3831 41.9855 37.8231L45.6455 55.1031C45.7788 55.7231 45.5288 56.0131 44.8955 55.9731L42.3155 55.8131C41.9088 55.7864 41.6921 55.5697 41.6655 55.1631L41.5455 53.4531C41.5121 53.0397 41.2921 52.8297 40.8855 52.8231L38.6855 52.7631C38.2455 52.7564 38.0088 52.9731 37.9755 53.4131ZM39.9855 44.1131C39.5521 45.3931 39.2355 46.8831 39.0355 48.5831C39.0257 48.6736 39.0343 48.7651 39.0606 48.852C39.0868 48.939 39.1303 49.0195 39.1883 49.0888C39.2464 49.158 39.3177 49.2145 39.398 49.2548C39.4783 49.2951 39.5659 49.3183 39.6555 49.3231L39.9155 49.3431C40.3821 49.3697 40.6188 49.1497 40.6255 48.6831C40.6521 47.1831 40.4488 45.6231 40.0155 44.0031C40.0088 43.9831 40.0055 43.9831 40.0055 44.0031C40.0055 44.0431 39.9988 44.0797 39.9855 44.1131Z" fill="#FFBE40"/>
<path d="M51.3454 49.0731C51.4521 50.9664 51.4821 53.0398 51.4354 55.2931C51.4288 55.6998 51.2254 55.9064 50.8254 55.9131L48.6254 55.9731C48.5118 55.9772 48.3985 55.9579 48.2925 55.9164C48.1864 55.8749 48.0898 55.812 48.0085 55.7316C47.9271 55.6512 47.8628 55.5549 47.8193 55.4486C47.7758 55.3423 47.7541 55.2281 47.7554 55.1131L47.8954 37.8631C47.8981 37.5979 48.005 37.3446 48.1925 37.1589C48.38 36.9733 48.6329 36.8705 48.8954 36.8731L50.8654 36.8831C51.3654 36.8831 51.6954 37.1231 51.8554 37.6031L54.4854 45.4031C54.8388 46.4431 55.0221 46.4164 55.0354 45.3231L55.1454 37.6131C55.1521 37.1198 55.4021 36.8898 55.8954 36.9231L57.8354 37.0631C58.4621 37.1098 58.7721 37.4464 58.7654 38.0731L58.5854 55.1431C58.5824 55.3518 58.5107 55.553 58.3819 55.7145C58.2532 55.8759 58.0748 55.9881 57.8754 56.0331C57.0154 56.2331 56.1521 56.2031 55.2854 55.9431C54.9521 55.8431 54.7288 55.6298 54.6154 55.3031L52.4054 48.8631C51.5454 46.3631 51.1921 46.4331 51.3454 49.0731Z" fill="#FFBE40"/>
<path d="M67.9955 52.0827C68.2555 51.3894 68.3755 50.6627 68.3555 49.9027C68.3355 49.376 68.5888 49.1094 69.1155 49.1027L71.3255 49.0627C71.8922 49.056 72.1788 49.336 72.1855 49.9027C72.2655 54.536 70.2655 56.676 66.1855 56.3227C63.2255 56.0694 61.7188 54.2594 61.6655 50.8927C61.6055 47.5594 61.6822 44.166 61.8955 40.7127C62.2455 35.2227 73.3855 34.9527 72.0555 43.5427C72.0155 43.8094 71.8588 43.9394 71.5855 43.9327L68.9155 43.8627C68.4688 43.856 68.2688 43.6294 68.3155 43.1827C68.5222 41.1494 67.9455 40.2627 66.5855 40.5227C66.3342 40.5706 66.1069 40.7039 65.9414 40.9004C65.7758 41.0969 65.682 41.3447 65.6755 41.6027L65.5255 51.6227C65.5222 51.7968 65.5647 51.9693 65.6488 52.1234C65.7328 52.2776 65.8557 52.4083 66.0055 52.5027C66.4122 52.7694 66.8555 52.8327 67.3355 52.6927C67.6555 52.5994 67.8755 52.396 67.9955 52.0827Z" fill="#FFBE40"/>
<path d="M78.7456 49.4031L78.7356 51.8331C78.7343 51.9372 78.7538 52.0406 78.793 52.137C78.8322 52.2335 78.8903 52.3211 78.964 52.3947C79.0376 52.4684 79.1252 52.5265 79.2217 52.5657C79.3181 52.6049 79.4215 52.6245 79.5256 52.6231L82.9256 52.5631C83.028 52.5618 83.1297 52.5807 83.2249 52.6187C83.32 52.6566 83.4067 52.713 83.4801 52.7845C83.5534 52.856 83.612 52.9412 83.6524 53.0354C83.6928 53.1295 83.7143 53.2307 83.7156 53.3331L83.7556 55.5931C83.7583 55.6981 83.7398 55.8025 83.7012 55.9001C83.6625 55.9977 83.6046 56.0866 83.5309 56.1613C83.4571 56.236 83.369 56.295 83.2719 56.3348C83.1747 56.3747 83.0706 56.3945 82.9656 56.3931L75.7556 56.3531C75.5505 56.3505 75.3546 56.2671 75.2105 56.1212C75.0664 55.9752 74.9856 55.7783 74.9856 55.5731L75.1656 37.9731C75.1682 37.768 75.2516 37.5722 75.3976 37.428C75.5435 37.2839 75.7404 37.2031 75.9456 37.2031L83.1556 37.2131C83.3607 37.2131 83.5576 37.2939 83.7036 37.438C83.8496 37.5822 83.933 37.778 83.9356 37.9831L83.9856 40.3631C83.987 40.4681 83.9671 40.5723 83.9273 40.6694C83.8875 40.7665 83.8284 40.8546 83.7537 40.9284C83.679 41.0021 83.5902 41.0601 83.4926 41.0987C83.3949 41.1373 83.2905 41.1558 83.1856 41.1531L79.6356 41.0631C79.5315 41.0605 79.4279 41.0787 79.3309 41.1167C79.234 41.1547 79.1456 41.2117 79.0711 41.2844C78.9965 41.3571 78.9373 41.444 78.8968 41.5399C78.8564 41.6359 78.8356 41.739 78.8356 41.8431L78.8556 44.1231C78.8556 44.33 78.9378 44.5284 79.084 44.6747C79.2303 44.8209 79.4287 44.9031 79.6356 44.9031L82.0756 44.8931C82.1789 44.8931 82.2811 44.9136 82.3764 44.9534C82.4717 44.9933 82.5581 45.0516 82.6307 45.1251C82.7033 45.1986 82.7605 45.2858 82.7991 45.3816C82.8377 45.4774 82.8569 45.5799 82.8556 45.6831L82.8256 47.8631C82.823 48.0683 82.7396 48.2641 82.5936 48.4082C82.4476 48.5523 82.2507 48.6331 82.0456 48.6331H79.5256C79.3204 48.6331 79.1235 48.7139 78.9776 48.858C78.8316 49.0022 78.7482 49.198 78.7456 49.4031Z" fill="#FFBE40"/>
<path d="M2.81547 60.423L2.61547 66.123C2.61254 66.2004 2.6257 66.2776 2.65409 66.3495C2.68249 66.4214 2.72547 66.4864 2.78023 66.5402C2.83499 66.594 2.90028 66.6355 2.97184 66.6618C3.0434 66.6881 3.11961 66.6988 3.19547 66.693L3.47547 66.673C3.8688 66.653 4.05547 66.4463 4.03547 66.053C4.00214 65.3597 4.24214 64.8697 4.75547 64.583C4.95884 64.4712 5.18931 64.4182 5.42108 64.43C5.65286 64.4417 5.87679 64.5178 6.06779 64.6496C6.25879 64.7814 6.40932 64.9639 6.50251 65.1764C6.59571 65.3889 6.6279 65.6232 6.59547 65.853C5.94547 70.253 0.115469 70.143 0.235469 65.573C0.282136 63.753 0.358806 62.053 0.465473 60.473C0.755473 56.203 6.89547 57.003 6.41547 61.273C6.39744 61.4351 6.3384 61.59 6.24392 61.723C6.14944 61.856 6.02263 61.9627 5.87547 62.033C5.5488 62.193 5.21214 62.213 4.86547 62.093C4.53214 61.973 4.33213 61.7397 4.26547 61.393C4.17213 60.9197 3.97881 60.4997 3.68547 60.133C3.62267 60.0557 3.5378 59.9993 3.44216 59.9715C3.34652 59.9436 3.24466 59.9456 3.15016 59.9771C3.05565 60.0086 2.97299 60.0681 2.9132 60.1478C2.8534 60.2275 2.81931 60.3235 2.81547 60.423Z" fill="#FFBE40"/>
<path d="M10.5155 65.3135L10.4155 68.3935C10.4022 68.9135 10.1355 69.1602 9.61553 69.1335L8.79553 69.0935C8.2822 69.0669 8.02886 68.7969 8.03553 68.2835L8.09553 58.9035C8.09808 58.6355 8.205 58.3791 8.39358 58.1886C8.58217 57.9982 8.83756 57.8887 9.10553 57.8835L9.64553 57.8735C9.78939 57.871 9.93214 57.8993 10.064 57.9564C10.1959 58.0136 10.3138 58.0982 10.4097 58.2045C10.5056 58.3108 10.5772 58.4364 10.6196 58.5725C10.662 58.7087 10.6743 58.8523 10.6555 58.9935C10.5489 59.8469 10.5089 60.7135 10.5355 61.5935C10.5489 62.0135 10.7522 62.3069 11.1455 62.4735C11.6189 62.6735 11.8755 62.5202 11.9155 62.0135L12.2055 58.7635C12.2522 58.1969 12.5589 57.9002 13.1255 57.8735C13.5389 57.8535 13.9322 58.0402 14.3055 58.4335C14.4132 58.5477 14.497 58.6817 14.5519 58.8277C14.6069 58.9736 14.6319 59.1286 14.6255 59.2835L14.3155 68.1835C14.3077 68.4373 14.1997 68.678 14.0146 68.8537C13.8295 69.0295 13.5821 69.1263 13.3255 69.1235L12.8955 69.1135C12.6347 69.1109 12.3855 69.0065 12.202 68.823C12.0185 68.6395 11.9155 68.3917 11.9155 68.1335L11.8955 64.9635C11.8955 64.6902 11.7589 64.5635 11.4855 64.5835L11.1855 64.6135C11.006 64.6282 10.8383 64.7078 10.7146 64.837C10.5909 64.9662 10.52 65.1359 10.5155 65.3135Z" fill="#FFBE40"/>
<path d="M17.8356 59.2334C17.949 58.4934 18.3423 58.0801 19.0156 57.9934C19.3518 57.9504 19.6917 58.0345 19.9678 58.229C20.2438 58.4236 20.4358 58.7143 20.5056 59.0434L22.4256 68.1234C22.4629 68.2982 22.4512 68.4798 22.3918 68.6483C22.3324 68.8168 22.2277 68.9656 22.0891 69.0784C21.9505 69.1911 21.7834 69.2634 21.6064 69.2872C21.4293 69.311 21.2491 69.2855 21.0856 69.2134C20.4923 68.9601 20.0656 68.5468 19.8056 67.9734C19.7228 67.7894 19.581 67.6378 19.4021 67.542C19.2232 67.4462 19.0171 67.4116 18.8156 67.4434C18.3223 67.5234 18.0523 67.8334 18.0056 68.3734C17.9927 68.5093 17.9516 68.641 17.8848 68.7601C17.8181 68.8792 17.7272 68.983 17.618 69.0649C17.5088 69.1468 17.3837 69.205 17.2507 69.2358C17.1177 69.2665 16.9797 69.2691 16.8456 69.2434L16.4056 69.1634C16.2794 69.1387 16.1594 69.0886 16.0531 69.0162C15.9467 68.9438 15.8562 68.8505 15.787 68.742C15.7178 68.6335 15.6714 68.5121 15.6505 68.3852C15.6297 68.2582 15.6348 68.1284 15.6656 68.0034C16.3456 65.1634 17.4156 62.1034 17.8356 59.2334ZM19.1856 63.4634C19.1684 63.4413 19.1456 63.4244 19.1194 63.4145C19.0931 63.4047 19.0644 63.4021 19.0361 63.4072C19.0078 63.4123 18.9809 63.4247 18.958 63.4434C18.9351 63.462 18.917 63.4861 18.9056 63.5134C18.719 63.9934 18.6956 64.4868 18.8356 64.9934C18.9556 65.4334 19.129 65.4568 19.3556 65.0634C19.6756 64.4901 19.619 63.9568 19.1856 63.4634Z" fill="#FFBE40"/>
<path d="M25.6229 58.1902L24.563 58.1773C24.1875 58.1727 23.8793 58.4734 23.8747 58.8489L23.7565 68.5282C23.7519 68.9037 24.0526 69.2118 24.4281 69.2164L25.4881 69.2294C25.8636 69.234 26.1717 68.9333 26.1763 68.5577L26.2946 58.8785C26.2992 58.5029 25.9985 58.1948 25.6229 58.1902Z" fill="#FFBE40"/>
<path d="M32.3556 61.7932C32.4023 60.9865 32.3989 60.0865 32.3456 59.0932C32.341 58.9795 32.3604 58.866 32.4026 58.7605C32.4447 58.6549 32.5087 58.5596 32.5901 58.4811C32.6715 58.4025 32.7685 58.3424 32.8746 58.3049C32.9808 58.2673 33.0936 58.2531 33.2056 58.2632L33.6256 58.2932C34.2789 58.3465 34.6023 58.7032 34.5956 59.3632L34.5256 68.3632C34.5189 68.7299 34.3589 69.0066 34.0456 69.1932C33.2456 69.6632 32.1856 69.2232 31.8956 68.3632C31.5956 67.5099 31.3323 66.6099 31.1056 65.6632C31.0723 65.4965 30.9723 65.3732 30.8056 65.2932C30.6989 65.2399 30.5956 65.2532 30.4956 65.3332C30.4553 65.3641 30.4227 65.4045 30.4002 65.4513C30.3776 65.4981 30.3658 65.5501 30.3656 65.6032L30.3556 68.6332C30.3556 68.7299 30.3366 68.8257 30.2998 68.9149C30.263 69.0041 30.209 69.0851 30.1411 69.153C30.0732 69.2209 29.9927 69.2745 29.9042 69.3105C29.8157 69.3466 29.721 69.3645 29.6256 69.3632H29.0956C28.4089 69.3632 28.0723 69.0199 28.0856 68.3332L28.2556 58.9432C28.2623 58.6366 28.4056 58.4132 28.6856 58.2732C29.4556 57.8732 30.5156 58.2832 30.7856 59.1432C31.0856 60.0966 31.3489 61.0065 31.5756 61.8732C32.0023 63.5199 32.2623 63.4932 32.3556 61.7932Z" fill="#FFBE40"/>
<path d="M46.4256 63.3729C46.5456 64.2929 46.7489 64.3129 47.0356 63.4329C47.4823 62.0529 47.8023 60.6896 47.9956 59.3429C48.027 59.1083 48.1353 58.8907 48.3036 58.7243C48.4719 58.5578 48.6907 58.4518 48.9256 58.4229L49.3056 58.3729C50.2189 58.2663 50.5656 58.6563 50.3456 59.5429L48.0356 68.9029C47.9819 69.1169 47.8563 69.3053 47.6808 69.4351C47.5053 69.5649 47.2911 69.6279 47.0756 69.613C45.9689 69.5463 45.4389 68.9696 45.4856 67.8829C45.4923 67.6829 45.3989 67.5463 45.2056 67.473C45.1256 67.4396 45.0389 67.4263 44.9456 67.4329C44.7189 67.4396 44.6356 67.5529 44.6956 67.7729C44.8889 68.4329 44.7023 68.9796 44.1356 69.4129C43.9978 69.5178 43.8359 69.5862 43.6647 69.6119C43.4935 69.6375 43.3186 69.6196 43.1561 69.5598C42.9936 69.5 42.8489 69.4003 42.7352 69.2697C42.6215 69.1392 42.5425 68.9821 42.5056 68.8129L40.4356 59.1329C40.4141 59.0282 40.4166 58.9199 40.4428 58.8163C40.469 58.7128 40.5183 58.6168 40.5869 58.5357C40.6554 58.4546 40.7415 58.3905 40.8383 58.3484C40.9352 58.3063 41.0403 58.2874 41.1456 58.2929L41.7156 58.3229C42.0181 58.3371 42.3062 58.4581 42.5292 58.6647C42.7523 58.8713 42.8961 59.1503 42.9356 59.4529L43.4656 63.8129C43.5123 64.2329 43.6189 64.2496 43.7856 63.863C44.3056 62.603 44.5689 61.1663 44.5756 59.5529C44.5756 59.1796 44.7356 58.8963 45.0556 58.7029C45.5889 58.3896 46.1456 58.3263 46.7256 58.5129C46.8061 58.5374 46.8802 58.5791 46.9431 58.6352C47.006 58.6913 47.0562 58.7605 47.0903 58.8381C47.1244 58.9158 47.1416 59.0001 47.1408 59.0855C47.14 59.1708 47.1212 59.2552 47.0856 59.333C46.4789 60.6596 46.2589 62.0063 46.4256 63.3729Z" fill="#FFBE40"/>
<path d="M57.0955 68.7433C57.2355 69.2833 57.0288 69.6 56.4755 69.6933C55.4688 69.86 54.8488 69.4966 54.6155 68.6033C54.3221 67.4633 53.7755 67.3266 52.9755 68.1933C52.5355 68.6633 52.5255 69.2433 51.7955 69.5233C51.3155 69.71 50.9088 69.6733 50.5755 69.4133C50.2822 69.1799 50.1788 68.8866 50.2655 68.5333L52.5055 59.4533C52.5537 59.2478 52.6571 59.0586 52.8048 58.9056C52.9525 58.7526 53.1393 58.6413 53.3455 58.5833C53.9588 58.4166 54.4555 58.5333 54.8355 58.9333C55.0888 59.2 55.2422 59.5233 55.2955 59.9033C55.7422 62.9166 56.3422 65.8633 57.0955 68.7433ZM53.8394 65.7546C53.9707 65.7361 54.0836 65.6255 54.1532 65.4472C54.2228 65.2689 54.2434 65.0374 54.2106 64.8037C54.1777 64.57 54.0941 64.3531 53.978 64.2009C53.8619 64.0487 53.7229 63.9735 53.5916 63.992C53.4603 64.0105 53.3474 64.121 53.2778 64.2994C53.2082 64.4777 53.1875 64.7092 53.2204 64.9429C53.2532 65.1766 53.3369 65.3935 53.453 65.5457C53.5691 65.6979 53.7081 65.7731 53.8394 65.7546Z" fill="#FFBE40"/>
<path d="M61.4455 67.3731L62.3755 67.353C63.0622 67.3397 63.3989 67.6764 63.3855 68.3631V68.9231C63.3722 69.4431 63.1055 69.6997 62.5855 69.6931L58.8555 69.653C58.7846 69.6518 58.7146 69.6363 58.6496 69.6074C58.5846 69.5786 58.5257 69.537 58.4765 69.485C58.4273 69.433 58.3886 69.3716 58.3627 69.3043C58.3368 69.2371 58.3242 69.1653 58.3255 69.0931L58.5655 59.3731C58.5789 58.8064 58.8989 58.5431 59.5255 58.5831C59.5589 58.5831 59.7189 58.5931 60.0055 58.6131C60.6389 58.6531 60.9489 58.9897 60.9355 59.6231L60.7655 66.6931C60.7522 67.1597 60.9789 67.3864 61.4455 67.3731Z" fill="#FFBE40"/>
<path d="M68.2454 67.4926C68.6187 67.3726 68.9754 67.3893 69.3154 67.5426C69.7954 67.7626 70.0354 68.1393 70.0354 68.6726C70.0287 69.3993 69.7221 69.7793 69.1154 69.8126C67.9821 69.866 66.8121 69.8726 65.6054 69.8326C65.4294 69.8274 65.2626 69.7531 65.141 69.6259C65.0194 69.4986 64.9527 69.3286 64.9554 69.1526L65.1854 59.3926C65.1921 58.9526 65.4187 58.7126 65.8654 58.6726L66.3654 58.6326C67.0654 58.5793 67.4121 58.9026 67.4054 59.6026L67.3954 66.8626C67.3954 67.456 67.6787 67.666 68.2454 67.4926Z" fill="#FFBE40"/>
<path d="M74.3555 65.4034C74.0488 65.4234 73.8622 65.5868 73.7955 65.8934C73.7155 66.2468 73.7022 66.6001 73.7555 66.9534C73.7744 67.1066 73.8471 67.248 73.9607 67.3524C74.0743 67.4568 74.2213 67.5175 74.3755 67.5234L75.9155 67.5934C76.4422 67.6134 76.6955 67.8868 76.6755 68.4134L76.6555 69.1434C76.6355 69.6501 76.3722 69.9034 75.8655 69.9034L72.1255 69.8834C72.0253 69.8835 71.9261 69.8634 71.8338 69.8245C71.7415 69.7856 71.6579 69.7285 71.588 69.6567C71.5181 69.585 71.4632 69.4999 71.4267 69.4066C71.3903 69.3133 71.3728 69.2136 71.3755 69.1134L71.6155 59.4934C71.6288 59.0668 71.8455 58.8568 72.2655 58.8634L75.9055 58.8934C76.0994 58.896 76.2874 58.9605 76.4421 59.0774C76.5968 59.1943 76.7101 59.3576 76.7655 59.5434C76.8588 59.8701 76.8155 60.2168 76.6355 60.5834C76.5784 60.6996 76.4888 60.7971 76.3772 60.8644C76.2656 60.9317 76.1367 60.966 76.0055 60.9634L74.4955 60.9134C74.1755 60.9068 73.9988 61.0634 73.9655 61.3834L73.8555 62.4334C73.8088 62.8668 74.0055 63.1001 74.4455 63.1334L75.5655 63.2234C75.9188 63.2568 76.1222 63.4501 76.1755 63.8034L76.2955 64.6334C76.3082 64.7135 76.304 64.7954 76.2831 64.8737C76.2622 64.9521 76.2251 65.0252 76.1743 65.0883C76.1234 65.1515 76.0598 65.2032 75.9877 65.2403C75.9156 65.2773 75.8365 65.2988 75.7555 65.3034L74.3555 65.4034Z" fill="#FFBE40"/>
<path d="M79.4355 69.2527L79.5555 62.1527C79.5622 61.846 79.4522 61.5893 79.2255 61.3827C79.0255 61.1893 78.7888 61.0627 78.5155 61.0027C78.3331 60.9583 78.1667 60.8614 78.0357 60.7233C77.9047 60.5852 77.8144 60.4116 77.7755 60.2227C77.7355 59.996 77.7388 59.766 77.7855 59.5327C77.8788 59.0927 78.1522 58.8827 78.6055 58.9027L83.1055 59.1127C83.6255 59.1327 83.8488 59.4027 83.7755 59.9227C83.6755 60.6627 83.2688 61.0593 82.5555 61.1127C82.1088 61.146 81.8855 61.386 81.8855 61.8327V68.6927C81.8849 69.0223 81.7628 69.3398 81.5429 69.5837C81.323 69.8276 81.021 69.9805 80.6955 70.0127L80.3155 70.0527C79.7222 70.1193 79.4288 69.8527 79.4355 69.2527Z" fill="#FFBE40"/>
</svg>
