<svg width="74" height="46" viewBox="0 0 74 46" fill="none" xmlns="http://www.w3.org/2000/svg">
<path d="M36.8256 12.1032C36.7323 12.4632 36.7389 12.8232 36.8456 13.1832C36.9389 13.5098 36.8689 13.7932 36.6356 14.0332C36.1223 14.5732 35.6756 15.1732 35.2956 15.8332C34.9156 16.4932 34.4623 17.1332 33.9356 17.7532C33.4889 18.2598 33.1889 18.8132 33.0356 19.4132C32.8889 19.9798 32.6623 20.4998 32.3556 20.9732C29.4956 25.3865 26.8356 29.8165 24.3756 34.2631C23.4356 35.9531 23.6256 38.2432 23.9756 40.0632C24.0289 40.3765 24.1523 40.6598 24.3456 40.9132L25.9356 43.0632C26.1223 43.3165 26.2423 43.5998 26.2956 43.9132C26.3956 44.4398 26.7023 44.9031 27.2156 45.3032C17.6223 45.5565 10.9256 45.4998 7.12559 45.1332C5.38559 44.9665 3.75225 43.8565 2.22559 41.8032C-0.187748 38.5498 -0.404409 35.2232 1.57559 31.8232C7.17559 22.2298 12.3923 13.3398 17.2256 5.15315C21.0556 -1.33685 28.9656 -1.32685 32.7156 4.78315C34.1956 7.18315 35.5656 9.62315 36.8256 12.1032Z" fill="#1872E2"/>
<path d="M39.3456 45.4431C39.8856 44.8231 40.2323 44.1064 40.3856 43.2931C40.5856 42.2331 40.7856 41.4931 40.9856 41.0731C41.579 39.8198 42.1423 38.5498 42.6756 37.2631C43.049 36.3498 43.369 35.4064 43.6356 34.4331C44.049 32.9264 44.7756 31.5831 45.8156 30.4031C46.1292 30.0516 46.3042 29.5979 46.3078 29.1269C46.3115 28.6558 46.1437 28.1995 45.8356 27.8431C45.249 27.1631 44.709 26.3598 44.2156 25.4331C42.2756 21.7331 40.299 18.1564 38.2856 14.7031C38.039 14.2764 37.7156 13.8964 37.3156 13.5631C37.0289 13.3164 36.9923 12.8464 37.2056 12.1531C38.6056 9.83978 39.9923 7.50311 41.3656 5.14311C45.1956 -1.43689 53.5156 -1.08689 57.2456 5.45311C62.0923 13.9198 67.129 22.7564 72.3556 31.9631C74.9856 36.6131 73.8156 42.3531 68.9556 44.6831C67.8023 45.2431 66.0889 45.5398 63.8156 45.5731C55.6556 45.6998 47.499 45.6564 39.3456 45.4431Z" fill="#3256AA"/>
<path d="M36.8255 12.1031C36.8388 12.0765 36.9655 12.0931 37.2055 12.1531C36.9922 12.8465 37.0288 13.3165 37.3155 13.5631C37.7155 13.8965 38.0388 14.2765 38.2855 14.7031C40.2988 18.1565 42.2755 21.7331 44.2155 25.4331C44.7088 26.3598 45.2488 27.1631 45.8355 27.8431C46.1435 28.1995 46.3114 28.6558 46.3077 29.1269C46.304 29.598 46.1291 30.0516 45.8155 30.4031C44.7755 31.5831 44.0488 32.9265 43.6355 34.4331C43.3688 35.4065 43.0488 36.3498 42.6755 37.2631C42.1422 38.5498 41.5788 39.8198 40.9855 41.0731C40.7855 41.4931 40.5855 42.2331 40.3855 43.2931C40.2322 44.1065 39.8855 44.8231 39.3455 45.4431L27.2155 45.3031C26.7022 44.9031 26.3955 44.4398 26.2955 43.9131C26.2422 43.5998 26.1222 43.3165 25.9355 43.0631L24.3455 40.9131C24.1522 40.6598 24.0288 40.3765 23.9755 40.0631C23.6255 38.2431 23.4355 35.9531 24.3755 34.2631C26.8355 29.8165 29.4955 25.3865 32.3555 20.9731C32.6622 20.4998 32.8888 19.9798 33.0355 19.4131C33.1888 18.8131 33.4888 18.2598 33.9355 17.7531C34.4622 17.1331 34.9155 16.4931 35.2955 15.8331C35.6755 15.1731 36.1222 14.5731 36.6355 14.0331C36.8688 13.7931 36.9388 13.5098 36.8455 13.1831C36.7388 12.8231 36.7322 12.4631 36.8255 12.1031Z" fill="#0B64BA"/>
</svg>
