<svg width="199" height="37" viewBox="0 0 199 37" fill="none" xmlns="http://www.w3.org/2000/svg">
<path d="M175.305 18.7202C174.282 18.0224 173.166 17.5573 172.049 16.9525C171.352 16.5804 170.607 16.2083 170.003 15.6966C168.979 14.8593 169.165 13.1846 170.282 12.4404C171.817 11.417 174.375 11.9752 174.654 14.0685C174.654 14.115 174.701 14.1615 174.747 14.1615H177.073C177.12 14.1615 177.166 14.115 177.166 14.0685C177.027 12.6264 176.468 11.417 175.445 10.6262C174.468 9.8819 173.352 9.50977 172.142 9.50977C166.002 9.50977 165.444 16.0222 168.747 18.069C169.119 18.3015 172.375 19.9297 173.538 20.6739C174.701 21.3717 175.026 22.6742 174.561 23.6976C174.096 24.6279 172.933 25.2791 171.77 25.1861C170.468 25.0931 169.491 24.3953 169.119 23.3254C169.072 23.1393 169.026 22.7672 169.026 22.5811C169.026 22.5346 168.979 22.4881 168.933 22.4881H166.421C166.374 22.4881 166.328 22.5346 166.328 22.5811C166.328 24.3953 166.793 25.4187 168.002 26.349C169.165 27.2329 170.421 27.605 171.77 27.605C175.212 27.605 176.98 25.6513 177.352 23.651C177.631 21.6973 177.073 19.9297 175.305 18.7202Z" fill="white"/>
<path d="M65.6641 9.88184H64.5477H63.3382C63.2917 9.88184 63.2452 9.92835 63.2452 9.92835L61.1519 16.7664C61.1054 16.8594 61.0124 16.8594 60.9658 16.7664L58.8726 9.92835C58.8726 9.88183 58.826 9.88184 58.7795 9.88184H57.5701H56.4537H54.9651C54.9186 9.88184 54.8721 9.92835 54.8721 9.97487V27.4189C54.8721 27.4654 54.9186 27.5119 54.9651 27.5119H57.477C57.5236 27.5119 57.5701 27.4654 57.5701 27.4189V14.1614C57.5701 14.0684 57.7096 14.0219 57.7562 14.1149L59.8494 20.9995L59.989 21.4647C59.989 21.5112 60.0355 21.5112 60.082 21.5112H62.0357C62.0823 21.5112 62.1288 21.4647 62.1288 21.4647L62.2683 20.9995L64.3616 14.1149C64.4081 14.0219 64.5477 14.0219 64.5477 14.1614V27.4189C64.5477 27.4654 64.5942 27.5119 64.6407 27.5119H67.1527C67.1992 27.5119 67.2457 27.4654 67.2457 27.4189V9.97487C67.2457 9.92835 67.1992 9.88184 67.1527 9.88184H65.6641Z" fill="white"/>
<path d="M136.65 9.88184C136.603 9.88184 136.557 9.92835 136.557 9.92835L134.463 16.7664C134.417 16.8594 134.324 16.8594 134.277 16.7664L132.184 9.92835C132.184 9.88183 132.137 9.88184 132.091 9.88184H128.23C128.183 9.88184 128.137 9.92835 128.137 9.97487V27.4189C128.137 27.4654 128.183 27.5119 128.23 27.5119H130.742C130.788 27.5119 130.835 27.4654 130.835 27.4189V14.1614C130.835 14.0684 130.975 14.0219 131.021 14.1149L133.114 20.9995L133.254 21.4647C133.254 21.5112 133.3 21.5112 133.347 21.5112H135.301C135.347 21.5112 135.394 21.4647 135.394 21.4647L135.533 20.9995L137.626 14.1149C137.673 14.0219 137.813 14.0219 137.813 14.1614V27.4189C137.813 27.4654 137.859 27.5119 137.906 27.5119H140.418C140.464 27.5119 140.511 27.4654 140.511 27.4189V9.97487C140.511 9.92835 140.464 9.88184 140.418 9.88184H136.65Z" fill="white"/>
<path d="M104.087 9.88184H99.3891H96.8771H92.1323C92.0858 9.88184 92.0393 9.92835 92.0393 9.97487V12.1612C92.0393 12.2077 92.0858 12.2542 92.1323 12.2542H96.7376V27.4189C96.7376 27.4654 96.7841 27.5119 96.8306 27.5119H99.3425C99.3891 27.5119 99.4356 27.4654 99.4356 27.4189V12.2542H104.041C104.087 12.2542 104.134 12.2077 104.134 12.1612V9.97487C104.18 9.92835 104.134 9.88184 104.087 9.88184Z" fill="white"/>
<path d="M118.973 27.5125H121.252C121.299 27.5125 121.345 27.466 121.345 27.373L116.601 9.88246C116.601 9.83594 116.554 9.83594 116.507 9.83594H115.624H114.089H113.205C113.158 9.83594 113.112 9.88246 113.112 9.88246L108.367 27.373C108.367 27.4195 108.413 27.5125 108.46 27.5125H110.739C110.786 27.5125 110.832 27.466 110.832 27.466L112.228 22.3491C112.228 22.3026 112.274 22.3026 112.321 22.3026H117.391C117.438 22.3026 117.484 22.3491 117.484 22.3491L118.88 27.466C118.88 27.466 118.926 27.5125 118.973 27.5125ZM112.926 19.7906L114.786 12.9526C114.833 12.8596 114.926 12.8596 114.972 12.9526L116.833 19.7906C116.833 19.8372 116.787 19.9302 116.74 19.9302H113.065C112.972 19.9302 112.926 19.8372 112.926 19.7906Z" fill="white"/>
<path d="M158.141 27.5125H160.42C160.466 27.5125 160.513 27.466 160.513 27.373L155.768 9.88246C155.768 9.83594 155.722 9.83594 155.675 9.83594H154.791H153.256H152.372C152.326 9.83594 152.279 9.88246 152.279 9.88246L147.535 27.373C147.535 27.4195 147.581 27.5125 147.628 27.5125H149.907C149.954 27.5125 150 27.466 150 27.466L151.396 22.3491C151.396 22.3026 151.442 22.3026 151.489 22.3026H156.559C156.606 22.3026 156.652 22.3491 156.652 22.3491L158.048 27.466C158.048 27.466 158.094 27.5125 158.141 27.5125ZM152.093 19.7906L153.954 12.9526C154.001 12.8596 154.094 12.8596 154.14 12.9526L156.001 19.7906C156.001 19.8372 155.954 19.9302 155.908 19.9302H152.233C152.14 19.9302 152.093 19.8372 152.093 19.7906Z" fill="white"/>
<path d="M77.4795 24.9069V19.5109C77.4795 19.4644 77.526 19.4179 77.5725 19.4179H84.3175C84.3641 19.4179 84.4106 19.3714 84.4106 19.3249V17.1385C84.4106 17.092 84.3641 17.0455 84.3175 17.0455H77.5725C77.526 17.0455 77.4795 16.999 77.4795 16.9525V12.3472C77.4795 12.3007 77.526 12.2542 77.5725 12.2542H85.2014C85.2479 12.2542 85.2944 12.2077 85.2944 12.1612V9.97487C85.2944 9.92835 85.2479 9.88184 85.2014 9.88184H77.4795H74.8745C74.828 9.88184 74.7815 9.92835 74.7815 9.97487V12.2542V17.092V19.4644V25.0465V27.4189C74.7815 27.4654 74.828 27.5119 74.8745 27.5119H77.4795H85.527C85.5735 27.5119 85.62 27.4654 85.62 27.4189V25.1395C85.62 25.093 85.5735 25.0465 85.527 25.0465H77.526C77.526 25 77.4795 24.9534 77.4795 24.9069Z" fill="white"/>
<path d="M198.378 27.3265L189.633 18.3021C189.586 18.2556 189.586 18.2091 189.633 18.1625L197.494 9.97549C197.541 9.92897 197.494 9.83594 197.448 9.83594H194.238C194.191 9.83594 194.191 9.83594 194.191 9.88246L187.493 16.8601C187.446 16.9066 187.353 16.8601 187.353 16.8135V10.022C187.353 9.97549 187.307 9.92897 187.26 9.92897H184.702C184.655 9.92897 184.609 9.97549 184.609 10.022V27.466C184.609 27.5125 184.655 27.559 184.702 27.559H187.214C187.26 27.559 187.307 27.5125 187.307 27.466V19.7906C187.307 19.6976 187.4 19.6511 187.446 19.7441L194.982 27.559L195.029 27.6056H198.238C198.378 27.5125 198.425 27.373 198.378 27.3265Z" fill="white"/>
<path d="M37.6141 0.486328L22.3564 11.8366L25.194 5.13806L37.6141 0.486328Z" fill="#E17726"/>
<path d="M2.354 0.486328L17.5187 11.9296L14.8207 5.13806L2.354 0.486328Z" fill="#E27625"/>
<path d="M32.125 26.7686L28.0315 33.0019L36.7768 35.4208L39.2422 26.9081L32.125 26.7686Z" fill="#E27625"/>
<path d="M0.772461 26.9081L3.23788 35.4208L11.9366 33.0019L7.88962 26.7686L0.772461 26.9081Z" fill="#E27625"/>
<path d="M11.4714 16.2555L9.05249 19.9304L17.6582 20.3025L17.3791 10.999L11.4714 16.2555Z" fill="#E27625"/>
<path d="M28.5433 16.2557L22.5425 10.9062L22.3564 20.3028L30.9622 19.9306L28.5433 16.2557Z" fill="#E27625"/>
<path d="M11.9365 33.0023L17.1465 30.4904L12.6343 26.9551L11.9365 33.0023Z" fill="#E27625"/>
<path d="M22.8682 30.4904L28.0316 33.0023L27.3338 26.9551L22.8682 30.4904Z" fill="#E27625"/>
<path d="M28.0316 33.0012L22.8682 30.4893L23.2868 33.8385L23.2403 35.2805L28.0316 33.0012Z" fill="#D5BFB2"/>
<path d="M11.9365 33.0012L16.7743 35.2805L16.7278 33.8385L17.1465 30.4893L11.9365 33.0012Z" fill="#D5BFB2"/>
<path d="M16.8674 24.7218L12.5413 23.4658L15.5649 22.0703L16.8674 24.7218Z" fill="#233447"/>
<path d="M23.1472 24.7218L24.4032 22.0703L27.4733 23.4658L23.1472 24.7218Z" fill="#233447"/>
<path d="M11.9364 33.0009L12.6807 26.7676L7.8894 26.9071L11.9364 33.0009Z" fill="#CC6228"/>
<path d="M27.3337 26.7676L28.0315 33.0009L32.125 26.9071L27.3337 26.7676Z" fill="#CC6228"/>
<path d="M30.9622 19.9297L22.3564 20.3018L23.1472 24.721L24.4032 22.0695L27.4734 23.465L30.9622 19.9297Z" fill="#CC6228"/>
<path d="M12.541 23.465L15.5647 22.0695L16.8672 24.721L17.658 20.3018L9.05225 19.9297L12.541 23.465Z" fill="#CC6228"/>
<path d="M9.05249 19.9297L12.6343 26.9538L12.5413 23.465L9.05249 19.9297Z" fill="#E27525"/>
<path d="M27.4733 23.465L27.3337 26.9538L30.9621 19.9297L27.4733 23.465Z" fill="#E27525"/>
<path d="M17.6582 20.3018L16.8674 24.7209L17.8443 29.9774L18.0769 23.0463L17.6582 20.3018Z" fill="#E27525"/>
<path d="M22.3564 20.3018L21.9377 23.0463L22.1238 29.9774L23.1472 24.7209L22.3564 20.3018Z" fill="#E27525"/>
<path d="M23.1474 24.7218L22.124 29.9782L22.8683 30.4899L27.334 26.9546L27.4735 23.4658L23.1474 24.7218Z" fill="#F5841F"/>
<path d="M12.5413 23.4658L12.6343 26.9546L17.1465 30.4899L17.8442 29.9782L16.8674 24.7218L12.5413 23.4658Z" fill="#F5841F"/>
<path d="M23.2402 35.2813L23.2868 33.8393L22.8681 33.5136H17.0999L16.7278 33.8393L16.7743 35.2813L11.9365 33.002L13.6111 34.3975L17.0534 36.7699H22.9146L26.3569 34.3975L28.0315 33.002L23.2402 35.2813Z" fill="#C0AC9D"/>
<path d="M22.8681 30.4902L22.1238 29.9785H17.8442L17.1464 30.4902L16.7278 33.8395L17.0999 33.5138H22.8681L23.2867 33.8395L22.8681 30.4902Z" fill="white"/>
<path d="M38.2654 12.5808L39.5679 6.301L37.6142 0.486328L22.8682 11.4644L28.5433 16.2557L36.5443 18.5816L38.3119 16.5348L37.5676 15.9766L38.7771 14.8602L37.8468 14.1159L39.0562 13.1856L38.2654 12.5808Z" fill="#763E1A"/>
<path d="M0.446777 6.301L1.74926 12.5808L0.911951 13.1856L2.1214 14.1159L1.19105 14.8602L2.44702 15.9766L1.65623 16.5348L3.42389 18.5816L11.4714 16.2557L17.1465 11.4644L2.35399 0.486328L0.446777 6.301Z" fill="#763E1A"/>
<path d="M36.5442 18.5817L28.5432 16.2559L30.9621 19.9307L27.3337 26.9548L32.125 26.9083H39.2422L36.5442 18.5817Z" fill="#F5841F"/>
<path d="M11.4714 16.2559L3.42395 18.5817L0.772461 26.9083H7.88962L12.6344 26.9548L9.05255 19.9307L11.4714 16.2559Z" fill="#F5841F"/>
<path d="M22.3564 20.3024L22.8681 11.4641L25.1939 5.1377H14.8206L17.1464 11.4641L17.6581 20.3024L17.8442 23.0934V29.978H22.1238V23.0934L22.3564 20.3024Z" fill="#F5841F"/>
</svg>
