<svg width="58" height="58" viewBox="0 0 58 58" fill="none" xmlns="http://www.w3.org/2000/svg">
<path d="M55.8156 19.2332L44.4756 19.3832C43.4156 16.5432 42.0556 16.0731 40.1456 14.4731C38.0556 12.7131 35.1956 12.3932 32.5056 12.5832C32.1256 12.6099 31.9322 12.8132 31.9256 13.1932L31.8456 15.7032C30.6589 15.8299 29.7756 15.3099 29.1956 14.1432L29.1256 13.1032C29.1056 12.7765 28.9322 12.6132 28.6056 12.6132L16.6056 12.6032C16.4543 12.6044 16.3064 12.6485 16.1792 12.7303C16.052 12.8121 15.9505 12.9283 15.8867 13.0654C15.8228 13.2026 15.7991 13.355 15.8184 13.5051C15.8377 13.6551 15.8991 13.7966 15.9956 13.9131C16.4556 14.4531 16.7556 15.1365 16.8956 15.9632C12.2289 14.6565 7.83223 14.4398 3.70557 15.3132C4.15223 14.7265 4.63556 14.0065 5.15556 13.1532C6.65556 10.6632 9.23556 8.40318 11.3356 6.38318C11.9622 5.78318 12.6456 5.29649 13.3856 4.92316C15.1256 4.04316 16.3756 2.77318 18.3556 2.38318C19.2156 2.21651 20.0156 1.92318 20.7556 1.50318C21.1089 1.30984 21.4856 1.22651 21.8856 1.25318C23.5056 1.38318 24.6156 0.403181 26.2356 0.383181C28.3356 0.356514 30.4322 0.3632 32.5256 0.4032C32.9581 0.41652 33.3784 0.540519 33.7456 0.763186C34.6056 1.29652 35.5389 1.50318 36.5456 1.38318C36.9322 1.33651 37.2789 1.4365 37.5856 1.68317C38.0989 2.0965 38.6789 2.26651 39.3256 2.19318C39.6856 2.15318 40.0156 2.23651 40.3156 2.44318C41.6956 3.40318 43.4656 3.98317 44.6956 4.81317C50.0022 8.40651 53.7089 13.2132 55.8156 19.2332Z" fill="#1872E2"/>
<path d="M29.1955 14.1426C29.7755 15.3092 30.6589 15.8292 31.8455 15.7026C31.8055 16.0892 31.8322 16.4459 31.9255 16.7726C32.0055 17.0592 32.1955 17.2226 32.4955 17.2626C34.4755 17.5026 36.1155 18.2825 37.4155 19.6025C40.9355 23.1625 35.8755 26.3125 32.6055 25.6625C32.1855 25.5825 31.9622 25.7592 31.9355 26.1926L31.8455 27.9926C31.3455 27.7126 30.9555 27.3026 30.6755 26.7626C30.6426 26.6983 30.5964 26.6417 30.54 26.5966C30.4836 26.5514 30.4183 26.5188 30.3483 26.5009C30.2784 26.4829 30.2054 26.48 30.1342 26.4924C30.0631 26.5047 29.9953 26.5321 29.9355 26.5726C29.7955 26.6726 29.7122 26.8092 29.6855 26.9825C29.6455 27.2625 29.5388 27.2892 29.3655 27.0626C29.2988 26.9826 29.2388 26.8459 29.1855 26.6526L29.1455 26.2526C29.1122 25.9259 28.9322 25.7659 28.6055 25.7726L25.1255 25.8326C24.6389 25.8459 24.3955 25.6059 24.3955 25.1125V17.9026C24.3955 17.7372 24.4616 17.5784 24.5795 17.4606C24.6973 17.3427 24.8575 17.2752 25.0255 17.2726L28.4855 17.2626C28.8722 17.2626 29.0722 17.0692 29.0855 16.6826L29.1955 14.1426Z" fill="#0B64BA"/>
<path d="M16.8954 15.9629L17.5654 17.1829C17.7188 17.4695 17.7954 17.7728 17.7954 18.0928L17.6854 36.0829C14.2654 36.6629 11.3321 36.9595 8.88544 36.9729C7.1721 36.9862 4.78877 36.8595 1.73543 36.5928C0.8221 32.4928 0.562101 28.3396 0.955434 24.1329C1.07543 22.8662 1.99211 19.9262 3.70544 15.3129C7.83211 14.4395 12.2288 14.6562 16.8954 15.9629Z" fill="#0B64BA"/>
<path d="M55.8155 19.2334C57.0222 22.5467 57.5089 26.1967 57.2755 30.1834C54.4755 30.4101 51.7222 30.3867 49.0156 30.1134C48.4689 30.0601 47.9789 30.0967 47.5455 30.2234C46.7255 30.4767 46.2922 30.7401 46.2455 31.0134L43.0355 27.8234C42.9364 27.725 42.8585 27.6074 42.8066 27.4775C42.7546 27.3476 42.7298 27.2082 42.7335 27.0679C42.7373 26.9276 42.7695 26.7892 42.8283 26.6613C42.8871 26.5333 42.9712 26.4183 43.0755 26.3234C45.2222 24.3768 45.6889 22.0634 44.4755 19.3834L55.8155 19.2334Z" fill="#0B64BA"/>
<path d="M31.8455 27.9931L31.9355 30.7431C31.9488 31.1497 32.1588 31.353 32.5655 31.353L36.5755 31.3931C36.9422 31.3998 37.2622 31.5164 37.5355 31.7431C38.1355 32.2364 38.8088 32.4364 39.5555 32.343C40.0288 32.283 40.2955 32.4864 40.3555 32.9531C40.4688 33.7464 40.7588 34.4597 41.2255 35.093C41.4722 35.4197 41.4788 35.753 41.2455 36.093C40.7855 36.7464 40.4788 37.4931 40.3255 38.3331C40.2455 38.7464 39.9955 38.9397 39.5755 38.913C39.1222 38.8864 38.7655 39.0597 38.5055 39.4331C38.2922 39.7331 38.0022 39.8831 37.6355 39.8831L32.4355 39.8631C32.1022 39.8631 31.9322 40.0297 31.9255 40.3631L31.8455 43.6831C31.4788 44.1097 30.5555 44.3397 29.0755 44.3731L29.0355 40.353C29.0355 40.033 28.8755 39.8731 28.5555 39.8731H25.3855C24.7188 39.8797 24.3855 39.5464 24.3855 38.8731V32.3731C24.3855 31.7064 24.7188 31.3731 25.3855 31.3731H28.5855C28.9122 31.3731 29.0822 31.2064 29.0955 30.8731L29.1855 26.6531C29.2388 26.8464 29.2988 26.9831 29.3655 27.0631C29.5388 27.2897 29.6455 27.2631 29.6855 26.9831C29.7122 26.8097 29.7955 26.6731 29.9355 26.5731C29.9953 26.5326 30.063 26.5052 30.1342 26.4929C30.2054 26.4805 30.2783 26.4834 30.3483 26.5014C30.4183 26.5193 30.4836 26.552 30.54 26.5971C30.5964 26.6422 30.6426 26.6988 30.6755 26.7631C30.9555 27.3031 31.3455 27.7131 31.8455 27.9931Z" fill="#3256AA"/>
<path d="M57.2755 30.1836C57.1888 33.7702 56.3388 37.4669 54.7255 41.2736C52.8988 42.1269 50.8755 42.5036 48.6555 42.4036C48.3288 42.3903 48.0255 42.4736 47.7455 42.6536C45.9722 43.8069 44.3488 44.0669 42.8755 43.4336C45.4088 41.1202 46.9121 39.5169 47.3855 38.6236C48.7121 36.1169 48.3321 33.5802 46.2455 31.0136C46.2922 30.7402 46.7255 30.4769 47.5455 30.2235C47.9788 30.0969 48.4688 30.0602 49.0155 30.1136C51.7222 30.3869 54.4755 30.4102 57.2755 30.1836Z" fill="#3256AA"/>
<path d="M17.6856 36.083L17.7156 39.133C17.7223 39.5063 17.5389 39.6963 17.1656 39.703L15.5656 39.733C14.9056 39.7396 14.4523 40.0463 14.2056 40.653L12.6656 44.463C12.3923 45.1363 12.6189 45.4663 13.3456 45.453L18.3556 45.393L12.7756 45.503C12.4423 45.5097 12.2123 45.3596 12.0856 45.053C11.3856 43.273 9.98892 42.5463 7.89559 42.873C6.88226 43.0263 5.81894 43.223 4.7056 43.463C3.35894 41.4897 2.36893 39.1996 1.7356 36.593C4.78893 36.8596 7.17226 36.9863 8.8856 36.973C11.3323 36.9596 14.2656 36.663 17.6856 36.083Z" fill="#3256AA"/>
<path d="M54.7256 41.2734C52.0789 45.9668 48.8689 49.6567 45.0956 52.3434C40.2956 55.7701 34.5489 57.3401 27.8556 57.0534C17.9889 56.6334 10.2722 52.1034 4.70557 43.4634C5.8189 43.2234 6.88222 43.0267 7.89555 42.8734C9.98889 42.5467 11.3856 43.2734 12.0856 45.0534C12.2122 45.3601 12.4422 45.5101 12.7756 45.5034L18.3556 45.3934L28.5656 45.3134C28.9122 45.3067 29.0956 45.1301 29.1156 44.7834C29.1222 44.6634 29.1089 44.5267 29.0756 44.3734C30.5556 44.3401 31.4789 44.1101 31.8456 43.6834C31.7856 44.1234 31.8056 44.5134 31.9056 44.8534C32.0056 45.1801 32.2289 45.3501 32.5756 45.3634C36.3022 45.4834 39.7356 44.8401 42.8756 43.4334C44.3489 44.0667 45.9722 43.8068 47.7456 42.6534C48.0256 42.4734 48.3289 42.3901 48.6556 42.4034C50.8756 42.5034 52.8989 42.1268 54.7256 41.2734Z" fill="#143E8C"/>
</svg>
