<svg width="156" height="52" viewBox="0 0 156 52" fill="none" xmlns="http://www.w3.org/2000/svg">
<path d="M20.9956 1.02338C25.6022 4.41672 29.8956 7.61669 33.8756 10.6234C33.9911 10.7103 34.0834 10.8242 34.1443 10.9553C34.2053 11.0863 34.2331 11.2304 34.2252 11.3747C34.2173 11.519 34.1739 11.6592 34.099 11.7828C34.0241 11.9064 33.9199 12.0096 33.7956 12.0833L15.9656 22.6434C15.4322 22.9567 15.2289 22.8133 15.3556 22.2133L19.5456 1.4134C19.5701 1.29764 19.6236 1.19056 19.7008 1.10285C19.778 1.01514 19.8761 0.949857 19.9856 0.913397C20.3789 0.780064 20.7156 0.816716 20.9956 1.02338Z" fill="#32CB9E"/>
<path d="M14.3856 50.1233L2.07559 40.9732C1.75207 40.7334 1.48815 40.4219 1.30432 40.063C1.12049 39.704 1.02169 39.3072 1.01559 38.9033L0.67559 14.3132C0.669405 13.8935 0.759962 13.4778 0.940276 13.0981C1.12059 12.7184 1.38585 12.3849 1.71559 12.1233L13.7156 2.68332C15.3356 1.40998 15.9689 1.78653 15.6156 3.8132C14.4289 10.6132 13.1056 17.3866 11.6456 24.1333C11.3323 25.5666 11.3656 27.0999 11.7456 28.7332C13.2389 35.2266 14.7589 41.9433 16.3056 48.8833C16.7856 51.0166 16.1456 51.4299 14.3856 50.1233Z" fill="#32CB9E"/>
<path d="M35.1754 36.9234L16.5254 26.5833C16.484 26.5584 16.4497 26.5233 16.4259 26.4812C16.4022 26.4392 16.3896 26.3916 16.3896 26.3433C16.3896 26.295 16.4022 26.2475 16.4259 26.2055C16.4497 26.1634 16.484 26.1282 16.5254 26.1033L34.8454 15.2633C34.998 15.174 35.1714 15.1263 35.3482 15.125C35.525 15.1237 35.699 15.1689 35.8529 15.256C36.0067 15.3431 36.1351 15.469 36.225 15.6212C36.315 15.7734 36.3634 15.9465 36.3654 16.1233L36.6454 36.0434C36.6479 36.2169 36.6048 36.388 36.5203 36.5396C36.4358 36.6912 36.3129 36.8179 36.164 36.907C36.0151 36.9961 35.8454 37.0445 35.6719 37.0474C35.4984 37.0503 35.3272 37.0075 35.1754 36.9234Z" fill="#32CB9E"/>
<path d="M76.5955 23.4128C78.0155 22.2728 79.6821 22.076 81.5955 22.8227C87.5255 25.1327 84.3555 36.2727 76.5755 32.2327C76.2421 32.0594 75.9721 32.1262 75.7655 32.4328C75.4521 32.8862 75.0255 33.0728 74.4855 32.9928C74.1388 32.9461 73.9655 32.7495 73.9655 32.4028L73.8354 17.5727C73.8354 17.2527 73.9954 17.0961 74.3154 17.1027L75.3755 17.1228C75.5046 17.1253 75.6278 17.1778 75.7191 17.2691C75.8104 17.3605 75.8629 17.4836 75.8654 17.6128L75.9055 23.0927C75.9121 23.6727 76.1421 23.7795 76.5955 23.4128ZM78.8679 31.2091C79.2982 31.2475 79.7323 31.1964 80.1453 31.0587C80.5584 30.921 80.9423 30.6993 81.2751 30.4065C81.608 30.1136 81.8833 29.7553 82.0853 29.3519C82.2873 28.9485 82.4121 28.5078 82.4525 28.0553C82.4928 27.6027 82.4481 27.147 82.3207 26.7142C82.1934 26.2814 81.9859 25.8799 81.7101 25.5327C81.4344 25.1855 81.0958 24.8994 80.7137 24.6908C80.3316 24.4821 79.9134 24.3549 79.483 24.3165C79.0527 24.2781 78.6186 24.3292 78.2056 24.4669C77.7925 24.6046 77.4086 24.8261 77.0758 25.119C76.7429 25.4118 76.4676 25.7702 76.2656 26.1737C76.0636 26.5771 75.9388 27.0177 75.8985 27.4703C75.8581 27.9229 75.9028 28.3785 76.0302 28.8114C76.1575 29.2442 76.365 29.6457 76.6408 29.9929C76.9165 30.3401 77.2551 30.6261 77.6372 30.8348C78.0193 31.0435 78.4375 31.1707 78.8679 31.2091Z" fill="white"/>
<path d="M108.636 23.2534C111.086 24.7334 114.456 25.1335 115.066 28.4235C115.416 30.3635 113.546 32.1434 111.826 32.5634C109.332 33.17 107.226 32.4434 105.506 30.3834C105.457 30.327 105.421 30.2614 105.399 30.1906C105.377 30.1197 105.37 30.0451 105.377 29.9713C105.385 29.8975 105.407 29.8261 105.443 29.7611C105.479 29.6962 105.527 29.6391 105.586 29.5934L106.296 29.0535C106.562 28.8468 106.799 28.8768 107.006 29.1434C108.086 30.5434 111.216 31.7535 112.496 29.9135C112.658 29.6802 112.767 29.4137 112.814 29.1332C112.862 28.8527 112.846 28.5651 112.768 28.2914C112.691 28.0177 112.554 27.7648 112.366 27.5507C112.179 27.3366 111.947 27.1667 111.686 27.0535C110.339 26.4601 109.036 25.8467 107.776 25.2134C105.126 23.8834 105.216 20.1134 107.876 18.8934C110.169 17.8401 112.272 18.2168 114.186 20.0234C114.579 20.3901 114.576 20.7567 114.176 21.1234L113.936 21.3534C113.749 21.5241 113.502 21.6144 113.248 21.6051C112.994 21.5958 112.753 21.4875 112.576 21.3035C111.276 19.9335 108.066 19.5734 108.056 22.2434C108.056 22.6901 108.249 23.0268 108.636 23.2534Z" fill="white"/>
<path d="M52.6115 19.2609L51.2517 19.2871C51.0253 19.2914 50.8453 19.4785 50.8497 19.7048L51.1019 32.8424C51.1063 33.0688 51.2933 33.2488 51.5197 33.2445L52.8795 33.2184C53.1059 33.214 53.2859 33.027 53.2815 32.8006L53.0293 19.663C53.0249 19.4366 52.8379 19.2566 52.6115 19.2609Z" fill="white"/>
<path d="M56.2555 26.0531L62.0855 32.583C62.1288 32.6314 62.157 32.6914 62.1663 32.7557C62.1757 32.82 62.1659 32.8856 62.1381 32.9443C62.1104 33.003 62.0659 33.0524 62.0103 33.0859C61.9547 33.1195 61.8904 33.1359 61.8255 33.133L59.8955 33.063C59.8517 33.0608 59.8089 33.05 59.7694 33.0311C59.7299 33.0122 59.6946 32.9857 59.6655 32.953L53.5555 26.103C53.5014 26.0425 53.4714 25.9642 53.4714 25.883C53.4714 25.8019 53.5014 25.7236 53.5555 25.6631L59.0055 19.373C59.0619 19.3094 59.1407 19.27 59.2255 19.263L61.1555 19.083C61.2221 19.0757 61.2893 19.089 61.3482 19.1208C61.4071 19.1527 61.4549 19.2016 61.4853 19.2613C61.5157 19.321 61.5272 19.3886 61.5183 19.4549C61.5094 19.5213 61.4805 19.5835 61.4355 19.633L56.2555 25.613C56.2013 25.6735 56.1714 25.7518 56.1714 25.833C56.1714 25.9142 56.2013 25.9926 56.2555 26.0531Z" fill="white"/>
<path d="M146.786 31.8731L146.816 35.1431C146.822 35.6097 146.589 35.8397 146.116 35.833L145.306 35.813C144.806 35.7997 144.552 35.5431 144.546 35.0431L144.356 22.3831C144.353 22.2316 144.403 22.0839 144.495 21.964C144.588 21.8441 144.718 21.7592 144.866 21.723C145.532 21.5497 146.076 21.7664 146.496 22.3731C146.689 22.6597 146.912 22.6798 147.166 22.4331C148.192 21.4398 149.459 21.1197 150.966 21.473C158.476 23.223 155.226 35.133 147.416 31.473C146.996 31.273 146.786 31.4064 146.786 31.8731ZM150.165 30.2422C151.022 30.1476 151.804 29.6945 152.338 28.9827C152.873 28.2708 153.117 27.3585 153.016 26.4464C152.966 25.9948 152.833 25.5568 152.625 25.1575C152.416 24.7581 152.137 24.4053 151.801 24.119C151.466 23.8328 151.082 23.6188 150.671 23.4893C150.26 23.3597 149.83 23.3171 149.406 23.3639C148.549 23.4585 147.767 23.9116 147.233 24.6234C146.698 25.3353 146.454 26.2476 146.555 27.1597C146.605 27.6113 146.738 28.0493 146.946 28.4486C147.155 28.848 147.435 29.2008 147.77 29.4871C148.105 29.7733 148.489 29.9873 148.9 30.1168C149.311 30.2464 149.741 30.289 150.165 30.2422Z" fill="white"/>
<path d="M127.885 28.0926L129.945 22.6427C130.145 22.1027 130.535 21.796 131.115 21.7227L131.555 21.6727C132.309 21.5794 132.539 21.8826 132.245 22.5826L128.175 32.2627C128.14 32.3469 128.081 32.4191 128.005 32.4709C127.93 32.5228 127.841 32.552 127.75 32.5552C127.659 32.5583 127.568 32.5353 127.489 32.4888C127.411 32.4423 127.347 32.3743 127.305 32.2927L124.135 25.9626C124.116 25.9259 124.086 25.8951 124.05 25.8739C124.013 25.8527 123.972 25.842 123.931 25.843C123.89 25.8441 123.851 25.8569 123.818 25.8799C123.785 25.9028 123.76 25.935 123.745 25.9727C122.819 28.066 121.882 30.1426 120.935 32.2026C120.842 32.416 120.662 32.526 120.395 32.5327C120.292 32.5361 120.189 32.5086 120.1 32.4535C120.012 32.3984 119.94 32.3181 119.895 32.2227L115.645 22.7827C115.399 22.2294 115.575 21.9693 116.175 22.0027L116.685 22.0227C116.958 22.0375 117.221 22.1288 117.444 22.2862C117.666 22.4437 117.84 22.6608 117.945 22.9127L120.165 28.2026C120.385 28.7293 120.609 28.7293 120.835 28.2026L123.065 22.9027C123.632 21.556 124.222 21.5427 124.835 22.8627L127.275 28.1227C127.495 28.596 127.699 28.586 127.885 28.0926Z" fill="white"/>
<path d="M139.435 31.5935C137.462 32.8068 135.565 32.7134 133.745 31.3134C133.452 31.0868 133.282 30.7935 133.235 30.4335C132.675 26.5635 136.205 26.1835 139.075 26.3735C139.655 26.4135 139.945 26.1434 139.945 25.5634C139.935 22.8234 136.865 22.9834 135.245 24.5634C135.005 24.7968 134.735 24.8434 134.435 24.7034C134.169 24.5834 133.975 24.3902 133.855 24.1235C133.655 23.6702 133.745 23.2835 134.125 22.9635C136.155 21.2635 141.395 20.5935 141.795 24.2735C142.035 26.4602 142.132 28.8469 142.085 31.4335C142.079 31.8202 141.885 32.0368 141.505 32.0834C141.045 32.1434 140.639 32.0069 140.285 31.6735C140.025 31.4335 139.742 31.4068 139.435 31.5935ZM139.265 27.8535L135.735 28.2735C135.607 28.2886 135.49 28.3538 135.409 28.4549C135.329 28.5561 135.291 28.6849 135.305 28.8134L135.345 29.1535C135.373 29.3902 135.451 29.6186 135.575 29.8256C135.699 30.0327 135.868 30.2143 136.07 30.3602C136.273 30.506 136.505 30.6133 136.755 30.6756C137.005 30.7379 137.267 30.7542 137.525 30.7235L138.095 30.6535C138.355 30.6237 138.607 30.5471 138.836 30.4282C139.066 30.3093 139.268 30.1503 139.432 29.9606C139.595 29.771 139.717 29.5543 139.79 29.3231C139.862 29.0918 139.885 28.8507 139.855 28.6135L139.815 28.2835C139.808 28.219 139.788 28.1565 139.756 28.0998C139.724 28.0431 139.682 27.9933 139.63 27.9533C139.579 27.9133 139.521 27.8839 139.458 27.8668C139.395 27.8496 139.33 27.8451 139.265 27.8535Z" fill="white"/>
<path d="M101.265 23.1836C101.885 22.4369 102.692 22.0502 103.685 22.0235C103.858 22.0206 104.025 22.0845 104.152 22.2019C104.279 22.3193 104.355 22.4811 104.365 22.6535L104.405 23.4135C104.439 23.9535 104.185 24.1935 103.645 24.1335C101.825 23.9335 100.715 25.5535 100.735 27.2835C100.742 28.9235 100.759 30.5435 100.785 32.1435C100.792 32.4435 100.642 32.5968 100.335 32.6035L99.1054 32.6435C98.7721 32.6502 98.6087 32.4869 98.6154 32.1535C98.6487 29.0802 98.5754 26.1235 98.3954 23.2835C98.3754 22.9902 98.4621 22.7302 98.6554 22.5035C98.9154 22.2035 99.2454 22.0902 99.6454 22.1635C100.005 22.2302 100.249 22.4369 100.375 22.7835L100.465 23.0335C100.645 23.5535 100.912 23.6036 101.265 23.1836Z" fill="white"/>
<path d="M89.2056 28.2634C88.4589 28.27 88.2656 28.6 88.6256 29.2534C88.8856 29.74 89.2156 30.1301 89.6156 30.4234C90.3822 30.9834 91.2822 31.21 92.3156 31.1033C93.2022 31.01 93.9756 30.68 94.6356 30.1134C94.9222 29.86 95.1522 29.9034 95.3256 30.2434L95.6456 30.8934C95.8389 31.2667 95.7622 31.5766 95.4156 31.8233C91.6756 34.5033 86.2356 32.4634 86.3156 27.6234C86.3689 24.2834 88.2156 22.4667 91.8556 22.1734C92.6789 22.1073 93.5016 22.3091 94.2009 22.7489C94.9001 23.1886 95.4384 23.8426 95.7356 24.6134L96.1756 25.7734C96.8156 27.4334 96.2456 28.2634 94.4656 28.2634H89.2056ZM88.3756 26.3333C88.3589 26.3714 88.3521 26.4131 88.3556 26.4545C88.3591 26.496 88.3729 26.5359 88.3958 26.5706C88.4186 26.6054 88.4498 26.634 88.4864 26.6536C88.523 26.6733 88.564 26.6836 88.6056 26.6834L93.4256 26.6033C94.1789 26.59 94.3822 26.25 94.0356 25.5833C93.7622 25.05 93.3589 24.61 92.8256 24.2634C92.1189 23.8034 91.3822 23.7433 90.6156 24.0833C89.6556 24.5033 88.9089 25.2533 88.3756 26.3333Z" fill="white"/>
<path d="M67.4554 29.8328L69.9654 23.3628C70.0448 23.1517 70.1877 22.9698 70.3753 22.8412C70.5628 22.7126 70.7861 22.6434 71.0154 22.6428L71.6654 22.6328C72.2188 22.6328 72.3854 22.8862 72.1654 23.3928C70.5588 27.1395 68.9654 30.9494 67.3854 34.8228C66.6388 36.6628 65.0821 37.4527 62.7154 37.1927C62.3421 37.1461 62.1654 36.9394 62.1854 36.5728L62.2154 35.9329C62.2192 35.8505 62.2396 35.7697 62.2754 35.6952C62.3113 35.6207 62.3619 35.554 62.4243 35.499C62.4867 35.4441 62.5596 35.402 62.6388 35.3751C62.718 35.3483 62.8018 35.3373 62.8854 35.3428C64.4254 35.4428 65.4488 34.7328 65.9554 33.2128C66.0646 32.8849 66.0467 32.5281 65.9054 32.2128L62.0554 23.4928C62.0286 23.4308 62.0165 23.3636 62.0198 23.2961C62.0232 23.2287 62.0421 23.1629 62.075 23.1039C62.1078 23.0449 62.1538 22.9943 62.2094 22.9559C62.265 22.9176 62.3286 22.8926 62.3954 22.8828L63.4754 22.7228C63.641 22.6993 63.8096 22.7318 63.9546 22.8152C64.0995 22.8985 64.2124 23.028 64.2754 23.1829L66.9254 29.8428C67.1054 30.2894 67.2821 30.2861 67.4554 29.8328Z" fill="white"/>
<path d="M15.8854 29.9531L34.1154 40.0731C34.2552 40.1506 34.3737 40.2616 34.4603 40.3959C34.5469 40.5303 34.5989 40.684 34.6118 40.8433C34.6246 41.0027 34.5979 41.1626 34.534 41.3091C34.4701 41.4557 34.371 41.5842 34.2454 41.6832L21.6254 51.5931C21.5074 51.6849 21.3682 51.7459 21.2207 51.7704C21.0732 51.795 20.9222 51.7822 20.7817 51.7333C20.6411 51.6845 20.5155 51.6011 20.4166 51.4909C20.3176 51.3808 20.2484 51.2474 20.2154 51.1031L15.4154 30.313C15.4026 30.2511 15.4075 30.1866 15.4294 30.1271C15.4513 30.0677 15.4893 30.0158 15.5389 29.9778C15.5885 29.9399 15.6476 29.9173 15.7091 29.9129C15.7705 29.9085 15.8317 29.9225 15.8854 29.9531Z" fill="#32CB9E"/>
</svg>
