<svg width="170" height="51" viewBox="0 0 170 51" fill="none" xmlns="http://www.w3.org/2000/svg">
<path d="M7.00539 22.313L21.2954 31.463C21.3442 31.4938 21.3841 31.5369 21.4111 31.5879C21.4381 31.6389 21.4513 31.6961 21.4492 31.7538C21.4472 31.8115 21.4301 31.8677 21.3996 31.9167C21.3691 31.9657 21.3263 32.0058 21.2754 32.0331L15.6454 35.063C15.5944 35.0905 15.537 35.1041 15.479 35.1023C15.4211 35.1006 15.3647 35.0836 15.3154 35.0531L0.905387 25.9331C0.857379 25.902 0.818312 25.8587 0.792014 25.8079C0.765715 25.757 0.753096 25.7003 0.755393 25.6431L1.42539 8.37308C1.42789 8.31464 1.44587 8.25797 1.4775 8.20877C1.50913 8.15957 1.55327 8.11958 1.60539 8.09305L16.7354 0.133086C16.7864 0.105628 16.8438 0.0921465 16.9017 0.0939019C16.9597 0.0956574 17.0161 0.112598 17.0654 0.143096L31.4554 9.42313C31.5034 9.4543 31.5425 9.4974 31.5688 9.54825C31.5951 9.59909 31.6077 9.65585 31.6054 9.71304L31.2054 16.2431C31.2 16.2987 31.1806 16.3521 31.1489 16.3981C31.1173 16.4441 31.0745 16.4814 31.0245 16.5064C30.9746 16.5314 30.9191 16.5432 30.8632 16.5409C30.8074 16.5386 30.7531 16.5221 30.7054 16.4931L16.4954 7.34305C16.4461 7.31255 16.3897 7.29561 16.3317 7.29385C16.2738 7.2921 16.2164 7.30558 16.1654 7.33304L7.48539 11.9231C7.43326 11.9497 7.38913 11.9895 7.3575 12.0387C7.32587 12.0879 7.30789 12.1446 7.30539 12.203L6.85539 22.0231C6.85309 22.0803 6.86571 22.1371 6.89201 22.1879C6.91831 22.2387 6.95739 22.2818 7.00539 22.313Z" fill="white"/>
<path d="M65.5455 13.3835L65.3555 15.9336C65.3494 16.0099 65.3239 16.0834 65.2815 16.1471C65.239 16.2108 65.181 16.2627 65.1129 16.2977C65.0448 16.3328 64.9689 16.3499 64.8924 16.3474C64.8158 16.3449 64.7412 16.323 64.6755 16.2836C61.0355 14.0536 56.5155 13.3235 52.7155 15.3235C47.5455 18.0435 46.6255 24.7436 50.3155 29.0436C53.8755 33.1936 60.4755 32.2335 64.8555 29.7335C64.9041 29.7065 64.9591 29.693 65.0147 29.6946C65.0703 29.6961 65.1244 29.7127 65.1714 29.7423C65.2185 29.772 65.2567 29.8137 65.282 29.8632C65.3074 29.9126 65.3189 29.9681 65.3155 30.0236L65.1655 32.8635C65.1455 33.2369 64.9655 33.4969 64.6255 33.6436C55.4255 37.6836 45.7455 34.6135 44.3555 24.0935C43.7155 19.2535 46.4255 14.0335 50.9655 11.9735C55.4789 9.92685 60.2122 10.1668 65.1655 12.6935C65.4455 12.8402 65.5722 13.0702 65.5455 13.3835Z" fill="white"/>
<path d="M85.6654 17.0227C86.7147 17.0227 87.5654 16.172 87.5654 15.1227C87.5654 14.0733 86.7147 13.2227 85.6654 13.2227C84.616 13.2227 83.7654 14.0733 83.7654 15.1227C83.7654 16.172 84.616 17.0227 85.6654 17.0227Z" fill="white"/>
<path d="M16.1055 42.8232L24.7955 38.2432C24.8442 38.2187 24.8856 38.1817 24.9154 38.136C24.9453 38.0904 24.9626 38.0377 24.9655 37.9832L25.3555 28.0232C25.3591 27.9683 25.3481 27.9135 25.3235 27.8643C25.2989 27.8151 25.2616 27.7733 25.2155 27.7432L11.0555 18.6032C11.0086 18.5745 10.9702 18.5337 10.9442 18.4853C10.9182 18.4368 10.9056 18.3823 10.9076 18.3273C10.9097 18.2723 10.9263 18.2189 10.9558 18.1725C10.9853 18.1261 11.0266 18.0883 11.0755 18.0631L16.7255 15.1432C16.7735 15.1175 16.8274 15.1049 16.8819 15.1066C16.9363 15.1084 16.9893 15.1245 17.0355 15.1532L31.3755 24.2132C31.4216 24.2432 31.4589 24.2851 31.4835 24.3343C31.5081 24.3835 31.5191 24.4383 31.5155 24.4932L30.8955 41.8932C30.8926 41.9477 30.8753 42.0004 30.8454 42.0461C30.8156 42.0917 30.7742 42.1287 30.7255 42.1532L15.4755 50.0232C15.4267 50.0475 15.3723 50.0584 15.3178 50.0548C15.2634 50.0513 15.2109 50.0335 15.1655 50.0032L0.865528 40.7132C0.819446 40.6831 0.782191 40.6414 0.757587 40.5922C0.732984 40.543 0.721912 40.4882 0.725521 40.4333L1.08552 33.7732C1.08715 33.7181 1.10345 33.6644 1.13275 33.6177C1.16204 33.571 1.20328 33.5328 1.25219 33.5074C1.30111 33.4819 1.35593 33.4699 1.41101 33.4727C1.46609 33.4755 1.51942 33.493 1.56552 33.5232L15.7955 42.8033C15.8409 42.8336 15.8934 42.8514 15.9478 42.8549C16.0023 42.8584 16.0567 42.8474 16.1055 42.8232Z" fill="white"/>
<path d="M117.146 23.4433L115.696 23.4633C115.598 23.4657 115.503 23.4385 115.421 23.3853C115.34 23.3321 115.277 23.2555 115.24 23.1655C115.203 23.0755 115.194 22.9764 115.215 22.8814C115.236 22.7864 115.285 22.6999 115.356 22.6334L120.396 17.7934C120.982 17.2334 121.249 17.3567 121.196 18.1634L121.096 19.5534C121.056 20.0734 121.296 20.3434 121.816 20.3634L125.456 20.4834C125.829 20.4967 126.006 20.69 125.986 21.0633L125.866 23.1134C125.839 23.5667 125.599 23.7767 125.146 23.7434L121.796 23.4934C121.696 23.4866 121.597 23.5 121.503 23.533C121.409 23.566 121.323 23.6179 121.25 23.6853C121.177 23.7527 121.119 23.8343 121.078 23.9251C121.038 24.0159 121.017 24.114 121.016 24.2133L120.916 31.5833C120.912 31.8551 120.962 32.1248 121.063 32.377C121.164 32.6292 121.314 32.8588 121.505 33.0523C121.696 33.2459 121.923 33.3996 122.174 33.5045C122.425 33.6094 122.694 33.6634 122.966 33.6634C123.952 33.6634 124.886 33.4 125.766 32.8734C126.132 32.6534 126.326 32.7568 126.346 33.1834L126.426 35.0633C126.439 35.45 126.269 35.7267 125.916 35.8934C122.676 37.3934 117.646 36.6833 117.696 32.2133C117.722 29.7133 117.766 27.0167 117.826 24.1234C117.839 23.6634 117.612 23.4367 117.146 23.4433Z" fill="white"/>
<path d="M82.6055 27.5831C82.6055 29.7393 81.7489 31.8072 80.2242 33.3319C78.6996 34.8566 76.6317 35.7131 74.4754 35.7131C72.3192 35.7131 70.2513 34.8566 68.7267 33.3319C67.202 31.8072 66.3455 29.7393 66.3455 27.5831C66.3455 25.4269 67.202 23.359 68.7267 21.8344C70.2513 20.3097 72.3192 19.4531 74.4754 19.4531C76.6317 19.4531 78.6996 20.3097 80.2242 21.8344C81.7489 23.359 82.6055 25.4269 82.6055 27.5831ZM75.6174 33.3231C76.361 33.1772 77.068 32.8836 77.6981 32.4589C78.3282 32.0341 78.869 31.4866 79.2896 30.8477C79.7103 30.2087 80.0026 29.4909 80.1498 28.735C80.297 27.9791 80.2962 27.2 80.1476 26.4423C79.8473 24.912 78.9628 23.5614 77.6887 22.6876C76.4145 21.8139 74.8551 21.4886 73.3535 21.7832C72.6099 21.9291 71.9029 22.2227 71.2728 22.6475C70.6427 23.0722 70.1019 23.6197 69.6813 24.2587C69.2606 24.8976 68.9683 25.6156 68.8211 26.3715C68.6739 27.1273 68.6747 27.9063 68.8233 28.6641C69.1236 30.1944 70.0081 31.545 71.2822 32.4187C72.5564 33.2925 74.1158 33.6177 75.6174 33.3231Z" fill="white"/>
<path d="M94.6255 20.4828C96.9955 18.7328 100.376 19.5228 101.956 21.8228C102.642 22.8228 102.962 24.1128 102.916 25.6928C102.809 29.2461 102.766 32.4428 102.786 35.2828C102.786 35.4429 102.723 35.5966 102.61 35.7107C102.498 35.8248 102.346 35.8902 102.186 35.8928L99.8755 35.9028C99.7297 35.9028 99.5898 35.8459 99.4866 35.7446C99.3835 35.6434 99.3255 35.506 99.3255 35.3628L99.4556 25.3528C99.4756 23.7128 98.6722 22.7728 97.0455 22.5328C96.6589 22.4728 96.2655 22.5128 95.8655 22.6528C94.1055 23.2595 93.2122 24.4928 93.1855 26.3528L93.0355 35.3428C93.0348 35.4186 93.0177 35.4935 92.9855 35.5625C92.9533 35.6316 92.9066 35.6934 92.8484 35.7442C92.7902 35.7949 92.7217 35.8333 92.6472 35.8572C92.5727 35.8811 92.4938 35.8898 92.4155 35.8828L90.1655 35.6228C89.7322 35.5761 89.5189 35.3328 89.5255 34.8928L89.8355 20.5728C89.8489 20.1594 90.0589 19.9128 90.4655 19.8328C91.7122 19.5928 92.7689 19.8061 93.6355 20.4728C93.9622 20.7195 94.2922 20.7228 94.6255 20.4828Z" fill="white"/>
<path d="M86.6671 19.6802L84.4877 19.6307C84.2061 19.6243 83.9726 19.8474 83.9662 20.129L83.6254 35.1451C83.6191 35.4267 83.8422 35.6602 84.1237 35.6666L86.3032 35.716C86.5848 35.7224 86.8182 35.4993 86.8246 35.2177L87.1654 20.2016C87.1718 19.92 86.9487 19.6866 86.6671 19.6802Z" fill="white"/>
<path d="M108.926 23.0126C108.716 23.1043 108.535 23.2511 108.402 23.4372C108.269 23.6232 108.189 23.8416 108.17 24.0688C108.152 24.2959 108.196 24.5233 108.297 24.7266C108.398 24.9299 108.553 25.1014 108.746 25.2226C110.266 26.1959 111.726 27.1793 113.126 28.1726C116.246 30.3726 115.746 35.0426 111.976 36.2226C110.029 36.8359 107.762 36.5459 105.176 35.3526C104.742 35.1459 104.522 34.8025 104.516 34.3225L104.506 32.1126C104.499 31.5859 104.726 31.4492 105.186 31.7026C108.479 33.5226 110.579 33.8393 111.486 32.6526C111.595 32.5091 111.674 32.3444 111.718 32.1692C111.762 31.994 111.768 31.812 111.738 31.6344C111.708 31.4569 111.642 31.2878 111.543 31.1377C111.445 30.9877 111.316 30.86 111.166 30.7626C108.666 29.1326 103.316 26.4726 105.076 22.5426C106.576 19.1726 110.476 19.4826 113.456 20.6726C114.202 20.9726 114.659 21.516 114.826 22.3026C114.899 22.6626 114.902 23.0126 114.836 23.3526C114.716 24.0392 114.332 24.2526 113.686 23.9926C112.426 23.4926 110.226 22.4626 108.926 23.0126Z" fill="white"/>
<path d="M142.894 28.9497C142.871 30.0158 142.632 31.0668 142.188 32.0429C141.744 33.019 141.105 33.901 140.308 34.6385C139.51 35.376 138.57 35.9546 137.54 36.3412C136.51 36.7277 135.411 36.9147 134.305 36.8916C132.073 36.8448 129.95 35.9446 128.403 34.3891C126.856 32.8336 126.012 30.7502 126.057 28.5971C126.08 27.531 126.32 26.4798 126.763 25.5037C127.207 24.5277 127.846 23.6458 128.643 22.9083C129.441 22.1708 130.381 21.5922 131.411 21.2057C132.441 20.8191 133.54 20.6321 134.646 20.6552C136.878 20.702 139.002 21.602 140.548 23.1576C142.095 24.7131 142.939 26.7966 142.894 28.9497ZM139.366 28.7734C139.366 27.4659 138.846 26.2119 137.922 25.2873C136.997 24.3628 135.743 23.8433 134.436 23.8433C133.128 23.8433 131.874 24.3628 130.95 25.2873C130.025 26.2119 129.506 27.4659 129.506 28.7734C129.506 30.0809 130.025 31.3348 130.95 32.2594C131.874 33.1839 133.128 33.7033 134.436 33.7033C135.743 33.7033 136.997 33.1839 137.922 32.2594C138.846 31.3348 139.366 30.0809 139.366 28.7734Z" fill="white"/>
<path d="M148.476 22.7432C148.479 22.8149 148.505 22.8838 148.55 22.9403C148.594 22.9968 148.655 23.0382 148.724 23.059C148.793 23.0797 148.866 23.0788 148.935 23.0563C149.003 23.0338 149.063 22.9909 149.106 22.9332C150.892 20.3932 153.039 20.0499 155.546 21.9032C156.146 22.3432 156.246 22.8799 155.846 23.5132L155.176 24.5931C154.862 25.0865 154.449 25.1999 153.936 24.9332L152.046 23.9531C151.719 23.7798 151.386 23.7699 151.046 23.9232C149.179 24.7632 148.216 26.2832 148.156 28.4832C148.089 31.2765 148.026 33.9666 147.966 36.5532C147.959 36.9332 147.766 37.1165 147.386 37.1032L145.316 37.0432C144.916 37.0366 144.719 36.8299 144.726 36.4232L144.976 21.8632C144.982 21.4965 145.166 21.2699 145.526 21.1832C147.439 20.7232 148.422 21.2432 148.476 22.7432Z" fill="white"/>
<path d="M159.935 29.6633C158.542 29.6499 158.239 30.2199 159.025 31.3732L159.715 32.3933C160.105 32.9644 160.626 33.4327 161.236 33.7584C161.845 34.084 162.524 34.2573 163.215 34.2633C165.069 34.2833 166.946 33.7399 168.846 32.6332C168.854 32.6281 168.865 32.6253 168.875 32.6252C168.885 32.6251 168.896 32.6277 168.905 32.6328C168.914 32.6378 168.921 32.645 168.927 32.6539C168.932 32.6627 168.935 32.6729 168.936 32.6833C169.029 33.6433 169.005 34.6032 168.865 35.5632C168.839 35.7232 168.755 35.8466 168.615 35.9333C160.195 40.9333 152.165 33.4832 156.335 24.6232C158.195 20.6632 163.095 19.7433 166.535 22.3033C168.795 23.9833 169.732 26.3332 169.346 29.3532C169.328 29.4642 169.272 29.5652 169.187 29.637C169.103 29.7089 168.995 29.7466 168.885 29.7432L159.935 29.6633ZM159.065 27.3832L165.825 27.5732C165.882 27.5732 165.937 27.5515 165.978 27.5124C166.019 27.4733 166.043 27.4198 166.046 27.3632L166.055 27.2833C166.069 26.8334 165.992 26.3853 165.829 25.9647C165.667 25.5441 165.422 25.1592 165.109 24.8322C164.796 24.5052 164.421 24.2425 164.005 24.059C163.589 23.8756 163.141 23.7751 162.685 23.7633H162.406C161.489 23.7387 160.601 24.0745 159.935 24.697C159.27 25.3194 158.881 26.1776 158.855 27.0832V27.1633C158.855 27.2199 158.877 27.2744 158.916 27.3154C158.955 27.3564 159.009 27.3807 159.065 27.3832Z" fill="white"/>
<path d="M75.2756 31.4732C74.6289 32.2599 73.5756 32.0566 72.1156 30.8632C71.6623 30.4965 71.5723 30.0533 71.8456 29.5333C72.6856 27.9599 72.5989 26.4865 71.5856 25.1132C71.2789 24.6932 71.3823 24.4566 71.8956 24.4033L72.5756 24.3232C72.7593 24.3045 72.9346 24.2406 73.085 24.1374C73.2355 24.0342 73.3561 23.895 73.4356 23.7332C73.6156 23.3799 73.8923 23.1332 74.2656 22.9932C74.6323 22.8599 74.9389 22.9466 75.1856 23.2532C75.6856 23.8932 76.2789 24.4433 76.9656 24.9033C77.3789 25.1766 77.5756 25.5632 77.5556 26.0632C77.5223 26.9032 77.6689 27.6998 77.9956 28.4532C78.1756 28.8665 78.1389 29.2599 77.8856 29.6332C77.5056 30.1999 76.9523 30.5999 76.2256 30.8332C75.8456 30.9532 75.5289 31.1665 75.2756 31.4732ZM75.6256 29.3832C75.8723 29.2432 75.9489 29.0399 75.8556 28.7733C75.7489 28.4666 75.5423 28.2666 75.2356 28.1733C74.7956 28.0333 74.5123 28.1832 74.3856 28.6232C74.3389 28.7766 74.3256 28.9332 74.3456 29.0932C74.3856 29.4599 74.589 29.6232 74.9556 29.5832C75.1956 29.5632 75.4189 29.4966 75.6256 29.3832Z" fill="white"/>
</svg>
