<svg width="183" height="43" viewBox="0 0 183 43" fill="none" xmlns="http://www.w3.org/2000/svg">
<path d="M42.5455 21.4332C42.5455 27.0638 40.3087 32.4637 36.3273 36.4451C32.3459 40.4265 26.946 42.6632 21.3154 42.6632C18.5275 42.6632 15.7668 42.114 13.1911 41.0471C10.6153 39.9802 8.27496 38.4165 6.30357 36.4451C2.32217 32.4637 0.0854492 27.0638 0.0854492 21.4332C0.0854492 15.8027 2.32217 10.4027 6.30357 6.42126C10.285 2.43987 15.6849 0.203125 21.3154 0.203125C26.946 0.203125 32.3459 2.43987 36.3273 6.42126C40.3087 10.4027 42.5455 15.8027 42.5455 21.4332ZM39.4355 21.4232C39.4355 16.6361 37.5338 12.0449 34.1487 8.65991C30.7637 5.27488 26.1726 3.37317 21.3854 3.37317C16.5983 3.37317 12.0072 5.27488 8.62217 8.65991C5.23714 12.0449 3.33545 16.6361 3.33545 21.4232C3.33545 26.2104 5.23714 30.8014 8.62217 34.1864C12.0072 37.5714 16.5983 39.4731 21.3854 39.4731C26.1726 39.4731 30.7637 37.5714 34.1487 34.1864C37.5338 30.8014 39.4355 26.2104 39.4355 21.4232Z" fill="#FFBE40"/>
<path d="M58.0856 33.3628L52.3056 33.4029C52.248 33.402 52.1918 33.385 52.1433 33.3539C52.0948 33.3229 52.0559 33.2789 52.031 33.227C52.0061 33.1751 51.9961 33.1172 52.0022 33.06C52.0083 33.0027 52.0303 32.9484 52.0656 32.9029L60.3056 22.1829C60.3477 22.1285 60.3706 22.0616 60.3706 21.9928C60.3706 21.924 60.3477 21.8573 60.3056 21.8029L52.4356 11.3628C52.3998 11.3167 52.3777 11.2613 52.372 11.2032C52.3663 11.145 52.3771 11.0865 52.4032 11.0342C52.4294 10.982 52.4697 10.9381 52.5197 10.9078C52.5696 10.8774 52.6271 10.8619 52.6856 10.8628L58.6156 10.8728C58.6654 10.8743 58.7142 10.8879 58.7577 10.9123C58.8012 10.9366 58.8382 10.9711 58.8656 11.0129L63.4956 17.8929C63.5236 17.9327 63.5606 17.9654 63.6036 17.9883C63.6466 18.0112 63.6943 18.0236 63.743 18.0246C63.7917 18.0256 63.84 18.0151 63.8839 17.9939C63.9277 17.9728 63.966 17.9416 63.9956 17.9029L69.1456 10.9928C69.174 10.9561 69.2104 10.9263 69.2519 10.9056C69.2935 10.8848 69.3391 10.8736 69.3856 10.8728L75.1756 10.8428C75.234 10.8419 75.2915 10.8574 75.3415 10.8877C75.3914 10.918 75.4318 10.9619 75.4579 11.0142C75.4841 11.0665 75.4949 11.125 75.4892 11.1831C75.4834 11.2413 75.4614 11.2966 75.4256 11.3428L67.3056 21.8029C67.2634 21.8573 67.2405 21.924 67.2405 21.9928C67.2405 22.0616 67.2634 22.1285 67.3056 22.1829L75.4856 32.8929C75.5214 32.939 75.5434 32.9944 75.5492 33.0525C75.5549 33.1107 75.5441 33.1692 75.5179 33.2215C75.4918 33.2737 75.4514 33.3176 75.4015 33.3479C75.3515 33.3783 75.294 33.3938 75.2356 33.3929L69.5456 33.3228C69.4966 33.3224 69.4484 33.3105 69.405 33.2879C69.3615 33.2653 69.324 33.2327 69.2956 33.1928L64.0156 25.9728C63.9868 25.9336 63.9491 25.9017 63.9057 25.8797C63.8623 25.8577 63.8143 25.8461 63.7656 25.8461C63.7169 25.8461 63.6689 25.8577 63.6254 25.8797C63.582 25.9017 63.5444 25.9336 63.5156 25.9728L58.3356 33.2328C58.3071 33.2727 58.2696 33.3053 58.2262 33.3279C58.1827 33.3505 58.1345 33.3625 58.0856 33.3628Z" fill="#FFBE40"/>
<path d="M89.8556 15.2233L89.8356 33.0233C89.8356 33.1135 89.7997 33.1999 89.736 33.2637C89.6722 33.3274 89.5857 33.3633 89.4956 33.3633L84.7156 33.4033C84.6254 33.4033 84.5389 33.3675 84.4751 33.3037C84.4114 33.2399 84.3756 33.1534 84.3756 33.0632L84.3155 15.2133C84.3155 15.1231 84.2797 15.0367 84.216 14.9729C84.1522 14.9091 84.0657 14.8733 83.9756 14.8733H75.1356C75.0715 14.8716 75.0092 14.8518 74.9558 14.8162C74.9025 14.7805 74.8604 14.7305 74.8342 14.672C74.8081 14.6134 74.799 14.5487 74.8081 14.4852C74.8172 14.4218 74.844 14.3621 74.8856 14.3132L77.8056 10.9933C77.8365 10.9568 77.8747 10.9273 77.9178 10.9066C77.9608 10.8859 78.0078 10.8746 78.0556 10.8733L97.9956 10.8633C98.0411 10.8633 98.0861 10.8724 98.128 10.8901C98.1699 10.9078 98.2079 10.9338 98.2396 10.9664C98.2713 10.9991 98.2961 11.0377 98.3126 11.0801C98.3291 11.1225 98.3369 11.1678 98.3356 11.2133L98.2856 14.5333C98.2829 14.6218 98.246 14.7056 98.1825 14.7672C98.119 14.8288 98.034 14.8633 97.9456 14.8633L90.1956 14.8833C90.1509 14.8833 90.1067 14.8921 90.0654 14.9092C90.0242 14.9263 89.9867 14.9513 89.9551 14.9829C89.9236 15.0145 89.8985 15.0519 89.8814 15.0931C89.8644 15.1344 89.8556 15.1786 89.8556 15.2233Z" fill="#FFBE40"/>
<path d="M147.346 22.7292C147.412 25.4097 146.41 28.0065 144.561 29.9482C142.712 31.89 140.167 33.0177 137.486 33.0832L135.327 33.136C134 33.1684 132.679 32.9391 131.44 32.4611C130.202 31.9832 129.069 31.266 128.108 30.3504C127.146 29.4348 126.375 28.3388 125.837 27.125C125.299 25.9111 125.005 24.6032 124.973 23.276L124.925 21.2966C124.859 18.6161 125.861 16.0194 127.71 14.0776C129.559 12.1359 132.104 11.0081 134.785 10.9426L136.944 10.8897C138.271 10.8573 139.592 11.0867 140.831 11.5647C142.069 12.0426 143.202 12.7598 144.163 13.6754C145.124 14.591 145.896 15.687 146.434 16.9008C146.972 18.1147 147.266 19.4226 147.298 20.7498L147.346 22.7292ZM141.36 20.2348C141.378 18.9805 140.896 17.7705 140.022 16.8712C139.147 15.9719 137.951 15.4568 136.697 15.4393L135.877 15.4278C135.256 15.4191 134.639 15.5329 134.062 15.7625C133.485 15.9922 132.959 16.3333 132.513 16.7663C132.068 17.1994 131.712 17.7158 131.467 18.2863C131.221 18.8568 131.09 19.4702 131.081 20.0913L131.031 23.731C131.013 24.9854 131.495 26.1952 132.369 27.0946C133.244 27.9939 134.44 28.5089 135.694 28.5265L136.514 28.5379C137.135 28.5466 137.752 28.4329 138.329 28.2032C138.906 27.9735 139.432 27.6325 139.878 27.1994C140.323 26.7664 140.679 26.2499 140.924 25.6794C141.17 25.1089 141.301 24.4956 141.31 23.8745L141.36 20.2348Z" fill="#FFBE40"/>
<path d="M121.515 15.7226C116.005 15.9026 107.635 13.9326 108.835 23.0626C109.255 26.2559 110.922 27.9326 113.835 28.0926C116.162 28.2259 118.685 28.2659 121.405 28.2126C121.719 28.2059 121.875 28.3593 121.875 28.6727L121.895 32.3626C121.902 32.6759 121.749 32.8359 121.435 32.8426C118.009 32.9493 114.765 32.9193 111.705 32.7526C100.185 32.1226 99.3554 12.3026 111.135 11.2526C113.435 11.0526 116.869 11.0227 121.435 11.1627C121.729 11.1693 121.879 11.3226 121.885 11.6226L121.895 15.3326C121.895 15.5859 121.769 15.7159 121.515 15.7226Z" fill="#FFBE40"/>
<path d="M163.766 16.1326C163.766 15.8859 163.642 15.7592 163.396 15.7526L157.986 15.7326C157.866 15.7326 157.752 15.78 157.667 15.8644C157.583 15.9488 157.536 16.0633 157.536 16.1826L157.516 32.2426C157.516 32.3227 157.5 32.402 157.468 32.476C157.437 32.55 157.392 32.6173 157.334 32.674C157.276 32.7306 157.208 32.7755 157.133 32.8062C157.058 32.8368 156.977 32.8526 156.896 32.8526H152.156C151.842 32.8526 151.686 32.6993 151.686 32.3926L151.696 11.8325C151.696 11.6442 151.77 11.4637 151.904 11.3306C152.037 11.1974 152.217 11.1226 152.406 11.1226C160.559 11.1026 167.939 11.1093 174.546 11.1426C179.472 11.1693 181.959 13.7159 182.006 18.7826C182.052 23.1293 182.059 27.6159 182.026 32.2426C182.019 32.6492 181.812 32.8526 181.406 32.8526L176.656 32.8626C176.342 32.8626 176.186 32.7059 176.186 32.3926V18.4425C176.186 17.0092 175.479 16.1792 174.066 15.9525C172.979 15.7792 171.852 15.7025 170.686 15.7225C169.986 15.7292 169.636 16.0826 169.636 16.7826V32.3626C169.636 32.4925 169.584 32.6171 169.492 32.709C169.4 32.8009 169.275 32.8526 169.146 32.8526L164.166 32.8626C164.046 32.8626 163.932 32.8141 163.847 32.7278C163.763 32.6415 163.716 32.5246 163.716 32.4026L163.766 16.1326Z" fill="#FFBE40"/>
<path d="M21.2354 15.9427L24.2754 12.1628C24.4254 11.9799 24.6233 11.8445 24.8454 11.7728C25.8987 11.4328 26.4687 11.7328 26.5554 12.6728C26.5811 12.9868 26.4843 13.2985 26.2854 13.5428L12.1154 30.8928C11.6087 31.5128 11.0954 31.5195 10.5754 30.9128L10.2754 30.5528C10.1327 30.3865 10.0526 30.1755 10.049 29.9564C10.0453 29.7373 10.1183 29.5237 10.2554 29.3527L17.2454 20.7027C17.3243 20.6007 17.3663 20.475 17.3645 20.346C17.3626 20.2171 17.3171 20.0925 17.2354 19.9927L11.9954 13.6228C11.0887 12.5094 11.3454 11.8561 12.7654 11.6628C13.4587 11.5628 14.1687 11.5128 14.8954 11.5128C16.0687 11.5061 17.0154 11.9661 17.7354 12.8928L20.0954 15.9328C20.4687 16.4061 20.8487 16.4094 21.2354 15.9427Z" fill="#FFBE40"/>
<path d="M22.6155 26.5628C22.5787 26.5158 22.5316 26.478 22.4778 26.4519C22.4239 26.4259 22.3646 26.4124 22.3042 26.4124C22.2438 26.4124 22.1838 26.4259 22.1287 26.4519C22.0735 26.478 22.0246 26.5158 21.9855 26.5628L18.2655 31.0728C18.1507 31.2134 17.9933 31.3123 17.8177 31.3539C17.6422 31.3955 17.4585 31.3776 17.2955 31.3029C16.9288 31.1295 16.6722 30.8595 16.5255 30.4928C16.4348 30.2748 16.4055 30.0358 16.4408 29.8015C16.476 29.5672 16.5744 29.3464 16.7255 29.1629L30.6155 12.1328C31.0555 11.5995 31.5988 11.4528 32.2455 11.6928C32.5722 11.8128 32.7722 12.1128 32.8455 12.5928C32.8708 12.7534 32.8617 12.9183 32.8186 13.0768C32.7756 13.2353 32.6996 13.3838 32.5955 13.5128L25.8455 21.8228C25.722 21.9723 25.6546 22.1606 25.6546 22.3556C25.6546 22.5506 25.722 22.7404 25.8455 22.8928L31.0255 29.2128C31.7922 30.1528 31.5888 30.7694 30.4155 31.0628C29.6955 31.2428 28.9088 31.3328 28.0555 31.3328C27.0088 31.3261 26.1588 30.9195 25.5055 30.1128L22.6155 26.5628Z" fill="#FFBE40"/>
<path d="M96.0356 31.7333C97.3114 31.7333 98.3456 30.6991 98.3456 29.4233C98.3456 28.1476 97.3114 27.1133 96.0356 27.1133C94.7598 27.1133 93.7256 28.1476 93.7256 29.4233C93.7256 30.6991 94.7598 31.7333 96.0356 31.7333Z" fill="#FFBE40"/>
</svg>
