<svg width="244" height="59" viewBox="0 0 244 59" fill="none" xmlns="http://www.w3.org/2000/svg">
<path d="M59.1456 29.4028C59.1456 37.1869 56.0533 44.6521 50.5491 50.1563C45.0449 55.6605 37.5797 58.7527 29.7956 58.7527C22.0115 58.7527 14.5462 55.6605 9.04197 50.1563C3.53778 44.6521 0.445557 37.1869 0.445557 29.4028C0.445557 25.5485 1.20472 21.7319 2.67969 18.171C4.15467 14.6101 6.31657 11.3746 9.04197 8.64917C11.7674 5.92377 15.0029 3.76184 18.5638 2.28687C22.1247 0.81189 25.9413 0.0527344 29.7956 0.0527344C33.6499 0.0527344 37.4664 0.81189 41.0273 2.28687C44.5882 3.76184 47.8237 5.92377 50.5491 8.64917C53.2745 11.3746 55.4364 14.6101 56.9114 18.171C58.3864 21.7319 59.1456 25.5485 59.1456 29.4028ZM30.8756 37.8427C30.8982 37.7786 30.9402 37.723 30.9957 37.6836C31.0512 37.6442 31.1175 37.623 31.1856 37.6227L40.7556 37.5927C40.8236 37.5929 40.8899 37.6142 40.9454 37.6536C41.0009 37.693 41.0429 37.7486 41.0656 37.8127L42.9656 42.8928C42.9899 42.9551 43.0325 43.0085 43.0879 43.046C43.1432 43.0835 43.2087 43.1032 43.2756 43.1027L48.4656 43.1428C48.5195 43.1432 48.5727 43.1304 48.6205 43.1055C48.6683 43.0806 48.7093 43.0443 48.7399 42.9999C48.7705 42.9555 48.7897 42.9043 48.7959 42.8508C48.8022 42.7972 48.7952 42.743 48.7756 42.6927L38.8456 15.8228C38.8229 15.7586 38.7809 15.703 38.7254 15.6636C38.6699 15.6243 38.6036 15.603 38.5356 15.6027L33.0556 15.5927C32.9858 15.5908 32.9173 15.6112 32.8598 15.6507C32.8023 15.6902 32.7588 15.747 32.7356 15.8127L25.2156 37.4528C25.1935 37.5153 25.153 37.5698 25.0995 37.6091C25.046 37.6483 24.9819 37.6705 24.9156 37.6727L19.5256 37.8727C19.472 37.8742 19.4189 37.8626 19.3709 37.8389C19.3228 37.8153 19.2813 37.7803 19.2498 37.7369C19.2183 37.6936 19.1978 37.6433 19.1901 37.5903C19.1824 37.5373 19.1877 37.4832 19.2056 37.4327L26.6356 16.0527C26.6531 16.003 26.6585 15.9499 26.6513 15.8977C26.6441 15.8455 26.6245 15.7958 26.5942 15.7527C26.5638 15.7096 26.5236 15.6744 26.4769 15.6501C26.4301 15.6257 26.3783 15.6129 26.3256 15.6127L21.1756 15.7128C21.1075 15.713 21.0412 15.7342 20.9857 15.7736C20.9302 15.813 20.8882 15.8686 20.8656 15.9327L11.4056 42.9528C11.3899 43.0019 11.386 43.0539 11.3942 43.1048C11.4023 43.1557 11.4222 43.2039 11.4523 43.2457C11.4825 43.2875 11.522 43.3217 11.5677 43.3455C11.6134 43.3693 11.664 43.3821 11.7156 43.3828L28.7956 43.2028C28.8636 43.2025 28.9299 43.1812 28.9854 43.1418C29.0409 43.1025 29.0829 43.0469 29.1056 42.9827L30.8756 37.8427Z" fill="white"/>
<path d="M165.705 31.0834C165.705 32.6724 165.392 34.2458 164.784 35.7139C164.176 37.1819 163.285 38.5158 162.161 39.6394C161.038 40.763 159.704 41.6542 158.236 42.2623C156.768 42.8704 155.194 43.1834 153.605 43.1834H151.405C149.816 43.1834 148.243 42.8704 146.775 42.2623C145.307 41.6542 143.973 40.763 142.849 39.6394C141.726 38.5158 140.835 37.1819 140.226 35.7139C139.618 34.2458 139.305 32.6724 139.305 31.0834V25.6234C139.305 24.0344 139.618 22.461 140.226 20.9929C140.835 19.5249 141.726 18.191 142.849 17.0674C143.973 15.9439 145.307 15.0525 146.775 14.4445C148.243 13.8364 149.816 13.5234 151.405 13.5234H153.605C155.194 13.5234 156.768 13.8364 158.236 14.4445C159.704 15.0525 161.038 15.9439 162.161 17.0674C163.285 18.191 164.176 19.5249 164.784 20.9929C165.392 22.461 165.705 24.0344 165.705 25.6234V31.0834ZM152.538 38.4133C153.544 38.4081 154.539 38.1426 155.465 37.6322C156.392 37.1218 157.233 36.3763 157.939 35.4385C158.645 34.5006 159.204 33.3887 159.582 32.1661C159.961 30.9436 160.152 29.6344 160.145 28.3133C160.138 26.9922 159.933 25.6851 159.542 24.4666C159.151 23.2481 158.581 22.142 157.865 21.2116C157.148 20.2812 156.3 19.5446 155.368 19.0439C154.436 18.5433 153.439 18.2882 152.433 18.2935C151.427 18.2988 150.432 18.5642 149.505 19.0746C148.579 19.5851 147.738 20.3305 147.032 21.2684C146.325 22.2062 145.767 23.3182 145.388 24.5407C145.01 25.7632 144.819 27.0724 144.826 28.3935C144.832 29.7146 145.037 31.0217 145.429 32.2402C145.82 33.4587 146.39 34.5648 147.106 35.4952C147.822 36.4256 148.671 37.1622 149.603 37.6629C150.535 38.1636 151.532 38.4186 152.538 38.4133Z" fill="white"/>
<path d="M238.155 31.913L238.075 13.803C238.075 13.734 238.103 13.6679 238.152 13.6191C238.2 13.5704 238.267 13.543 238.335 13.543L243.345 13.603C243.499 13.603 243.575 13.6797 243.575 13.833L243.765 41.163C243.772 41.6163 243.549 41.8397 243.095 41.833H238.595C238.102 41.833 237.735 41.6197 237.495 41.193L227.185 23.363C226.679 22.4896 226.429 22.5597 226.435 23.573L226.545 41.563C226.545 41.7963 226.429 41.913 226.195 41.913L221.385 41.903C221.314 41.903 221.245 41.8735 221.195 41.821C221.144 41.7685 221.115 41.6972 221.115 41.623L220.875 14.413C220.875 13.9263 221.115 13.683 221.595 13.683L226.395 13.653C226.789 13.653 227.082 13.823 227.275 14.163L237.595 32.063C237.975 32.7163 238.162 32.6663 238.155 31.913Z" fill="white"/>
<path d="M175.405 25.0926L185.305 14.2226C185.363 14.1618 185.442 14.1259 185.525 14.1227L192.445 13.8927C192.509 13.8911 192.571 13.9084 192.624 13.9422C192.678 13.976 192.72 14.0248 192.746 14.0826C192.771 14.1404 192.779 14.2045 192.769 14.2668C192.758 14.3291 192.729 14.3868 192.685 14.4326L181.965 25.4926C181.913 25.5466 181.881 25.6172 181.876 25.6922C181.87 25.7671 181.892 25.8417 181.935 25.9027L193.585 41.6726C193.621 41.7205 193.642 41.7772 193.647 41.8364C193.652 41.8956 193.64 41.9551 193.613 42.008C193.586 42.061 193.545 42.1054 193.494 42.1362C193.443 42.167 193.385 42.1831 193.325 42.1826L186.465 42.1626C186.415 42.163 186.365 42.1515 186.32 42.1289C186.275 42.1063 186.235 42.0733 186.205 42.0326L177.915 30.3827C177.888 30.345 177.852 30.3138 177.811 30.2915C177.77 30.2691 177.724 30.256 177.677 30.2531C177.631 30.2503 177.584 30.2577 177.54 30.2749C177.497 30.2921 177.458 30.3186 177.425 30.3526L174.965 32.8927C174.936 32.9231 174.913 32.9591 174.897 32.9986C174.882 33.0381 174.874 33.0803 174.875 33.1227L175.055 42.0027C175.057 42.0455 175.05 42.0882 175.034 42.1282C175.019 42.1682 174.995 42.2047 174.965 42.2354C174.936 42.2662 174.9 42.2906 174.86 42.3073C174.821 42.324 174.778 42.3327 174.735 42.3327L169.515 42.3426C169.431 42.3426 169.349 42.3089 169.289 42.2489C169.229 42.1889 169.195 42.1075 169.195 42.0227L168.945 14.5027C168.944 14.4598 168.951 14.4171 168.967 14.3771C168.982 14.3371 169.006 14.3007 169.036 14.2699C169.065 14.2391 169.101 14.2146 169.141 14.1979C169.18 14.1812 169.223 14.1726 169.265 14.1726L174.525 14.0926C174.568 14.0913 174.611 14.0986 174.651 14.1141C174.691 14.1296 174.727 14.1529 174.758 14.1828C174.789 14.2126 174.813 14.2483 174.83 14.2878C174.847 14.3273 174.855 14.3698 174.855 14.4126L174.845 24.8727C174.844 24.9384 174.862 25.003 174.899 25.0578C174.935 25.1126 174.987 25.155 175.048 25.179C175.11 25.203 175.177 25.2076 175.241 25.1922C175.304 25.1767 175.362 25.1419 175.405 25.0926Z" fill="white"/>
<path d="M202.495 24.9135L215.255 24.7535C215.307 24.7521 215.359 24.7612 215.408 24.7802C215.456 24.7992 215.5 24.8278 215.538 24.8641C215.575 24.9005 215.605 24.9439 215.625 24.9919C215.645 25.0399 215.655 25.0914 215.655 25.1435L215.635 29.3535C215.635 29.4569 215.594 29.5561 215.521 29.6293C215.448 29.7024 215.349 29.7435 215.245 29.7435L202.475 29.8235C202.372 29.8235 202.273 29.8645 202.2 29.9377C202.126 30.0108 202.085 30.1101 202.085 30.2135L202.155 36.5934C202.155 36.6969 202.196 36.7961 202.27 36.8693C202.343 36.9424 202.442 36.9835 202.545 36.9835L217.215 36.8335C217.267 36.8322 217.319 36.8412 217.368 36.8602C217.416 36.8792 217.46 36.9077 217.498 36.9441C217.535 36.9804 217.565 37.0239 217.585 37.0719C217.605 37.1199 217.615 37.1714 217.615 37.2234L217.675 41.6335C217.675 41.7352 217.636 41.8329 217.565 41.9058C217.494 41.9786 217.397 42.0209 217.295 42.0235L196.825 42.1535C196.722 42.1535 196.623 42.1124 196.55 42.0392C196.476 41.9661 196.435 41.8669 196.435 41.7635L196.295 14.3135C196.295 14.21 196.336 14.1109 196.41 14.0377C196.483 13.9646 196.582 13.9235 196.685 13.9235L216.365 13.8135C216.469 13.8135 216.568 13.8545 216.641 13.9277C216.714 14.0008 216.755 14.1001 216.755 14.2035V18.4835C216.755 18.5869 216.714 18.6861 216.641 18.7592C216.568 18.8324 216.469 18.8735 216.365 18.8735L202.485 18.9235C202.382 18.9235 202.283 18.9646 202.21 19.0377C202.137 19.1109 202.095 19.21 202.095 19.3135V24.5235C202.095 24.5756 202.106 24.6271 202.126 24.675C202.146 24.723 202.176 24.7665 202.213 24.8029C202.25 24.8392 202.295 24.8677 202.343 24.8867C202.392 24.9057 202.443 24.9148 202.495 24.9135Z" fill="white"/>
<path d="M129.415 19.8835L129.615 42.3936C129.617 42.4346 129.61 42.4756 129.595 42.5138C129.58 42.552 129.557 42.5868 129.528 42.6158C129.499 42.6449 129.464 42.6677 129.426 42.6828C129.388 42.6979 129.347 42.7049 129.305 42.7036L123.965 42.6436C123.886 42.6436 123.81 42.6119 123.753 42.5557C123.697 42.4994 123.665 42.4231 123.665 42.3435L123.575 19.8535C123.575 19.774 123.544 19.6977 123.488 19.6414C123.431 19.5852 123.355 19.5535 123.275 19.5535L115.455 19.6635C115.376 19.6635 115.3 19.6319 115.243 19.5757C115.187 19.5194 115.155 19.4431 115.155 19.3635L115.115 14.8735C115.115 14.794 115.147 14.7176 115.203 14.6614C115.26 14.6051 115.336 14.5735 115.415 14.5735L137.545 14.3535C137.625 14.3535 137.701 14.3851 137.758 14.4414C137.814 14.4977 137.845 14.574 137.845 14.6536L137.855 19.0935C137.856 19.1714 137.825 19.2462 137.771 19.3022C137.717 19.3582 137.643 19.391 137.565 19.3936L129.715 19.5735C129.675 19.5735 129.635 19.5816 129.598 19.5973C129.561 19.613 129.528 19.636 129.5 19.6649C129.472 19.6938 129.45 19.7281 129.435 19.7657C129.421 19.8032 129.414 19.8433 129.415 19.8835Z" fill="white"/>
<path d="M98.8454 37.3928L97.1654 42.6928C97.1438 42.7631 97.0999 42.8245 97.0404 42.8678C96.9809 42.9111 96.909 42.9339 96.8354 42.9328L91.3654 42.9128C91.3114 42.9125 91.2583 42.8994 91.2104 42.8746C91.1626 42.8497 91.1213 42.8138 91.09 42.7698C91.0587 42.7259 91.0384 42.6751 91.0306 42.6217C91.0229 42.5683 91.0279 42.5139 91.0454 42.4628L100.595 14.9128C100.618 14.846 100.661 14.7879 100.719 14.7467C100.776 14.7055 100.845 14.6832 100.915 14.6828L107.065 14.6328C107.136 14.6332 107.205 14.6555 107.262 14.6967C107.319 14.7379 107.363 14.796 107.385 14.8628L117.295 42.3728C117.313 42.4239 117.318 42.4783 117.31 42.5317C117.302 42.5851 117.282 42.6359 117.251 42.6799C117.219 42.7238 117.178 42.7597 117.13 42.7845C117.082 42.8094 117.029 42.8225 116.975 42.8228L111.285 42.8428C111.213 42.8445 111.142 42.8232 111.083 42.7819C111.023 42.7405 110.979 42.6812 110.955 42.6128L109.195 37.2328C109.174 37.1625 109.13 37.1011 109.07 37.0578C109.011 37.0145 108.939 36.9917 108.865 36.9928L99.1554 37.1628C99.0865 37.1652 99.0199 37.1885 98.9646 37.2296C98.9092 37.2706 98.8677 37.3276 98.8454 37.3928ZM100.585 31.6928C100.57 31.7427 100.566 31.7957 100.574 31.8474C100.583 31.899 100.604 31.9479 100.635 31.9899C100.666 32.0319 100.707 32.0659 100.754 32.089C100.801 32.1121 100.853 32.1237 100.905 32.1228H107.065C107.118 32.1237 107.17 32.1121 107.217 32.089C107.264 32.0659 107.304 32.0319 107.336 31.9899C107.367 31.9479 107.388 31.899 107.396 31.8474C107.405 31.7957 107.401 31.7427 107.385 31.6928L104.295 22.2728C104.272 22.2093 104.23 22.1543 104.175 22.1155C104.119 22.0767 104.053 22.056 103.985 22.056C103.918 22.056 103.852 22.0767 103.796 22.1155C103.741 22.1543 103.699 22.2093 103.675 22.2728L100.585 31.6928Z" fill="white"/>
<path d="M75.8855 37.8733H89.0155C89.1216 37.8733 89.2233 37.9155 89.2983 37.9905C89.3733 38.0655 89.4155 38.1672 89.4155 38.2733L89.3855 42.5733C89.383 42.6759 89.3411 42.7737 89.2685 42.8463C89.1959 42.9188 89.0981 42.9608 88.9955 42.9633L70.0355 43.1433C69.9294 43.1433 69.8277 43.1011 69.7526 43.0261C69.6776 42.9511 69.6355 42.8494 69.6355 42.7433L69.3755 15.3333C69.3755 15.2808 69.3858 15.2288 69.4059 15.1802C69.426 15.1317 69.4555 15.0876 69.4926 15.0505C69.5298 15.0133 69.5739 14.9838 69.6224 14.9637C69.6709 14.9436 69.723 14.9333 69.7755 14.9333L74.9355 14.8633C75.0416 14.8633 75.1433 14.9055 75.2183 14.9805C75.2933 15.0555 75.3355 15.1572 75.3355 15.2633L75.4855 37.4733C75.4855 37.5794 75.5276 37.6811 75.6026 37.7561C75.6777 37.8311 75.7794 37.8733 75.8855 37.8733Z" fill="white"/>
<path d="M33.1256 31.6234L35.6056 24.5234C35.6273 24.4668 35.6657 24.4181 35.7157 24.3838C35.7657 24.3495 35.8249 24.3311 35.8856 24.3311C35.9462 24.3311 36.0054 24.3495 36.0554 24.3838C36.1054 24.4181 36.1438 24.4668 36.1656 24.5234L38.7956 31.5634C38.8113 31.6076 38.8163 31.6549 38.8104 31.7015C38.8045 31.748 38.7877 31.7926 38.7615 31.8315C38.7352 31.8704 38.7002 31.9026 38.6592 31.9255C38.6182 31.9484 38.5725 31.9614 38.5256 31.9634L33.4056 32.0234C33.3578 32.0229 33.3109 32.0111 33.2686 31.9888C33.2263 31.9666 33.19 31.9345 33.1626 31.8954C33.1352 31.8563 33.1176 31.8112 33.1111 31.7639C33.1047 31.7165 33.1096 31.6684 33.1256 31.6234Z" fill="white"/>
<path d="M226.205 48.7032C226.205 49.4882 225.894 50.2411 225.338 50.7962C224.783 51.3513 224.03 51.6631 223.245 51.6631C222.46 51.6631 221.707 51.3513 221.152 50.7962C220.597 50.2411 220.285 49.4882 220.285 48.7032C220.285 47.9181 220.597 47.1652 221.152 46.6101C221.707 46.055 222.46 45.7432 223.245 45.7432C224.03 45.7432 224.783 46.055 225.338 46.6101C225.894 47.1652 226.205 47.9181 226.205 48.7032ZM223.025 50.9752C223.28 50.9966 223.537 50.9591 223.783 50.8647C224.028 50.7703 224.256 50.6209 224.455 50.4251C224.653 50.2293 224.817 49.9908 224.938 49.7234C225.058 49.4559 225.134 49.1648 225.159 48.8664C225.184 48.568 225.158 48.2684 225.084 47.9845C225.009 47.7006 224.887 47.4381 224.724 47.212C224.562 46.9858 224.361 46.8005 224.135 46.6666C223.909 46.5326 223.661 46.4526 223.406 46.4312C223.151 46.4097 222.893 46.4472 222.648 46.5416C222.403 46.636 222.174 46.7854 221.976 46.9812C221.778 47.177 221.614 47.4155 221.493 47.6829C221.372 47.9504 221.297 48.2416 221.272 48.54C221.247 48.8383 221.273 49.138 221.347 49.4219C221.422 49.7057 221.544 49.9682 221.706 50.1943C221.869 50.4205 222.069 50.6058 222.296 50.7398C222.522 50.8738 222.769 50.9537 223.025 50.9752Z" fill="white"/>
<path d="M233.396 49.613C233.362 49.2996 233.189 49.1397 232.876 49.133L231.156 49.093C230.809 49.0863 230.642 49.2563 230.656 49.603L230.706 51.143C230.712 51.3163 230.629 51.403 230.456 51.403H230.196C230.009 51.3963 229.916 51.303 229.916 51.123L229.926 47.023C229.932 46.1763 230.359 45.7397 231.206 45.713C231.866 45.6863 232.509 45.7363 233.136 45.863C234.036 46.043 234.392 46.583 234.206 47.483C233.979 48.5763 234.062 49.733 234.456 50.953C234.509 51.0997 234.469 51.2163 234.336 51.303L234.086 51.453C233.779 51.653 233.606 51.5697 233.566 51.203L233.396 49.613ZM231.196 48.333C232.249 48.5797 232.992 48.383 233.426 47.743C233.481 47.663 233.52 47.5722 233.538 47.4765C233.557 47.3808 233.556 47.2822 233.534 47.1871C233.512 47.092 233.471 47.0025 233.413 46.9243C233.354 46.8461 233.28 46.7809 233.196 46.733C232.216 46.1596 231.416 46.2063 230.796 46.873C230.676 46.9997 230.609 47.1596 230.596 47.353C230.582 47.5396 230.609 47.713 230.676 47.873C230.719 47.9874 230.789 48.0891 230.88 48.1693C230.971 48.2495 231.079 48.3057 231.196 48.333Z" fill="white"/>
<path d="M239.375 50.4529C239.429 50.6929 239.345 50.9095 239.125 51.1028C238.665 51.4895 238.432 51.3828 238.425 50.7828L238.355 46.1429C238.355 46.0638 238.373 45.9857 238.407 45.9142C238.44 45.8428 238.49 45.7798 238.551 45.73C238.613 45.6801 238.684 45.6446 238.761 45.6261C238.838 45.6076 238.918 45.6065 238.995 45.6229C239.582 45.7429 239.932 46.1195 240.045 46.7529C240.252 47.8662 240.069 48.8762 239.495 49.7828C239.362 49.9895 239.322 50.2129 239.375 50.4529Z" fill="white"/>
<path d="M242.846 48.2835C242.366 49.0368 242.016 49.8802 241.796 50.8135C241.709 51.2002 241.482 51.3835 241.116 51.3635C240.965 51.3574 240.819 51.3084 240.695 51.222C240.571 51.1355 240.474 51.0153 240.416 50.8752C240.357 50.7351 240.339 50.5807 240.364 50.43C240.389 50.2793 240.455 50.1384 240.556 50.0235C241.536 48.9302 242.176 47.7168 242.476 46.3835C242.562 46.0102 242.789 45.7701 243.156 45.6635C243.422 45.5835 243.646 45.7135 243.826 46.0535C243.839 46.0797 243.846 46.1072 243.846 46.1335L243.896 50.9935C243.896 51.2602 243.769 51.3568 243.516 51.2835L243.116 51.1635C243.049 51.1447 242.992 51.101 242.957 51.0415C242.921 50.9819 242.91 50.911 242.926 50.8435C243.112 50.0368 243.229 49.2302 243.276 48.4235C243.309 47.8235 243.166 47.7768 242.846 48.2835Z" fill="white"/>
<path d="M199.446 47.8733C199.266 49.3133 198.712 50.5799 197.786 51.6733C197.692 51.7866 197.572 51.83 197.426 51.8033C197.386 51.8033 197.359 51.7866 197.346 51.7533C197.272 51.6533 197.259 51.5466 197.306 51.4333C197.912 49.7533 198.532 48.0366 199.166 46.2833C199.208 46.1644 199.286 46.0615 199.389 45.9888C199.491 45.916 199.614 45.877 199.741 45.877C199.867 45.877 199.99 45.916 200.093 45.9888C200.196 46.0615 200.273 46.1644 200.316 46.2833L202.096 51.1333C202.115 51.2122 202.106 51.2955 202.07 51.3683C202.034 51.441 201.972 51.4983 201.897 51.5298C201.822 51.5612 201.738 51.5648 201.661 51.5397C201.584 51.5147 201.518 51.4628 201.476 51.3933C201.109 50.6066 200.582 50.15 199.896 50.0233C199.502 49.95 199.466 49.7933 199.786 49.5533C200.486 49.0266 200.576 48.4166 200.056 47.7233C199.722 47.2699 199.519 47.32 199.446 47.8733Z" fill="white"/>
<path d="M207.525 47.1229L207.635 51.4129C207.635 51.6195 207.535 51.7029 207.335 51.6629L206.935 51.5829C206.815 51.5629 206.755 51.4929 206.755 51.3729L206.765 47.3129C206.766 47.2196 206.747 47.1273 206.709 47.0418C206.671 46.9564 206.616 46.8796 206.546 46.8166C206.476 46.7535 206.394 46.7055 206.304 46.6756C206.215 46.6457 206.12 46.6345 206.025 46.6429L205.185 46.7229C205.149 46.727 205.112 46.7238 205.078 46.7133C205.043 46.7029 205.01 46.6854 204.982 46.6621C204.954 46.6387 204.931 46.6099 204.914 46.5774C204.898 46.5448 204.888 46.5093 204.885 46.4729L204.855 46.1429C204.842 46.0429 204.889 45.9895 204.995 45.9829L208.895 45.8529C209.095 45.8462 209.199 45.9396 209.205 46.1329L209.215 46.3929C209.222 46.5129 209.169 46.5829 209.055 46.6029C208.769 46.6629 208.485 46.6562 208.205 46.5829C208.124 46.561 208.038 46.5584 207.956 46.5755C207.873 46.5926 207.795 46.629 207.729 46.6815C207.663 46.734 207.61 46.8013 207.575 46.878C207.54 46.9546 207.523 47.0385 207.525 47.1229Z" fill="white"/>
<path d="M213.965 49.483C213.859 50.0564 213.869 50.6131 213.995 51.1531C214.049 51.3997 213.952 51.5397 213.705 51.5731L213.435 51.613C213.242 51.6397 213.145 51.5564 213.145 51.363L213.135 46.3831C213.129 46.0497 213.292 45.8831 213.625 45.8831L216.685 45.873C216.892 45.873 217.012 45.973 217.045 46.173C217.065 46.2797 217.029 46.383 216.935 46.483C216.882 46.5497 216.809 46.5831 216.715 46.5831L214.785 46.563C214.405 46.563 214.125 46.7297 213.945 47.063C213.745 47.443 213.762 47.8397 213.995 48.2531C214.129 48.4997 214.322 48.5664 214.575 48.4531C215.182 48.1997 215.779 48.1797 216.365 48.3931C216.792 48.5464 216.802 48.723 216.395 48.923C215.875 49.1697 215.319 49.2031 214.725 49.0231C214.299 48.8897 214.045 49.043 213.965 49.483Z" fill="white"/>
<path d="M167.076 50.0232C166.469 49.6099 165.809 49.3665 165.096 49.2932C164.81 49.263 164.54 49.1511 164.317 48.971C164.093 48.7908 163.927 48.5501 163.837 48.2777C163.748 48.0053 163.738 47.7128 163.811 47.4353C163.883 47.1577 164.034 46.907 164.246 46.7132C165.116 45.9232 167.186 46.0032 167.626 47.3432C167.779 47.8232 167.632 47.9432 167.186 47.7032C166.926 47.5632 166.689 47.3865 166.476 47.1732C166.222 46.9332 165.922 46.8199 165.576 46.8332C165.189 46.8532 164.896 47.0265 164.696 47.3532C164.626 47.4655 164.585 47.5936 164.578 47.7255C164.571 47.8575 164.596 47.9893 164.653 48.1087C164.71 48.2281 164.796 48.3314 164.903 48.409C165.01 48.4867 165.134 48.5362 165.266 48.5532C166.039 48.6465 166.736 48.9065 167.356 49.3332C167.556 49.4693 167.718 49.6551 167.825 49.8724C167.932 50.0897 167.981 50.331 167.967 50.5729C167.953 50.8148 167.876 51.0488 167.744 51.2522C167.613 51.4556 167.43 51.6213 167.216 51.7332C165.876 52.4198 164.776 52.2999 163.916 51.3732C163.736 51.1732 163.646 50.9265 163.646 50.6332C163.652 50.1532 163.819 50.0865 164.146 50.4332C164.332 50.6265 164.522 50.8199 164.716 51.0132C165.396 51.7032 166.606 51.5132 167.186 50.8532C167.459 50.5398 167.422 50.2632 167.076 50.0232Z" fill="white"/>
<path d="M183.096 50.4234C183.182 50.7767 183.196 51.1534 183.136 51.5534C183.109 51.7401 183.002 51.8301 182.816 51.8234L182.496 51.8134C182.426 51.8108 182.359 51.7802 182.311 51.728C182.262 51.6757 182.235 51.606 182.236 51.5334V46.8834C182.242 46.4968 182.436 46.2701 182.816 46.2034C184.142 45.9768 185.196 46.1434 185.976 46.7034C186.183 46.8536 186.34 47.0626 186.428 47.3032C186.515 47.5439 186.528 47.8052 186.466 48.0534C186.166 49.2334 185.309 49.7301 183.896 49.5434C183.202 49.4501 182.936 49.7434 183.096 50.4234ZM185.605 47.8336C185.609 47.7076 185.578 47.5816 185.514 47.4627C185.449 47.3437 185.352 47.2343 185.229 47.1405C185.105 47.0468 184.956 46.9706 184.792 46.9163C184.628 46.862 184.451 46.8306 184.271 46.824C184.091 46.8174 183.912 46.8357 183.744 46.8778C183.576 46.9199 183.423 46.9851 183.292 47.0695C183.162 47.154 183.057 47.256 182.984 47.3699C182.911 47.4838 182.871 47.6072 182.866 47.7332C182.862 47.8592 182.893 47.9853 182.957 48.1042C183.022 48.2231 183.119 48.3326 183.243 48.4263C183.366 48.5201 183.515 48.5963 183.679 48.6506C183.843 48.7049 184.021 48.7362 184.2 48.7428C184.38 48.7494 184.559 48.7312 184.727 48.689C184.895 48.6469 185.048 48.5817 185.179 48.4973C185.309 48.4129 185.414 48.3108 185.487 48.197C185.56 48.0831 185.6 47.9596 185.605 47.8336Z" fill="white"/>
<path d="M192.135 51.1334C192.689 51.0334 193.222 51.0801 193.735 51.2734C194.242 51.4668 194.229 51.6134 193.695 51.7134C192.815 51.8868 191.892 51.9167 190.925 51.8034C190.539 51.7634 190.345 51.5468 190.345 51.1534L190.365 46.3734C190.365 46.2001 190.452 46.1168 190.625 46.1234L190.915 46.1334C191.082 46.1401 191.165 46.2268 191.165 46.3934L191.215 50.3734C191.222 50.9868 191.529 51.2401 192.135 51.1334Z" fill="white"/>
<path d="M132.476 47.3031C132.334 47.378 132.22 47.4959 132.15 47.6399C132.08 47.784 132.058 47.9469 132.087 48.1055C132.115 48.264 132.194 48.41 132.31 48.5227C132.427 48.6354 132.576 48.709 132.736 48.7331C133.482 48.8331 134.169 49.0698 134.796 49.4431C135.722 49.9831 135.896 50.6931 135.316 51.5731C135.144 51.8366 134.908 52.0526 134.631 52.2012C134.353 52.3497 134.041 52.426 133.726 52.4231C132.219 52.4164 131.449 51.9065 131.416 50.8931C131.402 50.3931 131.552 50.3397 131.866 50.7331C132.592 51.6531 133.402 51.9098 134.296 51.5031C135.096 51.1364 135.142 50.6964 134.436 50.1831C133.576 49.5531 132.246 49.7431 131.676 48.8731C131.149 48.0598 131.299 47.3698 132.126 46.8031C132.457 46.5757 132.852 46.4569 133.256 46.4631C134.576 46.4631 135.292 46.8831 135.406 47.7231C135.479 48.2564 135.336 48.3197 134.976 47.9131C134.189 47.0264 133.356 46.8231 132.476 47.3031Z" fill="white"/>
<path d="M142.566 51.5028C142.792 51.3628 142.962 51.1728 143.076 50.9328C143.123 50.8271 143.148 50.7122 143.147 50.5964C143.146 50.4806 143.119 50.3665 143.07 50.2625C143.02 50.1584 142.948 50.0669 142.86 49.9944C142.771 49.9218 142.667 49.87 142.556 49.8427L140.636 49.3328C140.364 49.2619 140.12 49.1116 139.935 48.9013C139.749 48.691 139.631 48.4302 139.594 48.1521C139.558 47.8741 139.605 47.5915 139.73 47.3405C139.855 47.0894 140.052 46.8813 140.296 46.7428C141.742 45.9294 142.852 46.2461 143.626 47.6928C143.659 47.7528 143.652 47.8128 143.606 47.8728L143.386 48.1228C143.272 48.2494 143.182 48.2394 143.116 48.0927C142.716 47.2461 142.092 46.8895 141.246 47.0228C140.719 47.1161 140.432 47.4061 140.386 47.8928C140.375 48.0071 140.388 48.1224 140.423 48.2316C140.459 48.3408 140.518 48.4417 140.594 48.5279C140.671 48.6141 140.765 48.6839 140.87 48.7329C140.975 48.7819 141.09 48.8091 141.206 48.8128C142.612 48.8528 143.496 49.3995 143.856 50.4528C143.926 50.6707 143.928 50.9045 143.862 51.1226C143.796 51.3407 143.664 51.5327 143.486 51.6728C142.452 52.4928 141.309 52.5328 140.056 51.7928C139.662 51.5594 139.496 51.2328 139.556 50.8128C139.616 50.3794 139.776 50.3394 140.036 50.6928C140.636 51.5028 141.596 52.1028 142.566 51.5028Z" fill="white"/>
<path d="M149.345 48.8329C149.872 48.7929 150.542 48.8095 151.355 48.8829C151.515 48.8962 151.629 48.9695 151.695 49.1028C151.709 49.1428 151.709 49.1828 151.695 49.2228C151.649 49.3695 151.549 49.4462 151.395 49.4529C150.715 49.4929 150.039 49.5295 149.365 49.5629C148.832 49.5895 148.555 49.8728 148.535 50.4128L148.525 50.6728C148.52 50.8446 148.582 51.0117 148.697 51.1387C148.813 51.2657 148.974 51.3425 149.145 51.3528C149.985 51.4062 150.829 51.4195 151.675 51.3929C151.882 51.3795 151.989 51.4762 151.995 51.6829L152.005 51.9429C152.005 51.9482 151.993 51.9533 151.97 51.957C151.948 51.9608 151.917 51.9629 151.885 51.9629L148.665 52.1229C148.165 52.1495 147.915 51.9096 147.915 51.4029L147.905 47.0829C147.899 46.7095 148.082 46.4995 148.455 46.4529C149.455 46.3329 150.442 46.3628 151.415 46.5428C152.262 46.7028 152.262 46.8695 151.415 47.0428C150.729 47.1762 150.039 47.1895 149.345 47.0829C149.256 47.0687 149.164 47.0736 149.077 47.0975C148.989 47.1213 148.908 47.1634 148.838 47.2211C148.768 47.2788 148.711 47.3507 148.671 47.432C148.631 47.5133 148.609 47.6022 148.605 47.6929L148.595 48.1329C148.589 48.6462 148.839 48.8795 149.345 48.8329Z" fill="white"/>
<path d="M156.876 47.0233L155.826 47.1033C155.726 47.1099 155.669 47.0633 155.656 46.9633L155.636 46.6833C155.609 46.47 155.702 46.3633 155.916 46.3633C157.242 46.3699 158.512 46.3766 159.726 46.3833C159.886 46.3833 159.966 46.4633 159.966 46.6233C159.966 46.67 159.956 46.71 159.936 46.7433C159.849 46.89 159.376 46.9633 158.516 46.9633C158.428 46.9633 158.344 46.998 158.282 47.0599C158.22 47.1218 158.186 47.2058 158.186 47.2933L158.126 51.7733C158.126 51.9066 158.062 51.9833 157.936 52.0033L157.676 52.0433C157.476 52.0699 157.379 51.9833 157.386 51.7833L157.496 47.6133C157.502 47.1933 157.296 46.9966 156.876 47.0233Z" fill="white"/>
<path d="M104.776 47.0326C104.774 46.9813 104.783 46.9304 104.801 46.8825C104.82 46.8347 104.847 46.791 104.883 46.7539C104.918 46.7167 104.96 46.6869 105.007 46.666C105.054 46.6452 105.104 46.6339 105.156 46.6326L106.986 46.5926C107.299 46.5846 107.611 46.6389 107.903 46.7523C108.196 46.8658 108.463 47.0361 108.69 47.2536C108.916 47.471 109.098 47.7312 109.224 48.0194C109.351 48.3075 109.419 48.6179 109.426 48.9326L109.446 49.9926C109.459 50.6248 109.222 51.2367 108.788 51.694C108.353 52.1513 107.755 52.4169 107.126 52.4326L105.296 52.4726C105.244 52.4739 105.193 52.4651 105.146 52.4467C105.098 52.4284 105.054 52.4007 105.017 52.3654C104.98 52.3302 104.95 52.2879 104.929 52.2411C104.908 52.1943 104.897 52.1438 104.896 52.0926L104.776 47.0326ZM105.636 48.0626L105.656 51.2026C105.658 51.3733 105.728 51.536 105.849 51.6557C105.971 51.7755 106.135 51.8426 106.306 51.8426H106.646C107.173 51.8397 107.678 51.6402 108.05 51.2876C108.421 50.9351 108.628 50.4585 108.626 49.9626V49.2626C108.624 49.017 108.572 48.774 108.47 48.5476C108.369 48.3212 108.222 48.1157 108.036 47.943C107.85 47.7703 107.63 47.6336 107.388 47.5409C107.146 47.4482 106.887 47.4012 106.626 47.4026H106.286C106.199 47.4026 106.114 47.4197 106.034 47.453C105.955 47.4863 105.883 47.535 105.822 47.5965C105.762 47.6579 105.714 47.7307 105.682 47.8108C105.65 47.8908 105.634 47.9764 105.636 48.0626Z" fill="white"/>
<path d="M126.026 50.4926C125.873 50.3718 125.692 50.2904 125.501 50.2556C125.309 50.2207 125.112 50.2334 124.926 50.2927C124.74 50.3519 124.572 50.4559 124.436 50.5954C124.3 50.7348 124.2 50.9056 124.146 51.0926C124.039 51.4659 123.852 51.786 123.586 52.0526C123.086 52.566 122.916 52.4727 123.076 51.7727C123.476 50.086 124.036 48.4793 124.756 46.9527C124.81 46.836 124.897 46.7381 125.007 46.6712C125.117 46.6042 125.244 46.5714 125.372 46.5767C125.501 46.5821 125.625 46.6254 125.728 46.7012C125.832 46.777 125.911 46.8819 125.956 47.0026L127.686 51.7926C127.786 52.0726 127.692 52.246 127.406 52.3126L127.096 52.3826C127.022 52.4026 126.979 52.3726 126.966 52.2926C126.839 51.4926 126.526 50.8926 126.026 50.4926ZM125.656 49.4627C125.916 49.256 125.982 48.9726 125.856 48.6126C125.702 48.186 125.436 48.0959 125.056 48.3426C124.816 48.4959 124.692 48.7027 124.686 48.9627C124.68 49.0775 124.708 49.1914 124.765 49.291C124.823 49.3905 124.908 49.4714 125.01 49.5241C125.112 49.5768 125.227 49.599 125.342 49.5881C125.456 49.5772 125.565 49.5337 125.656 49.4627Z" fill="white"/>
<path d="M70.8556 52.0428C71.4089 52.2095 71.9989 52.1762 72.6256 51.9428C72.7589 51.8962 72.8589 51.9328 72.9256 52.0528L73.0856 52.3329C73.1922 52.5195 73.1389 52.6162 72.9256 52.6228L70.3356 52.6828C70.1415 52.6894 69.952 52.6233 69.804 52.4976C69.6561 52.3718 69.5604 52.1954 69.5356 52.0028C69.3222 50.3428 69.3689 48.8128 69.6756 47.4128C69.8356 46.7061 69.9956 46.7061 70.1556 47.4128C70.4089 48.5195 70.4289 49.7261 70.2156 51.0328C70.1356 51.5528 70.3489 51.8895 70.8556 52.0428Z" fill="white"/>
<path d="M77.0256 49.8134C77.0285 51.4813 77.2099 52.8331 77.4309 52.8327C77.6518 52.8323 77.8285 51.4799 77.8256 49.812C77.8227 48.1441 77.6412 46.7923 77.4203 46.7927C77.1994 46.7931 77.0227 48.1455 77.0256 49.8134Z" fill="white"/>
<path d="M86.7856 51.8728C86.8456 52.0195 86.8622 52.1695 86.8356 52.3228C86.7822 52.6162 86.6122 52.7262 86.3256 52.6528C85.5789 52.4595 84.8522 52.4795 84.1456 52.7128C83.9769 52.7683 83.7965 52.7808 83.6204 52.7495C83.4442 52.7181 83.2777 52.6436 83.1356 52.5328C80.0356 50.1128 82.5256 45.0128 86.2956 47.3928C86.6414 47.6169 86.8856 47.9688 86.9756 48.3728C87.2356 49.5595 87.1722 50.7261 86.7856 51.8728ZM85.4056 51.3728C85.4589 51.4995 85.5356 51.5462 85.6356 51.5128C85.7956 51.4528 85.9189 51.3461 86.0056 51.1928C88.3656 46.8528 81.2856 45.7728 82.7256 50.9628C82.7731 51.1392 82.8624 51.3015 82.9858 51.4361C83.1092 51.5707 83.2631 51.6737 83.4347 51.7365C83.6062 51.7992 83.7903 51.8198 83.9714 51.7965C84.1526 51.7733 84.3255 51.7068 84.4756 51.6028L84.9956 51.2528C85.0295 51.2304 85.0679 51.2157 85.1081 51.2097C85.1483 51.2036 85.1893 51.2064 85.2284 51.2178C85.2674 51.2293 85.3034 51.249 85.334 51.2758C85.3646 51.3025 85.389 51.3357 85.4056 51.3728Z" fill="white"/>
<path d="M92.7455 51.9426C93.3255 52.0293 93.8422 51.9293 94.2955 51.6426C94.6088 51.4493 94.7655 51.1693 94.7655 50.8026L94.7455 47.2126C94.7464 47.1428 94.7709 47.0755 94.8147 47.0226C94.8585 46.9696 94.9189 46.9343 94.9855 46.9226L95.3455 46.8626C95.5188 46.8359 95.6055 46.9126 95.6055 47.0926V50.8626C95.5988 51.9959 95.0288 52.5759 93.8955 52.6026L93.0355 52.6226C91.7688 52.6559 91.1355 52.0393 91.1355 50.7726L91.1255 47.1426C91.1255 46.9693 91.2122 46.8926 91.3855 46.9126L91.6855 46.9526C91.7855 46.9659 91.8355 47.0226 91.8355 47.1226L91.9255 51.0226C91.9305 51.2484 92.0158 51.465 92.1661 51.6336C92.3163 51.8022 92.5218 51.9118 92.7455 51.9426Z" fill="white"/>
<path d="M99.8054 52.1926L99.8954 47.1326C99.8954 46.9859 99.9688 46.9092 100.115 46.9026H100.395C100.425 46.9012 100.455 46.9059 100.483 46.9163C100.511 46.9268 100.536 46.9428 100.558 46.9634C100.579 46.9839 100.596 47.0086 100.608 47.036C100.619 47.0634 100.625 47.0928 100.625 47.1225V52.1025C100.625 52.3159 100.522 52.4192 100.315 52.4125L99.9954 52.4026C99.9692 52.4013 99.9434 52.3948 99.9196 52.3835C99.8958 52.3723 99.8745 52.3565 99.8569 52.337C99.8392 52.3175 99.8256 52.2947 99.8168 52.2699C99.8079 52.2451 99.8041 52.2188 99.8054 52.1926Z" fill="white"/>
</svg>
