<svg width="139" height="47" viewBox="0 0 139 47" fill="none" xmlns="http://www.w3.org/2000/svg">
<path d="M38.8854 5.32353C37.9388 5.21019 37.8754 5.39686 38.6954 5.88353C46.2754 10.3969 49.8288 17.3735 49.3554 26.8135C49.3288 27.4202 49.1087 27.5002 48.6954 27.0535C48.5221 26.8535 48.4088 26.6102 48.3554 26.3235C48.2888 25.9635 48.1321 25.9135 47.8854 26.1735C47.7321 26.3335 47.6554 26.5269 47.6554 26.7535C47.6621 32.9802 45.0121 38.1635 39.7054 42.3035C39.2788 42.6302 39.0721 42.5268 39.0854 41.9935C39.0921 41.7602 39.1321 41.5335 39.2054 41.3135C39.6987 39.8069 39.4521 39.6735 38.4654 40.9135C36.2254 43.7268 33.2821 45.5435 29.6354 46.3635C29.2021 46.4568 28.8887 46.4002 28.6954 46.1935C28.3421 45.8202 28.4221 45.6202 28.9354 45.5935C29.2021 45.5802 29.4388 45.5069 29.6454 45.3735C29.7988 45.2802 29.8354 45.1535 29.7554 44.9935L29.6454 44.7535C29.6321 44.7202 29.6054 44.7102 29.5654 44.7235C25.4054 46.3035 21.1554 46.3169 16.8154 44.7635C16.0221 44.4769 16.0421 44.3935 16.8754 44.5135C28.3954 46.1135 36.0054 33.5435 27.2854 24.9335C26.9854 24.6402 26.6888 24.6402 26.3954 24.9335C25.0854 26.2435 23.1554 28.4335 23.3354 30.4135C23.5654 32.9135 19.3254 36.2935 17.0054 36.1635C16.6521 36.1435 16.3121 36.2068 15.9854 36.3535C11.6754 38.2935 9.11542 35.5335 8.86542 31.3935C8.84542 31.0535 8.92542 30.7402 9.10542 30.4535C11.1254 27.2235 11.2054 23.9335 11.7354 20.3135C11.8554 19.4869 11.6521 18.7302 11.1254 18.0435C10.9054 17.7635 10.8288 17.4535 10.8954 17.1135L11.1554 15.7035C11.1794 15.5836 11.1687 15.4589 11.1245 15.344C11.0803 15.229 11.0043 15.1283 10.9054 15.0535L0.895419 7.56352C0.00208533 6.89685 0.0887464 6.7235 1.15541 7.0435C4.02208 7.89017 6.74875 8.86683 9.33541 9.97349C9.84208 10.1868 10.0388 10.0235 9.92542 9.4835C9.41875 7.0635 9.94875 4.90352 11.5154 3.00352C11.5688 2.93954 11.6394 2.89208 11.7187 2.86662C11.7981 2.84116 11.8831 2.83871 11.9637 2.85966C12.0444 2.88062 12.1175 2.9241 12.1744 2.98497C12.2314 3.04584 12.2699 3.12164 12.2854 3.20353L12.6254 5.11351C12.7721 5.94017 13.0221 5.9702 13.3754 5.20353C14.8821 1.95687 17.4121 0.276827 20.9654 0.163494C21.4854 0.143494 21.5854 0.340187 21.2654 0.753521L20.5754 1.63353C20.0888 2.26019 20.2154 2.4302 20.9554 2.14354C28.0554 -0.609798 34.6621 0.346864 40.7754 5.01353C41.3354 5.4402 41.2654 5.61349 40.5654 5.53349C39.9988 5.46016 39.4388 5.39019 38.8854 5.32353ZM23.4054 3.4235C20.9254 7.55684 18.9621 10.4202 17.5154 12.0135C17.1354 12.4269 16.7321 12.4168 16.3054 11.9835C16.0121 11.6968 15.7821 11.7402 15.6154 12.1135C14.7088 14.1802 14.0988 16.1568 13.7854 18.0435C13.7254 18.3968 13.7754 18.7369 13.9354 19.0635C14.4954 20.2235 14.8921 21.4235 15.1254 22.6635C15.1587 22.8635 15.0954 23.0235 14.9354 23.1435C14.5154 23.4635 14.2921 23.3602 14.2654 22.8335C14.2387 22.4602 14.0654 22.1968 13.7454 22.0435C13.2788 21.8302 13.0421 21.9802 13.0354 22.4935C12.9821 25.8402 12.2621 28.7669 10.8754 31.2735C10.6938 31.5975 10.6269 31.9711 10.6854 32.3335C10.8721 33.5602 11.4921 34.6002 12.5454 35.4535C15.3654 35.1869 16.9221 33.5835 17.2154 30.6435C17.2621 30.1435 17.3821 29.7002 17.5754 29.3135C17.8954 28.6669 18.4154 28.4902 19.1354 28.7835C19.4053 28.8916 19.6401 29.0722 19.814 29.3052C19.9879 29.5381 20.0941 29.8146 20.121 30.104C20.1479 30.3935 20.0943 30.6848 19.9663 30.9458C19.8383 31.2069 19.6408 31.4276 19.3954 31.5835C18.3554 32.2502 17.5588 33.0668 17.0054 34.0335C16.6854 34.5868 16.8321 34.7768 17.4454 34.6035C18.7987 34.2235 20.0421 33.3268 21.1754 31.9135C22.4221 30.3668 22.0654 28.9802 20.1054 27.7535C19.6454 27.4602 19.1488 27.3635 18.6154 27.4635C18.4688 27.4902 18.3221 27.4902 18.1754 27.4635C17.6354 27.3769 17.6021 27.1902 18.0754 26.9035L19.7254 25.9035C19.8387 25.8235 19.9454 25.7969 20.0454 25.8235C21.0054 26.4569 21.7054 26.3868 22.1454 25.6135C22.7921 24.4668 23.5421 23.3735 24.3954 22.3335C24.6088 22.0735 24.8854 21.9269 25.2254 21.8935C28.7254 21.5335 31.8854 20.1435 30.9954 16.0335L30.5654 12.7035C30.5187 12.3502 30.6354 12.2835 30.9154 12.5035L33.2754 14.3535C33.5954 16.5735 34.2354 18.5602 35.1954 20.3135C34.7421 20.3402 34.4888 20.4335 34.4354 20.5935C34.1954 22.5235 33.8754 24.3035 34.5854 26.1935C36.3654 30.9335 34.5854 35.5435 32.0754 39.5335C31.5288 40.4068 31.6887 40.5635 32.5554 40.0035C38.6954 36.0369 41.4187 30.5768 40.7254 23.6235C39.5454 16.5569 35.6521 11.8969 29.0454 9.64354L27.2854 9.14354C27.0789 9.08507 26.8612 9.07783 26.6514 9.12248C26.4415 9.16712 26.246 9.26229 26.0821 9.39958C25.9181 9.53687 25.7907 9.71204 25.7111 9.90977C25.6315 10.1075 25.602 10.3217 25.6254 10.5335C25.6587 10.8735 25.8354 11.2669 26.1554 11.7135C26.5487 12.9869 26.9687 14.1735 27.4154 15.2735C27.5312 15.5579 27.586 15.8634 27.5761 16.1703C27.5662 16.4771 27.4919 16.7785 27.358 17.0548C27.2241 17.3311 27.0336 17.5761 26.7988 17.774C26.5641 17.9719 26.2904 18.1183 25.9954 18.2035C25.5688 18.3235 25.0954 18.7868 24.5754 19.5935C24.3688 19.6802 24.1888 19.6335 24.0354 19.4535C25.9354 16.9602 26.1488 14.5968 24.6754 12.3635C24.4354 11.9968 24.0987 11.8702 23.6654 11.9835C23.0454 12.1502 22.4254 12.2802 21.8054 12.3735C20.1521 12.6135 20.0421 12.3069 21.4754 11.4535C24.0421 9.92687 24.7154 7.46018 23.4954 4.05351C24.8088 3.90684 26.1154 3.74686 27.4154 3.57353C30.2654 3.19353 32.8454 3.47351 35.5854 3.74351C36.1387 3.79684 36.1621 3.70354 35.6554 3.46354C30.6021 1.07021 26.5187 1.05684 23.4054 3.4235ZM17.9754 2.2935C17.9827 2.27863 17.9858 2.2616 17.9841 2.24485C17.9825 2.22811 17.9762 2.21252 17.9662 2.2003C17.9562 2.18808 17.943 2.17988 17.9285 2.17686C17.914 2.17384 17.8989 2.17617 17.8854 2.18351C15.2721 3.39685 14.5388 5.32354 15.6854 7.96354C15.9388 8.55688 16.0854 8.53019 16.1254 7.88353C16.2254 6.03019 16.8421 4.16683 17.9754 2.2935ZM22.1454 3.57353C21.0454 4.20686 20.2821 5.02682 19.8554 6.03349C19.5688 6.70682 19.6854 6.78687 20.2054 6.27354C20.9854 5.50021 21.7087 4.68353 22.3754 3.82353C22.3985 3.79252 22.4099 3.75501 22.4078 3.71702C22.4056 3.67903 22.3901 3.64273 22.3636 3.61393C22.3371 3.58514 22.3012 3.56554 22.2617 3.55821C22.2221 3.55088 22.1812 3.55627 22.1454 3.57353ZM27.8654 7.09349C27.7388 7.00015 27.5987 6.9635 27.4454 6.9835C27.2587 7.01017 27.1821 7.11684 27.2154 7.30351C27.2621 7.55017 27.4121 7.68353 27.6654 7.70353C37.0454 8.49353 44.1254 14.5535 47.7554 23.2235C48.1287 24.1235 48.2754 24.0902 48.1954 23.1235C47.2854 12.3435 39.7954 4.5735 28.3054 7.1735C28.2301 7.19259 28.1517 7.19531 28.0758 7.1815C27.9998 7.16769 27.9281 7.13766 27.8654 7.09349ZM13.4554 10.7735L11.6654 7.44352C11.4587 7.05686 11.3221 7.0802 11.2554 7.51353C10.9821 9.30686 11.5587 10.5535 12.9854 11.2535C13.6454 11.5802 13.8021 11.4202 13.4554 10.7735ZM7.20542 11.2135C9.03875 12.0069 10.7654 12.9735 12.3854 14.1135C12.7654 14.3802 13.0288 14.2935 13.1754 13.8535L13.3154 13.4235C13.3543 13.3015 13.3451 13.1691 13.2895 13.0523C13.2339 12.9356 13.1361 12.8432 13.0154 12.7935L7.64542 10.6735C7.47875 10.6135 7.36209 10.6669 7.29542 10.8335L7.16542 11.1335C7.15208 11.1669 7.16542 11.1935 7.20542 11.2135ZM41.9554 21.6435C43.7954 27.0735 43.8754 32.6035 41.7054 37.8935C41.2521 38.9935 41.4188 39.0969 42.2054 38.2035C46.3554 33.4835 46.5554 26.2535 42.3754 21.4035C41.8221 20.7569 41.6821 20.8369 41.9554 21.6435ZM18.8754 29.5035C18.3087 29.6769 17.9554 30.1135 17.8154 30.8135C17.7021 31.3802 17.9188 31.5668 18.4654 31.3735C19.0254 31.1802 19.4121 30.8468 19.6254 30.3735C19.6766 30.2636 19.695 30.1412 19.6783 30.021C19.6616 29.9009 19.6107 29.7881 19.5315 29.6962C19.4523 29.6043 19.3482 29.5373 19.2319 29.5032C19.1155 29.469 18.9917 29.4691 18.8754 29.5035Z" fill="#1D213E"/>
<path d="M23.4955 4.05324C23.4622 3.83991 23.4322 3.62991 23.4055 3.42324C26.5189 1.05657 30.6022 1.06995 35.6555 3.46328C36.1622 3.70328 36.1389 3.79658 35.5855 3.74325C32.8455 3.47325 30.2655 3.19326 27.4155 3.57326C26.1155 3.7466 24.8089 3.90658 23.4955 4.05324Z" fill="#EA5238"/>
<path d="M17.9754 2.29273C16.8421 4.16606 16.2254 6.02942 16.1254 7.88275C16.0854 8.52942 15.9388 8.5561 15.6854 7.96277C14.5388 5.32277 15.2721 3.39608 17.8854 2.18274C17.8989 2.1754 17.914 2.17307 17.9285 2.17609C17.943 2.17911 17.9562 2.18731 17.9662 2.19953C17.9762 2.21175 17.9825 2.22734 17.9841 2.24408C17.9858 2.26083 17.9827 2.27786 17.9754 2.29273Z" fill="#EA5238"/>
<path d="M22.1454 3.5732C22.1812 3.55594 22.2221 3.55055 22.2617 3.55788C22.3012 3.5652 22.3371 3.58481 22.3636 3.6136C22.3901 3.64239 22.4057 3.6787 22.4078 3.71669C22.41 3.75468 22.3986 3.79219 22.3754 3.8232C21.7088 4.6832 20.9854 5.49987 20.2054 6.27321C19.6854 6.78654 19.5688 6.70649 19.8554 6.03316C20.2821 5.02649 21.0454 4.20653 22.1454 3.5732Z" fill="#EA5238"/>
<path d="M59.7455 10.1134L55.3955 9.92339C54.8755 9.89673 54.6789 9.63007 54.8055 9.1234C56.2055 3.7034 60.8755 4.21342 65.3155 4.51342C65.8155 4.54675 66.0589 4.81341 66.0455 5.31341L65.6255 32.1334C65.6189 32.2934 65.5355 32.3734 65.3755 32.3734L60.3355 32.3834C60.1355 32.3834 60.0355 32.2801 60.0355 32.0734L60.3255 10.7334C60.3322 10.3334 60.1389 10.1267 59.7455 10.1134Z" fill="white"/>
<path d="M76.3056 10.383L72.3056 10.283C72.1891 10.2804 72.0744 10.2547 71.9679 10.2075C71.8615 10.1602 71.7655 10.0923 71.6855 10.0076C71.6055 9.923 71.5431 9.82331 71.5019 9.71437C71.4607 9.60543 71.4416 9.4894 71.4456 9.373L71.5656 5.35298C71.5701 5.19976 71.6146 5.05038 71.6946 4.91963C71.7746 4.78889 71.8874 4.68131 72.0218 4.60756C72.1562 4.5338 72.3075 4.49646 72.4607 4.49916C72.614 4.50187 72.7639 4.54455 72.8956 4.623L75.5356 6.17299C75.6876 6.26179 75.8096 6.39416 75.8856 6.55299L77.1156 9.11299C77.1828 9.24877 77.2138 9.39959 77.2056 9.55086C77.1974 9.70213 77.1503 9.84873 77.0688 9.97646C76.9873 10.1042 76.8743 10.2087 76.7406 10.2799C76.6069 10.3511 76.457 10.3867 76.3056 10.383Z" fill="white"/>
<path d="M127.055 22.4632L126.855 32.7231C126.842 33.1965 126.599 33.4265 126.125 33.4131C121.252 33.2865 115.995 33.1999 110.355 33.1532C106.615 33.1232 104.455 30.1731 104.605 26.5931C104.765 23.0631 103.905 19.3432 107.455 17.1532C109.435 15.9432 113.155 16.3832 115.545 16.4632C115.799 16.4765 115.925 16.6065 115.925 16.8531L115.945 21.8132C115.945 21.9732 115.862 22.0532 115.695 22.0532L110.795 21.9832C110.475 21.9765 110.315 22.1332 110.315 22.4532V26.9032C110.315 27.3032 110.515 27.5065 110.915 27.5132L120.915 27.6932C120.973 27.6945 121.031 27.6844 121.085 27.6635C121.139 27.6426 121.188 27.6113 121.23 27.5714C121.271 27.5315 121.305 27.4837 121.328 27.4308C121.351 27.3779 121.364 27.321 121.365 27.2632L121.675 7.14319C121.695 5.49652 122.429 5.06648 123.875 5.85315L124.825 6.37317C125.537 6.76372 126.13 7.33824 126.544 8.03662C126.957 8.735 127.175 9.53157 127.175 10.3431L127.155 16.0931C127.155 16.4665 127.342 16.6598 127.715 16.6732C131.105 16.8132 134.905 15.8732 137.175 19.1132C138.895 21.5732 138.105 28.7132 138.045 31.9432C138.005 33.7898 137.245 34.1598 135.765 33.0532C135.412 32.7998 135.012 32.5031 134.565 32.1631C133.889 31.6599 133.345 31.0005 132.98 30.2412C132.614 29.4819 132.438 28.6454 132.465 27.8032L132.625 22.6132C132.632 22.4465 132.552 22.3598 132.385 22.3531L127.295 22.2332C127.135 22.2332 127.055 22.3099 127.055 22.4632Z" fill="white"/>
<path d="M21.5373 8.00438C20.8015 8.99884 20.4101 9.95681 20.6631 10.1441C20.9162 10.3313 21.7179 9.67694 22.4537 8.68248C23.1896 7.68801 23.581 6.73004 23.3279 6.54279C23.0749 6.35554 22.2732 7.00991 21.5373 8.00438Z" fill="#1D213E"/>
<path d="M28.3056 7.17342C39.7956 4.57342 47.2856 12.3434 48.1956 23.1234C48.2756 24.0901 48.1289 24.1234 47.7556 23.2234C44.1256 14.5534 37.0456 8.49345 27.6656 7.70345C27.4122 7.68345 27.2623 7.55009 27.2156 7.30342C27.1823 7.11676 27.2589 7.01008 27.4456 6.98342C27.5989 6.96342 27.7389 7.00007 27.8656 7.0934C27.9282 7.13758 28 7.16761 28.0759 7.18141C28.1519 7.19522 28.2302 7.1925 28.3056 7.17342Z" fill="#EA5238"/>
<path d="M11.6656 7.44341L13.4556 10.7734C13.8023 11.4201 13.6456 11.5801 12.9856 11.2534C11.5589 10.5534 10.9823 9.30676 11.2556 7.51342C11.3223 7.08009 11.4589 7.05675 11.6656 7.44341Z" fill="#EA5238"/>
<path d="M29.0455 9.6427L26.1555 11.7127C25.8355 11.266 25.6588 10.8727 25.6255 10.5327C25.6021 10.3208 25.6315 10.1067 25.7112 9.90893C25.7908 9.7112 25.9182 9.53603 26.0821 9.39874C26.2461 9.26145 26.4416 9.16629 26.6514 9.12164C26.8612 9.07699 27.079 9.08423 27.2855 9.1427L29.0455 9.6427Z" fill="#96A7C4"/>
<path d="M21.1455 17.4726C21.2122 17.6326 21.1922 17.7826 21.0855 17.9226C19.7522 19.6826 18.0589 20.7493 16.0055 21.1226C15.6055 21.1959 15.3689 21.0326 15.2955 20.6326L15.1455 19.8726C15.1272 19.7652 15.1504 19.6552 15.2101 19.5656C15.2698 19.4761 15.3614 19.414 15.4655 19.3926C15.8655 19.306 16.1989 19.1093 16.4655 18.8026C17.6789 17.4093 18.7555 15.8859 19.6955 14.2326C19.8155 14.0193 19.9022 14.0326 19.9555 14.2726C20.0622 14.746 20.4589 15.8126 21.1455 17.4726ZM19.8155 18.0826C19.8551 18.0364 19.889 17.9788 19.9155 17.9126C20.1422 17.4193 20.1155 17.0793 19.8355 16.8926C19.4155 16.6126 19.0722 16.6826 18.8055 17.1026L17.5655 19.0526C17.1922 19.6459 17.3288 19.8059 17.9755 19.5326C18.6755 19.2393 19.2889 18.756 19.8155 18.0826Z" fill="#1D213E"/>
<path d="M33.2755 14.3535C36.0755 15.8602 38.5588 18.9502 40.7255 23.6235C41.4188 30.5769 38.6955 36.0369 32.5555 40.0035C31.6888 40.5635 31.5288 40.4068 32.0755 39.5335C34.5855 35.5435 36.3655 30.9335 34.5855 26.1935C33.8755 24.3035 34.1955 22.5235 34.4355 20.5935C34.7421 20.4335 34.9188 20.4402 34.9655 20.6135C34.9721 20.6535 34.9855 20.6902 35.0055 20.7235C36.1388 22.6702 36.8488 24.7635 37.1355 27.0035C37.1755 27.3302 37.3055 27.6169 37.5255 27.8635C38.2121 28.6169 38.4455 29.4402 38.2255 30.3336C38.1455 30.6669 38.1355 30.6635 38.1955 30.3235C38.3555 29.3702 38.2821 28.4602 37.9755 27.5935C37.0555 25.0235 36.7855 22.5935 35.1955 20.3135C34.2355 18.5602 33.5955 16.5735 33.2755 14.3535Z" fill="#96A7C4"/>
<path d="M73.5354 16.233C74.0221 16.553 74.4254 16.8197 74.7454 17.033C76.2321 18.013 76.9621 19.393 76.9354 21.173L76.7654 32.313C76.7654 32.5197 76.6621 32.6197 76.4554 32.613L71.4454 32.5131C71.4034 32.5118 71.362 32.5022 71.3237 32.4849C71.2854 32.4676 71.2508 32.4429 71.222 32.4123C71.1932 32.3816 71.1708 32.3456 71.1559 32.3063C71.141 32.2669 71.1341 32.2251 71.1354 32.183L71.4054 17.363C71.4321 15.6964 72.1421 15.3197 73.5354 16.233Z" fill="white"/>
<path d="M88.0556 22.3927L87.8656 32.2427C87.8589 32.6427 87.6556 32.8361 87.2556 32.8227L82.8756 32.6927C82.4956 32.6794 82.3089 32.486 82.3156 32.1127L82.5356 16.3827C82.5368 16.314 82.552 16.2462 82.58 16.1834C82.6081 16.1207 82.6486 16.0643 82.699 16.0176C82.7495 15.9709 82.8088 15.9349 82.8735 15.9117C82.9383 15.8885 83.007 15.8787 83.0756 15.8827C86.6023 16.0494 90.1356 16.126 93.6756 16.1127C97.4056 16.0927 99.1956 18.9727 99.1956 22.5927C99.1889 25.666 99.1489 28.586 99.0756 31.3527C99.0289 33.1794 98.2756 33.5427 96.8156 32.4427C96.4023 32.1294 95.9856 31.8161 95.5656 31.5027C94.1189 30.4094 93.4256 28.9561 93.4856 27.1427L93.6556 22.4027C93.6689 21.8961 93.4223 21.6394 92.9156 21.6327L88.8656 21.6027C88.3389 21.6027 88.0689 21.8661 88.0556 22.3927Z" fill="white"/>
<path d="M30.9954 16.0332C31.8854 20.1432 28.7254 21.5332 25.2254 21.8932C24.8854 21.9266 24.6087 22.0733 24.3954 22.3333C23.5421 23.3733 22.7921 24.4666 22.1454 25.6132C21.7054 26.3866 21.0054 26.4566 20.0454 25.8232C20.3721 23.9966 21.1021 22.3799 22.2354 20.9732C22.4354 20.7265 22.6921 20.5732 23.0054 20.5132L24.1354 20.2932C24.1621 20.8065 24.4954 21.0066 25.1354 20.8932C28.9854 20.2032 29.0154 18.2532 30.9954 16.0332Z" fill="#96A7C4"/>
<path d="M19.8156 18.0826C19.2889 18.756 18.6756 19.2392 17.9756 19.5326C17.3289 19.8059 17.1922 19.6459 17.5656 19.0526L18.8056 17.1026C19.0722 16.6826 19.4156 16.6126 19.8356 16.8926C20.1156 17.0793 20.1422 17.4192 19.9156 17.9126C19.8891 17.9788 19.8552 18.0364 19.8156 18.0826Z" fill="#FFBE40"/>
<path d="M24.0354 19.4531C24.1887 19.6331 24.3687 19.6797 24.5754 19.5931C24.4821 19.8397 24.3354 20.0731 24.1354 20.2931L23.0054 20.5131C22.6921 20.5731 22.4354 20.7264 22.2354 20.9731C21.1021 22.3798 20.3721 23.9965 20.0454 25.8231C19.9454 25.7965 19.8387 25.8231 19.7254 25.9031C19.5587 25.4631 19.4854 25.0498 19.5054 24.6631L21.2154 21.3631C21.3141 21.1857 21.4548 21.0347 21.6254 20.9231L24.0354 19.4531Z" fill="#3256AA"/>
<path d="M35.1955 20.3135C36.7855 22.5935 37.0555 25.0234 37.9755 27.5934C38.2822 28.4601 38.3555 29.3702 38.1955 30.3235C38.1355 30.6635 38.1455 30.6668 38.2255 30.3335C38.4455 29.4402 38.2122 28.6168 37.5255 27.8635C37.3055 27.6168 37.1755 27.3301 37.1355 27.0035C36.8489 24.7635 36.1389 22.6701 35.0055 20.7234C34.9855 20.6901 34.9722 20.6535 34.9655 20.6135C34.9189 20.4401 34.7422 20.4334 34.4355 20.5934C34.4889 20.4334 34.7422 20.3401 35.1955 20.3135Z" fill="#3256AA"/>
<path d="M41.7054 37.8933C43.8754 32.6033 43.7954 27.0733 41.9554 21.6433C41.6821 20.8366 41.8221 20.7566 42.3754 21.4033C46.5554 26.2533 46.3554 33.4833 42.2054 38.2033C41.4187 39.0966 41.2521 38.9933 41.7054 37.8933Z" fill="#EA5238"/>
<path d="M19.5054 24.6631C19.4854 25.0498 19.5587 25.4631 19.7254 25.9031L18.0754 26.9031C17.6021 27.1898 17.6354 27.3765 18.1754 27.4631C18.3221 27.4898 18.4687 27.4898 18.6154 27.4631C19.1487 27.3631 19.6454 27.4598 20.1054 27.7531C22.0654 28.9798 22.4221 30.3664 21.1754 31.9131C20.0421 33.3264 18.7987 34.2231 17.4454 34.6031C16.8321 34.7764 16.6854 34.5864 17.0054 34.0331C17.5587 33.0664 18.3554 32.2498 19.3954 31.5831C19.6408 31.4272 19.8383 31.2065 19.9663 30.9454C20.0943 30.6844 20.1478 30.3931 20.121 30.1036C20.0941 29.8142 19.9879 29.5377 19.814 29.3047C19.6401 29.0718 19.4053 28.8912 19.1354 28.7831C18.4154 28.4897 17.8954 28.6664 17.5754 29.3131C17.3821 29.6998 17.2621 30.1431 17.2154 30.6431C16.9221 33.5831 15.3654 35.1865 12.5454 35.4531C13.7121 33.4398 14.3454 31.5497 14.4454 29.7831C14.4648 29.4645 14.5873 29.1565 14.7954 28.9031C16.3754 27.0031 16.3254 25.1531 19.5054 24.6631Z" fill="#96A7C4"/>
<path d="M18.8756 29.5035C18.9919 29.469 19.1156 29.4689 19.232 29.5031C19.3484 29.5373 19.4524 29.6043 19.5316 29.6961C19.6108 29.788 19.6618 29.9008 19.6785 30.021C19.6951 30.1411 19.6768 30.2635 19.6256 30.3735C19.4122 30.8468 19.0256 31.1801 18.4656 31.3735C17.9189 31.5668 17.7022 31.3801 17.8156 30.8135C17.9556 30.1135 18.3089 29.6768 18.8756 29.5035Z" fill="#96A7C4"/>
<path d="M12.7155 30.1534C12.9355 29.7867 13.1122 29.8067 13.2455 30.2134C13.4455 30.8 13.4755 31.38 13.3355 31.9533C13.2222 32.42 12.9255 32.6534 12.4455 32.6534C12.2455 32.6467 12.0688 32.59 11.9155 32.4833C11.6288 32.2833 11.5755 32.0367 11.7555 31.7433L12.7155 30.1534Z" fill="#1D213E"/>
<path d="M61.0455 39.3032C61.7255 39.5498 62.0689 40.1632 62.0755 41.1432C62.0822 41.6299 61.8389 41.8698 61.3455 41.8632L60.3355 41.8432C60.2357 41.8419 60.1371 41.8209 60.0454 41.7815C59.9537 41.7421 59.8707 41.685 59.801 41.6135C59.7314 41.542 59.6765 41.4575 59.6395 41.3648C59.6026 41.2721 59.5842 41.173 59.5855 41.0732L59.6355 38.6032C59.6422 38.1298 59.8789 37.8365 60.3455 37.7232C60.8789 37.6032 61.4122 37.5932 61.9455 37.6932C61.9971 37.7033 62.046 37.7243 62.0888 37.7547C62.1317 37.7852 62.1676 37.8245 62.1941 37.8699C62.2206 37.9153 62.2371 37.9658 62.2425 38.0181C62.2479 38.0704 62.2421 38.1233 62.2255 38.1732L62.0855 38.5932C62.0188 38.7932 61.8822 38.8765 61.6755 38.8432C61.4622 38.8098 61.2555 38.8265 61.0555 38.8932C60.6555 39.0265 60.6522 39.1632 61.0455 39.3032Z" fill="#96A7C4"/>
<path d="M71.0856 41.563L70.6356 41.683C69.5622 41.963 69.3889 41.6829 70.1156 40.8429C70.5622 40.3229 70.5689 39.6996 70.1356 38.973C69.4289 37.7863 69.6256 37.6063 70.7256 38.433C71.1722 38.7663 71.6289 38.7963 72.0956 38.523C73.4356 37.7297 73.5989 37.9263 72.5856 39.113C71.9922 39.7996 72.0589 40.4263 72.7856 40.993C72.9989 41.1596 73.1056 41.393 73.1056 41.693C73.1056 41.7997 73.0456 41.8897 72.9256 41.963C72.8722 41.9963 72.8122 42.0096 72.7456 42.003C72.4589 41.963 72.1856 41.8597 71.9256 41.693C71.6656 41.5263 71.3856 41.483 71.0856 41.563Z" fill="#96A7C4"/>
<path d="M81.4254 39.323C80.9854 39.8496 80.9821 40.4429 81.4155 41.1029C81.5888 41.3696 81.8321 41.4963 82.1454 41.4829L82.8654 41.463C83.1454 41.4496 83.2921 41.5863 83.3055 41.8729C83.3055 41.9796 83.2688 42.0763 83.1954 42.1629C83.1088 42.2763 82.9955 42.3463 82.8555 42.3729C81.8288 42.5729 80.9988 42.2063 80.3654 41.273C80.1847 41.0071 80.0808 40.6966 80.0649 40.3756C80.049 40.0545 80.1219 39.7353 80.2755 39.453C80.9955 38.133 81.8355 37.7296 82.7955 38.2429C83.7821 38.7696 83.7188 39.0263 82.6055 39.013C82.5588 39.013 82.3988 39.0096 82.1255 39.0029C81.8388 38.9963 81.6054 39.103 81.4254 39.323Z" fill="#96A7C4"/>
<path d="M93.1155 40.633L92.6755 40.703C92.3955 40.743 92.2455 40.9064 92.2255 41.193C92.1988 41.633 91.9922 41.9397 91.6055 42.113C91.1388 42.3264 90.9022 42.1731 90.8955 41.6531V38.703C90.8977 38.6013 90.9351 38.5034 91.0014 38.4261C91.0677 38.3488 91.1587 38.2969 91.2589 38.2792C91.3592 38.2615 91.4625 38.2791 91.5512 38.329C91.64 38.379 91.7086 38.4581 91.7455 38.553C91.9122 39.013 92.2088 39.373 92.6355 39.633C93.1355 39.933 93.4422 39.7963 93.5555 39.223C93.5822 39.0763 93.6522 38.943 93.7655 38.823C94.0522 38.5364 94.2355 38.5897 94.3155 38.983C94.5022 39.903 94.5122 40.883 94.3455 41.923C94.2655 42.3964 94.0755 42.4464 93.7755 42.073C93.5622 41.7997 93.4988 41.4931 93.5855 41.1531C93.6922 40.7397 93.5355 40.5664 93.1155 40.633Z" fill="#96A7C4"/>
<path d="M103.506 40.0828C103.759 41.0895 103.399 41.7861 102.426 42.1728C101.912 42.3794 101.776 42.2294 102.016 41.7228L103.356 38.9028C103.4 38.8148 103.468 38.7414 103.553 38.6915C103.638 38.6416 103.735 38.6173 103.834 38.6216C103.932 38.6258 104.027 38.6584 104.107 38.7154C104.187 38.7724 104.249 38.8514 104.286 38.9428L105.396 41.8828C105.569 42.3428 105.432 42.4661 104.986 42.2528C104.146 41.8528 103.836 41.1994 104.056 40.2928C104.096 40.0994 104.019 39.9961 103.826 39.9828C103.732 39.9694 103.642 39.9761 103.556 40.0028C103.546 40.0054 103.538 40.0096 103.53 40.0151C103.523 40.0206 103.517 40.0273 103.512 40.0348C103.507 40.0423 103.504 40.0504 103.503 40.0586C103.502 40.0669 103.503 40.0751 103.506 40.0828Z" fill="#1872E2"/>
<path d="M115.786 39.7932C115.719 39.5732 115.752 39.3532 115.886 39.1332C116.006 38.9332 116.176 38.8699 116.396 38.9432C116.489 38.9766 116.562 39.0332 116.616 39.1132C116.736 39.2932 116.766 39.4866 116.706 39.6932C116.486 40.4532 116.449 41.2466 116.596 42.0733C116.676 42.4933 116.506 42.6599 116.086 42.5733C115.779 42.5133 115.542 42.3432 115.376 42.0632C114.909 41.2766 114.482 41.3033 114.096 42.1433C114.049 42.2499 113.976 42.3399 113.876 42.4132C113.409 42.7399 113.159 42.6166 113.126 42.0432C113.086 41.2499 113.049 40.3966 113.016 39.4832C113.002 39.2099 113.099 38.9933 113.306 38.8333C113.426 38.7466 113.572 38.7366 113.746 38.8032C114.066 38.9432 114.279 39.1766 114.386 39.5032C114.572 40.0432 114.952 40.2732 115.526 40.1932C115.772 40.1599 115.859 40.0266 115.786 39.7932Z" fill="#96A7C4"/>
<path d="M126.675 41.6928C126.662 41.3462 126.789 41.0795 127.056 40.8928C127.124 40.8445 127.205 40.8154 127.288 40.8086C127.372 40.8019 127.456 40.8177 127.532 40.8545C127.607 40.8912 127.672 40.9475 127.718 41.0176C127.764 41.0877 127.791 41.1689 127.796 41.2528C127.862 42.3995 127.199 42.9095 125.806 42.7828C125.51 42.7552 125.227 42.6511 124.985 42.4809C124.743 42.3107 124.55 42.0804 124.425 41.8128C123.715 40.2928 125.296 38.2828 126.986 38.9928C127.043 39.0061 127.092 39.0414 127.123 39.0911C127.154 39.1408 127.164 39.2008 127.151 39.2578C127.137 39.3149 127.102 39.3643 127.052 39.3952C127.002 39.4262 126.943 39.4361 126.886 39.4228L126.456 39.3928C126.266 39.3806 126.076 39.4068 125.897 39.4699C125.717 39.533 125.553 39.6316 125.414 39.7598C125.274 39.888 125.163 40.043 125.086 40.2155C125.009 40.3879 124.968 40.5741 124.966 40.7628C124.952 41.6628 125.286 42.1761 125.966 42.3028C126.466 42.4028 126.702 42.1995 126.675 41.6928Z" fill="#1872E2"/>
<path d="M136.775 40.1627C136.882 40.3761 137.042 40.5627 137.255 40.7227C137.629 41.0027 137.622 41.2661 137.235 41.5128C136.822 41.7794 136.659 42.1361 136.745 42.5828C136.753 42.6238 136.77 42.6628 136.794 42.697C136.818 42.7313 136.849 42.7602 136.885 42.7819C136.92 42.8035 136.96 42.8175 137.002 42.8228C137.043 42.8281 137.085 42.8247 137.125 42.8128C137.285 42.7594 137.399 42.8095 137.465 42.9628C137.525 43.1095 137.482 43.2161 137.335 43.2827C136.842 43.4827 136.365 43.4494 135.905 43.1828C135.552 42.9761 135.365 42.6661 135.345 42.2528C135.312 41.3328 135.369 40.4328 135.515 39.5528C135.589 39.0928 135.855 38.8294 136.315 38.7628C136.675 38.7161 137.019 38.7361 137.345 38.8228C137.413 38.8403 137.476 38.8742 137.528 38.9215C137.58 38.9688 137.619 39.0281 137.643 39.0941C137.667 39.1602 137.674 39.2311 137.664 39.3006C137.654 39.3701 137.627 39.4361 137.585 39.4928C137.465 39.6528 137.305 39.7194 137.105 39.6928C136.712 39.6461 136.602 39.8027 136.775 40.1627Z" fill="#96A7C4"/>
</svg>
