<svg width="112" height="61" viewBox="0 0 112 61" fill="none" xmlns="http://www.w3.org/2000/svg">
<path d="M109.978 0.932842L100.338 1.03379C99.9571 1.03778 99.6514 1.34992 99.6554 1.73098L99.7562 11.3504C99.7601 11.7315 100.072 12.0372 100.453 12.0332L110.093 11.9322C110.474 11.9282 110.78 11.6161 110.776 11.2351L110.675 1.61558C110.671 1.23452 110.359 0.928852 109.978 0.932842Z" fill="white"/>
<path d="M88.046 1.24451L78.226 1.26165C77.8946 1.26223 77.6264 1.53132 77.627 1.86269L77.6441 11.6427C77.6447 11.974 77.9138 12.2422 78.2451 12.2416L88.0651 12.2245C88.3965 12.2239 88.6647 11.9548 88.6641 11.6234L88.647 1.84346C88.6464 1.51209 88.3773 1.24393 88.046 1.24451Z" fill="white"/>
<path d="M71.2785 1.36896L61.7597 1.51849C61.3455 1.525 61.015 1.86602 61.0215 2.28018L61.1708 11.779C61.1773 12.1932 61.5183 12.5236 61.9325 12.5171L71.4513 12.3676C71.8654 12.3611 72.1959 12.0201 72.1894 11.6059L72.0402 2.10709C72.0337 1.69292 71.6927 1.36245 71.2785 1.36896Z" fill="white"/>
<path d="M50.7454 12.6626L60.4754 12.5127C60.5568 12.5113 60.6377 12.526 60.7135 12.556C60.7892 12.5859 60.8583 12.6305 60.9168 12.6872C60.9753 12.7438 61.0221 12.8114 61.0544 12.8861C61.0868 12.9609 61.1041 13.0412 61.1054 13.1226L61.2854 22.8526C61.2867 22.934 61.272 23.0149 61.2421 23.0907C61.2121 23.1664 61.1676 23.2355 61.1109 23.294C61.0543 23.3525 60.9867 23.3993 60.9119 23.4317C60.8372 23.464 60.7568 23.4813 60.6754 23.4826L50.8554 23.6427C50.774 23.644 50.6936 23.6613 50.6189 23.6936C50.5442 23.726 50.4766 23.7728 50.4199 23.8313C50.3633 23.8898 50.3187 23.9589 50.2888 24.0346C50.2588 24.1104 50.2441 24.1912 50.2454 24.2727L50.4154 33.9726C50.4167 34.054 50.402 34.1349 50.3721 34.2107C50.3421 34.2864 50.2976 34.3555 50.2409 34.414C50.1843 34.4725 50.1167 34.5193 50.0419 34.5517C49.9672 34.584 49.8868 34.6013 49.8054 34.6026L39.9554 34.7027C39.874 34.704 39.7931 34.6893 39.7174 34.6593C39.6417 34.6294 39.5726 34.5848 39.5141 34.5282C39.4556 34.4715 39.4088 34.4039 39.3764 34.3292C39.3441 34.2545 39.3267 34.174 39.3254 34.0926L38.9754 2.41262C38.9741 2.3312 38.9888 2.25031 39.0188 2.17458C39.0487 2.09885 39.0933 2.02978 39.1499 1.97127C39.2066 1.91277 39.2742 1.86601 39.3489 1.83364C39.4236 1.80127 39.504 1.78392 39.5854 1.78261L49.3954 1.64266C49.4768 1.64134 49.5577 1.65605 49.6335 1.686C49.7092 1.71594 49.7783 1.76051 49.8368 1.81716C49.8953 1.87381 49.9421 1.94141 49.9744 2.01613C50.0068 2.09086 50.0241 2.17122 50.0254 2.25265L50.1154 12.0526C50.1167 12.1341 50.1341 12.2144 50.1664 12.2891C50.1988 12.3639 50.2456 12.4315 50.3041 12.4881C50.3626 12.5448 50.4317 12.5893 50.5074 12.6193C50.5831 12.6492 50.664 12.6639 50.7454 12.6626Z" fill="white"/>
<path d="M33.8374 34.1498C33.8385 34.2404 33.8217 34.3303 33.7881 34.4144C33.7544 34.4986 33.7045 34.5753 33.6413 34.6401C33.578 34.705 33.5025 34.7567 33.4193 34.7924C33.336 34.8281 33.2465 34.847 33.1559 34.8481L1.43827 35.2356C1.34766 35.2368 1.25772 35.22 1.17359 35.1864C1.08946 35.1527 1.01277 35.1028 0.94792 35.0395C0.883068 34.9763 0.83132 34.9008 0.795622 34.8176C0.759924 34.7343 0.740976 34.6448 0.739867 34.5542L0.353567 2.93658C0.352457 2.84597 0.369205 2.756 0.402853 2.67187C0.436501 2.58773 0.48639 2.51107 0.549673 2.44622C0.612957 2.38137 0.688389 2.32963 0.771673 2.29394C0.854958 2.25824 0.944457 2.23926 1.03506 2.23815L32.7527 1.85064C32.8433 1.84953 32.9332 1.86631 33.0173 1.89995C33.1015 1.9336 33.1782 1.98346 33.243 2.04674C33.3079 2.11003 33.3596 2.18551 33.3953 2.26879C33.431 2.35207 33.45 2.44155 33.4511 2.53216L33.8374 34.1498ZM22.5497 13.6772C22.5467 13.4862 22.4679 13.3043 22.3308 13.1714C22.1937 13.0386 22.0094 12.9656 21.8185 12.9686L12.2397 13.1191C12.0487 13.1221 11.8668 13.2008 11.7339 13.3379C11.601 13.475 11.5281 13.6593 11.5311 13.8503L11.6813 23.4092C11.6843 23.6001 11.763 23.782 11.9001 23.9149C12.0372 24.0478 12.2215 24.1208 12.4125 24.1178L21.9913 23.9673C22.1822 23.9643 22.3641 23.8855 22.497 23.7484C22.6299 23.6113 22.7029 23.427 22.6999 23.2361L22.5497 13.6772Z" fill="white"/>
<path d="M98.9174 12.0823L89.6378 12.1633C89.1573 12.1675 88.7712 12.5604 88.7754 13.0409L88.8562 22.3005C88.8604 22.781 89.2533 23.1671 89.7338 23.1629L99.0134 23.0819C99.4939 23.0777 99.88 22.6848 99.8758 22.2043L99.795 12.9447C99.7908 12.4642 99.3979 12.0781 98.9174 12.0823Z" fill="white"/>
<path d="M110.207 22.9399L100.667 23.0065C100.253 23.0094 99.9196 23.3475 99.9225 23.7617L99.9887 33.2415C99.9915 33.6557 100.33 33.9891 100.744 33.9862L110.284 33.9196C110.698 33.9167 111.031 33.5786 111.028 33.1644L110.962 23.6846C110.959 23.2704 110.621 22.937 110.207 22.9399Z" fill="white"/>
<path d="M88.1969 23.2091L78.5572 23.2764C78.1706 23.2791 77.8594 23.5946 77.8621 23.9812L77.9291 33.581C77.9318 33.9676 78.2474 34.2788 78.634 34.2761L88.2737 34.2088C88.6603 34.2061 88.9715 33.8905 88.9688 33.5039L88.9018 23.9042C88.8991 23.5176 88.5835 23.2064 88.1969 23.2091Z" fill="white"/>
<path d="M71.5078 23.3842L62.1083 23.4826C61.6554 23.4874 61.2922 23.8583 61.2969 24.3112L61.3949 33.6707C61.3997 34.1235 61.7706 34.4868 62.2235 34.482L71.623 34.3836C72.0758 34.3788 72.4391 34.0079 72.4343 33.555L72.3363 24.1956C72.3316 23.7427 71.9606 23.3794 71.5078 23.3842Z" fill="white"/>
<path d="M80.9512 44.4074L78.3514 44.4392C78.1194 44.442 77.9337 44.6324 77.9365 44.8643L78.1147 59.4432C78.1175 59.6752 78.3078 59.8609 78.5398 59.8581L81.1396 59.8263C81.3715 59.8235 81.5572 59.6331 81.5544 59.4012L81.3763 44.8223C81.3734 44.5903 81.1831 44.4046 80.9512 44.4074Z" fill="white"/>
<path d="M88.0114 44.2971L85.2516 44.3308C85.0638 44.3331 84.9135 44.4872 84.9158 44.6749L85.0954 59.3738C85.0977 59.5616 85.2517 59.712 85.4395 59.7097L88.1993 59.6759C88.387 59.6736 88.5374 59.5196 88.5351 59.3318L88.3555 44.6329C88.3532 44.4451 88.1992 44.2948 88.0114 44.2971Z" fill="white"/>
<path d="M57.6256 53.6234L59.5656 45.3334C59.6722 44.8734 59.9622 44.6334 60.4356 44.6134L62.6656 44.5134C62.7471 44.5092 62.8286 44.5243 62.9032 44.5574C62.9779 44.5905 63.0437 44.6408 63.0953 44.7041C63.1469 44.7674 63.1829 44.842 63.2003 44.9218C63.2177 45.0016 63.2161 45.0843 63.1956 45.1633L59.6456 59.3334C59.5189 59.8334 59.1956 60.0834 58.6756 60.0834L56.6256 60.0734C56.1323 60.0734 55.8256 59.8333 55.7056 59.3533L53.6756 51.6134C53.4089 50.5867 53.1523 50.59 52.9056 51.6234L51.0456 59.4834C51.0002 59.6799 50.8895 59.8553 50.7314 59.9807C50.5733 60.106 50.3773 60.174 50.1756 60.1734L47.9356 60.1633C47.5822 60.1633 47.3589 59.9934 47.2656 59.6534L43.1156 45.1534C43.0556 44.9267 43.1423 44.8134 43.3756 44.8134L46.3056 44.8334C46.6189 44.8401 46.8156 44.9933 46.8956 45.2933L49.1356 53.5933C49.3556 54.4067 49.5556 54.4034 49.7356 53.5834L51.5656 45.3934C51.6522 45.0067 51.8922 44.7767 52.2856 44.7034C52.9789 44.5834 53.6422 44.59 54.2756 44.7233C54.6022 44.79 54.8089 44.9867 54.8956 45.3134L57.0956 53.6334C57.2823 54.3467 57.4589 54.3434 57.6256 53.6234Z" fill="white"/>
<path d="M109.585 50.9732C109.225 50.8665 109.049 50.9999 109.055 51.3732L109.135 55.9432C109.138 56.0378 109.159 56.1309 109.198 56.2173C109.236 56.3037 109.292 56.3816 109.36 56.4466C109.429 56.5116 109.51 56.5624 109.598 56.5961C109.687 56.6299 109.781 56.6459 109.875 56.6432C110.222 56.6299 110.559 56.6132 110.885 56.5932C111.325 56.5599 111.542 56.7666 111.535 57.2133C111.535 57.2533 111.529 57.7599 111.515 58.7332C111.509 59.1665 111.289 59.4199 110.855 59.4932C104.705 60.4632 105.465 55.9132 105.685 51.8432C105.712 51.4365 105.525 51.1865 105.125 51.0932L104.625 50.9832C104.292 50.9099 104.125 50.7032 104.125 50.3632L104.135 48.8432C104.135 48.4699 104.319 48.2466 104.685 48.1732C104.819 48.1466 104.952 48.1466 105.085 48.1732C105.525 48.2399 105.722 48.0532 105.675 47.6132L105.485 45.8333C105.432 45.3266 105.662 45.0732 106.175 45.0732H108.395C108.775 45.0732 108.962 45.2599 108.955 45.6332L108.905 47.6432C108.899 47.9899 109.069 48.1566 109.415 48.1432L110.425 48.1232C110.965 48.1032 111.239 48.3665 111.245 48.9132L111.255 50.2532C111.255 50.6066 111.089 50.8433 110.755 50.9633C110.369 51.0899 109.979 51.0932 109.585 50.9732Z" fill="white"/>
<path d="M94.9454 55.6032C95.4787 56.6699 96.3087 57.1899 97.4354 57.1632C97.9221 57.1565 98.3354 56.9799 98.6754 56.6332C99.5221 55.7599 100.555 55.6632 101.775 56.3432C102.135 56.5432 102.212 56.8232 102.005 57.1832C99.5854 61.3332 93.5254 60.4832 91.8554 56.1632C88.5054 47.4732 102.615 44.2632 102.435 54.0732C102.429 54.4599 102.232 54.6532 101.845 54.6532L95.5454 54.6432C94.8254 54.6366 94.6254 54.9565 94.9454 55.6032ZM95.1854 52.8032L98.7154 52.5432C98.7377 52.5419 98.7596 52.5363 98.7797 52.5265C98.7999 52.5168 98.8179 52.5032 98.8328 52.4864C98.8476 52.4697 98.8591 52.4502 98.8664 52.4291C98.8737 52.4079 98.8768 52.3855 98.8754 52.3632L98.8654 52.2932C98.8495 52.0623 98.7867 51.837 98.6805 51.6301C98.5744 51.4232 98.427 51.2388 98.2468 51.0874C98.0666 50.936 97.8571 50.8206 97.6304 50.7478C97.4037 50.675 97.1641 50.6462 96.9254 50.6632L96.6854 50.6832C96.4466 50.7003 96.2133 50.7627 95.9991 50.867C95.7848 50.9713 95.5937 51.1153 95.4367 51.2909C95.2797 51.4664 95.1599 51.6701 95.0842 51.8901C95.0084 52.1102 94.9783 52.3423 94.9954 52.5732L95.0054 52.6432C95.0067 52.6656 95.0123 52.6874 95.0221 52.7076C95.0318 52.7277 95.0455 52.7457 95.0622 52.7606C95.0789 52.7755 95.0984 52.7869 95.1195 52.7942C95.1407 52.8015 95.1631 52.8046 95.1854 52.8032Z" fill="white"/>
<path d="M71.0055 59.2429C69.0755 60.5529 65.2155 60.6229 64.2955 57.9329C62.8555 53.7829 67.7755 53.2029 70.3455 52.8329C70.4713 52.8164 70.5896 52.764 70.6863 52.6821C70.7831 52.6001 70.8542 52.492 70.8911 52.3707C70.928 52.2494 70.9292 52.12 70.8945 51.998C70.8598 51.8761 70.7908 51.7667 70.6955 51.6829C69.8689 50.9496 69.0755 50.9196 68.3155 51.5929C67.6555 52.1796 66.8855 52.4429 66.0055 52.3829L65.4655 52.3429C64.2789 52.2562 64.0522 51.7429 64.7855 50.8029C66.6789 48.3629 69.1655 47.7329 72.2455 48.9129C75.0255 49.9729 74.4255 53.9329 74.3755 56.2529C74.3689 56.6996 74.5189 57.0862 74.8255 57.4129C75.2922 57.9196 75.4589 58.5062 75.3255 59.1729C75.2589 59.5396 75.0455 59.7729 74.6855 59.8729C73.5655 60.1863 72.5622 59.9829 71.6755 59.2629C71.5787 59.1899 71.4621 59.1487 71.3419 59.1451C71.2217 59.1415 71.1041 59.1757 71.0055 59.2429ZM68.6555 55.3929C68.2489 55.4396 67.9189 55.6329 67.6655 55.9729C67.5592 56.1136 67.4915 56.2797 67.4692 56.4546C67.447 56.6296 67.4709 56.8073 67.5387 56.9701C67.6064 57.1329 67.7157 57.2752 67.8555 57.3827C67.9953 57.4902 68.1608 57.5593 68.3355 57.5829C69.8555 57.7963 70.7722 57.1796 71.0855 55.7329C71.1722 55.3396 71.0155 55.1229 70.6155 55.0829C69.9455 55.0229 69.3055 55.3129 68.6555 55.3929Z" fill="white"/>
<path d="M35.3669 52.3556L1.46819 52.6515C1.16445 52.6541 0.920362 52.9025 0.923012 53.2062L0.92947 53.9462C0.932121 54.2499 1.1805 54.494 1.48425 54.4914L35.383 54.1956C35.6867 54.1929 35.9308 53.9445 35.9281 53.6408L35.9217 52.9008C35.919 52.5971 35.6706 52.353 35.3669 52.3556Z" fill="white"/>
</svg>
