<svg width="178" height="30" viewBox="0 0 178 30" fill="none" xmlns="http://www.w3.org/2000/svg">
<path d="M111.469 0.454097L111.429 0.454585C111.186 0.457554 110.991 0.656941 110.994 0.899928L111.336 28.8978C111.339 29.1408 111.539 29.3354 111.782 29.3324L111.822 29.3319C112.065 29.329 112.259 29.1296 112.256 28.8866L111.914 0.888688C111.911 0.645701 111.712 0.451128 111.469 0.454097Z" fill="white"/>
<path d="M52.5654 8.85327C58.5454 7.23327 62.4454 10.4033 62.0354 16.5733C61.6054 23.0433 54.5454 23.9533 49.4254 22.3033C49.072 22.19 48.892 21.95 48.8854 21.5833L48.6254 2.12329C48.6187 1.61662 48.872 1.36328 49.3854 1.36328L51.1354 1.3833C51.622 1.3833 51.8687 1.62996 51.8754 2.12329V8.3233C51.8754 8.79664 52.1054 8.97327 52.5654 8.85327ZM51.8754 12.5333L51.8954 19.0133C51.8954 19.1796 51.9283 19.3443 51.9922 19.4978C52.0562 19.6513 52.1499 19.7906 52.268 19.9078C52.386 20.0249 52.5261 20.1175 52.6801 20.1802C52.8341 20.243 52.9991 20.2746 53.1654 20.2733L54.7254 20.2633C55.8535 20.2581 56.9335 19.7971 57.7284 18.9816C58.5233 18.1661 58.9681 17.0626 58.9654 15.9133V15.5933C58.964 15.0225 58.8522 14.4576 58.6362 13.9309C58.4203 13.4042 58.1045 12.9261 57.7069 12.5239C57.3094 12.1217 56.8378 11.8033 56.3193 11.587C55.8009 11.3707 55.2456 11.2607 54.6854 11.2633L53.1254 11.2733C52.7929 11.276 52.475 11.4099 52.2409 11.6459C52.0067 11.8819 51.8754 12.2008 51.8754 12.5333Z" fill="#1755F4"/>
<path d="M29.5856 6.56274C30.6239 6.56274 31.4656 5.72103 31.4656 4.68274C31.4656 3.64444 30.6239 2.80273 29.5856 2.80273C28.5473 2.80273 27.7056 3.64444 27.7056 4.68274C27.7056 5.72103 28.5473 6.56274 29.5856 6.56274Z" fill="#1755F4"/>
<path d="M152.472 5.82184L152.112 5.82561C151.824 5.82862 151.594 6.06385 151.597 6.35103L151.754 21.3502C151.757 21.6374 151.992 21.8677 152.279 21.8647L152.639 21.861C152.927 21.858 153.157 21.6227 153.154 21.3355L152.997 6.33637C152.994 6.04919 152.759 5.81883 152.472 5.82184Z" fill="white"/>
<path d="M157.462 5.88071L156.922 5.88637C156.646 5.88926 156.424 6.11545 156.427 6.39157L156.584 21.3308C156.587 21.6069 156.813 21.8284 157.089 21.8255L157.629 21.8198C157.905 21.8169 158.127 21.5908 158.124 21.3146L157.967 6.37545C157.964 6.09932 157.738 5.87782 157.462 5.88071Z" fill="white"/>
<path d="M71.0955 13.7134C71.5555 10.2134 66.9955 10.8234 65.1655 11.7634C64.7321 11.99 64.4855 11.86 64.4255 11.3733L64.2855 10.2034C64.2255 9.72336 64.4155 9.38334 64.8555 9.18334C68.2455 7.65334 73.7855 7.42333 74.1155 12.4233C74.2955 15.11 74.3521 18.15 74.2855 21.5433C74.2788 21.9633 74.0721 22.2267 73.6655 22.3334C70.6355 23.1434 62.5855 23.6434 63.1455 18.5034C63.5855 14.5534 67.1955 14.4333 70.4455 14.2933C70.8255 14.28 71.0422 14.0867 71.0955 13.7134ZM71.1755 19.8234L71.1055 16.9233C71.1003 16.7792 71.0386 16.643 70.9339 16.5438C70.8292 16.4447 70.6897 16.3906 70.5455 16.3934L69.5855 16.4133C68.7087 16.4354 67.8728 16.6499 67.2616 17.0099C66.6504 17.3699 66.3137 17.8459 66.3255 18.3334V18.6534C66.331 18.8954 66.4224 19.1328 66.5944 19.3524C66.7663 19.5719 67.0155 19.769 67.3276 19.9325C67.6398 20.096 68.0087 20.2227 68.4133 20.3052C68.8179 20.3877 69.2502 20.4244 69.6855 20.4133L70.6455 20.3834C70.7896 20.3781 70.9259 20.3165 71.025 20.2118C71.1242 20.107 71.1782 19.9675 71.1755 19.8234Z" fill="#1755F4"/>
<path d="M81.3655 17.0131C80.1055 16.4231 78.9755 16.323 77.6655 15.593C75.9755 14.653 75.8955 11.9231 76.6455 10.4831C78.0755 7.75305 81.9755 7.82308 84.3955 8.69308C84.9289 8.88641 85.2089 9.26642 85.2356 9.83309L85.3055 11.1131C85.3112 11.2242 85.2864 11.3348 85.2338 11.4328C85.1811 11.5309 85.1026 11.6126 85.0069 11.6693C84.9111 11.7259 84.8016 11.7553 84.6903 11.7542C84.5791 11.7531 84.4702 11.7216 84.3756 11.663C82.6289 10.5897 81.1756 10.3997 80.0156 11.093C79.0022 11.7064 78.9422 12.3997 79.8355 13.1731C82.2155 15.2531 87.1255 14.2731 85.8855 19.5831C84.9655 23.4731 79.9055 23.2331 77.1355 21.9831C76.7889 21.8297 76.6055 21.5631 76.5855 21.1831L76.4856 19.4431C76.4589 18.9497 76.6556 18.833 77.0756 19.093C78.8156 20.1797 80.2555 20.5231 81.3955 20.1231C83.8889 19.2364 83.8789 18.1997 81.3655 17.0131Z" fill="#1755F4"/>
<path d="M90.4955 16.9229C91.7255 20.6429 95.9155 20.433 98.8755 18.953C99.3621 18.7063 99.6021 18.8563 99.5955 19.403L99.5755 20.633C99.5688 21.2063 99.2988 21.603 98.7655 21.823C93.0655 24.163 86.7555 21.6329 87.3655 14.5329C87.7355 10.1629 91.0355 7.48295 95.3255 8.18295C98.6388 8.72295 100.169 11.123 99.9155 15.383C99.8821 15.8696 99.6221 16.1129 99.1355 16.1129L91.0755 16.1229C90.5155 16.1229 90.3221 16.3896 90.4955 16.9229ZM90.6855 14.193L96.8955 13.9929C96.92 13.993 96.9442 13.988 96.9667 13.9784C96.9893 13.9687 97.0096 13.9545 97.0264 13.9367C97.0433 13.9189 97.0563 13.8979 97.0647 13.8749C97.0732 13.8519 97.0768 13.8274 97.0755 13.8029L97.0655 13.7229C97.0376 12.9124 96.6786 12.1464 96.0673 11.5933C95.4561 11.0401 94.6425 10.7451 93.8055 10.773L93.5555 10.7829C92.7178 10.8099 91.9249 11.158 91.351 11.7506C90.7772 12.3432 90.4694 13.1318 90.4955 13.943V14.023C90.4967 14.0466 90.5027 14.0697 90.5129 14.0911C90.5232 14.1124 90.5375 14.1316 90.5552 14.1474C90.5728 14.1632 90.5934 14.1753 90.6158 14.1831C90.6381 14.1909 90.6618 14.1943 90.6855 14.193Z" fill="#1755F4"/>
<path d="M126.765 18.8433C127.099 20.1433 127.415 20.14 127.715 18.8334L130.025 8.82335C130.132 8.35002 130.425 8.08336 130.905 8.02336C131.685 7.91003 132.169 8.24664 132.355 9.03331C133.222 12.6866 134.062 16.1 134.875 19.2734C135.115 20.1867 135.349 20.1834 135.575 19.2634L138.235 8.58336C138.329 8.22336 138.562 8.05001 138.935 8.06334L139.305 8.08336C139.619 8.09669 139.735 8.25333 139.655 8.55333L136.325 21.4333C136.225 21.8333 135.965 22.06 135.545 22.1133C134.665 22.2133 133.925 21.7334 133.735 20.8234C133.102 17.69 132.335 14.5533 131.435 11.4133C131.149 10.4066 130.895 10.4133 130.675 11.4333C130.002 14.5267 129.272 17.79 128.485 21.2233C128.392 21.63 128.162 21.93 127.795 22.1233C127.395 22.33 126.982 22.2967 126.555 22.0234C126.255 21.83 126.059 21.56 125.965 21.2134C124.779 16.9534 123.652 12.7867 122.585 8.71337C122.571 8.65527 122.569 8.59463 122.581 8.53575C122.593 8.47688 122.618 8.42116 122.654 8.37254C122.691 8.32393 122.737 8.28362 122.791 8.25438C122.845 8.22514 122.904 8.20773 122.965 8.20336L123.245 8.19335C123.463 8.18216 123.678 8.24683 123.853 8.37633C124.028 8.50583 124.152 8.69214 124.205 8.90337L126.765 18.8433Z" fill="white"/>
<path d="M37.1055 13.103L37.1855 22.083C37.1922 22.5963 36.9389 22.8563 36.4255 22.863H34.8355C34.3022 22.863 34.0355 22.5963 34.0355 22.063L33.9255 10.333C33.9263 10.1638 33.9787 9.99947 34.0756 9.86315C34.1724 9.72683 34.3088 9.62537 34.4655 9.57299C38.5755 8.19299 46.4055 6.90297 46.1855 13.863C46.0989 16.723 46.1155 19.4797 46.2355 22.133C46.2382 22.2082 46.2257 22.2832 46.1988 22.3534C46.1719 22.4237 46.131 22.4878 46.0788 22.5419C46.0265 22.5961 45.9638 22.6391 45.8946 22.6685C45.8253 22.6979 45.7508 22.7131 45.6755 22.713H43.6955C43.3422 22.7063 43.1622 22.5263 43.1555 22.173L43.0955 13.683C43.0889 12.3496 42.4222 11.6297 41.0955 11.523C40.3022 11.463 39.5989 11.4063 38.9855 11.353C37.7189 11.253 37.0922 11.8363 37.1055 13.103Z" fill="#1755F4"/>
<path d="M26.3155 15.9831C26.3155 17.9245 25.5443 19.7864 24.1716 21.1591C22.7988 22.5319 20.9369 23.3031 18.9955 23.3031C17.0542 23.3031 15.1923 22.5319 13.8195 21.1591C12.4467 19.7864 11.6755 17.9245 11.6755 15.9831C11.6755 15.0218 11.8649 14.07 12.2327 13.1819C12.6006 12.2938 13.1398 11.4868 13.8195 10.8071C14.4992 10.1273 15.3062 9.5882 16.1943 9.22034C17.0824 8.85247 18.0343 8.66309 18.9955 8.66309C19.9568 8.66309 20.9087 8.85247 21.7968 9.22034C22.6849 9.5882 23.4918 10.1273 24.1716 10.8071C24.8513 11.4868 25.3905 12.2938 25.7583 13.1819C26.1262 14.07 26.3155 15.0218 26.3155 15.9831ZM18.784 20.5787C19.8598 20.6257 20.9127 20.1844 21.7111 19.3521C22.5096 18.5197 22.9882 17.3643 23.0416 16.1402C23.0951 14.9161 22.719 13.7235 21.9961 12.8246C21.2732 11.9258 20.2628 11.3945 19.187 11.3475C18.1113 11.3006 17.0584 11.7418 16.2599 12.5742C15.4615 13.4065 14.9829 14.5619 14.9294 15.786C14.876 17.0101 15.2521 18.2028 15.9749 19.1016C16.6978 20.0004 17.7083 20.5318 18.784 20.5787Z" fill="#1755F4"/>
<path d="M9.46556 11.7734C1.55556 9.79341 2.05555 22.2834 9.47555 20.4434C10.0889 20.2901 10.5822 20.4667 10.9556 20.9734L11.4356 21.6134C11.8356 22.16 11.7222 22.5567 11.0956 22.8034C5.93555 24.8234 0.315555 21.8434 0.535555 15.9034C0.745555 10.3934 5.93556 7.38336 11.0056 9.34336C11.0654 9.36548 11.1197 9.40039 11.1647 9.44559C11.2097 9.4908 11.2444 9.54527 11.2663 9.6052C11.2882 9.66513 11.2967 9.72906 11.2914 9.79264C11.2861 9.85622 11.2671 9.91789 11.2356 9.97336L10.4856 11.3334C10.2589 11.7401 9.91889 11.8867 9.46556 11.7734Z" fill="#1755F4"/>
<path d="M30.8433 8.88096L28.5633 8.88494C28.3092 8.88538 28.1036 9.09169 28.1041 9.34574L28.1268 22.3857C28.1273 22.6398 28.3336 22.8454 28.5876 22.8449L30.8676 22.8409C31.1217 22.8405 31.3273 22.6342 31.3268 22.3801L31.3041 9.34016C31.3036 9.08611 31.0973 8.88052 30.8433 8.88096Z" fill="#1755F4"/>
<path d="M174.345 13.4028L174.405 19.7728C174.409 19.9732 174.482 20.1662 174.611 20.3192C174.74 20.4723 174.918 20.576 175.115 20.6128C175.902 20.7594 176.675 20.6895 177.435 20.4028C177.498 20.3781 177.568 20.3778 177.629 20.402C177.691 20.4263 177.74 20.4732 177.765 20.5328L177.955 20.9628C177.989 21.0362 177.975 21.0928 177.915 21.1328C174.955 23.1428 172.715 21.6828 172.815 18.2228C172.862 16.6094 172.889 15.0195 172.895 13.4528C172.895 13.0328 172.695 12.7728 172.295 12.6728C172.162 12.6328 172.025 12.6195 171.885 12.6328C171.797 12.6422 171.706 12.6289 171.623 12.594C171.539 12.5591 171.464 12.5037 171.405 12.4328C171.219 12.1928 171.179 11.9794 171.285 11.7928C171.372 11.6194 171.512 11.5228 171.705 11.5028C171.992 11.4761 172.259 11.4061 172.505 11.2928C172.945 11.0928 173.065 10.7761 172.865 10.3428C172.739 10.0561 172.742 9.79947 172.875 9.57281C173.602 8.32614 174.032 8.42278 174.165 9.86278C174.199 10.2228 174.232 10.5494 174.265 10.8428C174.305 11.2294 174.522 11.4194 174.915 11.4128L176.645 11.4028C176.965 11.3962 177.129 11.5528 177.135 11.8728L177.145 12.2028C177.159 12.4761 177.029 12.6128 176.755 12.6128L175.105 12.6328C174.592 12.6395 174.339 12.8962 174.345 13.4028Z" fill="white"/>
<path d="M146.115 15.9325C146.25 15.9295 146.383 15.896 146.502 15.8343C146.622 15.7727 146.727 15.6846 146.808 15.5768C146.889 15.4689 146.944 15.344 146.97 15.2116C146.995 15.0793 146.99 14.9428 146.955 14.8125C146.402 12.7325 144.842 12.2592 142.275 13.3926C142.214 13.4187 142.146 13.4294 142.08 13.4235C142.013 13.4176 141.948 13.3955 141.892 13.359C141.836 13.3225 141.789 13.2727 141.757 13.214C141.724 13.1554 141.707 13.0896 141.705 13.0226V12.6125C141.712 12.3992 141.809 12.2459 141.995 12.1526C145.455 10.4526 148.695 11.4925 148.485 15.7425C148.392 17.4825 148.369 19.0625 148.415 20.4825C148.455 21.8092 147.815 22.3959 146.495 22.2425C144.915 22.0492 143.839 21.9192 143.265 21.8525C141.972 21.6992 141.182 20.9859 140.895 19.7126C140.215 16.6926 143.955 15.9725 146.115 15.9325ZM146.995 20.2225L146.895 17.8225C146.892 17.7319 146.87 17.6429 146.832 17.5606C146.793 17.4784 146.739 17.4045 146.672 17.3432C146.605 17.2819 146.527 17.2344 146.442 17.2034C146.357 17.1724 146.266 17.1585 146.175 17.1625L145.255 17.2026C144.432 17.2384 143.651 17.4596 143.083 17.8177C142.515 18.1758 142.207 18.6415 142.225 19.1125L142.235 19.3326C142.244 19.5665 142.333 19.7948 142.498 20.0044C142.662 20.2141 142.899 20.4008 143.194 20.5541C143.49 20.7074 143.838 20.8241 144.219 20.8976C144.6 20.9711 145.007 21 145.415 20.9825L146.335 20.9425C146.426 20.9387 146.515 20.917 146.597 20.8787C146.68 20.8404 146.753 20.7863 146.815 20.7194C146.876 20.6525 146.924 20.5743 146.955 20.489C146.986 20.4037 146.999 20.3131 146.995 20.2225Z" fill="white"/>
<path d="M162.636 16.7829C162.557 16.7838 162.479 16.8024 162.408 16.8372C162.337 16.8721 162.275 16.9222 162.227 16.9839C162.179 17.0456 162.145 17.1172 162.13 17.1933C162.114 17.2694 162.116 17.3479 162.136 17.4229C163.009 20.7296 165.442 21.5096 169.436 19.763C169.446 19.7595 169.458 19.758 169.469 19.7587C169.48 19.7594 169.49 19.7621 169.5 19.7669C169.509 19.7716 169.517 19.7781 169.524 19.7861C169.53 19.794 169.534 19.8032 169.536 19.8129C169.716 20.5129 169.542 21.0596 169.016 21.453C168.95 21.4992 168.875 21.533 168.796 21.5529C164.222 22.7663 161.589 21.4462 160.896 17.5929C159.596 10.3529 170.286 8.66293 169.916 16.2329C169.896 16.6196 169.692 16.8129 169.306 16.8129L162.636 16.7829ZM162.566 15.643L168.266 15.4429C168.285 15.4417 168.305 15.4365 168.322 15.4278C168.34 15.4191 168.356 15.4069 168.369 15.392C168.382 15.3772 168.392 15.3599 168.398 15.3411C168.404 15.3224 168.407 15.3026 168.406 15.2829V15.1229C168.379 14.4324 168.051 13.7814 167.492 13.3128C166.933 12.8441 166.19 12.596 165.426 12.6229H165.206C164.826 12.6359 164.452 12.7162 164.106 12.8595C163.76 13.0027 163.448 13.2059 163.188 13.4576C162.928 13.7093 162.725 14.0045 162.591 14.3262C162.456 14.648 162.394 14.9902 162.406 15.333L162.416 15.4929C162.416 15.5126 162.419 15.5322 162.427 15.5504C162.435 15.5686 162.446 15.5851 162.46 15.599C162.473 15.6129 162.49 15.624 162.508 15.6315C162.526 15.6391 162.546 15.643 162.566 15.643Z" fill="white"/>
</svg>
