<?xml version="1.0" encoding="UTF-8"?>
<svg xmlns:xodm="http://www.corel.com/coreldraw/odm/2003" xmlns="http://www.w3.org/2000/svg" xmlns:xlink="http://www.w3.org/1999/xlink" version="1.1" id="Layer_1" x="0px" y="0px" viewBox="0 0 2500 669" style="enable-background:new 0 0 2500 669;" xml:space="preserve">
<style type="text/css">
	.st0{fill-rule:evenodd;clip-rule:evenodd;fill:#1DA2B4;}
</style>
<g id="Layer_x0020_1">
	<g id="_2806188266256">
		<path class="st0" d="M2490.1,194.8c3.3,0,5.5,1.1,7.7,2.2c2.2,2.2,2.2,4.4,2.2,7.7v61.6c0,3.3-1.1,5.5-2.2,7.7    c-2.2,2.2-4.4,2.2-7.7,2.2h-53.9v246.4c0,3.3-1.1,5.5-2.2,7.7c-2.2,2.2-4.4,2.2-7.7,2.2H2346c-3.3,0-5.5-1.1-7.7-2.2    c-2.2-2.2-2.2-4.4-2.2-7.7V276.2h-53.9c-3.3,0-5.5-1.1-7.7-2.2c-2.2-2.2-2.2-4.4-2.2-7.7v-61.6c0-3.3,1.1-5.5,2.2-7.7    c2.2-2.2,4.4-2.2,7.7-2.2h53.9v-86.9c0-3.3,1.1-5.5,2.2-7.7c2.2-2.2,4.4-2.2,7.7-2.2h80.3c3.3,0,5.5,1.1,7.7,2.2    c2.2,2.2,2.2,4.4,2.2,7.7v86.9H2490.1z"></path>
		<path class="st0" d="M2258,358.7c0,15.4-1.1,26.4-4.4,33s-9.9,9.9-19.8,9.9h-200.2c4.4,18.7,14.3,31.9,28.6,41.8    c14.3,8.8,33,13.2,56.1,13.2c11,0,22-1.1,31.9-4.4c9.9-3.3,20.9-8.8,31.9-15.4c2.2-2.2,4.4-2.2,7.7-2.2c2.2,0,4.4,1.1,7.7,4.4    l35.2,34.1c2.2,2.2,2.2,4.4,2.2,6.6s-1.1,5.5-4.4,7.7c-16.5,16.5-35.2,28.6-56.1,38.5c-20.9,8.8-42.9,13.2-67.1,13.2    c-34.1,0-63.8-7.7-91.3-23.1c-26.4-15.4-47.3-36.3-61.6-62.7c-14.3-26.4-22-55-22-86.9s7.7-60.5,22-86.9    c14.3-26.4,35.2-47.3,60.5-61.6c25.3-15.4,53.9-23.1,85.8-23.1c30.8,0,58.3,7.7,82.5,22c24.2,15.4,41.8,35.2,55,60.5    c13.2,25.3,19.8,52.8,19.8,83.6V358.7z M2101.8,278.4c-17.6,0-33,5.5-45.1,15.4c-12.1,9.9-20.9,24.2-24.2,41.8h136.4    c-3.3-18.7-11-33-23.1-41.8C2133.7,283.9,2119.4,278.4,2101.8,278.4z"></path>
		<path class="st0" d="M1888.5,200.3c3.3,0,5.5,1.1,7.7,2.2c2.2,2.2,2.2,4.4,2.2,7.7v321.2c0,33-8.8,60.5-26.4,80.3    c-17.6,20.9-39.6,35.2-67.1,44c-26.4,8.8-53.9,13.2-82.5,13.2c-28.6,0-55-4.4-81.4-12.1c-25.3-7.7-47.3-18.7-64.9-31.9    c-2.2-2.2-4.4-4.4-4.4-7.7c0-2.2,0-4.4,1.1-6.6l26.4-47.3c2.2-3.3,5.5-5.5,7.7-5.5s4.4,0,5.5,1.1c15.4,8.8,30.8,15.4,47.3,19.8    s35.2,6.6,55,6.6c23.1,0,44-5.5,62.7-15.4s28.6-25.3,28.6-48.4v-31.9c-26.4,29.7-58.3,45.1-96.8,45.1c-29.7,0-57.2-7.7-81.4-23.1    c-24.2-15.4-42.9-36.3-57.2-62.7c-13.2-26.4-19.8-55-19.8-85.8s6.6-59.4,19.8-85.8c14.3-26.4,33-47.3,57.2-62.7    c24.2-15.4,51.7-23.1,81.4-23.1c36.3,0,68.2,14.3,94.6,44l2.2-26.4c1.1-6.6,4.4-9.9,9.9-9.9h73.7L1888.5,200.3z M1721.3,443.4    c20.9,0,38.5-7.7,52.8-24.2c14.3-15.4,22-34.1,22-55s-7.7-39.6-22-55c-14.3-15.4-31.9-24.2-52.8-24.2c-20.9,0-38.5,7.7-52.8,23.1    c-14.3,15.4-22,33-22,55c0,22,6.6,40.7,20.9,56.1c14.3,15.4,31.9,22,53.9,22V443.4z"></path>
		<path class="st0" d="M1516.7,194.8c3.3,0,5.5,1.1,7.7,2.2c2.2,2.2,2.2,4.4,2.2,7.7v61.6c0,3.3-1.1,5.5-2.2,7.7    c-2.2,2.2-4.4,2.2-7.7,2.2h-53.9v246.4c0,3.3-1.1,5.5-2.2,7.7c-2.2,2.2-4.4,2.2-7.7,2.2h-80.3c-3.3,0-5.5-1.1-7.7-2.2    c-2.2-2.2-2.2-4.4-2.2-7.7V276.2h-53.9c-3.3,0-5.5-1.1-7.7-2.2c-2.2-2.2-2.2-4.4-2.2-7.7v-61.6c0-3.3,1.1-5.5,2.2-7.7    c2.2-2.2,4.4-2.2,7.7-2.2h53.9v-86.9c0-3.3,1.1-5.5,2.2-7.7c2.2-2.2,4.4-2.2,7.7-2.2h80.3c3.3,0,5.5,1.1,7.7,2.2    c2.2,2.2,2.2,4.4,2.2,7.7v86.9H1516.7z"></path>
		<path class="st0" d="M1209.9,167.3c-15.4,0-28.6-5.5-38.5-15.4c-9.9-11-15.4-24.2-15.4-38.5c0-15.4,5.5-28.6,15.4-38.5    c9.9-11,23.1-16.5,38.5-16.5s28.6,5.5,38.5,16.5s15.4,23.1,15.4,38.5s-5.5,27.5-15.4,38.5C1238.5,162.9,1225.3,167.3,1209.9,167.3    z M1159.3,204.7c0-3.3,1.1-5.5,2.2-7.7c2.2-2.2,4.4-2.2,7.7-2.2h80.3c3.3,0,5.5,1.1,7.7,2.2c2.2,2.2,2.2,4.4,2.2,7.7v319    c0,3.3-1.1,5.5-2.2,7.7c-2.2,2.2-4.4,2.2-7.7,2.2h-80.3c-3.3,0-5.5-1.1-7.7-2.2c-2.2-2.2-2.2-4.4-2.2-7.7V204.7z"></path>
		<path class="st0" d="M1029.5,279.5c25.3,6.6,46.2,20.9,64.9,41.8s27.5,46.2,27.5,75.9c0,46.2-14.3,80.3-44,103.4    c-28.6,23.1-72.6,34.1-132,34.1H779.8c-3.3,0-5.5-1.1-7.7-2.2c-2.2-2.2-2.2-4.4-2.2-7.7V67.2c0-3.3,1.1-5.5,2.2-7.7    c2.2-2.2,4.4-3.3,7.7-3.3h165c29.7,0,55,5.5,75.9,16.5c22,11,37.4,25.3,48.4,44s16.5,39.6,16.5,62.7c0,24.2-5.5,44-16.5,61.6    s-24.2,29.7-40.7,37.4L1029.5,279.5z M988.8,193.7c0-28.6-17.6-44-52.8-44h-61.6V241H936c16.5,0,29.7-4.4,39.6-12.1    c9.9-7.7,14.3-19.8,14.3-36.3L988.8,193.7z M949.2,441.2c20.9,0,37.4-4.4,49.5-14.3c12.1-9.9,18.7-24.2,18.7-42.9    s-6.6-31.9-18.7-40.7c-12.1-8.8-28.6-13.2-49.5-13.2h-75.9v112.2h75.9V441.2z"></path>
		<path class="st0" d="M193.6,14.4c8.8-8.8,20.9-14.3,33-14.3H308c9.9,0,15.4,12.1,8.8,19.8L156.2,191.5h89.1l90.2,95.7H156.2    l179.3,191.4H227.7c-12.1,0-24.2-5.5-33-14.3L13.2,270.7c-16.5-17.6-16.5-44,0-61.6L194.7,15.5L193.6,14.4z"></path>
		<path class="st0" d="M443.2,654.6c-8.8,8.8-20.9,14.3-33,14.3h-81.4c-9.9,0-15.4-12.1-8.8-19.8l160.6-171.6h-89.1l-90.2-95.7    h179.3L301.4,190.4h107.8c12.1,0,24.2,5.5,33,14.3l181.5,193.6c16.5,17.6,16.5,44,0,61.6L442.1,653.5L443.2,654.6z"></path>
	</g>
</g>
</svg>
